%TF.GenerationSoftware,KiCad,Pcbnew,6.0.11-3.fc37*%
%TF.CreationDate,2024-04-07T15:32:32-04:00*%
%TF.ProjectId,Controller_T4,436f6e74-726f-46c6-9c65-725f54342e6b,rev?*%
%TF.SameCoordinates,Original*%
%TF.FileFunction,Soldermask,Bot*%
%TF.FilePolarity,Negative*%
%FSLAX46Y46*%
G04 Gerber Fmt 4.6, Leading zero omitted, Abs format (unit mm)*
G04 Created by KiCad (PCBNEW 6.0.11-3.fc37) date 2024-04-07 15:32:32*
%MOMM*%
%LPD*%
G01*
G04 APERTURE LIST*
%ADD10R,1.700000X1.700000*%
%ADD11O,1.700000X1.700000*%
%ADD12C,1.600000*%
%ADD13R,1.755000X1.755000*%
%ADD14C,1.755000*%
%ADD15C,0.800000*%
%ADD16C,1.000000*%
G04 APERTURE END LIST*
D10*
%TO.C,J3*%
X160945000Y-94000000D03*
D11*
X158390000Y-94000000D03*
X155850000Y-94000000D03*
X153310000Y-94000000D03*
X150770000Y-94000000D03*
X148230000Y-94000000D03*
X145690000Y-94000000D03*
X143150000Y-94000000D03*
X140610000Y-94000000D03*
X138070000Y-94000000D03*
X135530000Y-94000000D03*
X132990000Y-94000000D03*
X130450000Y-94000000D03*
X127910000Y-94000000D03*
X125370000Y-94000000D03*
X122830000Y-94000000D03*
%TD*%
D12*
%TO.C,U1*%
X160945000Y-101160000D03*
X158405000Y-101160000D03*
X155865000Y-101160000D03*
X153325000Y-101160000D03*
X150785000Y-101160000D03*
X148245000Y-101160000D03*
X145705000Y-101160000D03*
X143165000Y-101160000D03*
X140625000Y-101160000D03*
X138085000Y-101160000D03*
X135545000Y-101160000D03*
X133005000Y-101160000D03*
X130465000Y-101160000D03*
X127925000Y-101160000D03*
X127925000Y-103700000D03*
X127925000Y-106240000D03*
X127925000Y-108780000D03*
X127925000Y-111320000D03*
X127925000Y-113860000D03*
X127925000Y-116400000D03*
X130465000Y-116400000D03*
X133005000Y-116400000D03*
X135545000Y-116400000D03*
X138085000Y-116400000D03*
X140625000Y-116400000D03*
X143165000Y-116400000D03*
X145705000Y-116400000D03*
X148245000Y-116400000D03*
X150785000Y-116400000D03*
X153325000Y-116400000D03*
X155865000Y-116400000D03*
X158405000Y-116400000D03*
X160945000Y-116400000D03*
%TD*%
D10*
%TO.C,J1*%
X106000000Y-99500000D03*
D11*
X108540000Y-99500000D03*
X106000000Y-102040000D03*
X108540000Y-102040000D03*
X106000000Y-104580000D03*
X108540000Y-104580000D03*
X106000000Y-107120000D03*
X108540000Y-107120000D03*
X106000000Y-109660000D03*
X108540000Y-109660000D03*
X106000000Y-112200000D03*
X108540000Y-112200000D03*
X106000000Y-114740000D03*
X108540000Y-114740000D03*
X106000000Y-117280000D03*
X108540000Y-117280000D03*
X106000000Y-119820000D03*
X108540000Y-119820000D03*
X106000000Y-122360000D03*
X108540000Y-122360000D03*
%TD*%
D10*
%TO.C,J6*%
X106000000Y-95250000D03*
D11*
X108540000Y-95250000D03*
%TD*%
D13*
%TO.C,J4*%
X109145000Y-88250000D03*
D14*
X106605000Y-88250000D03*
%TD*%
D10*
%TO.C,J2*%
X122830000Y-87940000D03*
D11*
X122830000Y-85400000D03*
X125370000Y-87940000D03*
X125370000Y-85400000D03*
X127910000Y-87940000D03*
X127910000Y-85400000D03*
X130450000Y-87940000D03*
X130450000Y-85400000D03*
X132990000Y-87940000D03*
X132990000Y-85400000D03*
X135530000Y-87940000D03*
X135530000Y-85400000D03*
X138070000Y-87940000D03*
X138070000Y-85400000D03*
X140610000Y-87940000D03*
X140610000Y-85400000D03*
X143150000Y-87940000D03*
X143150000Y-85400000D03*
X145690000Y-87940000D03*
X145690000Y-85400000D03*
%TD*%
D13*
%TO.C,J5*%
X163395000Y-88250000D03*
D14*
X160855000Y-88250000D03*
%TD*%
D15*
X130475000Y-103975000D03*
X117357500Y-99885000D03*
X143341875Y-120157500D03*
D16*
X154760000Y-119350000D03*
D15*
X122337500Y-104970000D03*
X122337500Y-117600000D03*
X148511875Y-120147500D03*
X138111875Y-120007500D03*
X122337500Y-100770000D03*
X118720000Y-87460000D03*
X118720000Y-92810000D03*
X122337500Y-113370000D03*
D16*
X164340000Y-123930000D03*
D15*
X122310000Y-121850000D03*
X133101875Y-120077500D03*
X119330000Y-90150000D03*
X122337500Y-109140000D03*
X133000000Y-105500000D03*
X117357500Y-104010000D03*
X117357500Y-108235000D03*
X135420000Y-107490000D03*
X138085000Y-110055000D03*
X117357500Y-112425000D03*
D16*
X154780000Y-124440000D03*
X115670000Y-86110000D03*
X156500000Y-86000000D03*
D15*
X141445625Y-120147500D03*
X146610000Y-120157500D03*
X122337500Y-111510000D03*
X136203750Y-120077500D03*
X122337500Y-103100000D03*
X131181875Y-120017500D03*
X122322500Y-119980000D03*
X122337500Y-98930000D03*
X122337500Y-107290000D03*
X122337500Y-115680000D03*
X140625000Y-112605000D03*
X117357500Y-116690000D03*
X112860000Y-117200000D03*
X132181875Y-125007500D03*
X112850000Y-119740000D03*
X137163750Y-125057500D03*
X125150000Y-100140000D03*
M02*
