%TF.GenerationSoftware,KiCad,Pcbnew,6.0.11-3.fc37*%
%TF.CreationDate,2024-04-07T15:32:31-04:00*%
%TF.ProjectId,Controller_T4,436f6e74-726f-46c6-9c65-725f54342e6b,rev?*%
%TF.SameCoordinates,Original*%
%TF.FileFunction,Copper,L1,Top*%
%TF.FilePolarity,Positive*%
%FSLAX46Y46*%
G04 Gerber Fmt 4.6, Leading zero omitted, Abs format (unit mm)*
G04 Created by KiCad (PCBNEW 6.0.11-3.fc37) date 2024-04-07 15:32:31*
%MOMM*%
%LPD*%
G01*
G04 APERTURE LIST*
G04 Aperture macros list*
%AMRoundRect*
0 Rectangle with rounded corners*
0 $1 Rounding radius*
0 $2 $3 $4 $5 $6 $7 $8 $9 X,Y pos of 4 corners*
0 Add a 4 corners polygon primitive as box body*
4,1,4,$2,$3,$4,$5,$6,$7,$8,$9,$2,$3,0*
0 Add four circle primitives for the rounded corners*
1,1,$1+$1,$2,$3*
1,1,$1+$1,$4,$5*
1,1,$1+$1,$6,$7*
1,1,$1+$1,$8,$9*
0 Add four rect primitives between the rounded corners*
20,1,$1+$1,$2,$3,$4,$5,0*
20,1,$1+$1,$4,$5,$6,$7,0*
20,1,$1+$1,$6,$7,$8,$9,0*
20,1,$1+$1,$8,$9,$2,$3,0*%
G04 Aperture macros list end*
%TA.AperFunction,SMDPad,CuDef*%
%ADD10RoundRect,0.150000X0.587500X0.150000X-0.587500X0.150000X-0.587500X-0.150000X0.587500X-0.150000X0*%
%TD*%
%TA.AperFunction,SMDPad,CuDef*%
%ADD11RoundRect,0.200000X-0.200000X-0.275000X0.200000X-0.275000X0.200000X0.275000X-0.200000X0.275000X0*%
%TD*%
%TA.AperFunction,SMDPad,CuDef*%
%ADD12RoundRect,0.200000X-0.275000X0.200000X-0.275000X-0.200000X0.275000X-0.200000X0.275000X0.200000X0*%
%TD*%
%TA.AperFunction,SMDPad,CuDef*%
%ADD13RoundRect,0.250000X-0.475000X0.250000X-0.475000X-0.250000X0.475000X-0.250000X0.475000X0.250000X0*%
%TD*%
%TA.AperFunction,ComponentPad*%
%ADD14R,1.700000X1.700000*%
%TD*%
%TA.AperFunction,ComponentPad*%
%ADD15O,1.700000X1.700000*%
%TD*%
%TA.AperFunction,SMDPad,CuDef*%
%ADD16RoundRect,0.237500X-0.300000X-0.237500X0.300000X-0.237500X0.300000X0.237500X-0.300000X0.237500X0*%
%TD*%
%TA.AperFunction,ComponentPad*%
%ADD17C,1.600000*%
%TD*%
%TA.AperFunction,SMDPad,CuDef*%
%ADD18RoundRect,0.150000X-0.150000X0.587500X-0.150000X-0.587500X0.150000X-0.587500X0.150000X0.587500X0*%
%TD*%
%TA.AperFunction,ComponentPad*%
%ADD19R,1.755000X1.755000*%
%TD*%
%TA.AperFunction,ComponentPad*%
%ADD20C,1.755000*%
%TD*%
%TA.AperFunction,SMDPad,CuDef*%
%ADD21RoundRect,0.250000X0.475000X-0.250000X0.475000X0.250000X-0.475000X0.250000X-0.475000X-0.250000X0*%
%TD*%
%TA.AperFunction,SMDPad,CuDef*%
%ADD22RoundRect,0.150000X0.512500X0.150000X-0.512500X0.150000X-0.512500X-0.150000X0.512500X-0.150000X0*%
%TD*%
%TA.AperFunction,SMDPad,CuDef*%
%ADD23R,3.700000X1.200000*%
%TD*%
%TA.AperFunction,ViaPad*%
%ADD24C,0.800000*%
%TD*%
%TA.AperFunction,ViaPad*%
%ADD25C,1.000000*%
%TD*%
%TA.AperFunction,Conductor*%
%ADD26C,0.250000*%
%TD*%
%TA.AperFunction,Conductor*%
%ADD27C,0.500000*%
%TD*%
%TA.AperFunction,Conductor*%
%ADD28C,0.350000*%
%TD*%
G04 APERTURE END LIST*
D10*
%TO.P,D4,1,K*%
%TO.N,Earth*%
X120855000Y-104965000D03*
%TO.P,D4,2,A*%
%TO.N,+3.3V*%
X120855000Y-103065000D03*
%TO.P,D4,3,K*%
%TO.N,Net-(D4-Pad3)*%
X118980000Y-104015000D03*
%TD*%
D11*
%TO.P,R9,1*%
%TO.N,Net-(J1-Pad19)*%
X111195000Y-123620000D03*
%TO.P,R9,2*%
%TO.N,Net-(D9-Pad3)*%
X112845000Y-123620000D03*
%TD*%
D12*
%TO.P,R21,1*%
%TO.N,CCD:SPR*%
X138085000Y-96800000D03*
%TO.P,R21,2*%
%TO.N,Net-(R21-Pad2)*%
X138085000Y-98450000D03*
%TD*%
%TO.P,R16,1*%
%TO.N,CCD:ICG*%
X143165000Y-96800000D03*
%TO.P,R16,2*%
%TO.N,Net-(R16-Pad2)*%
X143165000Y-98450000D03*
%TD*%
D13*
%TO.P,C1,1*%
%TO.N,Net-(C1-Pad1)*%
X164350000Y-120610000D03*
%TO.P,C1,2*%
%TO.N,Earth*%
X164350000Y-122510000D03*
%TD*%
D10*
%TO.P,D2,1,K*%
%TO.N,Earth*%
X120855000Y-100770000D03*
%TO.P,D2,2,A*%
%TO.N,+3.3V*%
X120855000Y-98870000D03*
%TO.P,D2,3,K*%
%TO.N,Net-(D2-Pad3)*%
X118980000Y-99820000D03*
%TD*%
D14*
%TO.P,J3,1,Pin_1*%
%TO.N,Earth*%
X160945000Y-94000000D03*
D15*
%TO.P,J3,2,Pin_2*%
%TO.N,Net-(J3-Pad2)*%
X158390000Y-94000000D03*
%TO.P,J3,3,Pin_3*%
%TO.N,Net-(J3-Pad3)*%
X155850000Y-94000000D03*
%TO.P,J3,4,Pin_4*%
%TO.N,Net-(J3-Pad4)*%
X153310000Y-94000000D03*
%TO.P,J3,5,Pin_5*%
%TO.N,Net-(J3-Pad5)*%
X150770000Y-94000000D03*
%TO.P,J3,6,Pin_6*%
%TO.N,Earth*%
X148230000Y-94000000D03*
%TO.P,J3,7,Pin_7*%
%TO.N,CCD:CLK*%
X145690000Y-94000000D03*
%TO.P,J3,8,Pin_8*%
%TO.N,CCD:ICG*%
X143150000Y-94000000D03*
%TO.P,J3,9,Pin_9*%
%TO.N,CCD:SH*%
X140610000Y-94000000D03*
%TO.P,J3,10,Pin_10*%
%TO.N,CCD:SPR*%
X138070000Y-94000000D03*
%TO.P,J3,11,Pin_11*%
%TO.N,Net-(J3-Pad11)*%
X135530000Y-94000000D03*
%TO.P,J3,12,Pin_12*%
%TO.N,SPI:CS_CNVST*%
X132990000Y-94000000D03*
%TO.P,J3,13,Pin_13*%
%TO.N,SPI:SDO*%
X130450000Y-94000000D03*
%TO.P,J3,14,Pin_14*%
%TO.N,SPI:CLK*%
X127910000Y-94000000D03*
%TO.P,J3,15,Pin_15*%
%TO.N,SPI:SDI*%
X125370000Y-94000000D03*
%TO.P,J3,16,Pin_16*%
%TO.N,Earth*%
X122830000Y-94000000D03*
%TD*%
D11*
%TO.P,R10,1*%
%TO.N,Net-(J1-Pad17)*%
X111195000Y-121080000D03*
%TO.P,R10,2*%
%TO.N,Net-(D10-Pad3)*%
X112845000Y-121080000D03*
%TD*%
D16*
%TO.P,C3,1*%
%TO.N,/Vrefout*%
X115697500Y-92810000D03*
%TO.P,C3,2*%
%TO.N,Earth*%
X117422500Y-92810000D03*
%TD*%
D17*
%TO.P,U1,1,GND*%
%TO.N,Earth*%
X160945000Y-101160000D03*
%TO.P,U1,2,0_RX1_CRX2_CS1*%
%TO.N,Net-(R17-Pad2)*%
X158405000Y-101160000D03*
%TO.P,U1,3,1_TX1_CTX2_MISO1*%
%TO.N,Net-(R18-Pad2)*%
X155865000Y-101160000D03*
%TO.P,U1,4,2_OUT2*%
%TO.N,Net-(R22-Pad2)*%
X153325000Y-101160000D03*
%TO.P,U1,5,3_LRCLK2*%
%TO.N,Net-(R19-Pad2)*%
X150785000Y-101160000D03*
%TO.P,U1,6,4_BCLK2*%
%TO.N,Net-(R20-Pad2)*%
X148245000Y-101160000D03*
%TO.P,U1,7,5_IN2*%
X145705000Y-101160000D03*
%TO.P,U1,8,6_OUT1D*%
%TO.N,Net-(R16-Pad2)*%
X143165000Y-101160000D03*
%TO.P,U1,9,7_RX2_OUT1A*%
%TO.N,Net-(R13-Pad2)*%
X140625000Y-101160000D03*
%TO.P,U1,10,8_TX2_IN1*%
%TO.N,Net-(R21-Pad2)*%
X138085000Y-101160000D03*
%TO.P,U1,11,9_OUT1C*%
%TO.N,Net-(R23-Pad2)*%
X135545000Y-101160000D03*
%TO.P,U1,12,10_CS_MQSR*%
%TO.N,Net-(R15-Pad2)*%
X133005000Y-101160000D03*
%TO.P,U1,13,11_MOSI_CTX1*%
%TO.N,Net-(R12-Pad2)*%
X130465000Y-101160000D03*
%TO.P,U1,14,12_MISO_MQSL*%
%TO.N,SPI:SDO*%
X127925000Y-101160000D03*
%TO.P,U1,15,VBAT*%
%TO.N,unconnected-(U1-Pad15)*%
X127925000Y-103700000D03*
%TO.P,U1,16,3V3*%
%TO.N,unconnected-(U1-Pad16)*%
X127925000Y-106240000D03*
%TO.P,U1,17,GND*%
%TO.N,unconnected-(U1-Pad17)*%
X127925000Y-108780000D03*
%TO.P,U1,18,PROGRAM*%
%TO.N,unconnected-(U1-Pad18)*%
X127925000Y-111320000D03*
%TO.P,U1,19,ON_OFF*%
%TO.N,unconnected-(U1-Pad19)*%
X127925000Y-113860000D03*
%TO.P,U1,20,13_SCK_CRX1_LED*%
%TO.N,Net-(R14-Pad2)*%
X127925000Y-116400000D03*
%TO.P,U1,21,14_A0_TX3_SPDIF_OUT*%
%TO.N,Net-(D2-Pad3)*%
X130465000Y-116400000D03*
%TO.P,U1,22,15_A1_RX3_SPDIF_IN*%
%TO.N,Net-(D4-Pad3)*%
X133005000Y-116400000D03*
%TO.P,U1,23,16_A2_RX4_SCL1*%
%TO.N,Net-(D6-Pad3)*%
X135545000Y-116400000D03*
%TO.P,U1,24,17_A3_TX4_SDA1*%
%TO.N,Net-(D8-Pad3)*%
X138085000Y-116400000D03*
%TO.P,U1,25,18_A4_SDA0*%
%TO.N,Net-(D1-Pad3)*%
X140625000Y-116400000D03*
%TO.P,U1,26,19_A5_SCL0*%
%TO.N,Net-(D3-Pad3)*%
X143165000Y-116400000D03*
%TO.P,U1,27,20_A6_TX5_LRCLK1*%
%TO.N,Net-(D5-Pad3)*%
X145705000Y-116400000D03*
%TO.P,U1,28,21_A7_RX5_BCLK1*%
%TO.N,Net-(D7-Pad3)*%
X148245000Y-116400000D03*
%TO.P,U1,29,22_A8_CTX1*%
%TO.N,Net-(D10-Pad3)*%
X150785000Y-116400000D03*
%TO.P,U1,30,23_A9_CRX1_MCLK1*%
%TO.N,Net-(D9-Pad3)*%
X153325000Y-116400000D03*
%TO.P,U1,31,3V3*%
%TO.N,+3.3V*%
X155865000Y-116400000D03*
%TO.P,U1,32,GND*%
%TO.N,Earth*%
X158405000Y-116400000D03*
%TO.P,U1,33,VIN*%
%TO.N,Net-(C1-Pad1)*%
X160945000Y-116400000D03*
%TD*%
D12*
%TO.P,R11,1*%
%TO.N,Net-(C1-Pad1)*%
X156900000Y-120955000D03*
%TO.P,R11,2*%
%TO.N,+5V*%
X156900000Y-122605000D03*
%TD*%
D11*
%TO.P,R8,1*%
%TO.N,Net-(J1-Pad15)*%
X111195000Y-118540000D03*
%TO.P,R8,2*%
%TO.N,Net-(D7-Pad3)*%
X112845000Y-118540000D03*
%TD*%
D12*
%TO.P,R12,1*%
%TO.N,SPI:SDI*%
X130465000Y-96800000D03*
%TO.P,R12,2*%
%TO.N,Net-(R12-Pad2)*%
X130465000Y-98450000D03*
%TD*%
D14*
%TO.P,J1,1,Pin_1*%
%TO.N,Net-(J1-Pad1)*%
X106000000Y-99500000D03*
D15*
%TO.P,J1,2,Pin_2*%
%TO.N,Earth*%
X108540000Y-99500000D03*
%TO.P,J1,3,Pin_3*%
%TO.N,Net-(J1-Pad3)*%
X106000000Y-102040000D03*
%TO.P,J1,4,Pin_4*%
%TO.N,Earth*%
X108540000Y-102040000D03*
%TO.P,J1,5,Pin_5*%
%TO.N,Net-(J1-Pad5)*%
X106000000Y-104580000D03*
%TO.P,J1,6,Pin_6*%
%TO.N,Earth*%
X108540000Y-104580000D03*
%TO.P,J1,7,Pin_7*%
%TO.N,Net-(J1-Pad7)*%
X106000000Y-107120000D03*
%TO.P,J1,8,Pin_8*%
%TO.N,Earth*%
X108540000Y-107120000D03*
%TO.P,J1,9,Pin_9*%
%TO.N,Net-(J1-Pad9)*%
X106000000Y-109660000D03*
%TO.P,J1,10,Pin_10*%
%TO.N,Earth*%
X108540000Y-109660000D03*
%TO.P,J1,11,Pin_11*%
%TO.N,Net-(J1-Pad11)*%
X106000000Y-112200000D03*
%TO.P,J1,12,Pin_12*%
%TO.N,Earth*%
X108540000Y-112200000D03*
%TO.P,J1,13,Pin_13*%
%TO.N,Net-(J1-Pad13)*%
X106000000Y-114740000D03*
%TO.P,J1,14,Pin_14*%
%TO.N,Earth*%
X108540000Y-114740000D03*
%TO.P,J1,15,Pin_15*%
%TO.N,Net-(J1-Pad15)*%
X106000000Y-117280000D03*
%TO.P,J1,16,Pin_16*%
%TO.N,Earth*%
X108540000Y-117280000D03*
%TO.P,J1,17,Pin_17*%
%TO.N,Net-(J1-Pad17)*%
X106000000Y-119820000D03*
%TO.P,J1,18,Pin_18*%
%TO.N,Earth*%
X108540000Y-119820000D03*
%TO.P,J1,19,Pin_19*%
%TO.N,Net-(J1-Pad19)*%
X106000000Y-122360000D03*
%TO.P,J1,20,Pin_20*%
%TO.N,Earth*%
X108540000Y-122360000D03*
%TD*%
D11*
%TO.P,R5,1*%
%TO.N,Net-(J1-Pad5)*%
X111195000Y-105840000D03*
%TO.P,R5,2*%
%TO.N,Net-(D6-Pad3)*%
X112845000Y-105840000D03*
%TD*%
D12*
%TO.P,R22,1*%
%TO.N,Net-(J3-Pad4)*%
X153310000Y-96800000D03*
%TO.P,R22,2*%
%TO.N,Net-(R22-Pad2)*%
X153310000Y-98450000D03*
%TD*%
%TO.P,R20,1*%
%TO.N,CCD:CLK*%
X145705000Y-96800000D03*
%TO.P,R20,2*%
%TO.N,Net-(R20-Pad2)*%
X145705000Y-98450000D03*
%TD*%
D10*
%TO.P,D8,1,K*%
%TO.N,Earth*%
X120855000Y-113355000D03*
%TO.P,D8,2,A*%
%TO.N,+3.3V*%
X120855000Y-111455000D03*
%TO.P,D8,3,K*%
%TO.N,Net-(D8-Pad3)*%
X118980000Y-112405000D03*
%TD*%
D11*
%TO.P,R6,1*%
%TO.N,Net-(J1-Pad13)*%
X111195000Y-116000000D03*
%TO.P,R6,2*%
%TO.N,Net-(D5-Pad3)*%
X112845000Y-116000000D03*
%TD*%
D18*
%TO.P,D7,1,K*%
%TO.N,Earth*%
X138100000Y-121620000D03*
%TO.P,D7,2,A*%
%TO.N,+3.3V*%
X136200000Y-121620000D03*
%TO.P,D7,3,K*%
%TO.N,Net-(D7-Pad3)*%
X137150000Y-123495000D03*
%TD*%
D16*
%TO.P,C2,1*%
%TO.N,+5V*%
X115697500Y-87460000D03*
%TO.P,C2,2*%
%TO.N,Earth*%
X117422500Y-87460000D03*
%TD*%
D14*
%TO.P,J6,1,Pin_1*%
%TO.N,/Vrefout*%
X106000000Y-95250000D03*
D15*
%TO.P,J6,2,Pin_2*%
%TO.N,Earth*%
X108540000Y-95250000D03*
%TD*%
D18*
%TO.P,D5,1,K*%
%TO.N,Earth*%
X133100000Y-121570000D03*
%TO.P,D5,2,A*%
%TO.N,+3.3V*%
X131200000Y-121570000D03*
%TO.P,D5,3,K*%
%TO.N,Net-(D5-Pad3)*%
X132150000Y-123445000D03*
%TD*%
D12*
%TO.P,R17,1*%
%TO.N,Net-(J3-Pad2)*%
X158405000Y-96800000D03*
%TO.P,R17,2*%
%TO.N,Net-(R17-Pad2)*%
X158405000Y-98450000D03*
%TD*%
D19*
%TO.P,J4,1,1*%
%TO.N,+3.3V*%
X109145000Y-88250000D03*
D20*
%TO.P,J4,2,2*%
%TO.N,Earth*%
X106605000Y-88250000D03*
%TD*%
D21*
%TO.P,C5,1*%
%TO.N,+5V*%
X154750000Y-122650000D03*
%TO.P,C5,2*%
%TO.N,Earth*%
X154750000Y-120750000D03*
%TD*%
D18*
%TO.P,D9,1,K*%
%TO.N,Earth*%
X148520000Y-121670000D03*
%TO.P,D9,2,A*%
%TO.N,+3.3V*%
X146620000Y-121670000D03*
%TO.P,D9,3,K*%
%TO.N,Net-(D9-Pad3)*%
X147570000Y-123545000D03*
%TD*%
D22*
%TO.P,U2,1,NC*%
%TO.N,unconnected-(U2-Pad1)*%
X117977500Y-91110000D03*
%TO.P,U2,2,GND*%
%TO.N,Earth*%
X117977500Y-90160000D03*
%TO.P,U2,3,EN*%
%TO.N,+5V*%
X117977500Y-89210000D03*
%TO.P,U2,4,VIN*%
X115702500Y-89210000D03*
%TO.P,U2,5,VREF*%
%TO.N,/Vrefout*%
X115702500Y-91110000D03*
%TD*%
D12*
%TO.P,R23,1*%
%TO.N,Net-(J3-Pad11)*%
X135530000Y-96800000D03*
%TO.P,R23,2*%
%TO.N,Net-(R23-Pad2)*%
X135530000Y-98450000D03*
%TD*%
%TO.P,R18,1*%
%TO.N,Net-(J3-Pad3)*%
X155850000Y-96800000D03*
%TO.P,R18,2*%
%TO.N,Net-(R18-Pad2)*%
X155850000Y-98450000D03*
%TD*%
%TO.P,R14,1*%
%TO.N,SPI:CLK*%
X125150000Y-114765000D03*
%TO.P,R14,2*%
%TO.N,Net-(R14-Pad2)*%
X125150000Y-116415000D03*
%TD*%
D11*
%TO.P,R3,1*%
%TO.N,Net-(J1-Pad3)*%
X111195000Y-103300000D03*
%TO.P,R3,2*%
%TO.N,Net-(D4-Pad3)*%
X112845000Y-103300000D03*
%TD*%
D18*
%TO.P,D10,1,K*%
%TO.N,Earth*%
X143340000Y-121660000D03*
%TO.P,D10,2,A*%
%TO.N,+3.3V*%
X141440000Y-121660000D03*
%TO.P,D10,3,K*%
%TO.N,Net-(D10-Pad3)*%
X142390000Y-123535000D03*
%TD*%
D14*
%TO.P,J2,1,Pin_1*%
%TO.N,+3.3V*%
X122830000Y-87940000D03*
D15*
%TO.P,J2,2,Pin_2*%
%TO.N,Earth*%
X122830000Y-85400000D03*
%TO.P,J2,3,Pin_3*%
%TO.N,SPI:SDI*%
X125370000Y-87940000D03*
%TO.P,J2,4,Pin_4*%
%TO.N,Earth*%
X125370000Y-85400000D03*
%TO.P,J2,5,Pin_5*%
%TO.N,SPI:CLK*%
X127910000Y-87940000D03*
%TO.P,J2,6,Pin_6*%
%TO.N,Earth*%
X127910000Y-85400000D03*
%TO.P,J2,7,Pin_7*%
%TO.N,SPI:SDO*%
X130450000Y-87940000D03*
%TO.P,J2,8,Pin_8*%
%TO.N,Earth*%
X130450000Y-85400000D03*
%TO.P,J2,9,Pin_9*%
%TO.N,SPI:CS_CNVST*%
X132990000Y-87940000D03*
%TO.P,J2,10,Pin_10*%
%TO.N,Earth*%
X132990000Y-85400000D03*
%TO.P,J2,11,Pin_11*%
%TO.N,+3.3V*%
X135530000Y-87940000D03*
%TO.P,J2,12,Pin_12*%
%TO.N,Earth*%
X135530000Y-85400000D03*
%TO.P,J2,13,Pin_13*%
%TO.N,CCD:SPR*%
X138070000Y-87940000D03*
%TO.P,J2,14,Pin_14*%
%TO.N,Earth*%
X138070000Y-85400000D03*
%TO.P,J2,15,Pin_15*%
%TO.N,CCD:SH*%
X140610000Y-87940000D03*
%TO.P,J2,16,Pin_16*%
%TO.N,Earth*%
X140610000Y-85400000D03*
%TO.P,J2,17,Pin_17*%
%TO.N,CCD:ICG*%
X143150000Y-87940000D03*
%TO.P,J2,18,Pin_18*%
%TO.N,Earth*%
X143150000Y-85400000D03*
%TO.P,J2,19,Pin_19*%
%TO.N,CCD:CLK*%
X145690000Y-87940000D03*
%TO.P,J2,20,Pin_20*%
%TO.N,Earth*%
X145690000Y-85400000D03*
%TD*%
D11*
%TO.P,R1,1*%
%TO.N,Net-(J1-Pad1)*%
X111195000Y-100760000D03*
%TO.P,R1,2*%
%TO.N,Net-(D2-Pad3)*%
X112845000Y-100760000D03*
%TD*%
D19*
%TO.P,J5,1,1*%
%TO.N,+5V*%
X163395000Y-88250000D03*
D20*
%TO.P,J5,2,2*%
%TO.N,Earth*%
X160855000Y-88250000D03*
%TD*%
D23*
%TO.P,L1,1,1*%
%TO.N,Net-(C1-Pad1)*%
X160620000Y-120600000D03*
%TO.P,L1,2,2*%
%TO.N,+5V*%
X160620000Y-123400000D03*
%TD*%
D12*
%TO.P,R13,1*%
%TO.N,CCD:SH*%
X140625000Y-96800000D03*
%TO.P,R13,2*%
%TO.N,Net-(R13-Pad2)*%
X140625000Y-98450000D03*
%TD*%
D11*
%TO.P,R7,1*%
%TO.N,Net-(J1-Pad7)*%
X111195000Y-108380000D03*
%TO.P,R7,2*%
%TO.N,Net-(D8-Pad3)*%
X112845000Y-108380000D03*
%TD*%
D10*
%TO.P,D6,1,K*%
%TO.N,Earth*%
X120855000Y-109160000D03*
%TO.P,D6,2,A*%
%TO.N,+3.3V*%
X120855000Y-107260000D03*
%TO.P,D6,3,K*%
%TO.N,Net-(D6-Pad3)*%
X118980000Y-108210000D03*
%TD*%
D11*
%TO.P,R2,1*%
%TO.N,Net-(J1-Pad9)*%
X111195000Y-110920000D03*
%TO.P,R2,2*%
%TO.N,Net-(D1-Pad3)*%
X112845000Y-110920000D03*
%TD*%
D12*
%TO.P,R19,1*%
%TO.N,Net-(J3-Pad5)*%
X150770000Y-96800000D03*
%TO.P,R19,2*%
%TO.N,Net-(R19-Pad2)*%
X150770000Y-98450000D03*
%TD*%
D11*
%TO.P,R4,1*%
%TO.N,Net-(J1-Pad11)*%
X111195000Y-113460000D03*
%TO.P,R4,2*%
%TO.N,Net-(D3-Pad3)*%
X112845000Y-113460000D03*
%TD*%
D12*
%TO.P,R15,1*%
%TO.N,SPI:CS_CNVST*%
X133005000Y-96800000D03*
%TO.P,R15,2*%
%TO.N,Net-(R15-Pad2)*%
X133005000Y-98450000D03*
%TD*%
D10*
%TO.P,D1,1,K*%
%TO.N,Earth*%
X120855000Y-117630000D03*
%TO.P,D1,2,A*%
%TO.N,+3.3V*%
X120855000Y-115730000D03*
%TO.P,D1,3,K*%
%TO.N,Net-(D1-Pad3)*%
X118980000Y-116680000D03*
%TD*%
%TO.P,D3,1,K*%
%TO.N,Earth*%
X120810000Y-121870000D03*
%TO.P,D3,2,A*%
%TO.N,+3.3V*%
X120810000Y-119970000D03*
%TO.P,D3,3,K*%
%TO.N,Net-(D3-Pad3)*%
X118935000Y-120920000D03*
%TD*%
D24*
%TO.N,Net-(D2-Pad3)*%
X130475000Y-103975000D03*
X117357500Y-99885000D03*
%TO.N,Earth*%
X143341875Y-120157500D03*
D25*
X154760000Y-119350000D03*
D24*
X122337500Y-104970000D03*
X122337500Y-117600000D03*
X148511875Y-120147500D03*
X138111875Y-120007500D03*
X122337500Y-100770000D03*
X118720000Y-87460000D03*
X118720000Y-92810000D03*
X122337500Y-113370000D03*
D25*
X164340000Y-123930000D03*
D24*
X122310000Y-121850000D03*
X133101875Y-120077500D03*
X119330000Y-90150000D03*
X122337500Y-109140000D03*
%TO.N,Net-(D4-Pad3)*%
X133000000Y-105500000D03*
X117357500Y-104010000D03*
%TO.N,Net-(D6-Pad3)*%
X117357500Y-108235000D03*
X135420000Y-107490000D03*
%TO.N,Net-(D8-Pad3)*%
X138085000Y-110055000D03*
X117357500Y-112425000D03*
D25*
%TO.N,+5V*%
X154780000Y-124440000D03*
X115670000Y-86110000D03*
X156500000Y-86000000D03*
D24*
%TO.N,+3.3V*%
X141445625Y-120147500D03*
X146610000Y-120157500D03*
X122337500Y-111510000D03*
X136203750Y-120077500D03*
X122337500Y-103100000D03*
X131181875Y-120017500D03*
X122322500Y-119980000D03*
X122337500Y-98930000D03*
X122337500Y-107290000D03*
X122337500Y-115680000D03*
%TO.N,Net-(D1-Pad3)*%
X140625000Y-112605000D03*
X117357500Y-116690000D03*
%TO.N,Net-(D5-Pad3)*%
X112860000Y-117200000D03*
X132181875Y-125007500D03*
%TO.N,Net-(D7-Pad3)*%
X112850000Y-119740000D03*
X137163750Y-125057500D03*
%TO.N,SPI:CLK*%
X125150000Y-100140000D03*
%TD*%
D26*
%TO.N,Net-(D2-Pad3)*%
X130465000Y-103985000D02*
X130465000Y-116400000D01*
X117357500Y-99885000D02*
X118915000Y-99885000D01*
X130475000Y-103975000D02*
X130465000Y-103985000D01*
X112845000Y-100760000D02*
X116482500Y-100760000D01*
X118915000Y-99885000D02*
X118980000Y-99820000D01*
X116482500Y-100760000D02*
X117357500Y-99885000D01*
D27*
%TO.N,Earth*%
X154750000Y-120750000D02*
X154750000Y-119360000D01*
D26*
X117987500Y-90150000D02*
X117977500Y-90160000D01*
X154750000Y-119360000D02*
X154760000Y-119350000D01*
X138100000Y-120019375D02*
X138111875Y-120007500D01*
X118720000Y-92810000D02*
X117422500Y-92810000D01*
X120830000Y-121850000D02*
X120810000Y-121870000D01*
X133100000Y-121570000D02*
X133100000Y-120079375D01*
X118720000Y-87460000D02*
X117422500Y-87460000D01*
X122307500Y-117630000D02*
X122337500Y-117600000D01*
X120855000Y-113355000D02*
X122322500Y-113355000D01*
X133100000Y-120079375D02*
X133101875Y-120077500D01*
X148511875Y-120147500D02*
X148511875Y-121661875D01*
X138100000Y-121620000D02*
X138100000Y-120019375D01*
X122332500Y-104965000D02*
X122337500Y-104970000D01*
X120855000Y-104965000D02*
X122332500Y-104965000D01*
X122317500Y-109160000D02*
X122337500Y-109140000D01*
X164350000Y-123920000D02*
X164340000Y-123930000D01*
X122310000Y-121850000D02*
X120830000Y-121850000D01*
D27*
X164350000Y-122510000D02*
X164350000Y-123920000D01*
D26*
X120855000Y-117630000D02*
X122307500Y-117630000D01*
X119330000Y-90150000D02*
X117987500Y-90150000D01*
X143340000Y-121660000D02*
X143340000Y-120159375D01*
X148511875Y-121661875D02*
X148520000Y-121670000D01*
X143340000Y-120159375D02*
X143341875Y-120157500D01*
X120855000Y-100770000D02*
X122337500Y-100770000D01*
X122322500Y-113355000D02*
X122337500Y-113370000D01*
X120855000Y-109160000D02*
X122317500Y-109160000D01*
%TO.N,Net-(D4-Pad3)*%
X118975000Y-104010000D02*
X118980000Y-104015000D01*
X116647500Y-103300000D02*
X117357500Y-104010000D01*
X133005000Y-105505000D02*
X133005000Y-116400000D01*
X117357500Y-104010000D02*
X118975000Y-104010000D01*
X133000000Y-105500000D02*
X133005000Y-105505000D01*
X112845000Y-103300000D02*
X116647500Y-103300000D01*
%TO.N,Net-(D6-Pad3)*%
X112845000Y-105840000D02*
X114962500Y-105840000D01*
X135420000Y-107490000D02*
X135545000Y-107615000D01*
X135545000Y-107615000D02*
X135545000Y-116400000D01*
X118955000Y-108235000D02*
X118980000Y-108210000D01*
X114962500Y-105840000D02*
X117357500Y-108235000D01*
X117357500Y-108235000D02*
X118955000Y-108235000D01*
%TO.N,Net-(D8-Pad3)*%
X118960000Y-112425000D02*
X118980000Y-112405000D01*
X113312500Y-108380000D02*
X117357500Y-112425000D01*
X112845000Y-108380000D02*
X113312500Y-108380000D01*
X138085000Y-110055000D02*
X138085000Y-116400000D01*
X117357500Y-112425000D02*
X118960000Y-112425000D01*
%TO.N,+5V*%
X117977500Y-89210000D02*
X115702500Y-89210000D01*
X115670000Y-87432500D02*
X115697500Y-87460000D01*
D27*
X154750000Y-122650000D02*
X154750000Y-124410000D01*
X154795000Y-122605000D02*
X154750000Y-122650000D01*
X157695000Y-123400000D02*
X156900000Y-122605000D01*
D26*
X115697500Y-87460000D02*
X115697500Y-89205000D01*
D27*
X156900000Y-122605000D02*
X154795000Y-122605000D01*
X154750000Y-124410000D02*
X154780000Y-124440000D01*
D26*
X115670000Y-86110000D02*
X115670000Y-87432500D01*
D27*
X160620000Y-123400000D02*
X157695000Y-123400000D01*
D26*
X115697500Y-89205000D02*
X115702500Y-89210000D01*
%TO.N,+3.3V*%
X122302500Y-103065000D02*
X122337500Y-103100000D01*
X120855000Y-98870000D02*
X122277500Y-98870000D01*
X122307500Y-107260000D02*
X122337500Y-107290000D01*
X122287500Y-115730000D02*
X122337500Y-115680000D01*
X146620000Y-121670000D02*
X146620000Y-120167500D01*
X141440000Y-121660000D02*
X141440000Y-120153125D01*
X136200000Y-121620000D02*
X136200000Y-120081250D01*
X120855000Y-115730000D02*
X122287500Y-115730000D01*
X120855000Y-107260000D02*
X122307500Y-107260000D01*
X122277500Y-98870000D02*
X122337500Y-98930000D01*
X122312500Y-119970000D02*
X122322500Y-119980000D01*
X122282500Y-111455000D02*
X122337500Y-111510000D01*
X120855000Y-103065000D02*
X122302500Y-103065000D01*
X146620000Y-120167500D02*
X146610000Y-120157500D01*
X120855000Y-111455000D02*
X122282500Y-111455000D01*
X141440000Y-120153125D02*
X141445625Y-120147500D01*
X120810000Y-119970000D02*
X122312500Y-119970000D01*
X131200000Y-121570000D02*
X131200000Y-120035625D01*
X136200000Y-120081250D02*
X136203750Y-120077500D01*
X131200000Y-120035625D02*
X131181875Y-120017500D01*
%TO.N,Net-(D1-Pad3)*%
X117357500Y-116690000D02*
X118970000Y-116690000D01*
X118970000Y-116690000D02*
X118980000Y-116680000D01*
X117357500Y-115432500D02*
X117357500Y-116690000D01*
X112845000Y-110920000D02*
X117357500Y-115432500D01*
X140625000Y-112605000D02*
X140625000Y-116400000D01*
%TO.N,Net-(D3-Pad3)*%
X117770000Y-118810000D02*
X117590000Y-118990000D01*
X112845000Y-113460000D02*
X112900000Y-113460000D01*
X112900000Y-113460000D02*
X115790000Y-116350000D01*
X117590000Y-120860000D02*
X117560000Y-120890000D01*
X143165000Y-116400000D02*
X143165000Y-117495000D01*
X117590000Y-118990000D02*
X117590000Y-120860000D01*
X115790000Y-119710000D02*
X116970000Y-120890000D01*
X118905000Y-120890000D02*
X118935000Y-120920000D01*
X143165000Y-117495000D02*
X141850000Y-118810000D01*
X141850000Y-118810000D02*
X117770000Y-118810000D01*
X116970000Y-120890000D02*
X117560000Y-120890000D01*
X115790000Y-116350000D02*
X115790000Y-119710000D01*
X117560000Y-120890000D02*
X118905000Y-120890000D01*
%TO.N,Net-(D5-Pad3)*%
X112845000Y-116000000D02*
X112845000Y-117185000D01*
X132150000Y-123445000D02*
X132150000Y-124975625D01*
X132150000Y-124975625D02*
X132181875Y-125007500D01*
X112845000Y-117185000D02*
X112860000Y-117200000D01*
%TO.N,Net-(D7-Pad3)*%
X112845000Y-118540000D02*
X112845000Y-119735000D01*
X112845000Y-119735000D02*
X112850000Y-119740000D01*
X137150000Y-123495000D02*
X137150000Y-125043750D01*
X137150000Y-125043750D02*
X137163750Y-125057500D01*
%TO.N,Net-(D9-Pad3)*%
X112845000Y-123620000D02*
X114160000Y-123620000D01*
X147570000Y-125090000D02*
X147587500Y-125107500D01*
X118030000Y-127490000D02*
X145205000Y-127490000D01*
X150330000Y-120110000D02*
X153325000Y-117115000D01*
X147587500Y-125107500D02*
X149342500Y-125107500D01*
X114160000Y-123620000D02*
X118030000Y-127490000D01*
X147570000Y-123545000D02*
X147570000Y-125090000D01*
X145205000Y-127490000D02*
X147587500Y-125107500D01*
X149342500Y-125107500D02*
X150330000Y-124120000D01*
X150330000Y-124120000D02*
X150330000Y-120110000D01*
X153325000Y-117115000D02*
X153325000Y-116400000D01*
%TO.N,Net-(D10-Pad3)*%
X148925000Y-118260000D02*
X150785000Y-116400000D01*
X119290000Y-126320000D02*
X141163125Y-126320000D01*
X112845000Y-121080000D02*
X114050000Y-121080000D01*
X114050000Y-121080000D02*
X119290000Y-126320000D01*
X142390000Y-123535000D02*
X142390000Y-125093125D01*
X142385625Y-125097500D02*
X144282500Y-125097500D01*
X141163125Y-126320000D02*
X142385625Y-125097500D01*
X145660000Y-118260000D02*
X148925000Y-118260000D01*
X144282500Y-125097500D02*
X145110000Y-124270000D01*
X145110000Y-118810000D02*
X145660000Y-118260000D01*
X145110000Y-124270000D02*
X145110000Y-118810000D01*
X142390000Y-125093125D02*
X142385625Y-125097500D01*
%TO.N,Net-(J1-Pad1)*%
X106000000Y-99500000D02*
X107280000Y-100780000D01*
X111175000Y-100780000D02*
X111195000Y-100760000D01*
X107280000Y-100780000D02*
X111175000Y-100780000D01*
%TO.N,Net-(J1-Pad3)*%
X107290000Y-103330000D02*
X111165000Y-103330000D01*
X111165000Y-103330000D02*
X111195000Y-103300000D01*
X106000000Y-102040000D02*
X107290000Y-103330000D01*
%TO.N,Net-(J1-Pad5)*%
X106000000Y-104580000D02*
X107260000Y-105840000D01*
X107260000Y-105840000D02*
X111195000Y-105840000D01*
%TO.N,Net-(J1-Pad7)*%
X107290000Y-108410000D02*
X111165000Y-108410000D01*
X111165000Y-108410000D02*
X111195000Y-108380000D01*
X106000000Y-107120000D02*
X107290000Y-108410000D01*
%TO.N,Net-(J1-Pad9)*%
X111175000Y-110900000D02*
X111195000Y-110920000D01*
X106000000Y-109660000D02*
X107240000Y-110900000D01*
X107240000Y-110900000D02*
X111175000Y-110900000D01*
%TO.N,Net-(J1-Pad11)*%
X107280000Y-113480000D02*
X111175000Y-113480000D01*
X111175000Y-113480000D02*
X111195000Y-113460000D01*
X106000000Y-112200000D02*
X107280000Y-113480000D01*
D27*
%TO.N,Net-(C1-Pad1)*%
X160620000Y-120600000D02*
X157255000Y-120600000D01*
X164340000Y-120600000D02*
X164350000Y-120610000D01*
X164350000Y-120610000D02*
X164350000Y-119805000D01*
X157255000Y-120600000D02*
X156900000Y-120955000D01*
X164350000Y-119805000D02*
X160945000Y-116400000D01*
X160620000Y-120600000D02*
X164340000Y-120600000D01*
D26*
%TO.N,Net-(J1-Pad13)*%
X106000000Y-114740000D02*
X107270000Y-116010000D01*
X111185000Y-116010000D02*
X111195000Y-116000000D01*
X107270000Y-116010000D02*
X111185000Y-116010000D01*
%TO.N,SPI:CLK*%
X127910000Y-94000000D02*
X127910000Y-87940000D01*
X125150000Y-114765000D02*
X125150000Y-100140000D01*
%TO.N,Net-(J1-Pad15)*%
X106000000Y-117280000D02*
X107250000Y-118530000D01*
X107250000Y-118530000D02*
X111185000Y-118530000D01*
X111185000Y-118530000D02*
X111195000Y-118540000D01*
%TO.N,SPI:SDO*%
X130450000Y-94000000D02*
X130450000Y-87940000D01*
%TO.N,Net-(J1-Pad17)*%
X107280000Y-121100000D02*
X111175000Y-121100000D01*
X111175000Y-121100000D02*
X111195000Y-121080000D01*
X106000000Y-119820000D02*
X107280000Y-121100000D01*
%TO.N,Net-(J1-Pad19)*%
X107300000Y-123660000D02*
X111155000Y-123660000D01*
X106000000Y-122360000D02*
X107300000Y-123660000D01*
X111155000Y-123660000D02*
X111195000Y-123620000D01*
%TO.N,SPI:SDI*%
X125370000Y-95680000D02*
X126490000Y-96800000D01*
X125370000Y-95680000D02*
X125370000Y-94000000D01*
X125370000Y-94000000D02*
X125370000Y-87940000D01*
X126490000Y-96800000D02*
X130465000Y-96800000D01*
%TO.N,CCD:SPR*%
X138085000Y-96800000D02*
X138070000Y-96785000D01*
X138070000Y-94000000D02*
X138070000Y-87940000D01*
X138070000Y-96785000D02*
X138070000Y-94000000D01*
%TO.N,CCD:SH*%
X140610000Y-94000000D02*
X140610000Y-87940000D01*
X140610000Y-96785000D02*
X140610000Y-94000000D01*
X140625000Y-96800000D02*
X140610000Y-96785000D01*
%TO.N,CCD:ICG*%
X143165000Y-96800000D02*
X143150000Y-96785000D01*
X143150000Y-94000000D02*
X143150000Y-87940000D01*
X143150000Y-96785000D02*
X143150000Y-94000000D01*
%TO.N,CCD:CLK*%
X145690000Y-94000000D02*
X145690000Y-87940000D01*
X145690000Y-96785000D02*
X145690000Y-94000000D01*
X145705000Y-96800000D02*
X145690000Y-96785000D01*
%TO.N,Net-(R17-Pad2)*%
X158405000Y-101160000D02*
X158405000Y-98450000D01*
%TO.N,Net-(R18-Pad2)*%
X155865000Y-101160000D02*
X155865000Y-98465000D01*
X155865000Y-98465000D02*
X155850000Y-98450000D01*
%TO.N,Net-(J3-Pad2)*%
X158405000Y-96800000D02*
X158390000Y-96785000D01*
X158390000Y-96785000D02*
X158390000Y-94000000D01*
%TO.N,Net-(J3-Pad3)*%
X155850000Y-96800000D02*
X155850000Y-94000000D01*
%TO.N,Net-(J3-Pad4)*%
X153310000Y-96800000D02*
X153310000Y-94000000D01*
%TO.N,Net-(J3-Pad5)*%
X150770000Y-94000000D02*
X150770000Y-96800000D01*
%TO.N,Net-(R19-Pad2)*%
X150785000Y-98465000D02*
X150785000Y-101160000D01*
X150770000Y-98450000D02*
X150785000Y-98465000D01*
%TO.N,Net-(R22-Pad2)*%
X153325000Y-101160000D02*
X153325000Y-98465000D01*
X153325000Y-98465000D02*
X153310000Y-98450000D01*
%TO.N,Net-(R12-Pad2)*%
X130465000Y-98450000D02*
X130465000Y-101160000D01*
%TO.N,Net-(R13-Pad2)*%
X140625000Y-101160000D02*
X140625000Y-98450000D01*
%TO.N,Net-(R14-Pad2)*%
X125150000Y-116415000D02*
X125165000Y-116400000D01*
X125165000Y-116400000D02*
X127925000Y-116400000D01*
%TO.N,Net-(R15-Pad2)*%
X133005000Y-98450000D02*
X133005000Y-101160000D01*
%TO.N,Net-(R16-Pad2)*%
X143165000Y-101160000D02*
X143165000Y-98450000D01*
%TO.N,Net-(R20-Pad2)*%
X148245000Y-101160000D02*
X148245000Y-99985000D01*
X145705000Y-101160000D02*
X145705000Y-99625000D01*
X145705000Y-98450000D02*
X145705000Y-99625000D01*
X147885000Y-99625000D02*
X145705000Y-99625000D01*
X148245000Y-99985000D02*
X147885000Y-99625000D01*
%TO.N,Net-(R21-Pad2)*%
X138085000Y-101160000D02*
X138085000Y-98450000D01*
%TO.N,Net-(J3-Pad11)*%
X135530000Y-94000000D02*
X135530000Y-96800000D01*
%TO.N,SPI:CS_CNVST*%
X132990000Y-94000000D02*
X132990000Y-87940000D01*
X132990000Y-94000000D02*
X132990000Y-96785000D01*
X132990000Y-96785000D02*
X133005000Y-96800000D01*
%TO.N,Net-(R23-Pad2)*%
X135530000Y-98450000D02*
X135545000Y-98465000D01*
X135545000Y-98465000D02*
X135545000Y-101160000D01*
D28*
%TO.N,/Vrefout*%
X107220000Y-92810000D02*
X106000000Y-94030000D01*
D26*
X115702500Y-92805000D02*
X115697500Y-92810000D01*
D28*
X115697500Y-92810000D02*
X107220000Y-92810000D01*
X106000000Y-94030000D02*
X106000000Y-95250000D01*
D26*
X115702500Y-91110000D02*
X115702500Y-92805000D01*
%TD*%
M02*
