M48
; DRILL file {KiCad 6.0.11-3.fc37} date Sun 07 Apr 2024 03:32:34 PM EDT
; FORMAT={-:-/ absolute / inch / decimal}
; #@! TF.CreationDate,2024-04-07T15:32:34-04:00
; #@! TF.GenerationSoftware,Kicad,Pcbnew,6.0.11-3.fc37
; #@! TF.FileFunction,Plated,1,4,PTH
FMAT,2
INCH
; #@! TA.AperFunction,Plated,PTH,ViaDrill
T1C0.0157
; #@! TA.AperFunction,Plated,PTH,ViaDrill
T2C0.0197
; #@! TA.AperFunction,Plated,PTH,ComponentDrill
T3C0.0394
; #@! TA.AperFunction,Plated,PTH,ComponentDrill
T4C0.0433
; #@! TA.AperFunction,Plated,PTH,ComponentDrill
T5C0.0461
%
G90
G05
T1
X4.4429Y-4.7142
X4.4433Y-4.6142
X4.6204Y-3.9325
X4.6204Y-4.0949
X4.6204Y-4.2612
X4.6204Y-4.4262
X4.6204Y-4.5941
X4.674Y-3.4433
X4.674Y-3.6539
X4.698Y-3.5492
X4.8154Y-4.7972
X4.8158Y-4.7236
X4.8164Y-3.8949
X4.8164Y-3.9673
X4.8164Y-4.0591
X4.8164Y-4.1327
X4.8164Y-4.224
X4.8164Y-4.2969
X4.8164Y-4.3902
X4.8164Y-4.4634
X4.8164Y-4.5543
X4.8164Y-4.6299
X4.9272Y-3.9425
X5.1368Y-4.0935
X5.1646Y-4.7251
X5.204Y-4.9216
X5.2362Y-4.1535
X5.2402Y-4.7275
X5.3315Y-4.2319
X5.3624Y-4.7275
X5.4001Y-4.9235
X5.4364Y-4.3329
X5.4375Y-4.7247
X5.5364Y-4.4333
X5.5687Y-4.7302
X5.6434Y-4.7306
X5.772Y-4.7306
X5.8469Y-4.7302
T2
X4.5539Y-3.3902
X6.0929Y-4.6988
X6.0937Y-4.8992
X6.1614Y-3.3858
X6.4701Y-4.8791
T3
X4.1732Y-3.75
X4.1732Y-3.9173
X4.1732Y-4.0173
X4.1732Y-4.1173
X4.1732Y-4.2173
X4.1732Y-4.3173
X4.1732Y-4.4173
X4.1732Y-4.5173
X4.1732Y-4.6173
X4.1732Y-4.7173
X4.1732Y-4.8173
X4.2732Y-3.75
X4.2732Y-3.9173
X4.2732Y-4.0173
X4.2732Y-4.1173
X4.2732Y-4.2173
X4.2732Y-4.3173
X4.2732Y-4.4173
X4.2732Y-4.5173
X4.2732Y-4.6173
X4.2732Y-4.7173
X4.2732Y-4.8173
X4.8358Y-3.3622
X4.8358Y-3.4622
X4.8358Y-3.7008
X4.9358Y-3.3622
X4.9358Y-3.4622
X4.9358Y-3.7008
X5.0358Y-3.3622
X5.0358Y-3.4622
X5.0358Y-3.7008
X5.1358Y-3.3622
X5.1358Y-3.4622
X5.1358Y-3.7008
X5.2358Y-3.3622
X5.2358Y-3.4622
X5.2358Y-3.7008
X5.3358Y-3.3622
X5.3358Y-3.4622
X5.3358Y-3.7008
X5.4358Y-3.3622
X5.4358Y-3.4622
X5.4358Y-3.7008
X5.5358Y-3.3622
X5.5358Y-3.4622
X5.5358Y-3.7008
X5.6358Y-3.3622
X5.6358Y-3.4622
X5.6358Y-3.7008
X5.7358Y-3.3622
X5.7358Y-3.4622
X5.7358Y-3.7008
X5.8358Y-3.7008
X5.9358Y-3.7008
X6.0358Y-3.7008
X6.1358Y-3.7008
X6.2358Y-3.7008
X6.3364Y-3.7008
T4
X5.0364Y-3.9827
X5.0364Y-4.0827
X5.0364Y-4.1827
X5.0364Y-4.2827
X5.0364Y-4.3827
X5.0364Y-4.4827
X5.0364Y-4.5827
X5.1364Y-3.9827
X5.1364Y-4.5827
X5.2364Y-3.9827
X5.2364Y-4.5827
X5.3364Y-3.9827
X5.3364Y-4.5827
X5.4364Y-3.9827
X5.4364Y-4.5827
X5.5364Y-3.9827
X5.5364Y-4.5827
X5.6364Y-3.9827
X5.6364Y-4.5827
X5.7364Y-3.9827
X5.7364Y-4.5827
X5.8364Y-3.9827
X5.8364Y-4.5827
X5.9364Y-3.9827
X5.9364Y-4.5827
X6.0364Y-3.9827
X6.0364Y-4.5827
X6.1364Y-3.9827
X6.1364Y-4.5827
X6.2364Y-3.9827
X6.2364Y-4.5827
X6.3364Y-3.9827
X6.3364Y-4.5827
T5
X4.197Y-3.4744
X4.297Y-3.4744
X6.3329Y-3.4744
X6.4329Y-3.4744
T0
M30
