%TF.GenerationSoftware,KiCad,Pcbnew,6.0.11-3.fc37*%
%TF.CreationDate,2024-04-07T15:32:32-04:00*%
%TF.ProjectId,Controller_T4,436f6e74-726f-46c6-9c65-725f54342e6b,rev?*%
%TF.SameCoordinates,Original*%
%TF.FileFunction,AssemblyDrawing,Top*%
%FSLAX46Y46*%
G04 Gerber Fmt 4.6, Leading zero omitted, Abs format (unit mm)*
G04 Created by KiCad (PCBNEW 6.0.11-3.fc37) date 2024-04-07 15:32:32*
%MOMM*%
%LPD*%
G01*
G04 APERTURE LIST*
%ADD10C,0.150000*%
%ADD11C,0.050000*%
%ADD12C,0.060000*%
%ADD13C,0.080000*%
%ADD14C,0.100000*%
%ADD15C,0.127000*%
%ADD16C,0.200000*%
G04 APERTURE END LIST*
D10*
%TO.C,D4*%
X118179404Y-101543571D02*
X118322261Y-101591190D01*
X118369880Y-101638809D01*
X118417500Y-101734047D01*
X118417500Y-101876904D01*
X118369880Y-101972142D01*
X118322261Y-102019761D01*
X118227023Y-102067380D01*
X117846071Y-102067380D01*
X117846071Y-101067380D01*
X118179404Y-101067380D01*
X118274642Y-101115000D01*
X118322261Y-101162619D01*
X118369880Y-101257857D01*
X118369880Y-101353095D01*
X118322261Y-101448333D01*
X118274642Y-101495952D01*
X118179404Y-101543571D01*
X117846071Y-101543571D01*
X118798452Y-101781666D02*
X119274642Y-101781666D01*
X118703214Y-102067380D02*
X119036547Y-101067380D01*
X119369880Y-102067380D01*
X119560357Y-101067380D02*
X119893690Y-102067380D01*
X120227023Y-101067380D01*
X120607976Y-102067380D02*
X120798452Y-102067380D01*
X120893690Y-102019761D01*
X120941309Y-101972142D01*
X121036547Y-101829285D01*
X121084166Y-101638809D01*
X121084166Y-101257857D01*
X121036547Y-101162619D01*
X120988928Y-101115000D01*
X120893690Y-101067380D01*
X120703214Y-101067380D01*
X120607976Y-101115000D01*
X120560357Y-101162619D01*
X120512738Y-101257857D01*
X120512738Y-101495952D01*
X120560357Y-101591190D01*
X120607976Y-101638809D01*
X120703214Y-101686428D01*
X120893690Y-101686428D01*
X120988928Y-101638809D01*
X121036547Y-101591190D01*
X121084166Y-101495952D01*
X121560357Y-102067380D02*
X121750833Y-102067380D01*
X121846071Y-102019761D01*
X121893690Y-101972142D01*
X121988928Y-101829285D01*
X122036547Y-101638809D01*
X122036547Y-101257857D01*
X121988928Y-101162619D01*
X121941309Y-101115000D01*
X121846071Y-101067380D01*
X121655595Y-101067380D01*
X121560357Y-101115000D01*
X121512738Y-101162619D01*
X121465119Y-101257857D01*
X121465119Y-101495952D01*
X121512738Y-101591190D01*
X121560357Y-101638809D01*
X121655595Y-101686428D01*
X121846071Y-101686428D01*
X121941309Y-101638809D01*
X121988928Y-101591190D01*
X122036547Y-101495952D01*
D11*
X119681309Y-104159761D02*
X119681309Y-103839761D01*
X119757500Y-103839761D01*
X119803214Y-103855000D01*
X119833690Y-103885476D01*
X119848928Y-103915952D01*
X119864166Y-103976904D01*
X119864166Y-104022619D01*
X119848928Y-104083571D01*
X119833690Y-104114047D01*
X119803214Y-104144523D01*
X119757500Y-104159761D01*
X119681309Y-104159761D01*
X120138452Y-103946428D02*
X120138452Y-104159761D01*
X120062261Y-103824523D02*
X119986071Y-104053095D01*
X120184166Y-104053095D01*
D10*
%TO.C,R9*%
X110853333Y-125502380D02*
X110281904Y-125502380D01*
X110567619Y-125502380D02*
X110567619Y-124502380D01*
X110472380Y-124645238D01*
X110377142Y-124740476D01*
X110281904Y-124788095D01*
X111472380Y-124502380D02*
X111567619Y-124502380D01*
X111662857Y-124550000D01*
X111710476Y-124597619D01*
X111758095Y-124692857D01*
X111805714Y-124883333D01*
X111805714Y-125121428D01*
X111758095Y-125311904D01*
X111710476Y-125407142D01*
X111662857Y-125454761D01*
X111567619Y-125502380D01*
X111472380Y-125502380D01*
X111377142Y-125454761D01*
X111329523Y-125407142D01*
X111281904Y-125311904D01*
X111234285Y-125121428D01*
X111234285Y-124883333D01*
X111281904Y-124692857D01*
X111329523Y-124597619D01*
X111377142Y-124550000D01*
X111472380Y-124502380D01*
X112424761Y-124502380D02*
X112520000Y-124502380D01*
X112615238Y-124550000D01*
X112662857Y-124597619D01*
X112710476Y-124692857D01*
X112758095Y-124883333D01*
X112758095Y-125121428D01*
X112710476Y-125311904D01*
X112662857Y-125407142D01*
X112615238Y-125454761D01*
X112520000Y-125502380D01*
X112424761Y-125502380D01*
X112329523Y-125454761D01*
X112281904Y-125407142D01*
X112234285Y-125311904D01*
X112186666Y-125121428D01*
X112186666Y-124883333D01*
X112234285Y-124692857D01*
X112281904Y-124597619D01*
X112329523Y-124550000D01*
X112424761Y-124502380D01*
X113758095Y-125502380D02*
X113424761Y-125026190D01*
X113186666Y-125502380D02*
X113186666Y-124502380D01*
X113567619Y-124502380D01*
X113662857Y-124550000D01*
X113710476Y-124597619D01*
X113758095Y-124692857D01*
X113758095Y-124835714D01*
X113710476Y-124930952D01*
X113662857Y-124978571D01*
X113567619Y-125026190D01*
X113186666Y-125026190D01*
D12*
X111953333Y-123800952D02*
X111820000Y-123610476D01*
X111724761Y-123800952D02*
X111724761Y-123400952D01*
X111877142Y-123400952D01*
X111915238Y-123420000D01*
X111934285Y-123439047D01*
X111953333Y-123477142D01*
X111953333Y-123534285D01*
X111934285Y-123572380D01*
X111915238Y-123591428D01*
X111877142Y-123610476D01*
X111724761Y-123610476D01*
X112143809Y-123800952D02*
X112220000Y-123800952D01*
X112258095Y-123781904D01*
X112277142Y-123762857D01*
X112315238Y-123705714D01*
X112334285Y-123629523D01*
X112334285Y-123477142D01*
X112315238Y-123439047D01*
X112296190Y-123420000D01*
X112258095Y-123400952D01*
X112181904Y-123400952D01*
X112143809Y-123420000D01*
X112124761Y-123439047D01*
X112105714Y-123477142D01*
X112105714Y-123572380D01*
X112124761Y-123610476D01*
X112143809Y-123629523D01*
X112181904Y-123648571D01*
X112258095Y-123648571D01*
X112296190Y-123629523D01*
X112315238Y-123610476D01*
X112334285Y-123572380D01*
D10*
%TO.C,R21*%
X136440714Y-98625000D02*
X137107380Y-98625000D01*
X136059761Y-98863095D02*
X136774047Y-99101190D01*
X136774047Y-98482142D01*
X137107380Y-98053571D02*
X137107380Y-97863095D01*
X137059761Y-97767857D01*
X137012142Y-97720238D01*
X136869285Y-97625000D01*
X136678809Y-97577380D01*
X136297857Y-97577380D01*
X136202619Y-97625000D01*
X136155000Y-97672619D01*
X136107380Y-97767857D01*
X136107380Y-97958333D01*
X136155000Y-98053571D01*
X136202619Y-98101190D01*
X136297857Y-98148809D01*
X136535952Y-98148809D01*
X136631190Y-98101190D01*
X136678809Y-98053571D01*
X136726428Y-97958333D01*
X136726428Y-97767857D01*
X136678809Y-97672619D01*
X136631190Y-97625000D01*
X136535952Y-97577380D01*
X137012142Y-97148809D02*
X137059761Y-97101190D01*
X137107380Y-97148809D01*
X137059761Y-97196428D01*
X137012142Y-97148809D01*
X137107380Y-97148809D01*
X137107380Y-96625000D02*
X137107380Y-96434523D01*
X137059761Y-96339285D01*
X137012142Y-96291666D01*
X136869285Y-96196428D01*
X136678809Y-96148809D01*
X136297857Y-96148809D01*
X136202619Y-96196428D01*
X136155000Y-96244047D01*
X136107380Y-96339285D01*
X136107380Y-96529761D01*
X136155000Y-96625000D01*
X136202619Y-96672619D01*
X136297857Y-96720238D01*
X136535952Y-96720238D01*
X136631190Y-96672619D01*
X136678809Y-96625000D01*
X136726428Y-96529761D01*
X136726428Y-96339285D01*
X136678809Y-96244047D01*
X136631190Y-96196428D01*
X136535952Y-96148809D01*
D12*
X138265952Y-97882142D02*
X138075476Y-98015476D01*
X138265952Y-98110714D02*
X137865952Y-98110714D01*
X137865952Y-97958333D01*
X137885000Y-97920238D01*
X137904047Y-97901190D01*
X137942142Y-97882142D01*
X137999285Y-97882142D01*
X138037380Y-97901190D01*
X138056428Y-97920238D01*
X138075476Y-97958333D01*
X138075476Y-98110714D01*
X137904047Y-97729761D02*
X137885000Y-97710714D01*
X137865952Y-97672619D01*
X137865952Y-97577380D01*
X137885000Y-97539285D01*
X137904047Y-97520238D01*
X137942142Y-97501190D01*
X137980238Y-97501190D01*
X138037380Y-97520238D01*
X138265952Y-97748809D01*
X138265952Y-97501190D01*
X138265952Y-97120238D02*
X138265952Y-97348809D01*
X138265952Y-97234523D02*
X137865952Y-97234523D01*
X137923095Y-97272619D01*
X137961190Y-97310714D01*
X137980238Y-97348809D01*
D10*
%TO.C,R16*%
X141520714Y-98625000D02*
X142187380Y-98625000D01*
X141139761Y-98863095D02*
X141854047Y-99101190D01*
X141854047Y-98482142D01*
X142187380Y-98053571D02*
X142187380Y-97863095D01*
X142139761Y-97767857D01*
X142092142Y-97720238D01*
X141949285Y-97625000D01*
X141758809Y-97577380D01*
X141377857Y-97577380D01*
X141282619Y-97625000D01*
X141235000Y-97672619D01*
X141187380Y-97767857D01*
X141187380Y-97958333D01*
X141235000Y-98053571D01*
X141282619Y-98101190D01*
X141377857Y-98148809D01*
X141615952Y-98148809D01*
X141711190Y-98101190D01*
X141758809Y-98053571D01*
X141806428Y-97958333D01*
X141806428Y-97767857D01*
X141758809Y-97672619D01*
X141711190Y-97625000D01*
X141615952Y-97577380D01*
X142092142Y-97148809D02*
X142139761Y-97101190D01*
X142187380Y-97148809D01*
X142139761Y-97196428D01*
X142092142Y-97148809D01*
X142187380Y-97148809D01*
X142187380Y-96625000D02*
X142187380Y-96434523D01*
X142139761Y-96339285D01*
X142092142Y-96291666D01*
X141949285Y-96196428D01*
X141758809Y-96148809D01*
X141377857Y-96148809D01*
X141282619Y-96196428D01*
X141235000Y-96244047D01*
X141187380Y-96339285D01*
X141187380Y-96529761D01*
X141235000Y-96625000D01*
X141282619Y-96672619D01*
X141377857Y-96720238D01*
X141615952Y-96720238D01*
X141711190Y-96672619D01*
X141758809Y-96625000D01*
X141806428Y-96529761D01*
X141806428Y-96339285D01*
X141758809Y-96244047D01*
X141711190Y-96196428D01*
X141615952Y-96148809D01*
D12*
X143345952Y-97882142D02*
X143155476Y-98015476D01*
X143345952Y-98110714D02*
X142945952Y-98110714D01*
X142945952Y-97958333D01*
X142965000Y-97920238D01*
X142984047Y-97901190D01*
X143022142Y-97882142D01*
X143079285Y-97882142D01*
X143117380Y-97901190D01*
X143136428Y-97920238D01*
X143155476Y-97958333D01*
X143155476Y-98110714D01*
X143345952Y-97501190D02*
X143345952Y-97729761D01*
X143345952Y-97615476D02*
X142945952Y-97615476D01*
X143003095Y-97653571D01*
X143041190Y-97691666D01*
X143060238Y-97729761D01*
X142945952Y-97158333D02*
X142945952Y-97234523D01*
X142965000Y-97272619D01*
X142984047Y-97291666D01*
X143041190Y-97329761D01*
X143117380Y-97348809D01*
X143269761Y-97348809D01*
X143307857Y-97329761D01*
X143326904Y-97310714D01*
X143345952Y-97272619D01*
X143345952Y-97196428D01*
X143326904Y-97158333D01*
X143307857Y-97139285D01*
X143269761Y-97120238D01*
X143174523Y-97120238D01*
X143136428Y-97139285D01*
X143117380Y-97158333D01*
X143098333Y-97196428D01*
X143098333Y-97272619D01*
X143117380Y-97310714D01*
X143136428Y-97329761D01*
X143174523Y-97348809D01*
D10*
%TO.C,C1*%
X162217619Y-123202857D02*
X162170000Y-123155238D01*
X162122380Y-123060000D01*
X162122380Y-122821904D01*
X162170000Y-122726666D01*
X162217619Y-122679047D01*
X162312857Y-122631428D01*
X162408095Y-122631428D01*
X162550952Y-122679047D01*
X163122380Y-123250476D01*
X163122380Y-122631428D01*
X162217619Y-122250476D02*
X162170000Y-122202857D01*
X162122380Y-122107619D01*
X162122380Y-121869523D01*
X162170000Y-121774285D01*
X162217619Y-121726666D01*
X162312857Y-121679047D01*
X162408095Y-121679047D01*
X162550952Y-121726666D01*
X163122380Y-122298095D01*
X163122380Y-121679047D01*
X162455714Y-120821904D02*
X163122380Y-120821904D01*
X162455714Y-121250476D02*
X162979523Y-121250476D01*
X163074761Y-121202857D01*
X163122380Y-121107619D01*
X163122380Y-120964761D01*
X163074761Y-120869523D01*
X163027142Y-120821904D01*
X162598571Y-120012380D02*
X162598571Y-120345714D01*
X163122380Y-120345714D02*
X162122380Y-120345714D01*
X162122380Y-119869523D01*
D13*
X164528571Y-121643333D02*
X164552380Y-121667142D01*
X164576190Y-121738571D01*
X164576190Y-121786190D01*
X164552380Y-121857619D01*
X164504761Y-121905238D01*
X164457142Y-121929047D01*
X164361904Y-121952857D01*
X164290476Y-121952857D01*
X164195238Y-121929047D01*
X164147619Y-121905238D01*
X164100000Y-121857619D01*
X164076190Y-121786190D01*
X164076190Y-121738571D01*
X164100000Y-121667142D01*
X164123809Y-121643333D01*
X164576190Y-121167142D02*
X164576190Y-121452857D01*
X164576190Y-121310000D02*
X164076190Y-121310000D01*
X164147619Y-121357619D01*
X164195238Y-121405238D01*
X164219047Y-121452857D01*
D10*
%TO.C,D2*%
X118179404Y-97348571D02*
X118322261Y-97396190D01*
X118369880Y-97443809D01*
X118417500Y-97539047D01*
X118417500Y-97681904D01*
X118369880Y-97777142D01*
X118322261Y-97824761D01*
X118227023Y-97872380D01*
X117846071Y-97872380D01*
X117846071Y-96872380D01*
X118179404Y-96872380D01*
X118274642Y-96920000D01*
X118322261Y-96967619D01*
X118369880Y-97062857D01*
X118369880Y-97158095D01*
X118322261Y-97253333D01*
X118274642Y-97300952D01*
X118179404Y-97348571D01*
X117846071Y-97348571D01*
X118798452Y-97586666D02*
X119274642Y-97586666D01*
X118703214Y-97872380D02*
X119036547Y-96872380D01*
X119369880Y-97872380D01*
X119560357Y-96872380D02*
X119893690Y-97872380D01*
X120227023Y-96872380D01*
X120607976Y-97872380D02*
X120798452Y-97872380D01*
X120893690Y-97824761D01*
X120941309Y-97777142D01*
X121036547Y-97634285D01*
X121084166Y-97443809D01*
X121084166Y-97062857D01*
X121036547Y-96967619D01*
X120988928Y-96920000D01*
X120893690Y-96872380D01*
X120703214Y-96872380D01*
X120607976Y-96920000D01*
X120560357Y-96967619D01*
X120512738Y-97062857D01*
X120512738Y-97300952D01*
X120560357Y-97396190D01*
X120607976Y-97443809D01*
X120703214Y-97491428D01*
X120893690Y-97491428D01*
X120988928Y-97443809D01*
X121036547Y-97396190D01*
X121084166Y-97300952D01*
X121560357Y-97872380D02*
X121750833Y-97872380D01*
X121846071Y-97824761D01*
X121893690Y-97777142D01*
X121988928Y-97634285D01*
X122036547Y-97443809D01*
X122036547Y-97062857D01*
X121988928Y-96967619D01*
X121941309Y-96920000D01*
X121846071Y-96872380D01*
X121655595Y-96872380D01*
X121560357Y-96920000D01*
X121512738Y-96967619D01*
X121465119Y-97062857D01*
X121465119Y-97300952D01*
X121512738Y-97396190D01*
X121560357Y-97443809D01*
X121655595Y-97491428D01*
X121846071Y-97491428D01*
X121941309Y-97443809D01*
X121988928Y-97396190D01*
X122036547Y-97300952D01*
D11*
X119681309Y-99964761D02*
X119681309Y-99644761D01*
X119757500Y-99644761D01*
X119803214Y-99660000D01*
X119833690Y-99690476D01*
X119848928Y-99720952D01*
X119864166Y-99781904D01*
X119864166Y-99827619D01*
X119848928Y-99888571D01*
X119833690Y-99919047D01*
X119803214Y-99949523D01*
X119757500Y-99964761D01*
X119681309Y-99964761D01*
X119986071Y-99675238D02*
X120001309Y-99660000D01*
X120031785Y-99644761D01*
X120107976Y-99644761D01*
X120138452Y-99660000D01*
X120153690Y-99675238D01*
X120168928Y-99705714D01*
X120168928Y-99736190D01*
X120153690Y-99781904D01*
X119970833Y-99964761D01*
X120168928Y-99964761D01*
D10*
%TO.C,J3*%
X120857142Y-99833333D02*
X120904761Y-99880952D01*
X120952380Y-100023809D01*
X120952380Y-100119047D01*
X120904761Y-100261904D01*
X120809523Y-100357142D01*
X120714285Y-100404761D01*
X120523809Y-100452380D01*
X120380952Y-100452380D01*
X120190476Y-100404761D01*
X120095238Y-100357142D01*
X120000000Y-100261904D01*
X119952380Y-100119047D01*
X119952380Y-100023809D01*
X120000000Y-99880952D01*
X120047619Y-99833333D01*
X120952380Y-99261904D02*
X120904761Y-99357142D01*
X120857142Y-99404761D01*
X120761904Y-99452380D01*
X120476190Y-99452380D01*
X120380952Y-99404761D01*
X120333333Y-99357142D01*
X120285714Y-99261904D01*
X120285714Y-99119047D01*
X120333333Y-99023809D01*
X120380952Y-98976190D01*
X120476190Y-98928571D01*
X120761904Y-98928571D01*
X120857142Y-98976190D01*
X120904761Y-99023809D01*
X120952380Y-99119047D01*
X120952380Y-99261904D01*
X120285714Y-98500000D02*
X120952380Y-98500000D01*
X120380952Y-98500000D02*
X120333333Y-98452380D01*
X120285714Y-98357142D01*
X120285714Y-98214285D01*
X120333333Y-98119047D01*
X120428571Y-98071428D01*
X120952380Y-98071428D01*
X120285714Y-97595238D02*
X120952380Y-97595238D01*
X120380952Y-97595238D02*
X120333333Y-97547619D01*
X120285714Y-97452380D01*
X120285714Y-97309523D01*
X120333333Y-97214285D01*
X120428571Y-97166666D01*
X120952380Y-97166666D01*
X121047619Y-96928571D02*
X121047619Y-96166666D01*
X119952380Y-95738095D02*
X119952380Y-95642857D01*
X120000000Y-95547619D01*
X120047619Y-95500000D01*
X120142857Y-95452380D01*
X120333333Y-95404761D01*
X120571428Y-95404761D01*
X120761904Y-95452380D01*
X120857142Y-95500000D01*
X120904761Y-95547619D01*
X120952380Y-95642857D01*
X120952380Y-95738095D01*
X120904761Y-95833333D01*
X120857142Y-95880952D01*
X120761904Y-95928571D01*
X120571428Y-95976190D01*
X120333333Y-95976190D01*
X120142857Y-95928571D01*
X120047619Y-95880952D01*
X120000000Y-95833333D01*
X119952380Y-95738095D01*
X120952380Y-94452380D02*
X120952380Y-95023809D01*
X120952380Y-94738095D02*
X119952380Y-94738095D01*
X120095238Y-94833333D01*
X120190476Y-94928571D01*
X120238095Y-95023809D01*
X120952380Y-94119047D02*
X120285714Y-93595238D01*
X120285714Y-94119047D02*
X120952380Y-93595238D01*
X120952380Y-92690476D02*
X120952380Y-93261904D01*
X120952380Y-92976190D02*
X119952380Y-92976190D01*
X120095238Y-93071428D01*
X120190476Y-93166666D01*
X120238095Y-93261904D01*
X119952380Y-91833333D02*
X119952380Y-92023809D01*
X120000000Y-92119047D01*
X120047619Y-92166666D01*
X120190476Y-92261904D01*
X120380952Y-92309523D01*
X120761904Y-92309523D01*
X120857142Y-92261904D01*
X120904761Y-92214285D01*
X120952380Y-92119047D01*
X120952380Y-91928571D01*
X120904761Y-91833333D01*
X120857142Y-91785714D01*
X120761904Y-91738095D01*
X120523809Y-91738095D01*
X120428571Y-91785714D01*
X120380952Y-91833333D01*
X120333333Y-91928571D01*
X120333333Y-92119047D01*
X120380952Y-92214285D01*
X120428571Y-92261904D01*
X120523809Y-92309523D01*
X121047619Y-91547619D02*
X121047619Y-90785714D01*
X120952380Y-90547619D02*
X119952380Y-90547619D01*
X120666666Y-90214285D01*
X119952380Y-89880952D01*
X120952380Y-89880952D01*
X120952380Y-88976190D02*
X120428571Y-88976190D01*
X120333333Y-89023809D01*
X120285714Y-89119047D01*
X120285714Y-89309523D01*
X120333333Y-89404761D01*
X120904761Y-88976190D02*
X120952380Y-89071428D01*
X120952380Y-89309523D01*
X120904761Y-89404761D01*
X120809523Y-89452380D01*
X120714285Y-89452380D01*
X120619047Y-89404761D01*
X120571428Y-89309523D01*
X120571428Y-89071428D01*
X120523809Y-88976190D01*
X120952380Y-88357142D02*
X120904761Y-88452380D01*
X120809523Y-88500000D01*
X119952380Y-88500000D01*
X120904761Y-87595238D02*
X120952380Y-87690476D01*
X120952380Y-87880952D01*
X120904761Y-87976190D01*
X120809523Y-88023809D01*
X120428571Y-88023809D01*
X120333333Y-87976190D01*
X120285714Y-87880952D01*
X120285714Y-87690476D01*
X120333333Y-87595238D01*
X120428571Y-87547619D01*
X120523809Y-87547619D01*
X120619047Y-88023809D01*
X141546666Y-93452380D02*
X141546666Y-94166666D01*
X141499047Y-94309523D01*
X141403809Y-94404761D01*
X141260952Y-94452380D01*
X141165714Y-94452380D01*
X141927619Y-93452380D02*
X142546666Y-93452380D01*
X142213333Y-93833333D01*
X142356190Y-93833333D01*
X142451428Y-93880952D01*
X142499047Y-93928571D01*
X142546666Y-94023809D01*
X142546666Y-94261904D01*
X142499047Y-94357142D01*
X142451428Y-94404761D01*
X142356190Y-94452380D01*
X142070476Y-94452380D01*
X141975238Y-94404761D01*
X141927619Y-94357142D01*
%TO.C,R10*%
X110853333Y-122962380D02*
X110281904Y-122962380D01*
X110567619Y-122962380D02*
X110567619Y-121962380D01*
X110472380Y-122105238D01*
X110377142Y-122200476D01*
X110281904Y-122248095D01*
X111472380Y-121962380D02*
X111567619Y-121962380D01*
X111662857Y-122010000D01*
X111710476Y-122057619D01*
X111758095Y-122152857D01*
X111805714Y-122343333D01*
X111805714Y-122581428D01*
X111758095Y-122771904D01*
X111710476Y-122867142D01*
X111662857Y-122914761D01*
X111567619Y-122962380D01*
X111472380Y-122962380D01*
X111377142Y-122914761D01*
X111329523Y-122867142D01*
X111281904Y-122771904D01*
X111234285Y-122581428D01*
X111234285Y-122343333D01*
X111281904Y-122152857D01*
X111329523Y-122057619D01*
X111377142Y-122010000D01*
X111472380Y-121962380D01*
X112424761Y-121962380D02*
X112520000Y-121962380D01*
X112615238Y-122010000D01*
X112662857Y-122057619D01*
X112710476Y-122152857D01*
X112758095Y-122343333D01*
X112758095Y-122581428D01*
X112710476Y-122771904D01*
X112662857Y-122867142D01*
X112615238Y-122914761D01*
X112520000Y-122962380D01*
X112424761Y-122962380D01*
X112329523Y-122914761D01*
X112281904Y-122867142D01*
X112234285Y-122771904D01*
X112186666Y-122581428D01*
X112186666Y-122343333D01*
X112234285Y-122152857D01*
X112281904Y-122057619D01*
X112329523Y-122010000D01*
X112424761Y-121962380D01*
X113758095Y-122962380D02*
X113424761Y-122486190D01*
X113186666Y-122962380D02*
X113186666Y-121962380D01*
X113567619Y-121962380D01*
X113662857Y-122010000D01*
X113710476Y-122057619D01*
X113758095Y-122152857D01*
X113758095Y-122295714D01*
X113710476Y-122390952D01*
X113662857Y-122438571D01*
X113567619Y-122486190D01*
X113186666Y-122486190D01*
D12*
X111762857Y-121260952D02*
X111629523Y-121070476D01*
X111534285Y-121260952D02*
X111534285Y-120860952D01*
X111686666Y-120860952D01*
X111724761Y-120880000D01*
X111743809Y-120899047D01*
X111762857Y-120937142D01*
X111762857Y-120994285D01*
X111743809Y-121032380D01*
X111724761Y-121051428D01*
X111686666Y-121070476D01*
X111534285Y-121070476D01*
X112143809Y-121260952D02*
X111915238Y-121260952D01*
X112029523Y-121260952D02*
X112029523Y-120860952D01*
X111991428Y-120918095D01*
X111953333Y-120956190D01*
X111915238Y-120975238D01*
X112391428Y-120860952D02*
X112429523Y-120860952D01*
X112467619Y-120880000D01*
X112486666Y-120899047D01*
X112505714Y-120937142D01*
X112524761Y-121013333D01*
X112524761Y-121108571D01*
X112505714Y-121184761D01*
X112486666Y-121222857D01*
X112467619Y-121241904D01*
X112429523Y-121260952D01*
X112391428Y-121260952D01*
X112353333Y-121241904D01*
X112334285Y-121222857D01*
X112315238Y-121184761D01*
X112296190Y-121108571D01*
X112296190Y-121013333D01*
X112315238Y-120937142D01*
X112334285Y-120899047D01*
X112353333Y-120880000D01*
X112391428Y-120860952D01*
D10*
%TO.C,C3*%
X115964761Y-94692380D02*
X115393333Y-94692380D01*
X115679047Y-94692380D02*
X115679047Y-93692380D01*
X115583809Y-93835238D01*
X115488571Y-93930476D01*
X115393333Y-93978095D01*
X116821904Y-94025714D02*
X116821904Y-94692380D01*
X116393333Y-94025714D02*
X116393333Y-94549523D01*
X116440952Y-94644761D01*
X116536190Y-94692380D01*
X116679047Y-94692380D01*
X116774285Y-94644761D01*
X116821904Y-94597142D01*
X117631428Y-94168571D02*
X117298095Y-94168571D01*
X117298095Y-94692380D02*
X117298095Y-93692380D01*
X117774285Y-93692380D01*
D12*
X116493333Y-92952857D02*
X116474285Y-92971904D01*
X116417142Y-92990952D01*
X116379047Y-92990952D01*
X116321904Y-92971904D01*
X116283809Y-92933809D01*
X116264761Y-92895714D01*
X116245714Y-92819523D01*
X116245714Y-92762380D01*
X116264761Y-92686190D01*
X116283809Y-92648095D01*
X116321904Y-92610000D01*
X116379047Y-92590952D01*
X116417142Y-92590952D01*
X116474285Y-92610000D01*
X116493333Y-92629047D01*
X116626666Y-92590952D02*
X116874285Y-92590952D01*
X116740952Y-92743333D01*
X116798095Y-92743333D01*
X116836190Y-92762380D01*
X116855238Y-92781428D01*
X116874285Y-92819523D01*
X116874285Y-92914761D01*
X116855238Y-92952857D01*
X116836190Y-92971904D01*
X116798095Y-92990952D01*
X116683809Y-92990952D01*
X116645714Y-92971904D01*
X116626666Y-92952857D01*
D10*
%TO.C,U1*%
X140863571Y-98072380D02*
X141435000Y-98072380D01*
X141149285Y-99072380D02*
X141149285Y-98072380D01*
X142149285Y-99024761D02*
X142054047Y-99072380D01*
X141863571Y-99072380D01*
X141768333Y-99024761D01*
X141720714Y-98929523D01*
X141720714Y-98548571D01*
X141768333Y-98453333D01*
X141863571Y-98405714D01*
X142054047Y-98405714D01*
X142149285Y-98453333D01*
X142196904Y-98548571D01*
X142196904Y-98643809D01*
X141720714Y-98739047D01*
X143006428Y-99024761D02*
X142911190Y-99072380D01*
X142720714Y-99072380D01*
X142625476Y-99024761D01*
X142577857Y-98929523D01*
X142577857Y-98548571D01*
X142625476Y-98453333D01*
X142720714Y-98405714D01*
X142911190Y-98405714D01*
X143006428Y-98453333D01*
X143054047Y-98548571D01*
X143054047Y-98643809D01*
X142577857Y-98739047D01*
X143482619Y-98405714D02*
X143482619Y-99072380D01*
X143482619Y-98500952D02*
X143530238Y-98453333D01*
X143625476Y-98405714D01*
X143768333Y-98405714D01*
X143863571Y-98453333D01*
X143911190Y-98548571D01*
X143911190Y-99072380D01*
X144339761Y-99024761D02*
X144435000Y-99072380D01*
X144625476Y-99072380D01*
X144720714Y-99024761D01*
X144768333Y-98929523D01*
X144768333Y-98881904D01*
X144720714Y-98786666D01*
X144625476Y-98739047D01*
X144482619Y-98739047D01*
X144387380Y-98691428D01*
X144339761Y-98596190D01*
X144339761Y-98548571D01*
X144387380Y-98453333D01*
X144482619Y-98405714D01*
X144625476Y-98405714D01*
X144720714Y-98453333D01*
X145101666Y-98405714D02*
X145339761Y-99072380D01*
X145577857Y-98405714D02*
X145339761Y-99072380D01*
X145244523Y-99310476D01*
X145196904Y-99358095D01*
X145101666Y-99405714D01*
X146387380Y-98405714D02*
X146387380Y-99072380D01*
X146149285Y-98024761D02*
X145911190Y-98739047D01*
X146530238Y-98739047D01*
X146911190Y-98977142D02*
X146958809Y-99024761D01*
X146911190Y-99072380D01*
X146863571Y-99024761D01*
X146911190Y-98977142D01*
X146911190Y-99072380D01*
X147577857Y-98072380D02*
X147673095Y-98072380D01*
X147768333Y-98120000D01*
X147815952Y-98167619D01*
X147863571Y-98262857D01*
X147911190Y-98453333D01*
X147911190Y-98691428D01*
X147863571Y-98881904D01*
X147815952Y-98977142D01*
X147768333Y-99024761D01*
X147673095Y-99072380D01*
X147577857Y-99072380D01*
X147482619Y-99024761D01*
X147435000Y-98977142D01*
X147387380Y-98881904D01*
X147339761Y-98691428D01*
X147339761Y-98453333D01*
X147387380Y-98262857D01*
X147435000Y-98167619D01*
X147482619Y-98120000D01*
X147577857Y-98072380D01*
%TO.C,R11*%
X155922380Y-122946666D02*
X155922380Y-123518095D01*
X155922380Y-123232380D02*
X154922380Y-123232380D01*
X155065238Y-123327619D01*
X155160476Y-123422857D01*
X155208095Y-123518095D01*
X154922380Y-122327619D02*
X154922380Y-122232380D01*
X154970000Y-122137142D01*
X155017619Y-122089523D01*
X155112857Y-122041904D01*
X155303333Y-121994285D01*
X155541428Y-121994285D01*
X155731904Y-122041904D01*
X155827142Y-122089523D01*
X155874761Y-122137142D01*
X155922380Y-122232380D01*
X155922380Y-122327619D01*
X155874761Y-122422857D01*
X155827142Y-122470476D01*
X155731904Y-122518095D01*
X155541428Y-122565714D01*
X155303333Y-122565714D01*
X155112857Y-122518095D01*
X155017619Y-122470476D01*
X154970000Y-122422857D01*
X154922380Y-122327619D01*
X154922380Y-121375238D02*
X154922380Y-121280000D01*
X154970000Y-121184761D01*
X155017619Y-121137142D01*
X155112857Y-121089523D01*
X155303333Y-121041904D01*
X155541428Y-121041904D01*
X155731904Y-121089523D01*
X155827142Y-121137142D01*
X155874761Y-121184761D01*
X155922380Y-121280000D01*
X155922380Y-121375238D01*
X155874761Y-121470476D01*
X155827142Y-121518095D01*
X155731904Y-121565714D01*
X155541428Y-121613333D01*
X155303333Y-121613333D01*
X155112857Y-121565714D01*
X155017619Y-121518095D01*
X154970000Y-121470476D01*
X154922380Y-121375238D01*
X155922380Y-120041904D02*
X155446190Y-120375238D01*
X155922380Y-120613333D02*
X154922380Y-120613333D01*
X154922380Y-120232380D01*
X154970000Y-120137142D01*
X155017619Y-120089523D01*
X155112857Y-120041904D01*
X155255714Y-120041904D01*
X155350952Y-120089523D01*
X155398571Y-120137142D01*
X155446190Y-120232380D01*
X155446190Y-120613333D01*
D12*
X157080952Y-122037142D02*
X156890476Y-122170476D01*
X157080952Y-122265714D02*
X156680952Y-122265714D01*
X156680952Y-122113333D01*
X156700000Y-122075238D01*
X156719047Y-122056190D01*
X156757142Y-122037142D01*
X156814285Y-122037142D01*
X156852380Y-122056190D01*
X156871428Y-122075238D01*
X156890476Y-122113333D01*
X156890476Y-122265714D01*
X157080952Y-121656190D02*
X157080952Y-121884761D01*
X157080952Y-121770476D02*
X156680952Y-121770476D01*
X156738095Y-121808571D01*
X156776190Y-121846666D01*
X156795238Y-121884761D01*
X157080952Y-121275238D02*
X157080952Y-121503809D01*
X157080952Y-121389523D02*
X156680952Y-121389523D01*
X156738095Y-121427619D01*
X156776190Y-121465714D01*
X156795238Y-121503809D01*
D10*
%TO.C,R8*%
X110853333Y-120422380D02*
X110281904Y-120422380D01*
X110567619Y-120422380D02*
X110567619Y-119422380D01*
X110472380Y-119565238D01*
X110377142Y-119660476D01*
X110281904Y-119708095D01*
X111472380Y-119422380D02*
X111567619Y-119422380D01*
X111662857Y-119470000D01*
X111710476Y-119517619D01*
X111758095Y-119612857D01*
X111805714Y-119803333D01*
X111805714Y-120041428D01*
X111758095Y-120231904D01*
X111710476Y-120327142D01*
X111662857Y-120374761D01*
X111567619Y-120422380D01*
X111472380Y-120422380D01*
X111377142Y-120374761D01*
X111329523Y-120327142D01*
X111281904Y-120231904D01*
X111234285Y-120041428D01*
X111234285Y-119803333D01*
X111281904Y-119612857D01*
X111329523Y-119517619D01*
X111377142Y-119470000D01*
X111472380Y-119422380D01*
X112424761Y-119422380D02*
X112520000Y-119422380D01*
X112615238Y-119470000D01*
X112662857Y-119517619D01*
X112710476Y-119612857D01*
X112758095Y-119803333D01*
X112758095Y-120041428D01*
X112710476Y-120231904D01*
X112662857Y-120327142D01*
X112615238Y-120374761D01*
X112520000Y-120422380D01*
X112424761Y-120422380D01*
X112329523Y-120374761D01*
X112281904Y-120327142D01*
X112234285Y-120231904D01*
X112186666Y-120041428D01*
X112186666Y-119803333D01*
X112234285Y-119612857D01*
X112281904Y-119517619D01*
X112329523Y-119470000D01*
X112424761Y-119422380D01*
X113758095Y-120422380D02*
X113424761Y-119946190D01*
X113186666Y-120422380D02*
X113186666Y-119422380D01*
X113567619Y-119422380D01*
X113662857Y-119470000D01*
X113710476Y-119517619D01*
X113758095Y-119612857D01*
X113758095Y-119755714D01*
X113710476Y-119850952D01*
X113662857Y-119898571D01*
X113567619Y-119946190D01*
X113186666Y-119946190D01*
D12*
X111953333Y-118720952D02*
X111820000Y-118530476D01*
X111724761Y-118720952D02*
X111724761Y-118320952D01*
X111877142Y-118320952D01*
X111915238Y-118340000D01*
X111934285Y-118359047D01*
X111953333Y-118397142D01*
X111953333Y-118454285D01*
X111934285Y-118492380D01*
X111915238Y-118511428D01*
X111877142Y-118530476D01*
X111724761Y-118530476D01*
X112181904Y-118492380D02*
X112143809Y-118473333D01*
X112124761Y-118454285D01*
X112105714Y-118416190D01*
X112105714Y-118397142D01*
X112124761Y-118359047D01*
X112143809Y-118340000D01*
X112181904Y-118320952D01*
X112258095Y-118320952D01*
X112296190Y-118340000D01*
X112315238Y-118359047D01*
X112334285Y-118397142D01*
X112334285Y-118416190D01*
X112315238Y-118454285D01*
X112296190Y-118473333D01*
X112258095Y-118492380D01*
X112181904Y-118492380D01*
X112143809Y-118511428D01*
X112124761Y-118530476D01*
X112105714Y-118568571D01*
X112105714Y-118644761D01*
X112124761Y-118682857D01*
X112143809Y-118701904D01*
X112181904Y-118720952D01*
X112258095Y-118720952D01*
X112296190Y-118701904D01*
X112315238Y-118682857D01*
X112334285Y-118644761D01*
X112334285Y-118568571D01*
X112315238Y-118530476D01*
X112296190Y-118511428D01*
X112258095Y-118492380D01*
D10*
%TO.C,R12*%
X128820714Y-98625000D02*
X129487380Y-98625000D01*
X128439761Y-98863095D02*
X129154047Y-99101190D01*
X129154047Y-98482142D01*
X129487380Y-98053571D02*
X129487380Y-97863095D01*
X129439761Y-97767857D01*
X129392142Y-97720238D01*
X129249285Y-97625000D01*
X129058809Y-97577380D01*
X128677857Y-97577380D01*
X128582619Y-97625000D01*
X128535000Y-97672619D01*
X128487380Y-97767857D01*
X128487380Y-97958333D01*
X128535000Y-98053571D01*
X128582619Y-98101190D01*
X128677857Y-98148809D01*
X128915952Y-98148809D01*
X129011190Y-98101190D01*
X129058809Y-98053571D01*
X129106428Y-97958333D01*
X129106428Y-97767857D01*
X129058809Y-97672619D01*
X129011190Y-97625000D01*
X128915952Y-97577380D01*
X129392142Y-97148809D02*
X129439761Y-97101190D01*
X129487380Y-97148809D01*
X129439761Y-97196428D01*
X129392142Y-97148809D01*
X129487380Y-97148809D01*
X129487380Y-96625000D02*
X129487380Y-96434523D01*
X129439761Y-96339285D01*
X129392142Y-96291666D01*
X129249285Y-96196428D01*
X129058809Y-96148809D01*
X128677857Y-96148809D01*
X128582619Y-96196428D01*
X128535000Y-96244047D01*
X128487380Y-96339285D01*
X128487380Y-96529761D01*
X128535000Y-96625000D01*
X128582619Y-96672619D01*
X128677857Y-96720238D01*
X128915952Y-96720238D01*
X129011190Y-96672619D01*
X129058809Y-96625000D01*
X129106428Y-96529761D01*
X129106428Y-96339285D01*
X129058809Y-96244047D01*
X129011190Y-96196428D01*
X128915952Y-96148809D01*
D12*
X130645952Y-97882142D02*
X130455476Y-98015476D01*
X130645952Y-98110714D02*
X130245952Y-98110714D01*
X130245952Y-97958333D01*
X130265000Y-97920238D01*
X130284047Y-97901190D01*
X130322142Y-97882142D01*
X130379285Y-97882142D01*
X130417380Y-97901190D01*
X130436428Y-97920238D01*
X130455476Y-97958333D01*
X130455476Y-98110714D01*
X130645952Y-97501190D02*
X130645952Y-97729761D01*
X130645952Y-97615476D02*
X130245952Y-97615476D01*
X130303095Y-97653571D01*
X130341190Y-97691666D01*
X130360238Y-97729761D01*
X130284047Y-97348809D02*
X130265000Y-97329761D01*
X130245952Y-97291666D01*
X130245952Y-97196428D01*
X130265000Y-97158333D01*
X130284047Y-97139285D01*
X130322142Y-97120238D01*
X130360238Y-97120238D01*
X130417380Y-97139285D01*
X130645952Y-97367857D01*
X130645952Y-97120238D01*
D10*
%TO.C,J1*%
X99627142Y-125047142D02*
X99579523Y-125094761D01*
X99436666Y-125142380D01*
X99341428Y-125142380D01*
X99198571Y-125094761D01*
X99103333Y-124999523D01*
X99055714Y-124904285D01*
X99008095Y-124713809D01*
X99008095Y-124570952D01*
X99055714Y-124380476D01*
X99103333Y-124285238D01*
X99198571Y-124190000D01*
X99341428Y-124142380D01*
X99436666Y-124142380D01*
X99579523Y-124190000D01*
X99627142Y-124237619D01*
X100198571Y-125142380D02*
X100103333Y-125094761D01*
X100055714Y-125047142D01*
X100008095Y-124951904D01*
X100008095Y-124666190D01*
X100055714Y-124570952D01*
X100103333Y-124523333D01*
X100198571Y-124475714D01*
X100341428Y-124475714D01*
X100436666Y-124523333D01*
X100484285Y-124570952D01*
X100531904Y-124666190D01*
X100531904Y-124951904D01*
X100484285Y-125047142D01*
X100436666Y-125094761D01*
X100341428Y-125142380D01*
X100198571Y-125142380D01*
X100960476Y-124475714D02*
X100960476Y-125142380D01*
X100960476Y-124570952D02*
X101008095Y-124523333D01*
X101103333Y-124475714D01*
X101246190Y-124475714D01*
X101341428Y-124523333D01*
X101389047Y-124618571D01*
X101389047Y-125142380D01*
X101865238Y-124475714D02*
X101865238Y-125142380D01*
X101865238Y-124570952D02*
X101912857Y-124523333D01*
X102008095Y-124475714D01*
X102150952Y-124475714D01*
X102246190Y-124523333D01*
X102293809Y-124618571D01*
X102293809Y-125142380D01*
X102531904Y-125237619D02*
X103293809Y-125237619D01*
X103722380Y-124142380D02*
X103817619Y-124142380D01*
X103912857Y-124190000D01*
X103960476Y-124237619D01*
X104008095Y-124332857D01*
X104055714Y-124523333D01*
X104055714Y-124761428D01*
X104008095Y-124951904D01*
X103960476Y-125047142D01*
X103912857Y-125094761D01*
X103817619Y-125142380D01*
X103722380Y-125142380D01*
X103627142Y-125094761D01*
X103579523Y-125047142D01*
X103531904Y-124951904D01*
X103484285Y-124761428D01*
X103484285Y-124523333D01*
X103531904Y-124332857D01*
X103579523Y-124237619D01*
X103627142Y-124190000D01*
X103722380Y-124142380D01*
X104436666Y-124237619D02*
X104484285Y-124190000D01*
X104579523Y-124142380D01*
X104817619Y-124142380D01*
X104912857Y-124190000D01*
X104960476Y-124237619D01*
X105008095Y-124332857D01*
X105008095Y-124428095D01*
X104960476Y-124570952D01*
X104389047Y-125142380D01*
X105008095Y-125142380D01*
X105341428Y-125142380D02*
X105865238Y-124475714D01*
X105341428Y-124475714D02*
X105865238Y-125142380D01*
X106770000Y-125142380D02*
X106198571Y-125142380D01*
X106484285Y-125142380D02*
X106484285Y-124142380D01*
X106389047Y-124285238D01*
X106293809Y-124380476D01*
X106198571Y-124428095D01*
X107389047Y-124142380D02*
X107484285Y-124142380D01*
X107579523Y-124190000D01*
X107627142Y-124237619D01*
X107674761Y-124332857D01*
X107722380Y-124523333D01*
X107722380Y-124761428D01*
X107674761Y-124951904D01*
X107627142Y-125047142D01*
X107579523Y-125094761D01*
X107484285Y-125142380D01*
X107389047Y-125142380D01*
X107293809Y-125094761D01*
X107246190Y-125047142D01*
X107198571Y-124951904D01*
X107150952Y-124761428D01*
X107150952Y-124523333D01*
X107198571Y-124332857D01*
X107246190Y-124237619D01*
X107293809Y-124190000D01*
X107389047Y-124142380D01*
X107912857Y-125237619D02*
X108674761Y-125237619D01*
X109103333Y-124142380D02*
X109293809Y-124142380D01*
X109389047Y-124190000D01*
X109484285Y-124285238D01*
X109531904Y-124475714D01*
X109531904Y-124809047D01*
X109484285Y-124999523D01*
X109389047Y-125094761D01*
X109293809Y-125142380D01*
X109103333Y-125142380D01*
X109008095Y-125094761D01*
X108912857Y-124999523D01*
X108865238Y-124809047D01*
X108865238Y-124475714D01*
X108912857Y-124285238D01*
X109008095Y-124190000D01*
X109103333Y-124142380D01*
X110389047Y-125142380D02*
X110389047Y-124142380D01*
X110389047Y-125094761D02*
X110293809Y-125142380D01*
X110103333Y-125142380D01*
X110008095Y-125094761D01*
X109960476Y-125047142D01*
X109912857Y-124951904D01*
X109912857Y-124666190D01*
X109960476Y-124570952D01*
X110008095Y-124523333D01*
X110103333Y-124475714D01*
X110293809Y-124475714D01*
X110389047Y-124523333D01*
X111293809Y-125142380D02*
X111293809Y-124142380D01*
X111293809Y-125094761D02*
X111198571Y-125142380D01*
X111008095Y-125142380D01*
X110912857Y-125094761D01*
X110865238Y-125047142D01*
X110817619Y-124951904D01*
X110817619Y-124666190D01*
X110865238Y-124570952D01*
X110912857Y-124523333D01*
X111008095Y-124475714D01*
X111198571Y-124475714D01*
X111293809Y-124523333D01*
X111531904Y-125237619D02*
X112293809Y-125237619D01*
X112531904Y-124618571D02*
X112865238Y-124618571D01*
X113008095Y-125142380D02*
X112531904Y-125142380D01*
X112531904Y-124142380D01*
X113008095Y-124142380D01*
X113341428Y-124475714D02*
X113579523Y-125142380D01*
X113817619Y-124475714D01*
X114579523Y-125094761D02*
X114484285Y-125142380D01*
X114293809Y-125142380D01*
X114198571Y-125094761D01*
X114150952Y-124999523D01*
X114150952Y-124618571D01*
X114198571Y-124523333D01*
X114293809Y-124475714D01*
X114484285Y-124475714D01*
X114579523Y-124523333D01*
X114627142Y-124618571D01*
X114627142Y-124713809D01*
X114150952Y-124809047D01*
X115055714Y-124475714D02*
X115055714Y-125142380D01*
X115055714Y-124570952D02*
X115103333Y-124523333D01*
X115198571Y-124475714D01*
X115341428Y-124475714D01*
X115436666Y-124523333D01*
X115484285Y-124618571D01*
X115484285Y-125142380D01*
X106722380Y-111263333D02*
X107436666Y-111263333D01*
X107579523Y-111310952D01*
X107674761Y-111406190D01*
X107722380Y-111549047D01*
X107722380Y-111644285D01*
X107722380Y-110263333D02*
X107722380Y-110834761D01*
X107722380Y-110549047D02*
X106722380Y-110549047D01*
X106865238Y-110644285D01*
X106960476Y-110739523D01*
X107008095Y-110834761D01*
%TO.C,R5*%
X110853333Y-107722380D02*
X110281904Y-107722380D01*
X110567619Y-107722380D02*
X110567619Y-106722380D01*
X110472380Y-106865238D01*
X110377142Y-106960476D01*
X110281904Y-107008095D01*
X111472380Y-106722380D02*
X111567619Y-106722380D01*
X111662857Y-106770000D01*
X111710476Y-106817619D01*
X111758095Y-106912857D01*
X111805714Y-107103333D01*
X111805714Y-107341428D01*
X111758095Y-107531904D01*
X111710476Y-107627142D01*
X111662857Y-107674761D01*
X111567619Y-107722380D01*
X111472380Y-107722380D01*
X111377142Y-107674761D01*
X111329523Y-107627142D01*
X111281904Y-107531904D01*
X111234285Y-107341428D01*
X111234285Y-107103333D01*
X111281904Y-106912857D01*
X111329523Y-106817619D01*
X111377142Y-106770000D01*
X111472380Y-106722380D01*
X112424761Y-106722380D02*
X112520000Y-106722380D01*
X112615238Y-106770000D01*
X112662857Y-106817619D01*
X112710476Y-106912857D01*
X112758095Y-107103333D01*
X112758095Y-107341428D01*
X112710476Y-107531904D01*
X112662857Y-107627142D01*
X112615238Y-107674761D01*
X112520000Y-107722380D01*
X112424761Y-107722380D01*
X112329523Y-107674761D01*
X112281904Y-107627142D01*
X112234285Y-107531904D01*
X112186666Y-107341428D01*
X112186666Y-107103333D01*
X112234285Y-106912857D01*
X112281904Y-106817619D01*
X112329523Y-106770000D01*
X112424761Y-106722380D01*
X113758095Y-107722380D02*
X113424761Y-107246190D01*
X113186666Y-107722380D02*
X113186666Y-106722380D01*
X113567619Y-106722380D01*
X113662857Y-106770000D01*
X113710476Y-106817619D01*
X113758095Y-106912857D01*
X113758095Y-107055714D01*
X113710476Y-107150952D01*
X113662857Y-107198571D01*
X113567619Y-107246190D01*
X113186666Y-107246190D01*
D12*
X111953333Y-106020952D02*
X111820000Y-105830476D01*
X111724761Y-106020952D02*
X111724761Y-105620952D01*
X111877142Y-105620952D01*
X111915238Y-105640000D01*
X111934285Y-105659047D01*
X111953333Y-105697142D01*
X111953333Y-105754285D01*
X111934285Y-105792380D01*
X111915238Y-105811428D01*
X111877142Y-105830476D01*
X111724761Y-105830476D01*
X112315238Y-105620952D02*
X112124761Y-105620952D01*
X112105714Y-105811428D01*
X112124761Y-105792380D01*
X112162857Y-105773333D01*
X112258095Y-105773333D01*
X112296190Y-105792380D01*
X112315238Y-105811428D01*
X112334285Y-105849523D01*
X112334285Y-105944761D01*
X112315238Y-105982857D01*
X112296190Y-106001904D01*
X112258095Y-106020952D01*
X112162857Y-106020952D01*
X112124761Y-106001904D01*
X112105714Y-105982857D01*
D10*
%TO.C,R22*%
X151665714Y-98625000D02*
X152332380Y-98625000D01*
X151284761Y-98863095D02*
X151999047Y-99101190D01*
X151999047Y-98482142D01*
X152332380Y-98053571D02*
X152332380Y-97863095D01*
X152284761Y-97767857D01*
X152237142Y-97720238D01*
X152094285Y-97625000D01*
X151903809Y-97577380D01*
X151522857Y-97577380D01*
X151427619Y-97625000D01*
X151380000Y-97672619D01*
X151332380Y-97767857D01*
X151332380Y-97958333D01*
X151380000Y-98053571D01*
X151427619Y-98101190D01*
X151522857Y-98148809D01*
X151760952Y-98148809D01*
X151856190Y-98101190D01*
X151903809Y-98053571D01*
X151951428Y-97958333D01*
X151951428Y-97767857D01*
X151903809Y-97672619D01*
X151856190Y-97625000D01*
X151760952Y-97577380D01*
X152237142Y-97148809D02*
X152284761Y-97101190D01*
X152332380Y-97148809D01*
X152284761Y-97196428D01*
X152237142Y-97148809D01*
X152332380Y-97148809D01*
X152332380Y-96625000D02*
X152332380Y-96434523D01*
X152284761Y-96339285D01*
X152237142Y-96291666D01*
X152094285Y-96196428D01*
X151903809Y-96148809D01*
X151522857Y-96148809D01*
X151427619Y-96196428D01*
X151380000Y-96244047D01*
X151332380Y-96339285D01*
X151332380Y-96529761D01*
X151380000Y-96625000D01*
X151427619Y-96672619D01*
X151522857Y-96720238D01*
X151760952Y-96720238D01*
X151856190Y-96672619D01*
X151903809Y-96625000D01*
X151951428Y-96529761D01*
X151951428Y-96339285D01*
X151903809Y-96244047D01*
X151856190Y-96196428D01*
X151760952Y-96148809D01*
D12*
X153490952Y-97882142D02*
X153300476Y-98015476D01*
X153490952Y-98110714D02*
X153090952Y-98110714D01*
X153090952Y-97958333D01*
X153110000Y-97920238D01*
X153129047Y-97901190D01*
X153167142Y-97882142D01*
X153224285Y-97882142D01*
X153262380Y-97901190D01*
X153281428Y-97920238D01*
X153300476Y-97958333D01*
X153300476Y-98110714D01*
X153129047Y-97729761D02*
X153110000Y-97710714D01*
X153090952Y-97672619D01*
X153090952Y-97577380D01*
X153110000Y-97539285D01*
X153129047Y-97520238D01*
X153167142Y-97501190D01*
X153205238Y-97501190D01*
X153262380Y-97520238D01*
X153490952Y-97748809D01*
X153490952Y-97501190D01*
X153129047Y-97348809D02*
X153110000Y-97329761D01*
X153090952Y-97291666D01*
X153090952Y-97196428D01*
X153110000Y-97158333D01*
X153129047Y-97139285D01*
X153167142Y-97120238D01*
X153205238Y-97120238D01*
X153262380Y-97139285D01*
X153490952Y-97367857D01*
X153490952Y-97120238D01*
D14*
%TO.C,R20*%
X144133571Y-98285000D02*
X144573571Y-98285000D01*
X143882142Y-98442142D02*
X144353571Y-98599285D01*
X144353571Y-98190714D01*
X144573571Y-97907857D02*
X144573571Y-97782142D01*
X144542142Y-97719285D01*
X144510714Y-97687857D01*
X144416428Y-97625000D01*
X144290714Y-97593571D01*
X144039285Y-97593571D01*
X143976428Y-97625000D01*
X143945000Y-97656428D01*
X143913571Y-97719285D01*
X143913571Y-97845000D01*
X143945000Y-97907857D01*
X143976428Y-97939285D01*
X144039285Y-97970714D01*
X144196428Y-97970714D01*
X144259285Y-97939285D01*
X144290714Y-97907857D01*
X144322142Y-97845000D01*
X144322142Y-97719285D01*
X144290714Y-97656428D01*
X144259285Y-97625000D01*
X144196428Y-97593571D01*
X144510714Y-97310714D02*
X144542142Y-97279285D01*
X144573571Y-97310714D01*
X144542142Y-97342142D01*
X144510714Y-97310714D01*
X144573571Y-97310714D01*
X144573571Y-96965000D02*
X144573571Y-96839285D01*
X144542142Y-96776428D01*
X144510714Y-96745000D01*
X144416428Y-96682142D01*
X144290714Y-96650714D01*
X144039285Y-96650714D01*
X143976428Y-96682142D01*
X143945000Y-96713571D01*
X143913571Y-96776428D01*
X143913571Y-96902142D01*
X143945000Y-96965000D01*
X143976428Y-96996428D01*
X144039285Y-97027857D01*
X144196428Y-97027857D01*
X144259285Y-96996428D01*
X144290714Y-96965000D01*
X144322142Y-96902142D01*
X144322142Y-96776428D01*
X144290714Y-96713571D01*
X144259285Y-96682142D01*
X144196428Y-96650714D01*
D12*
X145885952Y-97882142D02*
X145695476Y-98015476D01*
X145885952Y-98110714D02*
X145485952Y-98110714D01*
X145485952Y-97958333D01*
X145505000Y-97920238D01*
X145524047Y-97901190D01*
X145562142Y-97882142D01*
X145619285Y-97882142D01*
X145657380Y-97901190D01*
X145676428Y-97920238D01*
X145695476Y-97958333D01*
X145695476Y-98110714D01*
X145524047Y-97729761D02*
X145505000Y-97710714D01*
X145485952Y-97672619D01*
X145485952Y-97577380D01*
X145505000Y-97539285D01*
X145524047Y-97520238D01*
X145562142Y-97501190D01*
X145600238Y-97501190D01*
X145657380Y-97520238D01*
X145885952Y-97748809D01*
X145885952Y-97501190D01*
X145485952Y-97253571D02*
X145485952Y-97215476D01*
X145505000Y-97177380D01*
X145524047Y-97158333D01*
X145562142Y-97139285D01*
X145638333Y-97120238D01*
X145733571Y-97120238D01*
X145809761Y-97139285D01*
X145847857Y-97158333D01*
X145866904Y-97177380D01*
X145885952Y-97215476D01*
X145885952Y-97253571D01*
X145866904Y-97291666D01*
X145847857Y-97310714D01*
X145809761Y-97329761D01*
X145733571Y-97348809D01*
X145638333Y-97348809D01*
X145562142Y-97329761D01*
X145524047Y-97310714D01*
X145505000Y-97291666D01*
X145485952Y-97253571D01*
D10*
%TO.C,D8*%
X118179404Y-109933571D02*
X118322261Y-109981190D01*
X118369880Y-110028809D01*
X118417500Y-110124047D01*
X118417500Y-110266904D01*
X118369880Y-110362142D01*
X118322261Y-110409761D01*
X118227023Y-110457380D01*
X117846071Y-110457380D01*
X117846071Y-109457380D01*
X118179404Y-109457380D01*
X118274642Y-109505000D01*
X118322261Y-109552619D01*
X118369880Y-109647857D01*
X118369880Y-109743095D01*
X118322261Y-109838333D01*
X118274642Y-109885952D01*
X118179404Y-109933571D01*
X117846071Y-109933571D01*
X118798452Y-110171666D02*
X119274642Y-110171666D01*
X118703214Y-110457380D02*
X119036547Y-109457380D01*
X119369880Y-110457380D01*
X119560357Y-109457380D02*
X119893690Y-110457380D01*
X120227023Y-109457380D01*
X120607976Y-110457380D02*
X120798452Y-110457380D01*
X120893690Y-110409761D01*
X120941309Y-110362142D01*
X121036547Y-110219285D01*
X121084166Y-110028809D01*
X121084166Y-109647857D01*
X121036547Y-109552619D01*
X120988928Y-109505000D01*
X120893690Y-109457380D01*
X120703214Y-109457380D01*
X120607976Y-109505000D01*
X120560357Y-109552619D01*
X120512738Y-109647857D01*
X120512738Y-109885952D01*
X120560357Y-109981190D01*
X120607976Y-110028809D01*
X120703214Y-110076428D01*
X120893690Y-110076428D01*
X120988928Y-110028809D01*
X121036547Y-109981190D01*
X121084166Y-109885952D01*
X121560357Y-110457380D02*
X121750833Y-110457380D01*
X121846071Y-110409761D01*
X121893690Y-110362142D01*
X121988928Y-110219285D01*
X122036547Y-110028809D01*
X122036547Y-109647857D01*
X121988928Y-109552619D01*
X121941309Y-109505000D01*
X121846071Y-109457380D01*
X121655595Y-109457380D01*
X121560357Y-109505000D01*
X121512738Y-109552619D01*
X121465119Y-109647857D01*
X121465119Y-109885952D01*
X121512738Y-109981190D01*
X121560357Y-110028809D01*
X121655595Y-110076428D01*
X121846071Y-110076428D01*
X121941309Y-110028809D01*
X121988928Y-109981190D01*
X122036547Y-109885952D01*
D11*
X119681309Y-112549761D02*
X119681309Y-112229761D01*
X119757500Y-112229761D01*
X119803214Y-112245000D01*
X119833690Y-112275476D01*
X119848928Y-112305952D01*
X119864166Y-112366904D01*
X119864166Y-112412619D01*
X119848928Y-112473571D01*
X119833690Y-112504047D01*
X119803214Y-112534523D01*
X119757500Y-112549761D01*
X119681309Y-112549761D01*
X120047023Y-112366904D02*
X120016547Y-112351666D01*
X120001309Y-112336428D01*
X119986071Y-112305952D01*
X119986071Y-112290714D01*
X120001309Y-112260238D01*
X120016547Y-112245000D01*
X120047023Y-112229761D01*
X120107976Y-112229761D01*
X120138452Y-112245000D01*
X120153690Y-112260238D01*
X120168928Y-112290714D01*
X120168928Y-112305952D01*
X120153690Y-112336428D01*
X120138452Y-112351666D01*
X120107976Y-112366904D01*
X120047023Y-112366904D01*
X120016547Y-112382142D01*
X120001309Y-112397380D01*
X119986071Y-112427857D01*
X119986071Y-112488809D01*
X120001309Y-112519285D01*
X120016547Y-112534523D01*
X120047023Y-112549761D01*
X120107976Y-112549761D01*
X120138452Y-112534523D01*
X120153690Y-112519285D01*
X120168928Y-112488809D01*
X120168928Y-112427857D01*
X120153690Y-112397380D01*
X120138452Y-112382142D01*
X120107976Y-112366904D01*
D10*
%TO.C,R6*%
X110853333Y-117882380D02*
X110281904Y-117882380D01*
X110567619Y-117882380D02*
X110567619Y-116882380D01*
X110472380Y-117025238D01*
X110377142Y-117120476D01*
X110281904Y-117168095D01*
X111472380Y-116882380D02*
X111567619Y-116882380D01*
X111662857Y-116930000D01*
X111710476Y-116977619D01*
X111758095Y-117072857D01*
X111805714Y-117263333D01*
X111805714Y-117501428D01*
X111758095Y-117691904D01*
X111710476Y-117787142D01*
X111662857Y-117834761D01*
X111567619Y-117882380D01*
X111472380Y-117882380D01*
X111377142Y-117834761D01*
X111329523Y-117787142D01*
X111281904Y-117691904D01*
X111234285Y-117501428D01*
X111234285Y-117263333D01*
X111281904Y-117072857D01*
X111329523Y-116977619D01*
X111377142Y-116930000D01*
X111472380Y-116882380D01*
X112424761Y-116882380D02*
X112520000Y-116882380D01*
X112615238Y-116930000D01*
X112662857Y-116977619D01*
X112710476Y-117072857D01*
X112758095Y-117263333D01*
X112758095Y-117501428D01*
X112710476Y-117691904D01*
X112662857Y-117787142D01*
X112615238Y-117834761D01*
X112520000Y-117882380D01*
X112424761Y-117882380D01*
X112329523Y-117834761D01*
X112281904Y-117787142D01*
X112234285Y-117691904D01*
X112186666Y-117501428D01*
X112186666Y-117263333D01*
X112234285Y-117072857D01*
X112281904Y-116977619D01*
X112329523Y-116930000D01*
X112424761Y-116882380D01*
X113758095Y-117882380D02*
X113424761Y-117406190D01*
X113186666Y-117882380D02*
X113186666Y-116882380D01*
X113567619Y-116882380D01*
X113662857Y-116930000D01*
X113710476Y-116977619D01*
X113758095Y-117072857D01*
X113758095Y-117215714D01*
X113710476Y-117310952D01*
X113662857Y-117358571D01*
X113567619Y-117406190D01*
X113186666Y-117406190D01*
D12*
X111953333Y-116180952D02*
X111820000Y-115990476D01*
X111724761Y-116180952D02*
X111724761Y-115780952D01*
X111877142Y-115780952D01*
X111915238Y-115800000D01*
X111934285Y-115819047D01*
X111953333Y-115857142D01*
X111953333Y-115914285D01*
X111934285Y-115952380D01*
X111915238Y-115971428D01*
X111877142Y-115990476D01*
X111724761Y-115990476D01*
X112296190Y-115780952D02*
X112220000Y-115780952D01*
X112181904Y-115800000D01*
X112162857Y-115819047D01*
X112124761Y-115876190D01*
X112105714Y-115952380D01*
X112105714Y-116104761D01*
X112124761Y-116142857D01*
X112143809Y-116161904D01*
X112181904Y-116180952D01*
X112258095Y-116180952D01*
X112296190Y-116161904D01*
X112315238Y-116142857D01*
X112334285Y-116104761D01*
X112334285Y-116009523D01*
X112315238Y-115971428D01*
X112296190Y-115952380D01*
X112258095Y-115933333D01*
X112181904Y-115933333D01*
X112143809Y-115952380D01*
X112124761Y-115971428D01*
X112105714Y-116009523D01*
D10*
%TO.C,D7*%
X134678571Y-124295595D02*
X134726190Y-124152738D01*
X134773809Y-124105119D01*
X134869047Y-124057500D01*
X135011904Y-124057500D01*
X135107142Y-124105119D01*
X135154761Y-124152738D01*
X135202380Y-124247976D01*
X135202380Y-124628928D01*
X134202380Y-124628928D01*
X134202380Y-124295595D01*
X134250000Y-124200357D01*
X134297619Y-124152738D01*
X134392857Y-124105119D01*
X134488095Y-124105119D01*
X134583333Y-124152738D01*
X134630952Y-124200357D01*
X134678571Y-124295595D01*
X134678571Y-124628928D01*
X134916666Y-123676547D02*
X134916666Y-123200357D01*
X135202380Y-123771785D02*
X134202380Y-123438452D01*
X135202380Y-123105119D01*
X134202380Y-122914642D02*
X135202380Y-122581309D01*
X134202380Y-122247976D01*
X135202380Y-121867023D02*
X135202380Y-121676547D01*
X135154761Y-121581309D01*
X135107142Y-121533690D01*
X134964285Y-121438452D01*
X134773809Y-121390833D01*
X134392857Y-121390833D01*
X134297619Y-121438452D01*
X134250000Y-121486071D01*
X134202380Y-121581309D01*
X134202380Y-121771785D01*
X134250000Y-121867023D01*
X134297619Y-121914642D01*
X134392857Y-121962261D01*
X134630952Y-121962261D01*
X134726190Y-121914642D01*
X134773809Y-121867023D01*
X134821428Y-121771785D01*
X134821428Y-121581309D01*
X134773809Y-121486071D01*
X134726190Y-121438452D01*
X134630952Y-121390833D01*
X135202380Y-120914642D02*
X135202380Y-120724166D01*
X135154761Y-120628928D01*
X135107142Y-120581309D01*
X134964285Y-120486071D01*
X134773809Y-120438452D01*
X134392857Y-120438452D01*
X134297619Y-120486071D01*
X134250000Y-120533690D01*
X134202380Y-120628928D01*
X134202380Y-120819404D01*
X134250000Y-120914642D01*
X134297619Y-120962261D01*
X134392857Y-121009880D01*
X134630952Y-121009880D01*
X134726190Y-120962261D01*
X134773809Y-120914642D01*
X134821428Y-120819404D01*
X134821428Y-120628928D01*
X134773809Y-120533690D01*
X134726190Y-120486071D01*
X134630952Y-120438452D01*
D11*
X137294761Y-122793690D02*
X136974761Y-122793690D01*
X136974761Y-122717500D01*
X136990000Y-122671785D01*
X137020476Y-122641309D01*
X137050952Y-122626071D01*
X137111904Y-122610833D01*
X137157619Y-122610833D01*
X137218571Y-122626071D01*
X137249047Y-122641309D01*
X137279523Y-122671785D01*
X137294761Y-122717500D01*
X137294761Y-122793690D01*
X136974761Y-122504166D02*
X136974761Y-122290833D01*
X137294761Y-122427976D01*
D10*
%TO.C,C2*%
X115917142Y-89342380D02*
X115345714Y-89342380D01*
X115631428Y-89342380D02*
X115631428Y-88342380D01*
X115536190Y-88485238D01*
X115440952Y-88580476D01*
X115345714Y-88628095D01*
X116536190Y-88342380D02*
X116631428Y-88342380D01*
X116726666Y-88390000D01*
X116774285Y-88437619D01*
X116821904Y-88532857D01*
X116869523Y-88723333D01*
X116869523Y-88961428D01*
X116821904Y-89151904D01*
X116774285Y-89247142D01*
X116726666Y-89294761D01*
X116631428Y-89342380D01*
X116536190Y-89342380D01*
X116440952Y-89294761D01*
X116393333Y-89247142D01*
X116345714Y-89151904D01*
X116298095Y-88961428D01*
X116298095Y-88723333D01*
X116345714Y-88532857D01*
X116393333Y-88437619D01*
X116440952Y-88390000D01*
X116536190Y-88342380D01*
X117726666Y-88675714D02*
X117726666Y-89342380D01*
X117298095Y-88675714D02*
X117298095Y-89199523D01*
X117345714Y-89294761D01*
X117440952Y-89342380D01*
X117583809Y-89342380D01*
X117679047Y-89294761D01*
X117726666Y-89247142D01*
D12*
X116493333Y-87602857D02*
X116474285Y-87621904D01*
X116417142Y-87640952D01*
X116379047Y-87640952D01*
X116321904Y-87621904D01*
X116283809Y-87583809D01*
X116264761Y-87545714D01*
X116245714Y-87469523D01*
X116245714Y-87412380D01*
X116264761Y-87336190D01*
X116283809Y-87298095D01*
X116321904Y-87260000D01*
X116379047Y-87240952D01*
X116417142Y-87240952D01*
X116474285Y-87260000D01*
X116493333Y-87279047D01*
X116645714Y-87279047D02*
X116664761Y-87260000D01*
X116702857Y-87240952D01*
X116798095Y-87240952D01*
X116836190Y-87260000D01*
X116855238Y-87279047D01*
X116874285Y-87317142D01*
X116874285Y-87355238D01*
X116855238Y-87412380D01*
X116626666Y-87640952D01*
X116874285Y-87640952D01*
D10*
%TO.C,J6*%
X111227142Y-101083333D02*
X111274761Y-101130952D01*
X111322380Y-101273809D01*
X111322380Y-101369047D01*
X111274761Y-101511904D01*
X111179523Y-101607142D01*
X111084285Y-101654761D01*
X110893809Y-101702380D01*
X110750952Y-101702380D01*
X110560476Y-101654761D01*
X110465238Y-101607142D01*
X110370000Y-101511904D01*
X110322380Y-101369047D01*
X110322380Y-101273809D01*
X110370000Y-101130952D01*
X110417619Y-101083333D01*
X111322380Y-100511904D02*
X111274761Y-100607142D01*
X111227142Y-100654761D01*
X111131904Y-100702380D01*
X110846190Y-100702380D01*
X110750952Y-100654761D01*
X110703333Y-100607142D01*
X110655714Y-100511904D01*
X110655714Y-100369047D01*
X110703333Y-100273809D01*
X110750952Y-100226190D01*
X110846190Y-100178571D01*
X111131904Y-100178571D01*
X111227142Y-100226190D01*
X111274761Y-100273809D01*
X111322380Y-100369047D01*
X111322380Y-100511904D01*
X110655714Y-99750000D02*
X111322380Y-99750000D01*
X110750952Y-99750000D02*
X110703333Y-99702380D01*
X110655714Y-99607142D01*
X110655714Y-99464285D01*
X110703333Y-99369047D01*
X110798571Y-99321428D01*
X111322380Y-99321428D01*
X110655714Y-98845238D02*
X111322380Y-98845238D01*
X110750952Y-98845238D02*
X110703333Y-98797619D01*
X110655714Y-98702380D01*
X110655714Y-98559523D01*
X110703333Y-98464285D01*
X110798571Y-98416666D01*
X111322380Y-98416666D01*
X111417619Y-98178571D02*
X111417619Y-97416666D01*
X110322380Y-96988095D02*
X110322380Y-96892857D01*
X110370000Y-96797619D01*
X110417619Y-96750000D01*
X110512857Y-96702380D01*
X110703333Y-96654761D01*
X110941428Y-96654761D01*
X111131904Y-96702380D01*
X111227142Y-96750000D01*
X111274761Y-96797619D01*
X111322380Y-96892857D01*
X111322380Y-96988095D01*
X111274761Y-97083333D01*
X111227142Y-97130952D01*
X111131904Y-97178571D01*
X110941428Y-97226190D01*
X110703333Y-97226190D01*
X110512857Y-97178571D01*
X110417619Y-97130952D01*
X110370000Y-97083333D01*
X110322380Y-96988095D01*
X111322380Y-95702380D02*
X111322380Y-96273809D01*
X111322380Y-95988095D02*
X110322380Y-95988095D01*
X110465238Y-96083333D01*
X110560476Y-96178571D01*
X110608095Y-96273809D01*
X111322380Y-95369047D02*
X110655714Y-94845238D01*
X110655714Y-95369047D02*
X111322380Y-94845238D01*
X110322380Y-94273809D02*
X110322380Y-94178571D01*
X110370000Y-94083333D01*
X110417619Y-94035714D01*
X110512857Y-93988095D01*
X110703333Y-93940476D01*
X110941428Y-93940476D01*
X111131904Y-93988095D01*
X111227142Y-94035714D01*
X111274761Y-94083333D01*
X111322380Y-94178571D01*
X111322380Y-94273809D01*
X111274761Y-94369047D01*
X111227142Y-94416666D01*
X111131904Y-94464285D01*
X110941428Y-94511904D01*
X110703333Y-94511904D01*
X110512857Y-94464285D01*
X110417619Y-94416666D01*
X110370000Y-94369047D01*
X110322380Y-94273809D01*
X110417619Y-93559523D02*
X110370000Y-93511904D01*
X110322380Y-93416666D01*
X110322380Y-93178571D01*
X110370000Y-93083333D01*
X110417619Y-93035714D01*
X110512857Y-92988095D01*
X110608095Y-92988095D01*
X110750952Y-93035714D01*
X111322380Y-93607142D01*
X111322380Y-92988095D01*
X111417619Y-92797619D02*
X111417619Y-92035714D01*
X111322380Y-91797619D02*
X110322380Y-91797619D01*
X111036666Y-91464285D01*
X110322380Y-91130952D01*
X111322380Y-91130952D01*
X111322380Y-90226190D02*
X110798571Y-90226190D01*
X110703333Y-90273809D01*
X110655714Y-90369047D01*
X110655714Y-90559523D01*
X110703333Y-90654761D01*
X111274761Y-90226190D02*
X111322380Y-90321428D01*
X111322380Y-90559523D01*
X111274761Y-90654761D01*
X111179523Y-90702380D01*
X111084285Y-90702380D01*
X110989047Y-90654761D01*
X110941428Y-90559523D01*
X110941428Y-90321428D01*
X110893809Y-90226190D01*
X111322380Y-89607142D02*
X111274761Y-89702380D01*
X111179523Y-89750000D01*
X110322380Y-89750000D01*
X111274761Y-88845238D02*
X111322380Y-88940476D01*
X111322380Y-89130952D01*
X111274761Y-89226190D01*
X111179523Y-89273809D01*
X110798571Y-89273809D01*
X110703333Y-89226190D01*
X110655714Y-89130952D01*
X110655714Y-88940476D01*
X110703333Y-88845238D01*
X110798571Y-88797619D01*
X110893809Y-88797619D01*
X110989047Y-89273809D01*
X106936666Y-94702380D02*
X106936666Y-95416666D01*
X106889047Y-95559523D01*
X106793809Y-95654761D01*
X106650952Y-95702380D01*
X106555714Y-95702380D01*
X107841428Y-94702380D02*
X107650952Y-94702380D01*
X107555714Y-94750000D01*
X107508095Y-94797619D01*
X107412857Y-94940476D01*
X107365238Y-95130952D01*
X107365238Y-95511904D01*
X107412857Y-95607142D01*
X107460476Y-95654761D01*
X107555714Y-95702380D01*
X107746190Y-95702380D01*
X107841428Y-95654761D01*
X107889047Y-95607142D01*
X107936666Y-95511904D01*
X107936666Y-95273809D01*
X107889047Y-95178571D01*
X107841428Y-95130952D01*
X107746190Y-95083333D01*
X107555714Y-95083333D01*
X107460476Y-95130952D01*
X107412857Y-95178571D01*
X107365238Y-95273809D01*
%TO.C,D5*%
X129678571Y-124245595D02*
X129726190Y-124102738D01*
X129773809Y-124055119D01*
X129869047Y-124007500D01*
X130011904Y-124007500D01*
X130107142Y-124055119D01*
X130154761Y-124102738D01*
X130202380Y-124197976D01*
X130202380Y-124578928D01*
X129202380Y-124578928D01*
X129202380Y-124245595D01*
X129250000Y-124150357D01*
X129297619Y-124102738D01*
X129392857Y-124055119D01*
X129488095Y-124055119D01*
X129583333Y-124102738D01*
X129630952Y-124150357D01*
X129678571Y-124245595D01*
X129678571Y-124578928D01*
X129916666Y-123626547D02*
X129916666Y-123150357D01*
X130202380Y-123721785D02*
X129202380Y-123388452D01*
X130202380Y-123055119D01*
X129202380Y-122864642D02*
X130202380Y-122531309D01*
X129202380Y-122197976D01*
X130202380Y-121817023D02*
X130202380Y-121626547D01*
X130154761Y-121531309D01*
X130107142Y-121483690D01*
X129964285Y-121388452D01*
X129773809Y-121340833D01*
X129392857Y-121340833D01*
X129297619Y-121388452D01*
X129250000Y-121436071D01*
X129202380Y-121531309D01*
X129202380Y-121721785D01*
X129250000Y-121817023D01*
X129297619Y-121864642D01*
X129392857Y-121912261D01*
X129630952Y-121912261D01*
X129726190Y-121864642D01*
X129773809Y-121817023D01*
X129821428Y-121721785D01*
X129821428Y-121531309D01*
X129773809Y-121436071D01*
X129726190Y-121388452D01*
X129630952Y-121340833D01*
X130202380Y-120864642D02*
X130202380Y-120674166D01*
X130154761Y-120578928D01*
X130107142Y-120531309D01*
X129964285Y-120436071D01*
X129773809Y-120388452D01*
X129392857Y-120388452D01*
X129297619Y-120436071D01*
X129250000Y-120483690D01*
X129202380Y-120578928D01*
X129202380Y-120769404D01*
X129250000Y-120864642D01*
X129297619Y-120912261D01*
X129392857Y-120959880D01*
X129630952Y-120959880D01*
X129726190Y-120912261D01*
X129773809Y-120864642D01*
X129821428Y-120769404D01*
X129821428Y-120578928D01*
X129773809Y-120483690D01*
X129726190Y-120436071D01*
X129630952Y-120388452D01*
D11*
X132294761Y-122743690D02*
X131974761Y-122743690D01*
X131974761Y-122667500D01*
X131990000Y-122621785D01*
X132020476Y-122591309D01*
X132050952Y-122576071D01*
X132111904Y-122560833D01*
X132157619Y-122560833D01*
X132218571Y-122576071D01*
X132249047Y-122591309D01*
X132279523Y-122621785D01*
X132294761Y-122667500D01*
X132294761Y-122743690D01*
X131974761Y-122271309D02*
X131974761Y-122423690D01*
X132127142Y-122438928D01*
X132111904Y-122423690D01*
X132096666Y-122393214D01*
X132096666Y-122317023D01*
X132111904Y-122286547D01*
X132127142Y-122271309D01*
X132157619Y-122256071D01*
X132233809Y-122256071D01*
X132264285Y-122271309D01*
X132279523Y-122286547D01*
X132294761Y-122317023D01*
X132294761Y-122393214D01*
X132279523Y-122423690D01*
X132264285Y-122438928D01*
D10*
%TO.C,R17*%
X156760714Y-98625000D02*
X157427380Y-98625000D01*
X156379761Y-98863095D02*
X157094047Y-99101190D01*
X157094047Y-98482142D01*
X157427380Y-98053571D02*
X157427380Y-97863095D01*
X157379761Y-97767857D01*
X157332142Y-97720238D01*
X157189285Y-97625000D01*
X156998809Y-97577380D01*
X156617857Y-97577380D01*
X156522619Y-97625000D01*
X156475000Y-97672619D01*
X156427380Y-97767857D01*
X156427380Y-97958333D01*
X156475000Y-98053571D01*
X156522619Y-98101190D01*
X156617857Y-98148809D01*
X156855952Y-98148809D01*
X156951190Y-98101190D01*
X156998809Y-98053571D01*
X157046428Y-97958333D01*
X157046428Y-97767857D01*
X156998809Y-97672619D01*
X156951190Y-97625000D01*
X156855952Y-97577380D01*
X157332142Y-97148809D02*
X157379761Y-97101190D01*
X157427380Y-97148809D01*
X157379761Y-97196428D01*
X157332142Y-97148809D01*
X157427380Y-97148809D01*
X157427380Y-96625000D02*
X157427380Y-96434523D01*
X157379761Y-96339285D01*
X157332142Y-96291666D01*
X157189285Y-96196428D01*
X156998809Y-96148809D01*
X156617857Y-96148809D01*
X156522619Y-96196428D01*
X156475000Y-96244047D01*
X156427380Y-96339285D01*
X156427380Y-96529761D01*
X156475000Y-96625000D01*
X156522619Y-96672619D01*
X156617857Y-96720238D01*
X156855952Y-96720238D01*
X156951190Y-96672619D01*
X156998809Y-96625000D01*
X157046428Y-96529761D01*
X157046428Y-96339285D01*
X156998809Y-96244047D01*
X156951190Y-96196428D01*
X156855952Y-96148809D01*
D12*
X158585952Y-97882142D02*
X158395476Y-98015476D01*
X158585952Y-98110714D02*
X158185952Y-98110714D01*
X158185952Y-97958333D01*
X158205000Y-97920238D01*
X158224047Y-97901190D01*
X158262142Y-97882142D01*
X158319285Y-97882142D01*
X158357380Y-97901190D01*
X158376428Y-97920238D01*
X158395476Y-97958333D01*
X158395476Y-98110714D01*
X158585952Y-97501190D02*
X158585952Y-97729761D01*
X158585952Y-97615476D02*
X158185952Y-97615476D01*
X158243095Y-97653571D01*
X158281190Y-97691666D01*
X158300238Y-97729761D01*
X158185952Y-97367857D02*
X158185952Y-97101190D01*
X158585952Y-97272619D01*
D10*
%TO.C,J4*%
X109337142Y-91260380D02*
X110003809Y-91260380D01*
X109575238Y-92260380D01*
X110575238Y-91260380D02*
X110670476Y-91260380D01*
X110765714Y-91308000D01*
X110813333Y-91355619D01*
X110860952Y-91450857D01*
X110908571Y-91641333D01*
X110908571Y-91879428D01*
X110860952Y-92069904D01*
X110813333Y-92165142D01*
X110765714Y-92212761D01*
X110670476Y-92260380D01*
X110575238Y-92260380D01*
X110480000Y-92212761D01*
X110432380Y-92165142D01*
X110384761Y-92069904D01*
X110337142Y-91879428D01*
X110337142Y-91641333D01*
X110384761Y-91450857D01*
X110432380Y-91355619D01*
X110480000Y-91308000D01*
X110575238Y-91260380D01*
X111813333Y-91260380D02*
X111337142Y-91260380D01*
X111289523Y-91736571D01*
X111337142Y-91688952D01*
X111432380Y-91641333D01*
X111670476Y-91641333D01*
X111765714Y-91688952D01*
X111813333Y-91736571D01*
X111860952Y-91831809D01*
X111860952Y-92069904D01*
X111813333Y-92165142D01*
X111765714Y-92212761D01*
X111670476Y-92260380D01*
X111432380Y-92260380D01*
X111337142Y-92212761D01*
X111289523Y-92165142D01*
X112718095Y-91593714D02*
X112718095Y-92260380D01*
X112480000Y-91212761D02*
X112241904Y-91927047D01*
X112860952Y-91927047D01*
X113146666Y-91260380D02*
X113765714Y-91260380D01*
X113432380Y-91641333D01*
X113575238Y-91641333D01*
X113670476Y-91688952D01*
X113718095Y-91736571D01*
X113765714Y-91831809D01*
X113765714Y-92069904D01*
X113718095Y-92165142D01*
X113670476Y-92212761D01*
X113575238Y-92260380D01*
X113289523Y-92260380D01*
X113194285Y-92212761D01*
X113146666Y-92165142D01*
X114384761Y-91260380D02*
X114480000Y-91260380D01*
X114575238Y-91308000D01*
X114622857Y-91355619D01*
X114670476Y-91450857D01*
X114718095Y-91641333D01*
X114718095Y-91879428D01*
X114670476Y-92069904D01*
X114622857Y-92165142D01*
X114575238Y-92212761D01*
X114480000Y-92260380D01*
X114384761Y-92260380D01*
X114289523Y-92212761D01*
X114241904Y-92165142D01*
X114194285Y-92069904D01*
X114146666Y-91879428D01*
X114146666Y-91641333D01*
X114194285Y-91450857D01*
X114241904Y-91355619D01*
X114289523Y-91308000D01*
X114384761Y-91260380D01*
X115337142Y-91260380D02*
X115432380Y-91260380D01*
X115527619Y-91308000D01*
X115575238Y-91355619D01*
X115622857Y-91450857D01*
X115670476Y-91641333D01*
X115670476Y-91879428D01*
X115622857Y-92069904D01*
X115575238Y-92165142D01*
X115527619Y-92212761D01*
X115432380Y-92260380D01*
X115337142Y-92260380D01*
X115241904Y-92212761D01*
X115194285Y-92165142D01*
X115146666Y-92069904D01*
X115099047Y-91879428D01*
X115099047Y-91641333D01*
X115146666Y-91450857D01*
X115194285Y-91355619D01*
X115241904Y-91308000D01*
X115337142Y-91260380D01*
X116289523Y-91260380D02*
X116384761Y-91260380D01*
X116480000Y-91308000D01*
X116527619Y-91355619D01*
X116575238Y-91450857D01*
X116622857Y-91641333D01*
X116622857Y-91879428D01*
X116575238Y-92069904D01*
X116527619Y-92165142D01*
X116480000Y-92212761D01*
X116384761Y-92260380D01*
X116289523Y-92260380D01*
X116194285Y-92212761D01*
X116146666Y-92165142D01*
X116099047Y-92069904D01*
X116051428Y-91879428D01*
X116051428Y-91641333D01*
X116099047Y-91450857D01*
X116146666Y-91355619D01*
X116194285Y-91308000D01*
X116289523Y-91260380D01*
X117575238Y-92260380D02*
X117003809Y-92260380D01*
X117289523Y-92260380D02*
X117289523Y-91260380D01*
X117194285Y-91403238D01*
X117099047Y-91498476D01*
X117003809Y-91546095D01*
%TO.C,C5*%
X155977619Y-123342857D02*
X155930000Y-123295238D01*
X155882380Y-123200000D01*
X155882380Y-122961904D01*
X155930000Y-122866666D01*
X155977619Y-122819047D01*
X156072857Y-122771428D01*
X156168095Y-122771428D01*
X156310952Y-122819047D01*
X156882380Y-123390476D01*
X156882380Y-122771428D01*
X155977619Y-122390476D02*
X155930000Y-122342857D01*
X155882380Y-122247619D01*
X155882380Y-122009523D01*
X155930000Y-121914285D01*
X155977619Y-121866666D01*
X156072857Y-121819047D01*
X156168095Y-121819047D01*
X156310952Y-121866666D01*
X156882380Y-122438095D01*
X156882380Y-121819047D01*
X156215714Y-120961904D02*
X156882380Y-120961904D01*
X156215714Y-121390476D02*
X156739523Y-121390476D01*
X156834761Y-121342857D01*
X156882380Y-121247619D01*
X156882380Y-121104761D01*
X156834761Y-121009523D01*
X156787142Y-120961904D01*
X156358571Y-120152380D02*
X156358571Y-120485714D01*
X156882380Y-120485714D02*
X155882380Y-120485714D01*
X155882380Y-120009523D01*
D13*
X154928571Y-121783333D02*
X154952380Y-121807142D01*
X154976190Y-121878571D01*
X154976190Y-121926190D01*
X154952380Y-121997619D01*
X154904761Y-122045238D01*
X154857142Y-122069047D01*
X154761904Y-122092857D01*
X154690476Y-122092857D01*
X154595238Y-122069047D01*
X154547619Y-122045238D01*
X154500000Y-121997619D01*
X154476190Y-121926190D01*
X154476190Y-121878571D01*
X154500000Y-121807142D01*
X154523809Y-121783333D01*
X154476190Y-121330952D02*
X154476190Y-121569047D01*
X154714285Y-121592857D01*
X154690476Y-121569047D01*
X154666666Y-121521428D01*
X154666666Y-121402380D01*
X154690476Y-121354761D01*
X154714285Y-121330952D01*
X154761904Y-121307142D01*
X154880952Y-121307142D01*
X154928571Y-121330952D01*
X154952380Y-121354761D01*
X154976190Y-121402380D01*
X154976190Y-121521428D01*
X154952380Y-121569047D01*
X154928571Y-121592857D01*
D10*
%TO.C,D9*%
X145098571Y-124345595D02*
X145146190Y-124202738D01*
X145193809Y-124155119D01*
X145289047Y-124107500D01*
X145431904Y-124107500D01*
X145527142Y-124155119D01*
X145574761Y-124202738D01*
X145622380Y-124297976D01*
X145622380Y-124678928D01*
X144622380Y-124678928D01*
X144622380Y-124345595D01*
X144670000Y-124250357D01*
X144717619Y-124202738D01*
X144812857Y-124155119D01*
X144908095Y-124155119D01*
X145003333Y-124202738D01*
X145050952Y-124250357D01*
X145098571Y-124345595D01*
X145098571Y-124678928D01*
X145336666Y-123726547D02*
X145336666Y-123250357D01*
X145622380Y-123821785D02*
X144622380Y-123488452D01*
X145622380Y-123155119D01*
X144622380Y-122964642D02*
X145622380Y-122631309D01*
X144622380Y-122297976D01*
X145622380Y-121917023D02*
X145622380Y-121726547D01*
X145574761Y-121631309D01*
X145527142Y-121583690D01*
X145384285Y-121488452D01*
X145193809Y-121440833D01*
X144812857Y-121440833D01*
X144717619Y-121488452D01*
X144670000Y-121536071D01*
X144622380Y-121631309D01*
X144622380Y-121821785D01*
X144670000Y-121917023D01*
X144717619Y-121964642D01*
X144812857Y-122012261D01*
X145050952Y-122012261D01*
X145146190Y-121964642D01*
X145193809Y-121917023D01*
X145241428Y-121821785D01*
X145241428Y-121631309D01*
X145193809Y-121536071D01*
X145146190Y-121488452D01*
X145050952Y-121440833D01*
X145622380Y-120964642D02*
X145622380Y-120774166D01*
X145574761Y-120678928D01*
X145527142Y-120631309D01*
X145384285Y-120536071D01*
X145193809Y-120488452D01*
X144812857Y-120488452D01*
X144717619Y-120536071D01*
X144670000Y-120583690D01*
X144622380Y-120678928D01*
X144622380Y-120869404D01*
X144670000Y-120964642D01*
X144717619Y-121012261D01*
X144812857Y-121059880D01*
X145050952Y-121059880D01*
X145146190Y-121012261D01*
X145193809Y-120964642D01*
X145241428Y-120869404D01*
X145241428Y-120678928D01*
X145193809Y-120583690D01*
X145146190Y-120536071D01*
X145050952Y-120488452D01*
D11*
X147714761Y-122843690D02*
X147394761Y-122843690D01*
X147394761Y-122767500D01*
X147410000Y-122721785D01*
X147440476Y-122691309D01*
X147470952Y-122676071D01*
X147531904Y-122660833D01*
X147577619Y-122660833D01*
X147638571Y-122676071D01*
X147669047Y-122691309D01*
X147699523Y-122721785D01*
X147714761Y-122767500D01*
X147714761Y-122843690D01*
X147714761Y-122508452D02*
X147714761Y-122447500D01*
X147699523Y-122417023D01*
X147684285Y-122401785D01*
X147638571Y-122371309D01*
X147577619Y-122356071D01*
X147455714Y-122356071D01*
X147425238Y-122371309D01*
X147410000Y-122386547D01*
X147394761Y-122417023D01*
X147394761Y-122477976D01*
X147410000Y-122508452D01*
X147425238Y-122523690D01*
X147455714Y-122538928D01*
X147531904Y-122538928D01*
X147562380Y-122523690D01*
X147577619Y-122508452D01*
X147592857Y-122477976D01*
X147592857Y-122417023D01*
X147577619Y-122386547D01*
X147562380Y-122371309D01*
X147531904Y-122356071D01*
D10*
%TO.C,U2*%
X111459047Y-88212380D02*
X110982857Y-88212380D01*
X110982857Y-87212380D01*
X111792380Y-88212380D02*
X111792380Y-87212380D01*
X112125714Y-87926666D01*
X112459047Y-87212380D01*
X112459047Y-88212380D01*
X113363809Y-87545714D02*
X113363809Y-88212380D01*
X113125714Y-87164761D02*
X112887619Y-87879047D01*
X113506666Y-87879047D01*
X114411428Y-88212380D02*
X113840000Y-88212380D01*
X114125714Y-88212380D02*
X114125714Y-87212380D01*
X114030476Y-87355238D01*
X113935238Y-87450476D01*
X113840000Y-87498095D01*
X114744761Y-87212380D02*
X115363809Y-87212380D01*
X115030476Y-87593333D01*
X115173333Y-87593333D01*
X115268571Y-87640952D01*
X115316190Y-87688571D01*
X115363809Y-87783809D01*
X115363809Y-88021904D01*
X115316190Y-88117142D01*
X115268571Y-88164761D01*
X115173333Y-88212380D01*
X114887619Y-88212380D01*
X114792380Y-88164761D01*
X114744761Y-88117142D01*
X115744761Y-87307619D02*
X115792380Y-87260000D01*
X115887619Y-87212380D01*
X116125714Y-87212380D01*
X116220952Y-87260000D01*
X116268571Y-87307619D01*
X116316190Y-87402857D01*
X116316190Y-87498095D01*
X116268571Y-87640952D01*
X115697142Y-88212380D01*
X116316190Y-88212380D01*
X116649523Y-88212380D02*
X117173333Y-87545714D01*
X116649523Y-87545714D02*
X117173333Y-88212380D01*
X117554285Y-88212380D02*
X117554285Y-87212380D01*
X117887619Y-87926666D01*
X118220952Y-87212380D01*
X118220952Y-88212380D01*
X119030476Y-87688571D02*
X118697142Y-87688571D01*
X118697142Y-88212380D02*
X118697142Y-87212380D01*
X119173333Y-87212380D01*
X119554285Y-87831428D02*
X120316190Y-87831428D01*
X120744761Y-87307619D02*
X120792380Y-87260000D01*
X120887619Y-87212380D01*
X121125714Y-87212380D01*
X121220952Y-87260000D01*
X121268571Y-87307619D01*
X121316190Y-87402857D01*
X121316190Y-87498095D01*
X121268571Y-87640952D01*
X120697142Y-88212380D01*
X121316190Y-88212380D01*
X121744761Y-88117142D02*
X121792380Y-88164761D01*
X121744761Y-88212380D01*
X121697142Y-88164761D01*
X121744761Y-88117142D01*
X121744761Y-88212380D01*
X122411428Y-87212380D02*
X122506666Y-87212380D01*
X122601904Y-87260000D01*
X122649523Y-87307619D01*
X122697142Y-87402857D01*
X122744761Y-87593333D01*
X122744761Y-87831428D01*
X122697142Y-88021904D01*
X122649523Y-88117142D01*
X122601904Y-88164761D01*
X122506666Y-88212380D01*
X122411428Y-88212380D01*
X122316190Y-88164761D01*
X122268571Y-88117142D01*
X122220952Y-88021904D01*
X122173333Y-87831428D01*
X122173333Y-87593333D01*
X122220952Y-87402857D01*
X122268571Y-87307619D01*
X122316190Y-87260000D01*
X122411428Y-87212380D01*
D12*
X116535238Y-89940952D02*
X116535238Y-90264761D01*
X116554285Y-90302857D01*
X116573333Y-90321904D01*
X116611428Y-90340952D01*
X116687619Y-90340952D01*
X116725714Y-90321904D01*
X116744761Y-90302857D01*
X116763809Y-90264761D01*
X116763809Y-89940952D01*
X116935238Y-89979047D02*
X116954285Y-89960000D01*
X116992380Y-89940952D01*
X117087619Y-89940952D01*
X117125714Y-89960000D01*
X117144761Y-89979047D01*
X117163809Y-90017142D01*
X117163809Y-90055238D01*
X117144761Y-90112380D01*
X116916190Y-90340952D01*
X117163809Y-90340952D01*
D10*
%TO.C,R23*%
X133885714Y-98625000D02*
X134552380Y-98625000D01*
X133504761Y-98863095D02*
X134219047Y-99101190D01*
X134219047Y-98482142D01*
X134552380Y-98053571D02*
X134552380Y-97863095D01*
X134504761Y-97767857D01*
X134457142Y-97720238D01*
X134314285Y-97625000D01*
X134123809Y-97577380D01*
X133742857Y-97577380D01*
X133647619Y-97625000D01*
X133600000Y-97672619D01*
X133552380Y-97767857D01*
X133552380Y-97958333D01*
X133600000Y-98053571D01*
X133647619Y-98101190D01*
X133742857Y-98148809D01*
X133980952Y-98148809D01*
X134076190Y-98101190D01*
X134123809Y-98053571D01*
X134171428Y-97958333D01*
X134171428Y-97767857D01*
X134123809Y-97672619D01*
X134076190Y-97625000D01*
X133980952Y-97577380D01*
X134457142Y-97148809D02*
X134504761Y-97101190D01*
X134552380Y-97148809D01*
X134504761Y-97196428D01*
X134457142Y-97148809D01*
X134552380Y-97148809D01*
X134552380Y-96625000D02*
X134552380Y-96434523D01*
X134504761Y-96339285D01*
X134457142Y-96291666D01*
X134314285Y-96196428D01*
X134123809Y-96148809D01*
X133742857Y-96148809D01*
X133647619Y-96196428D01*
X133600000Y-96244047D01*
X133552380Y-96339285D01*
X133552380Y-96529761D01*
X133600000Y-96625000D01*
X133647619Y-96672619D01*
X133742857Y-96720238D01*
X133980952Y-96720238D01*
X134076190Y-96672619D01*
X134123809Y-96625000D01*
X134171428Y-96529761D01*
X134171428Y-96339285D01*
X134123809Y-96244047D01*
X134076190Y-96196428D01*
X133980952Y-96148809D01*
D12*
X135710952Y-97882142D02*
X135520476Y-98015476D01*
X135710952Y-98110714D02*
X135310952Y-98110714D01*
X135310952Y-97958333D01*
X135330000Y-97920238D01*
X135349047Y-97901190D01*
X135387142Y-97882142D01*
X135444285Y-97882142D01*
X135482380Y-97901190D01*
X135501428Y-97920238D01*
X135520476Y-97958333D01*
X135520476Y-98110714D01*
X135349047Y-97729761D02*
X135330000Y-97710714D01*
X135310952Y-97672619D01*
X135310952Y-97577380D01*
X135330000Y-97539285D01*
X135349047Y-97520238D01*
X135387142Y-97501190D01*
X135425238Y-97501190D01*
X135482380Y-97520238D01*
X135710952Y-97748809D01*
X135710952Y-97501190D01*
X135310952Y-97367857D02*
X135310952Y-97120238D01*
X135463333Y-97253571D01*
X135463333Y-97196428D01*
X135482380Y-97158333D01*
X135501428Y-97139285D01*
X135539523Y-97120238D01*
X135634761Y-97120238D01*
X135672857Y-97139285D01*
X135691904Y-97158333D01*
X135710952Y-97196428D01*
X135710952Y-97310714D01*
X135691904Y-97348809D01*
X135672857Y-97367857D01*
D10*
%TO.C,R18*%
X154205714Y-98625000D02*
X154872380Y-98625000D01*
X153824761Y-98863095D02*
X154539047Y-99101190D01*
X154539047Y-98482142D01*
X154872380Y-98053571D02*
X154872380Y-97863095D01*
X154824761Y-97767857D01*
X154777142Y-97720238D01*
X154634285Y-97625000D01*
X154443809Y-97577380D01*
X154062857Y-97577380D01*
X153967619Y-97625000D01*
X153920000Y-97672619D01*
X153872380Y-97767857D01*
X153872380Y-97958333D01*
X153920000Y-98053571D01*
X153967619Y-98101190D01*
X154062857Y-98148809D01*
X154300952Y-98148809D01*
X154396190Y-98101190D01*
X154443809Y-98053571D01*
X154491428Y-97958333D01*
X154491428Y-97767857D01*
X154443809Y-97672619D01*
X154396190Y-97625000D01*
X154300952Y-97577380D01*
X154777142Y-97148809D02*
X154824761Y-97101190D01*
X154872380Y-97148809D01*
X154824761Y-97196428D01*
X154777142Y-97148809D01*
X154872380Y-97148809D01*
X154872380Y-96625000D02*
X154872380Y-96434523D01*
X154824761Y-96339285D01*
X154777142Y-96291666D01*
X154634285Y-96196428D01*
X154443809Y-96148809D01*
X154062857Y-96148809D01*
X153967619Y-96196428D01*
X153920000Y-96244047D01*
X153872380Y-96339285D01*
X153872380Y-96529761D01*
X153920000Y-96625000D01*
X153967619Y-96672619D01*
X154062857Y-96720238D01*
X154300952Y-96720238D01*
X154396190Y-96672619D01*
X154443809Y-96625000D01*
X154491428Y-96529761D01*
X154491428Y-96339285D01*
X154443809Y-96244047D01*
X154396190Y-96196428D01*
X154300952Y-96148809D01*
D12*
X156030952Y-97882142D02*
X155840476Y-98015476D01*
X156030952Y-98110714D02*
X155630952Y-98110714D01*
X155630952Y-97958333D01*
X155650000Y-97920238D01*
X155669047Y-97901190D01*
X155707142Y-97882142D01*
X155764285Y-97882142D01*
X155802380Y-97901190D01*
X155821428Y-97920238D01*
X155840476Y-97958333D01*
X155840476Y-98110714D01*
X156030952Y-97501190D02*
X156030952Y-97729761D01*
X156030952Y-97615476D02*
X155630952Y-97615476D01*
X155688095Y-97653571D01*
X155726190Y-97691666D01*
X155745238Y-97729761D01*
X155802380Y-97272619D02*
X155783333Y-97310714D01*
X155764285Y-97329761D01*
X155726190Y-97348809D01*
X155707142Y-97348809D01*
X155669047Y-97329761D01*
X155650000Y-97310714D01*
X155630952Y-97272619D01*
X155630952Y-97196428D01*
X155650000Y-97158333D01*
X155669047Y-97139285D01*
X155707142Y-97120238D01*
X155726190Y-97120238D01*
X155764285Y-97139285D01*
X155783333Y-97158333D01*
X155802380Y-97196428D01*
X155802380Y-97272619D01*
X155821428Y-97310714D01*
X155840476Y-97329761D01*
X155878571Y-97348809D01*
X155954761Y-97348809D01*
X155992857Y-97329761D01*
X156011904Y-97310714D01*
X156030952Y-97272619D01*
X156030952Y-97196428D01*
X156011904Y-97158333D01*
X155992857Y-97139285D01*
X155954761Y-97120238D01*
X155878571Y-97120238D01*
X155840476Y-97139285D01*
X155821428Y-97158333D01*
X155802380Y-97196428D01*
D10*
%TO.C,R14*%
X123505714Y-116590000D02*
X124172380Y-116590000D01*
X123124761Y-116828095D02*
X123839047Y-117066190D01*
X123839047Y-116447142D01*
X124172380Y-116018571D02*
X124172380Y-115828095D01*
X124124761Y-115732857D01*
X124077142Y-115685238D01*
X123934285Y-115590000D01*
X123743809Y-115542380D01*
X123362857Y-115542380D01*
X123267619Y-115590000D01*
X123220000Y-115637619D01*
X123172380Y-115732857D01*
X123172380Y-115923333D01*
X123220000Y-116018571D01*
X123267619Y-116066190D01*
X123362857Y-116113809D01*
X123600952Y-116113809D01*
X123696190Y-116066190D01*
X123743809Y-116018571D01*
X123791428Y-115923333D01*
X123791428Y-115732857D01*
X123743809Y-115637619D01*
X123696190Y-115590000D01*
X123600952Y-115542380D01*
X124077142Y-115113809D02*
X124124761Y-115066190D01*
X124172380Y-115113809D01*
X124124761Y-115161428D01*
X124077142Y-115113809D01*
X124172380Y-115113809D01*
X124172380Y-114590000D02*
X124172380Y-114399523D01*
X124124761Y-114304285D01*
X124077142Y-114256666D01*
X123934285Y-114161428D01*
X123743809Y-114113809D01*
X123362857Y-114113809D01*
X123267619Y-114161428D01*
X123220000Y-114209047D01*
X123172380Y-114304285D01*
X123172380Y-114494761D01*
X123220000Y-114590000D01*
X123267619Y-114637619D01*
X123362857Y-114685238D01*
X123600952Y-114685238D01*
X123696190Y-114637619D01*
X123743809Y-114590000D01*
X123791428Y-114494761D01*
X123791428Y-114304285D01*
X123743809Y-114209047D01*
X123696190Y-114161428D01*
X123600952Y-114113809D01*
D12*
X125330952Y-115847142D02*
X125140476Y-115980476D01*
X125330952Y-116075714D02*
X124930952Y-116075714D01*
X124930952Y-115923333D01*
X124950000Y-115885238D01*
X124969047Y-115866190D01*
X125007142Y-115847142D01*
X125064285Y-115847142D01*
X125102380Y-115866190D01*
X125121428Y-115885238D01*
X125140476Y-115923333D01*
X125140476Y-116075714D01*
X125330952Y-115466190D02*
X125330952Y-115694761D01*
X125330952Y-115580476D02*
X124930952Y-115580476D01*
X124988095Y-115618571D01*
X125026190Y-115656666D01*
X125045238Y-115694761D01*
X125064285Y-115123333D02*
X125330952Y-115123333D01*
X124911904Y-115218571D02*
X125197619Y-115313809D01*
X125197619Y-115066190D01*
D10*
%TO.C,R3*%
X110853333Y-105182380D02*
X110281904Y-105182380D01*
X110567619Y-105182380D02*
X110567619Y-104182380D01*
X110472380Y-104325238D01*
X110377142Y-104420476D01*
X110281904Y-104468095D01*
X111472380Y-104182380D02*
X111567619Y-104182380D01*
X111662857Y-104230000D01*
X111710476Y-104277619D01*
X111758095Y-104372857D01*
X111805714Y-104563333D01*
X111805714Y-104801428D01*
X111758095Y-104991904D01*
X111710476Y-105087142D01*
X111662857Y-105134761D01*
X111567619Y-105182380D01*
X111472380Y-105182380D01*
X111377142Y-105134761D01*
X111329523Y-105087142D01*
X111281904Y-104991904D01*
X111234285Y-104801428D01*
X111234285Y-104563333D01*
X111281904Y-104372857D01*
X111329523Y-104277619D01*
X111377142Y-104230000D01*
X111472380Y-104182380D01*
X112424761Y-104182380D02*
X112520000Y-104182380D01*
X112615238Y-104230000D01*
X112662857Y-104277619D01*
X112710476Y-104372857D01*
X112758095Y-104563333D01*
X112758095Y-104801428D01*
X112710476Y-104991904D01*
X112662857Y-105087142D01*
X112615238Y-105134761D01*
X112520000Y-105182380D01*
X112424761Y-105182380D01*
X112329523Y-105134761D01*
X112281904Y-105087142D01*
X112234285Y-104991904D01*
X112186666Y-104801428D01*
X112186666Y-104563333D01*
X112234285Y-104372857D01*
X112281904Y-104277619D01*
X112329523Y-104230000D01*
X112424761Y-104182380D01*
X113758095Y-105182380D02*
X113424761Y-104706190D01*
X113186666Y-105182380D02*
X113186666Y-104182380D01*
X113567619Y-104182380D01*
X113662857Y-104230000D01*
X113710476Y-104277619D01*
X113758095Y-104372857D01*
X113758095Y-104515714D01*
X113710476Y-104610952D01*
X113662857Y-104658571D01*
X113567619Y-104706190D01*
X113186666Y-104706190D01*
D12*
X111953333Y-103480952D02*
X111820000Y-103290476D01*
X111724761Y-103480952D02*
X111724761Y-103080952D01*
X111877142Y-103080952D01*
X111915238Y-103100000D01*
X111934285Y-103119047D01*
X111953333Y-103157142D01*
X111953333Y-103214285D01*
X111934285Y-103252380D01*
X111915238Y-103271428D01*
X111877142Y-103290476D01*
X111724761Y-103290476D01*
X112086666Y-103080952D02*
X112334285Y-103080952D01*
X112200952Y-103233333D01*
X112258095Y-103233333D01*
X112296190Y-103252380D01*
X112315238Y-103271428D01*
X112334285Y-103309523D01*
X112334285Y-103404761D01*
X112315238Y-103442857D01*
X112296190Y-103461904D01*
X112258095Y-103480952D01*
X112143809Y-103480952D01*
X112105714Y-103461904D01*
X112086666Y-103442857D01*
D10*
%TO.C,D10*%
X139918571Y-124335595D02*
X139966190Y-124192738D01*
X140013809Y-124145119D01*
X140109047Y-124097500D01*
X140251904Y-124097500D01*
X140347142Y-124145119D01*
X140394761Y-124192738D01*
X140442380Y-124287976D01*
X140442380Y-124668928D01*
X139442380Y-124668928D01*
X139442380Y-124335595D01*
X139490000Y-124240357D01*
X139537619Y-124192738D01*
X139632857Y-124145119D01*
X139728095Y-124145119D01*
X139823333Y-124192738D01*
X139870952Y-124240357D01*
X139918571Y-124335595D01*
X139918571Y-124668928D01*
X140156666Y-123716547D02*
X140156666Y-123240357D01*
X140442380Y-123811785D02*
X139442380Y-123478452D01*
X140442380Y-123145119D01*
X139442380Y-122954642D02*
X140442380Y-122621309D01*
X139442380Y-122287976D01*
X140442380Y-121907023D02*
X140442380Y-121716547D01*
X140394761Y-121621309D01*
X140347142Y-121573690D01*
X140204285Y-121478452D01*
X140013809Y-121430833D01*
X139632857Y-121430833D01*
X139537619Y-121478452D01*
X139490000Y-121526071D01*
X139442380Y-121621309D01*
X139442380Y-121811785D01*
X139490000Y-121907023D01*
X139537619Y-121954642D01*
X139632857Y-122002261D01*
X139870952Y-122002261D01*
X139966190Y-121954642D01*
X140013809Y-121907023D01*
X140061428Y-121811785D01*
X140061428Y-121621309D01*
X140013809Y-121526071D01*
X139966190Y-121478452D01*
X139870952Y-121430833D01*
X140442380Y-120954642D02*
X140442380Y-120764166D01*
X140394761Y-120668928D01*
X140347142Y-120621309D01*
X140204285Y-120526071D01*
X140013809Y-120478452D01*
X139632857Y-120478452D01*
X139537619Y-120526071D01*
X139490000Y-120573690D01*
X139442380Y-120668928D01*
X139442380Y-120859404D01*
X139490000Y-120954642D01*
X139537619Y-121002261D01*
X139632857Y-121049880D01*
X139870952Y-121049880D01*
X139966190Y-121002261D01*
X140013809Y-120954642D01*
X140061428Y-120859404D01*
X140061428Y-120668928D01*
X140013809Y-120573690D01*
X139966190Y-120526071D01*
X139870952Y-120478452D01*
D11*
X142534761Y-122986071D02*
X142214761Y-122986071D01*
X142214761Y-122909880D01*
X142230000Y-122864166D01*
X142260476Y-122833690D01*
X142290952Y-122818452D01*
X142351904Y-122803214D01*
X142397619Y-122803214D01*
X142458571Y-122818452D01*
X142489047Y-122833690D01*
X142519523Y-122864166D01*
X142534761Y-122909880D01*
X142534761Y-122986071D01*
X142534761Y-122498452D02*
X142534761Y-122681309D01*
X142534761Y-122589880D02*
X142214761Y-122589880D01*
X142260476Y-122620357D01*
X142290952Y-122650833D01*
X142306190Y-122681309D01*
X142214761Y-122300357D02*
X142214761Y-122269880D01*
X142230000Y-122239404D01*
X142245238Y-122224166D01*
X142275714Y-122208928D01*
X142336666Y-122193690D01*
X142412857Y-122193690D01*
X142473809Y-122208928D01*
X142504285Y-122224166D01*
X142519523Y-122239404D01*
X142534761Y-122269880D01*
X142534761Y-122300357D01*
X142519523Y-122330833D01*
X142504285Y-122346071D01*
X142473809Y-122361309D01*
X142412857Y-122376547D01*
X142336666Y-122376547D01*
X142275714Y-122361309D01*
X142245238Y-122346071D01*
X142230000Y-122330833D01*
X142214761Y-122300357D01*
D10*
%TO.C,J2*%
X148377142Y-94312857D02*
X148424761Y-94360476D01*
X148472380Y-94503333D01*
X148472380Y-94598571D01*
X148424761Y-94741428D01*
X148329523Y-94836666D01*
X148234285Y-94884285D01*
X148043809Y-94931904D01*
X147900952Y-94931904D01*
X147710476Y-94884285D01*
X147615238Y-94836666D01*
X147520000Y-94741428D01*
X147472380Y-94598571D01*
X147472380Y-94503333D01*
X147520000Y-94360476D01*
X147567619Y-94312857D01*
X148472380Y-93741428D02*
X148424761Y-93836666D01*
X148377142Y-93884285D01*
X148281904Y-93931904D01*
X147996190Y-93931904D01*
X147900952Y-93884285D01*
X147853333Y-93836666D01*
X147805714Y-93741428D01*
X147805714Y-93598571D01*
X147853333Y-93503333D01*
X147900952Y-93455714D01*
X147996190Y-93408095D01*
X148281904Y-93408095D01*
X148377142Y-93455714D01*
X148424761Y-93503333D01*
X148472380Y-93598571D01*
X148472380Y-93741428D01*
X147805714Y-92979523D02*
X148472380Y-92979523D01*
X147900952Y-92979523D02*
X147853333Y-92931904D01*
X147805714Y-92836666D01*
X147805714Y-92693809D01*
X147853333Y-92598571D01*
X147948571Y-92550952D01*
X148472380Y-92550952D01*
X147805714Y-92074761D02*
X148472380Y-92074761D01*
X147900952Y-92074761D02*
X147853333Y-92027142D01*
X147805714Y-91931904D01*
X147805714Y-91789047D01*
X147853333Y-91693809D01*
X147948571Y-91646190D01*
X148472380Y-91646190D01*
X148567619Y-91408095D02*
X148567619Y-90646190D01*
X147472380Y-90217619D02*
X147472380Y-90122380D01*
X147520000Y-90027142D01*
X147567619Y-89979523D01*
X147662857Y-89931904D01*
X147853333Y-89884285D01*
X148091428Y-89884285D01*
X148281904Y-89931904D01*
X148377142Y-89979523D01*
X148424761Y-90027142D01*
X148472380Y-90122380D01*
X148472380Y-90217619D01*
X148424761Y-90312857D01*
X148377142Y-90360476D01*
X148281904Y-90408095D01*
X148091428Y-90455714D01*
X147853333Y-90455714D01*
X147662857Y-90408095D01*
X147567619Y-90360476D01*
X147520000Y-90312857D01*
X147472380Y-90217619D01*
X147567619Y-89503333D02*
X147520000Y-89455714D01*
X147472380Y-89360476D01*
X147472380Y-89122380D01*
X147520000Y-89027142D01*
X147567619Y-88979523D01*
X147662857Y-88931904D01*
X147758095Y-88931904D01*
X147900952Y-88979523D01*
X148472380Y-89550952D01*
X148472380Y-88931904D01*
X148472380Y-88598571D02*
X147805714Y-88074761D01*
X147805714Y-88598571D02*
X148472380Y-88074761D01*
X148472380Y-87170000D02*
X148472380Y-87741428D01*
X148472380Y-87455714D02*
X147472380Y-87455714D01*
X147615238Y-87550952D01*
X147710476Y-87646190D01*
X147758095Y-87741428D01*
X147472380Y-86550952D02*
X147472380Y-86455714D01*
X147520000Y-86360476D01*
X147567619Y-86312857D01*
X147662857Y-86265238D01*
X147853333Y-86217619D01*
X148091428Y-86217619D01*
X148281904Y-86265238D01*
X148377142Y-86312857D01*
X148424761Y-86360476D01*
X148472380Y-86455714D01*
X148472380Y-86550952D01*
X148424761Y-86646190D01*
X148377142Y-86693809D01*
X148281904Y-86741428D01*
X148091428Y-86789047D01*
X147853333Y-86789047D01*
X147662857Y-86741428D01*
X147567619Y-86693809D01*
X147520000Y-86646190D01*
X147472380Y-86550952D01*
X148567619Y-86027142D02*
X148567619Y-85265238D01*
X147472380Y-84836666D02*
X147472380Y-84646190D01*
X147520000Y-84550952D01*
X147615238Y-84455714D01*
X147805714Y-84408095D01*
X148139047Y-84408095D01*
X148329523Y-84455714D01*
X148424761Y-84550952D01*
X148472380Y-84646190D01*
X148472380Y-84836666D01*
X148424761Y-84931904D01*
X148329523Y-85027142D01*
X148139047Y-85074761D01*
X147805714Y-85074761D01*
X147615238Y-85027142D01*
X147520000Y-84931904D01*
X147472380Y-84836666D01*
X148472380Y-83550952D02*
X147472380Y-83550952D01*
X148424761Y-83550952D02*
X148472380Y-83646190D01*
X148472380Y-83836666D01*
X148424761Y-83931904D01*
X148377142Y-83979523D01*
X148281904Y-84027142D01*
X147996190Y-84027142D01*
X147900952Y-83979523D01*
X147853333Y-83931904D01*
X147805714Y-83836666D01*
X147805714Y-83646190D01*
X147853333Y-83550952D01*
X148472380Y-82646190D02*
X147472380Y-82646190D01*
X148424761Y-82646190D02*
X148472380Y-82741428D01*
X148472380Y-82931904D01*
X148424761Y-83027142D01*
X148377142Y-83074761D01*
X148281904Y-83122380D01*
X147996190Y-83122380D01*
X147900952Y-83074761D01*
X147853333Y-83027142D01*
X147805714Y-82931904D01*
X147805714Y-82741428D01*
X147853333Y-82646190D01*
X148567619Y-82408095D02*
X148567619Y-81646190D01*
X147948571Y-81408095D02*
X147948571Y-81074761D01*
X148472380Y-80931904D02*
X148472380Y-81408095D01*
X147472380Y-81408095D01*
X147472380Y-80931904D01*
X147805714Y-80598571D02*
X148472380Y-80360476D01*
X147805714Y-80122380D01*
X148424761Y-79360476D02*
X148472380Y-79455714D01*
X148472380Y-79646190D01*
X148424761Y-79741428D01*
X148329523Y-79789047D01*
X147948571Y-79789047D01*
X147853333Y-79741428D01*
X147805714Y-79646190D01*
X147805714Y-79455714D01*
X147853333Y-79360476D01*
X147948571Y-79312857D01*
X148043809Y-79312857D01*
X148139047Y-79789047D01*
X147805714Y-78884285D02*
X148472380Y-78884285D01*
X147900952Y-78884285D02*
X147853333Y-78836666D01*
X147805714Y-78741428D01*
X147805714Y-78598571D01*
X147853333Y-78503333D01*
X147948571Y-78455714D01*
X148472380Y-78455714D01*
X133926666Y-86122380D02*
X133926666Y-86836666D01*
X133879047Y-86979523D01*
X133783809Y-87074761D01*
X133640952Y-87122380D01*
X133545714Y-87122380D01*
X134355238Y-86217619D02*
X134402857Y-86170000D01*
X134498095Y-86122380D01*
X134736190Y-86122380D01*
X134831428Y-86170000D01*
X134879047Y-86217619D01*
X134926666Y-86312857D01*
X134926666Y-86408095D01*
X134879047Y-86550952D01*
X134307619Y-87122380D01*
X134926666Y-87122380D01*
%TO.C,R1*%
X110853333Y-102642380D02*
X110281904Y-102642380D01*
X110567619Y-102642380D02*
X110567619Y-101642380D01*
X110472380Y-101785238D01*
X110377142Y-101880476D01*
X110281904Y-101928095D01*
X111472380Y-101642380D02*
X111567619Y-101642380D01*
X111662857Y-101690000D01*
X111710476Y-101737619D01*
X111758095Y-101832857D01*
X111805714Y-102023333D01*
X111805714Y-102261428D01*
X111758095Y-102451904D01*
X111710476Y-102547142D01*
X111662857Y-102594761D01*
X111567619Y-102642380D01*
X111472380Y-102642380D01*
X111377142Y-102594761D01*
X111329523Y-102547142D01*
X111281904Y-102451904D01*
X111234285Y-102261428D01*
X111234285Y-102023333D01*
X111281904Y-101832857D01*
X111329523Y-101737619D01*
X111377142Y-101690000D01*
X111472380Y-101642380D01*
X112424761Y-101642380D02*
X112520000Y-101642380D01*
X112615238Y-101690000D01*
X112662857Y-101737619D01*
X112710476Y-101832857D01*
X112758095Y-102023333D01*
X112758095Y-102261428D01*
X112710476Y-102451904D01*
X112662857Y-102547142D01*
X112615238Y-102594761D01*
X112520000Y-102642380D01*
X112424761Y-102642380D01*
X112329523Y-102594761D01*
X112281904Y-102547142D01*
X112234285Y-102451904D01*
X112186666Y-102261428D01*
X112186666Y-102023333D01*
X112234285Y-101832857D01*
X112281904Y-101737619D01*
X112329523Y-101690000D01*
X112424761Y-101642380D01*
X113758095Y-102642380D02*
X113424761Y-102166190D01*
X113186666Y-102642380D02*
X113186666Y-101642380D01*
X113567619Y-101642380D01*
X113662857Y-101690000D01*
X113710476Y-101737619D01*
X113758095Y-101832857D01*
X113758095Y-101975714D01*
X113710476Y-102070952D01*
X113662857Y-102118571D01*
X113567619Y-102166190D01*
X113186666Y-102166190D01*
D12*
X111953333Y-100940952D02*
X111820000Y-100750476D01*
X111724761Y-100940952D02*
X111724761Y-100540952D01*
X111877142Y-100540952D01*
X111915238Y-100560000D01*
X111934285Y-100579047D01*
X111953333Y-100617142D01*
X111953333Y-100674285D01*
X111934285Y-100712380D01*
X111915238Y-100731428D01*
X111877142Y-100750476D01*
X111724761Y-100750476D01*
X112334285Y-100940952D02*
X112105714Y-100940952D01*
X112220000Y-100940952D02*
X112220000Y-100540952D01*
X112181904Y-100598095D01*
X112143809Y-100636190D01*
X112105714Y-100655238D01*
D10*
%TO.C,J5*%
X163587142Y-91260380D02*
X164253809Y-91260380D01*
X163825238Y-92260380D01*
X164825238Y-91260380D02*
X164920476Y-91260380D01*
X165015714Y-91308000D01*
X165063333Y-91355619D01*
X165110952Y-91450857D01*
X165158571Y-91641333D01*
X165158571Y-91879428D01*
X165110952Y-92069904D01*
X165063333Y-92165142D01*
X165015714Y-92212761D01*
X164920476Y-92260380D01*
X164825238Y-92260380D01*
X164730000Y-92212761D01*
X164682380Y-92165142D01*
X164634761Y-92069904D01*
X164587142Y-91879428D01*
X164587142Y-91641333D01*
X164634761Y-91450857D01*
X164682380Y-91355619D01*
X164730000Y-91308000D01*
X164825238Y-91260380D01*
X166063333Y-91260380D02*
X165587142Y-91260380D01*
X165539523Y-91736571D01*
X165587142Y-91688952D01*
X165682380Y-91641333D01*
X165920476Y-91641333D01*
X166015714Y-91688952D01*
X166063333Y-91736571D01*
X166110952Y-91831809D01*
X166110952Y-92069904D01*
X166063333Y-92165142D01*
X166015714Y-92212761D01*
X165920476Y-92260380D01*
X165682380Y-92260380D01*
X165587142Y-92212761D01*
X165539523Y-92165142D01*
X166968095Y-91593714D02*
X166968095Y-92260380D01*
X166730000Y-91212761D02*
X166491904Y-91927047D01*
X167110952Y-91927047D01*
X167396666Y-91260380D02*
X168015714Y-91260380D01*
X167682380Y-91641333D01*
X167825238Y-91641333D01*
X167920476Y-91688952D01*
X167968095Y-91736571D01*
X168015714Y-91831809D01*
X168015714Y-92069904D01*
X167968095Y-92165142D01*
X167920476Y-92212761D01*
X167825238Y-92260380D01*
X167539523Y-92260380D01*
X167444285Y-92212761D01*
X167396666Y-92165142D01*
X168634761Y-91260380D02*
X168730000Y-91260380D01*
X168825238Y-91308000D01*
X168872857Y-91355619D01*
X168920476Y-91450857D01*
X168968095Y-91641333D01*
X168968095Y-91879428D01*
X168920476Y-92069904D01*
X168872857Y-92165142D01*
X168825238Y-92212761D01*
X168730000Y-92260380D01*
X168634761Y-92260380D01*
X168539523Y-92212761D01*
X168491904Y-92165142D01*
X168444285Y-92069904D01*
X168396666Y-91879428D01*
X168396666Y-91641333D01*
X168444285Y-91450857D01*
X168491904Y-91355619D01*
X168539523Y-91308000D01*
X168634761Y-91260380D01*
X169587142Y-91260380D02*
X169682380Y-91260380D01*
X169777619Y-91308000D01*
X169825238Y-91355619D01*
X169872857Y-91450857D01*
X169920476Y-91641333D01*
X169920476Y-91879428D01*
X169872857Y-92069904D01*
X169825238Y-92165142D01*
X169777619Y-92212761D01*
X169682380Y-92260380D01*
X169587142Y-92260380D01*
X169491904Y-92212761D01*
X169444285Y-92165142D01*
X169396666Y-92069904D01*
X169349047Y-91879428D01*
X169349047Y-91641333D01*
X169396666Y-91450857D01*
X169444285Y-91355619D01*
X169491904Y-91308000D01*
X169587142Y-91260380D01*
X170539523Y-91260380D02*
X170634761Y-91260380D01*
X170730000Y-91308000D01*
X170777619Y-91355619D01*
X170825238Y-91450857D01*
X170872857Y-91641333D01*
X170872857Y-91879428D01*
X170825238Y-92069904D01*
X170777619Y-92165142D01*
X170730000Y-92212761D01*
X170634761Y-92260380D01*
X170539523Y-92260380D01*
X170444285Y-92212761D01*
X170396666Y-92165142D01*
X170349047Y-92069904D01*
X170301428Y-91879428D01*
X170301428Y-91641333D01*
X170349047Y-91450857D01*
X170396666Y-91355619D01*
X170444285Y-91308000D01*
X170539523Y-91260380D01*
X171825238Y-92260380D02*
X171253809Y-92260380D01*
X171539523Y-92260380D02*
X171539523Y-91260380D01*
X171444285Y-91403238D01*
X171349047Y-91498476D01*
X171253809Y-91546095D01*
%TO.C,L1*%
X157572380Y-123166666D02*
X157572380Y-123738095D01*
X157572380Y-123452380D02*
X156572380Y-123452380D01*
X156715238Y-123547619D01*
X156810476Y-123642857D01*
X156858095Y-123738095D01*
X156572380Y-122547619D02*
X156572380Y-122452380D01*
X156620000Y-122357142D01*
X156667619Y-122309523D01*
X156762857Y-122261904D01*
X156953333Y-122214285D01*
X157191428Y-122214285D01*
X157381904Y-122261904D01*
X157477142Y-122309523D01*
X157524761Y-122357142D01*
X157572380Y-122452380D01*
X157572380Y-122547619D01*
X157524761Y-122642857D01*
X157477142Y-122690476D01*
X157381904Y-122738095D01*
X157191428Y-122785714D01*
X156953333Y-122785714D01*
X156762857Y-122738095D01*
X156667619Y-122690476D01*
X156620000Y-122642857D01*
X156572380Y-122547619D01*
X156905714Y-121357142D02*
X157572380Y-121357142D01*
X156905714Y-121785714D02*
X157429523Y-121785714D01*
X157524761Y-121738095D01*
X157572380Y-121642857D01*
X157572380Y-121500000D01*
X157524761Y-121404761D01*
X157477142Y-121357142D01*
X157572380Y-120880952D02*
X156572380Y-120880952D01*
X157048571Y-120880952D02*
X157048571Y-120309523D01*
X157572380Y-120309523D02*
X156572380Y-120309523D01*
X161072380Y-122166666D02*
X161072380Y-122642857D01*
X160072380Y-122642857D01*
X161072380Y-121309523D02*
X161072380Y-121880952D01*
X161072380Y-121595238D02*
X160072380Y-121595238D01*
X160215238Y-121690476D01*
X160310476Y-121785714D01*
X160358095Y-121880952D01*
%TO.C,R13*%
X138980714Y-98625000D02*
X139647380Y-98625000D01*
X138599761Y-98863095D02*
X139314047Y-99101190D01*
X139314047Y-98482142D01*
X139647380Y-98053571D02*
X139647380Y-97863095D01*
X139599761Y-97767857D01*
X139552142Y-97720238D01*
X139409285Y-97625000D01*
X139218809Y-97577380D01*
X138837857Y-97577380D01*
X138742619Y-97625000D01*
X138695000Y-97672619D01*
X138647380Y-97767857D01*
X138647380Y-97958333D01*
X138695000Y-98053571D01*
X138742619Y-98101190D01*
X138837857Y-98148809D01*
X139075952Y-98148809D01*
X139171190Y-98101190D01*
X139218809Y-98053571D01*
X139266428Y-97958333D01*
X139266428Y-97767857D01*
X139218809Y-97672619D01*
X139171190Y-97625000D01*
X139075952Y-97577380D01*
X139552142Y-97148809D02*
X139599761Y-97101190D01*
X139647380Y-97148809D01*
X139599761Y-97196428D01*
X139552142Y-97148809D01*
X139647380Y-97148809D01*
X139647380Y-96625000D02*
X139647380Y-96434523D01*
X139599761Y-96339285D01*
X139552142Y-96291666D01*
X139409285Y-96196428D01*
X139218809Y-96148809D01*
X138837857Y-96148809D01*
X138742619Y-96196428D01*
X138695000Y-96244047D01*
X138647380Y-96339285D01*
X138647380Y-96529761D01*
X138695000Y-96625000D01*
X138742619Y-96672619D01*
X138837857Y-96720238D01*
X139075952Y-96720238D01*
X139171190Y-96672619D01*
X139218809Y-96625000D01*
X139266428Y-96529761D01*
X139266428Y-96339285D01*
X139218809Y-96244047D01*
X139171190Y-96196428D01*
X139075952Y-96148809D01*
D12*
X140805952Y-97882142D02*
X140615476Y-98015476D01*
X140805952Y-98110714D02*
X140405952Y-98110714D01*
X140405952Y-97958333D01*
X140425000Y-97920238D01*
X140444047Y-97901190D01*
X140482142Y-97882142D01*
X140539285Y-97882142D01*
X140577380Y-97901190D01*
X140596428Y-97920238D01*
X140615476Y-97958333D01*
X140615476Y-98110714D01*
X140805952Y-97501190D02*
X140805952Y-97729761D01*
X140805952Y-97615476D02*
X140405952Y-97615476D01*
X140463095Y-97653571D01*
X140501190Y-97691666D01*
X140520238Y-97729761D01*
X140405952Y-97367857D02*
X140405952Y-97120238D01*
X140558333Y-97253571D01*
X140558333Y-97196428D01*
X140577380Y-97158333D01*
X140596428Y-97139285D01*
X140634523Y-97120238D01*
X140729761Y-97120238D01*
X140767857Y-97139285D01*
X140786904Y-97158333D01*
X140805952Y-97196428D01*
X140805952Y-97310714D01*
X140786904Y-97348809D01*
X140767857Y-97367857D01*
D10*
%TO.C,R7*%
X110853333Y-110262380D02*
X110281904Y-110262380D01*
X110567619Y-110262380D02*
X110567619Y-109262380D01*
X110472380Y-109405238D01*
X110377142Y-109500476D01*
X110281904Y-109548095D01*
X111472380Y-109262380D02*
X111567619Y-109262380D01*
X111662857Y-109310000D01*
X111710476Y-109357619D01*
X111758095Y-109452857D01*
X111805714Y-109643333D01*
X111805714Y-109881428D01*
X111758095Y-110071904D01*
X111710476Y-110167142D01*
X111662857Y-110214761D01*
X111567619Y-110262380D01*
X111472380Y-110262380D01*
X111377142Y-110214761D01*
X111329523Y-110167142D01*
X111281904Y-110071904D01*
X111234285Y-109881428D01*
X111234285Y-109643333D01*
X111281904Y-109452857D01*
X111329523Y-109357619D01*
X111377142Y-109310000D01*
X111472380Y-109262380D01*
X112424761Y-109262380D02*
X112520000Y-109262380D01*
X112615238Y-109310000D01*
X112662857Y-109357619D01*
X112710476Y-109452857D01*
X112758095Y-109643333D01*
X112758095Y-109881428D01*
X112710476Y-110071904D01*
X112662857Y-110167142D01*
X112615238Y-110214761D01*
X112520000Y-110262380D01*
X112424761Y-110262380D01*
X112329523Y-110214761D01*
X112281904Y-110167142D01*
X112234285Y-110071904D01*
X112186666Y-109881428D01*
X112186666Y-109643333D01*
X112234285Y-109452857D01*
X112281904Y-109357619D01*
X112329523Y-109310000D01*
X112424761Y-109262380D01*
X113758095Y-110262380D02*
X113424761Y-109786190D01*
X113186666Y-110262380D02*
X113186666Y-109262380D01*
X113567619Y-109262380D01*
X113662857Y-109310000D01*
X113710476Y-109357619D01*
X113758095Y-109452857D01*
X113758095Y-109595714D01*
X113710476Y-109690952D01*
X113662857Y-109738571D01*
X113567619Y-109786190D01*
X113186666Y-109786190D01*
D12*
X111953333Y-108560952D02*
X111820000Y-108370476D01*
X111724761Y-108560952D02*
X111724761Y-108160952D01*
X111877142Y-108160952D01*
X111915238Y-108180000D01*
X111934285Y-108199047D01*
X111953333Y-108237142D01*
X111953333Y-108294285D01*
X111934285Y-108332380D01*
X111915238Y-108351428D01*
X111877142Y-108370476D01*
X111724761Y-108370476D01*
X112086666Y-108160952D02*
X112353333Y-108160952D01*
X112181904Y-108560952D01*
D10*
%TO.C,D6*%
X118179404Y-105738571D02*
X118322261Y-105786190D01*
X118369880Y-105833809D01*
X118417500Y-105929047D01*
X118417500Y-106071904D01*
X118369880Y-106167142D01*
X118322261Y-106214761D01*
X118227023Y-106262380D01*
X117846071Y-106262380D01*
X117846071Y-105262380D01*
X118179404Y-105262380D01*
X118274642Y-105310000D01*
X118322261Y-105357619D01*
X118369880Y-105452857D01*
X118369880Y-105548095D01*
X118322261Y-105643333D01*
X118274642Y-105690952D01*
X118179404Y-105738571D01*
X117846071Y-105738571D01*
X118798452Y-105976666D02*
X119274642Y-105976666D01*
X118703214Y-106262380D02*
X119036547Y-105262380D01*
X119369880Y-106262380D01*
X119560357Y-105262380D02*
X119893690Y-106262380D01*
X120227023Y-105262380D01*
X120607976Y-106262380D02*
X120798452Y-106262380D01*
X120893690Y-106214761D01*
X120941309Y-106167142D01*
X121036547Y-106024285D01*
X121084166Y-105833809D01*
X121084166Y-105452857D01*
X121036547Y-105357619D01*
X120988928Y-105310000D01*
X120893690Y-105262380D01*
X120703214Y-105262380D01*
X120607976Y-105310000D01*
X120560357Y-105357619D01*
X120512738Y-105452857D01*
X120512738Y-105690952D01*
X120560357Y-105786190D01*
X120607976Y-105833809D01*
X120703214Y-105881428D01*
X120893690Y-105881428D01*
X120988928Y-105833809D01*
X121036547Y-105786190D01*
X121084166Y-105690952D01*
X121560357Y-106262380D02*
X121750833Y-106262380D01*
X121846071Y-106214761D01*
X121893690Y-106167142D01*
X121988928Y-106024285D01*
X122036547Y-105833809D01*
X122036547Y-105452857D01*
X121988928Y-105357619D01*
X121941309Y-105310000D01*
X121846071Y-105262380D01*
X121655595Y-105262380D01*
X121560357Y-105310000D01*
X121512738Y-105357619D01*
X121465119Y-105452857D01*
X121465119Y-105690952D01*
X121512738Y-105786190D01*
X121560357Y-105833809D01*
X121655595Y-105881428D01*
X121846071Y-105881428D01*
X121941309Y-105833809D01*
X121988928Y-105786190D01*
X122036547Y-105690952D01*
D11*
X119681309Y-108354761D02*
X119681309Y-108034761D01*
X119757500Y-108034761D01*
X119803214Y-108050000D01*
X119833690Y-108080476D01*
X119848928Y-108110952D01*
X119864166Y-108171904D01*
X119864166Y-108217619D01*
X119848928Y-108278571D01*
X119833690Y-108309047D01*
X119803214Y-108339523D01*
X119757500Y-108354761D01*
X119681309Y-108354761D01*
X120138452Y-108034761D02*
X120077500Y-108034761D01*
X120047023Y-108050000D01*
X120031785Y-108065238D01*
X120001309Y-108110952D01*
X119986071Y-108171904D01*
X119986071Y-108293809D01*
X120001309Y-108324285D01*
X120016547Y-108339523D01*
X120047023Y-108354761D01*
X120107976Y-108354761D01*
X120138452Y-108339523D01*
X120153690Y-108324285D01*
X120168928Y-108293809D01*
X120168928Y-108217619D01*
X120153690Y-108187142D01*
X120138452Y-108171904D01*
X120107976Y-108156666D01*
X120047023Y-108156666D01*
X120016547Y-108171904D01*
X120001309Y-108187142D01*
X119986071Y-108217619D01*
D10*
%TO.C,R2*%
X110853333Y-112802380D02*
X110281904Y-112802380D01*
X110567619Y-112802380D02*
X110567619Y-111802380D01*
X110472380Y-111945238D01*
X110377142Y-112040476D01*
X110281904Y-112088095D01*
X111472380Y-111802380D02*
X111567619Y-111802380D01*
X111662857Y-111850000D01*
X111710476Y-111897619D01*
X111758095Y-111992857D01*
X111805714Y-112183333D01*
X111805714Y-112421428D01*
X111758095Y-112611904D01*
X111710476Y-112707142D01*
X111662857Y-112754761D01*
X111567619Y-112802380D01*
X111472380Y-112802380D01*
X111377142Y-112754761D01*
X111329523Y-112707142D01*
X111281904Y-112611904D01*
X111234285Y-112421428D01*
X111234285Y-112183333D01*
X111281904Y-111992857D01*
X111329523Y-111897619D01*
X111377142Y-111850000D01*
X111472380Y-111802380D01*
X112424761Y-111802380D02*
X112520000Y-111802380D01*
X112615238Y-111850000D01*
X112662857Y-111897619D01*
X112710476Y-111992857D01*
X112758095Y-112183333D01*
X112758095Y-112421428D01*
X112710476Y-112611904D01*
X112662857Y-112707142D01*
X112615238Y-112754761D01*
X112520000Y-112802380D01*
X112424761Y-112802380D01*
X112329523Y-112754761D01*
X112281904Y-112707142D01*
X112234285Y-112611904D01*
X112186666Y-112421428D01*
X112186666Y-112183333D01*
X112234285Y-111992857D01*
X112281904Y-111897619D01*
X112329523Y-111850000D01*
X112424761Y-111802380D01*
X113758095Y-112802380D02*
X113424761Y-112326190D01*
X113186666Y-112802380D02*
X113186666Y-111802380D01*
X113567619Y-111802380D01*
X113662857Y-111850000D01*
X113710476Y-111897619D01*
X113758095Y-111992857D01*
X113758095Y-112135714D01*
X113710476Y-112230952D01*
X113662857Y-112278571D01*
X113567619Y-112326190D01*
X113186666Y-112326190D01*
D12*
X111953333Y-111100952D02*
X111820000Y-110910476D01*
X111724761Y-111100952D02*
X111724761Y-110700952D01*
X111877142Y-110700952D01*
X111915238Y-110720000D01*
X111934285Y-110739047D01*
X111953333Y-110777142D01*
X111953333Y-110834285D01*
X111934285Y-110872380D01*
X111915238Y-110891428D01*
X111877142Y-110910476D01*
X111724761Y-110910476D01*
X112105714Y-110739047D02*
X112124761Y-110720000D01*
X112162857Y-110700952D01*
X112258095Y-110700952D01*
X112296190Y-110720000D01*
X112315238Y-110739047D01*
X112334285Y-110777142D01*
X112334285Y-110815238D01*
X112315238Y-110872380D01*
X112086666Y-111100952D01*
X112334285Y-111100952D01*
D10*
%TO.C,R19*%
X149125714Y-98625000D02*
X149792380Y-98625000D01*
X148744761Y-98863095D02*
X149459047Y-99101190D01*
X149459047Y-98482142D01*
X149792380Y-98053571D02*
X149792380Y-97863095D01*
X149744761Y-97767857D01*
X149697142Y-97720238D01*
X149554285Y-97625000D01*
X149363809Y-97577380D01*
X148982857Y-97577380D01*
X148887619Y-97625000D01*
X148840000Y-97672619D01*
X148792380Y-97767857D01*
X148792380Y-97958333D01*
X148840000Y-98053571D01*
X148887619Y-98101190D01*
X148982857Y-98148809D01*
X149220952Y-98148809D01*
X149316190Y-98101190D01*
X149363809Y-98053571D01*
X149411428Y-97958333D01*
X149411428Y-97767857D01*
X149363809Y-97672619D01*
X149316190Y-97625000D01*
X149220952Y-97577380D01*
X149697142Y-97148809D02*
X149744761Y-97101190D01*
X149792380Y-97148809D01*
X149744761Y-97196428D01*
X149697142Y-97148809D01*
X149792380Y-97148809D01*
X149792380Y-96625000D02*
X149792380Y-96434523D01*
X149744761Y-96339285D01*
X149697142Y-96291666D01*
X149554285Y-96196428D01*
X149363809Y-96148809D01*
X148982857Y-96148809D01*
X148887619Y-96196428D01*
X148840000Y-96244047D01*
X148792380Y-96339285D01*
X148792380Y-96529761D01*
X148840000Y-96625000D01*
X148887619Y-96672619D01*
X148982857Y-96720238D01*
X149220952Y-96720238D01*
X149316190Y-96672619D01*
X149363809Y-96625000D01*
X149411428Y-96529761D01*
X149411428Y-96339285D01*
X149363809Y-96244047D01*
X149316190Y-96196428D01*
X149220952Y-96148809D01*
D12*
X150950952Y-97882142D02*
X150760476Y-98015476D01*
X150950952Y-98110714D02*
X150550952Y-98110714D01*
X150550952Y-97958333D01*
X150570000Y-97920238D01*
X150589047Y-97901190D01*
X150627142Y-97882142D01*
X150684285Y-97882142D01*
X150722380Y-97901190D01*
X150741428Y-97920238D01*
X150760476Y-97958333D01*
X150760476Y-98110714D01*
X150950952Y-97501190D02*
X150950952Y-97729761D01*
X150950952Y-97615476D02*
X150550952Y-97615476D01*
X150608095Y-97653571D01*
X150646190Y-97691666D01*
X150665238Y-97729761D01*
X150950952Y-97310714D02*
X150950952Y-97234523D01*
X150931904Y-97196428D01*
X150912857Y-97177380D01*
X150855714Y-97139285D01*
X150779523Y-97120238D01*
X150627142Y-97120238D01*
X150589047Y-97139285D01*
X150570000Y-97158333D01*
X150550952Y-97196428D01*
X150550952Y-97272619D01*
X150570000Y-97310714D01*
X150589047Y-97329761D01*
X150627142Y-97348809D01*
X150722380Y-97348809D01*
X150760476Y-97329761D01*
X150779523Y-97310714D01*
X150798571Y-97272619D01*
X150798571Y-97196428D01*
X150779523Y-97158333D01*
X150760476Y-97139285D01*
X150722380Y-97120238D01*
D10*
%TO.C,R4*%
X110853333Y-115342380D02*
X110281904Y-115342380D01*
X110567619Y-115342380D02*
X110567619Y-114342380D01*
X110472380Y-114485238D01*
X110377142Y-114580476D01*
X110281904Y-114628095D01*
X111472380Y-114342380D02*
X111567619Y-114342380D01*
X111662857Y-114390000D01*
X111710476Y-114437619D01*
X111758095Y-114532857D01*
X111805714Y-114723333D01*
X111805714Y-114961428D01*
X111758095Y-115151904D01*
X111710476Y-115247142D01*
X111662857Y-115294761D01*
X111567619Y-115342380D01*
X111472380Y-115342380D01*
X111377142Y-115294761D01*
X111329523Y-115247142D01*
X111281904Y-115151904D01*
X111234285Y-114961428D01*
X111234285Y-114723333D01*
X111281904Y-114532857D01*
X111329523Y-114437619D01*
X111377142Y-114390000D01*
X111472380Y-114342380D01*
X112424761Y-114342380D02*
X112520000Y-114342380D01*
X112615238Y-114390000D01*
X112662857Y-114437619D01*
X112710476Y-114532857D01*
X112758095Y-114723333D01*
X112758095Y-114961428D01*
X112710476Y-115151904D01*
X112662857Y-115247142D01*
X112615238Y-115294761D01*
X112520000Y-115342380D01*
X112424761Y-115342380D01*
X112329523Y-115294761D01*
X112281904Y-115247142D01*
X112234285Y-115151904D01*
X112186666Y-114961428D01*
X112186666Y-114723333D01*
X112234285Y-114532857D01*
X112281904Y-114437619D01*
X112329523Y-114390000D01*
X112424761Y-114342380D01*
X113758095Y-115342380D02*
X113424761Y-114866190D01*
X113186666Y-115342380D02*
X113186666Y-114342380D01*
X113567619Y-114342380D01*
X113662857Y-114390000D01*
X113710476Y-114437619D01*
X113758095Y-114532857D01*
X113758095Y-114675714D01*
X113710476Y-114770952D01*
X113662857Y-114818571D01*
X113567619Y-114866190D01*
X113186666Y-114866190D01*
D12*
X111953333Y-113640952D02*
X111820000Y-113450476D01*
X111724761Y-113640952D02*
X111724761Y-113240952D01*
X111877142Y-113240952D01*
X111915238Y-113260000D01*
X111934285Y-113279047D01*
X111953333Y-113317142D01*
X111953333Y-113374285D01*
X111934285Y-113412380D01*
X111915238Y-113431428D01*
X111877142Y-113450476D01*
X111724761Y-113450476D01*
X112296190Y-113374285D02*
X112296190Y-113640952D01*
X112200952Y-113221904D02*
X112105714Y-113507619D01*
X112353333Y-113507619D01*
D10*
%TO.C,R15*%
X131360714Y-98625000D02*
X132027380Y-98625000D01*
X130979761Y-98863095D02*
X131694047Y-99101190D01*
X131694047Y-98482142D01*
X132027380Y-98053571D02*
X132027380Y-97863095D01*
X131979761Y-97767857D01*
X131932142Y-97720238D01*
X131789285Y-97625000D01*
X131598809Y-97577380D01*
X131217857Y-97577380D01*
X131122619Y-97625000D01*
X131075000Y-97672619D01*
X131027380Y-97767857D01*
X131027380Y-97958333D01*
X131075000Y-98053571D01*
X131122619Y-98101190D01*
X131217857Y-98148809D01*
X131455952Y-98148809D01*
X131551190Y-98101190D01*
X131598809Y-98053571D01*
X131646428Y-97958333D01*
X131646428Y-97767857D01*
X131598809Y-97672619D01*
X131551190Y-97625000D01*
X131455952Y-97577380D01*
X131932142Y-97148809D02*
X131979761Y-97101190D01*
X132027380Y-97148809D01*
X131979761Y-97196428D01*
X131932142Y-97148809D01*
X132027380Y-97148809D01*
X132027380Y-96625000D02*
X132027380Y-96434523D01*
X131979761Y-96339285D01*
X131932142Y-96291666D01*
X131789285Y-96196428D01*
X131598809Y-96148809D01*
X131217857Y-96148809D01*
X131122619Y-96196428D01*
X131075000Y-96244047D01*
X131027380Y-96339285D01*
X131027380Y-96529761D01*
X131075000Y-96625000D01*
X131122619Y-96672619D01*
X131217857Y-96720238D01*
X131455952Y-96720238D01*
X131551190Y-96672619D01*
X131598809Y-96625000D01*
X131646428Y-96529761D01*
X131646428Y-96339285D01*
X131598809Y-96244047D01*
X131551190Y-96196428D01*
X131455952Y-96148809D01*
D12*
X133185952Y-97882142D02*
X132995476Y-98015476D01*
X133185952Y-98110714D02*
X132785952Y-98110714D01*
X132785952Y-97958333D01*
X132805000Y-97920238D01*
X132824047Y-97901190D01*
X132862142Y-97882142D01*
X132919285Y-97882142D01*
X132957380Y-97901190D01*
X132976428Y-97920238D01*
X132995476Y-97958333D01*
X132995476Y-98110714D01*
X133185952Y-97501190D02*
X133185952Y-97729761D01*
X133185952Y-97615476D02*
X132785952Y-97615476D01*
X132843095Y-97653571D01*
X132881190Y-97691666D01*
X132900238Y-97729761D01*
X132785952Y-97139285D02*
X132785952Y-97329761D01*
X132976428Y-97348809D01*
X132957380Y-97329761D01*
X132938333Y-97291666D01*
X132938333Y-97196428D01*
X132957380Y-97158333D01*
X132976428Y-97139285D01*
X133014523Y-97120238D01*
X133109761Y-97120238D01*
X133147857Y-97139285D01*
X133166904Y-97158333D01*
X133185952Y-97196428D01*
X133185952Y-97291666D01*
X133166904Y-97329761D01*
X133147857Y-97348809D01*
D10*
%TO.C,D1*%
X118179404Y-114208571D02*
X118322261Y-114256190D01*
X118369880Y-114303809D01*
X118417500Y-114399047D01*
X118417500Y-114541904D01*
X118369880Y-114637142D01*
X118322261Y-114684761D01*
X118227023Y-114732380D01*
X117846071Y-114732380D01*
X117846071Y-113732380D01*
X118179404Y-113732380D01*
X118274642Y-113780000D01*
X118322261Y-113827619D01*
X118369880Y-113922857D01*
X118369880Y-114018095D01*
X118322261Y-114113333D01*
X118274642Y-114160952D01*
X118179404Y-114208571D01*
X117846071Y-114208571D01*
X118798452Y-114446666D02*
X119274642Y-114446666D01*
X118703214Y-114732380D02*
X119036547Y-113732380D01*
X119369880Y-114732380D01*
X119560357Y-113732380D02*
X119893690Y-114732380D01*
X120227023Y-113732380D01*
X120607976Y-114732380D02*
X120798452Y-114732380D01*
X120893690Y-114684761D01*
X120941309Y-114637142D01*
X121036547Y-114494285D01*
X121084166Y-114303809D01*
X121084166Y-113922857D01*
X121036547Y-113827619D01*
X120988928Y-113780000D01*
X120893690Y-113732380D01*
X120703214Y-113732380D01*
X120607976Y-113780000D01*
X120560357Y-113827619D01*
X120512738Y-113922857D01*
X120512738Y-114160952D01*
X120560357Y-114256190D01*
X120607976Y-114303809D01*
X120703214Y-114351428D01*
X120893690Y-114351428D01*
X120988928Y-114303809D01*
X121036547Y-114256190D01*
X121084166Y-114160952D01*
X121560357Y-114732380D02*
X121750833Y-114732380D01*
X121846071Y-114684761D01*
X121893690Y-114637142D01*
X121988928Y-114494285D01*
X122036547Y-114303809D01*
X122036547Y-113922857D01*
X121988928Y-113827619D01*
X121941309Y-113780000D01*
X121846071Y-113732380D01*
X121655595Y-113732380D01*
X121560357Y-113780000D01*
X121512738Y-113827619D01*
X121465119Y-113922857D01*
X121465119Y-114160952D01*
X121512738Y-114256190D01*
X121560357Y-114303809D01*
X121655595Y-114351428D01*
X121846071Y-114351428D01*
X121941309Y-114303809D01*
X121988928Y-114256190D01*
X122036547Y-114160952D01*
D11*
X119681309Y-116824761D02*
X119681309Y-116504761D01*
X119757500Y-116504761D01*
X119803214Y-116520000D01*
X119833690Y-116550476D01*
X119848928Y-116580952D01*
X119864166Y-116641904D01*
X119864166Y-116687619D01*
X119848928Y-116748571D01*
X119833690Y-116779047D01*
X119803214Y-116809523D01*
X119757500Y-116824761D01*
X119681309Y-116824761D01*
X120168928Y-116824761D02*
X119986071Y-116824761D01*
X120077500Y-116824761D02*
X120077500Y-116504761D01*
X120047023Y-116550476D01*
X120016547Y-116580952D01*
X119986071Y-116596190D01*
D10*
%TO.C,D3*%
X118134404Y-118448571D02*
X118277261Y-118496190D01*
X118324880Y-118543809D01*
X118372500Y-118639047D01*
X118372500Y-118781904D01*
X118324880Y-118877142D01*
X118277261Y-118924761D01*
X118182023Y-118972380D01*
X117801071Y-118972380D01*
X117801071Y-117972380D01*
X118134404Y-117972380D01*
X118229642Y-118020000D01*
X118277261Y-118067619D01*
X118324880Y-118162857D01*
X118324880Y-118258095D01*
X118277261Y-118353333D01*
X118229642Y-118400952D01*
X118134404Y-118448571D01*
X117801071Y-118448571D01*
X118753452Y-118686666D02*
X119229642Y-118686666D01*
X118658214Y-118972380D02*
X118991547Y-117972380D01*
X119324880Y-118972380D01*
X119515357Y-117972380D02*
X119848690Y-118972380D01*
X120182023Y-117972380D01*
X120562976Y-118972380D02*
X120753452Y-118972380D01*
X120848690Y-118924761D01*
X120896309Y-118877142D01*
X120991547Y-118734285D01*
X121039166Y-118543809D01*
X121039166Y-118162857D01*
X120991547Y-118067619D01*
X120943928Y-118020000D01*
X120848690Y-117972380D01*
X120658214Y-117972380D01*
X120562976Y-118020000D01*
X120515357Y-118067619D01*
X120467738Y-118162857D01*
X120467738Y-118400952D01*
X120515357Y-118496190D01*
X120562976Y-118543809D01*
X120658214Y-118591428D01*
X120848690Y-118591428D01*
X120943928Y-118543809D01*
X120991547Y-118496190D01*
X121039166Y-118400952D01*
X121515357Y-118972380D02*
X121705833Y-118972380D01*
X121801071Y-118924761D01*
X121848690Y-118877142D01*
X121943928Y-118734285D01*
X121991547Y-118543809D01*
X121991547Y-118162857D01*
X121943928Y-118067619D01*
X121896309Y-118020000D01*
X121801071Y-117972380D01*
X121610595Y-117972380D01*
X121515357Y-118020000D01*
X121467738Y-118067619D01*
X121420119Y-118162857D01*
X121420119Y-118400952D01*
X121467738Y-118496190D01*
X121515357Y-118543809D01*
X121610595Y-118591428D01*
X121801071Y-118591428D01*
X121896309Y-118543809D01*
X121943928Y-118496190D01*
X121991547Y-118400952D01*
D11*
X119636309Y-121064761D02*
X119636309Y-120744761D01*
X119712500Y-120744761D01*
X119758214Y-120760000D01*
X119788690Y-120790476D01*
X119803928Y-120820952D01*
X119819166Y-120881904D01*
X119819166Y-120927619D01*
X119803928Y-120988571D01*
X119788690Y-121019047D01*
X119758214Y-121049523D01*
X119712500Y-121064761D01*
X119636309Y-121064761D01*
X119925833Y-120744761D02*
X120123928Y-120744761D01*
X120017261Y-120866666D01*
X120062976Y-120866666D01*
X120093452Y-120881904D01*
X120108690Y-120897142D01*
X120123928Y-120927619D01*
X120123928Y-121003809D01*
X120108690Y-121034285D01*
X120093452Y-121049523D01*
X120062976Y-121064761D01*
X119971547Y-121064761D01*
X119941071Y-121049523D01*
X119925833Y-121034285D01*
D14*
%TO.C,D4*%
X119267500Y-102565000D02*
X120567500Y-102565000D01*
X120242500Y-105465000D02*
X119267500Y-105465000D01*
X120567500Y-102565000D02*
X120567500Y-105140000D01*
X119267500Y-105465000D02*
X119267500Y-102565000D01*
X120567500Y-105140000D02*
X120242500Y-105465000D01*
%TO.C,R9*%
X112820000Y-123207500D02*
X112820000Y-124032500D01*
X112820000Y-124032500D02*
X111220000Y-124032500D01*
X111220000Y-123207500D02*
X112820000Y-123207500D01*
X111220000Y-124032500D02*
X111220000Y-123207500D01*
%TO.C,R21*%
X138497500Y-96825000D02*
X138497500Y-98425000D01*
X138497500Y-98425000D02*
X137672500Y-98425000D01*
X137672500Y-96825000D02*
X138497500Y-96825000D01*
X137672500Y-98425000D02*
X137672500Y-96825000D01*
%TO.C,R16*%
X143577500Y-96825000D02*
X143577500Y-98425000D01*
X142752500Y-96825000D02*
X143577500Y-96825000D01*
X142752500Y-98425000D02*
X142752500Y-96825000D01*
X143577500Y-98425000D02*
X142752500Y-98425000D01*
%TO.C,C1*%
X163725000Y-122560000D02*
X163725000Y-120560000D01*
X163725000Y-120560000D02*
X164975000Y-120560000D01*
X164975000Y-122560000D02*
X163725000Y-122560000D01*
X164975000Y-120560000D02*
X164975000Y-122560000D01*
%TO.C,D2*%
X120242500Y-101270000D02*
X119267500Y-101270000D01*
X119267500Y-101270000D02*
X119267500Y-98370000D01*
X120567500Y-98370000D02*
X120567500Y-100945000D01*
X119267500Y-98370000D02*
X120567500Y-98370000D01*
X120567500Y-100945000D02*
X120242500Y-101270000D01*
%TO.C,J3*%
X121560000Y-92730000D02*
X161565000Y-92730000D01*
X161565000Y-92730000D02*
X162200000Y-93365000D01*
X121560000Y-95270000D02*
X121560000Y-92730000D01*
X162200000Y-95270000D02*
X121560000Y-95270000D01*
X162200000Y-93365000D02*
X162200000Y-95270000D01*
%TO.C,R10*%
X112820000Y-121492500D02*
X111220000Y-121492500D01*
X111220000Y-120667500D02*
X112820000Y-120667500D01*
X111220000Y-121492500D02*
X111220000Y-120667500D01*
X112820000Y-120667500D02*
X112820000Y-121492500D01*
%TO.C,C3*%
X117360000Y-92410000D02*
X117360000Y-93210000D01*
X117360000Y-93210000D02*
X115760000Y-93210000D01*
X115760000Y-93210000D02*
X115760000Y-92410000D01*
X115760000Y-92410000D02*
X117360000Y-92410000D01*
%TO.C,R11*%
X156487500Y-122580000D02*
X156487500Y-120980000D01*
X157312500Y-122580000D02*
X156487500Y-122580000D01*
X157312500Y-120980000D02*
X157312500Y-122580000D01*
X156487500Y-120980000D02*
X157312500Y-120980000D01*
%TO.C,R8*%
X111220000Y-118127500D02*
X112820000Y-118127500D01*
X112820000Y-118127500D02*
X112820000Y-118952500D01*
X112820000Y-118952500D02*
X111220000Y-118952500D01*
X111220000Y-118952500D02*
X111220000Y-118127500D01*
%TO.C,R12*%
X130877500Y-96825000D02*
X130877500Y-98425000D01*
X130877500Y-98425000D02*
X130052500Y-98425000D01*
X130052500Y-96825000D02*
X130877500Y-96825000D01*
X130052500Y-98425000D02*
X130052500Y-96825000D01*
%TO.C,J1*%
X104730000Y-99500000D02*
X106000000Y-98230000D01*
X109810000Y-98230000D02*
X109810000Y-123630000D01*
X106000000Y-98230000D02*
X109810000Y-98230000D01*
X109810000Y-123630000D02*
X104730000Y-123630000D01*
X104730000Y-123630000D02*
X104730000Y-99500000D01*
%TO.C,R5*%
X111220000Y-105427500D02*
X112820000Y-105427500D01*
X112820000Y-106252500D02*
X111220000Y-106252500D01*
X111220000Y-106252500D02*
X111220000Y-105427500D01*
X112820000Y-105427500D02*
X112820000Y-106252500D01*
%TO.C,R22*%
X153722500Y-98425000D02*
X152897500Y-98425000D01*
X152897500Y-98425000D02*
X152897500Y-96825000D01*
X152897500Y-96825000D02*
X153722500Y-96825000D01*
X153722500Y-96825000D02*
X153722500Y-98425000D01*
%TO.C,R20*%
X145292500Y-98425000D02*
X145292500Y-96825000D01*
X146117500Y-98425000D02*
X145292500Y-98425000D01*
X146117500Y-96825000D02*
X146117500Y-98425000D01*
X145292500Y-96825000D02*
X146117500Y-96825000D01*
%TO.C,D8*%
X119267500Y-113855000D02*
X119267500Y-110955000D01*
X120242500Y-113855000D02*
X119267500Y-113855000D01*
X119267500Y-110955000D02*
X120567500Y-110955000D01*
X120567500Y-110955000D02*
X120567500Y-113530000D01*
X120567500Y-113530000D02*
X120242500Y-113855000D01*
%TO.C,R6*%
X111220000Y-115587500D02*
X112820000Y-115587500D01*
X111220000Y-116412500D02*
X111220000Y-115587500D01*
X112820000Y-115587500D02*
X112820000Y-116412500D01*
X112820000Y-116412500D02*
X111220000Y-116412500D01*
%TO.C,D7*%
X138600000Y-123207500D02*
X135700000Y-123207500D01*
X138275000Y-121907500D02*
X138600000Y-122232500D01*
X135700000Y-123207500D02*
X135700000Y-121907500D01*
X138600000Y-122232500D02*
X138600000Y-123207500D01*
X135700000Y-121907500D02*
X138275000Y-121907500D01*
%TO.C,C2*%
X117360000Y-87060000D02*
X117360000Y-87860000D01*
X115760000Y-87860000D02*
X115760000Y-87060000D01*
X117360000Y-87860000D02*
X115760000Y-87860000D01*
X115760000Y-87060000D02*
X117360000Y-87060000D01*
%TO.C,J6*%
X105365000Y-96520000D02*
X104730000Y-95885000D01*
X109810000Y-93980000D02*
X109810000Y-96520000D01*
X104730000Y-95885000D02*
X104730000Y-93980000D01*
X104730000Y-93980000D02*
X109810000Y-93980000D01*
X109810000Y-96520000D02*
X105365000Y-96520000D01*
%TO.C,D5*%
X130700000Y-123157500D02*
X130700000Y-121857500D01*
X133600000Y-123157500D02*
X130700000Y-123157500D01*
X133600000Y-122182500D02*
X133600000Y-123157500D01*
X133275000Y-121857500D02*
X133600000Y-122182500D01*
X130700000Y-121857500D02*
X133275000Y-121857500D01*
%TO.C,R17*%
X158817500Y-98425000D02*
X157992500Y-98425000D01*
X157992500Y-98425000D02*
X157992500Y-96825000D01*
X157992500Y-96825000D02*
X158817500Y-96825000D01*
X158817500Y-96825000D02*
X158817500Y-98425000D01*
D15*
%TO.C,J4*%
X104190000Y-90790000D02*
X104190000Y-84190000D01*
X104190000Y-84190000D02*
X111560000Y-84190000D01*
X111560000Y-90790000D02*
X104190000Y-90790000D01*
X111560000Y-84190000D02*
X111560000Y-90790000D01*
D16*
X112255000Y-88250000D02*
G75*
G03*
X112255000Y-88250000I-100000J0D01*
G01*
D14*
%TO.C,C5*%
X154125000Y-120700000D02*
X155375000Y-120700000D01*
X155375000Y-120700000D02*
X155375000Y-122700000D01*
X154125000Y-122700000D02*
X154125000Y-120700000D01*
X155375000Y-122700000D02*
X154125000Y-122700000D01*
%TO.C,D9*%
X146120000Y-123257500D02*
X146120000Y-121957500D01*
X149020000Y-123257500D02*
X146120000Y-123257500D01*
X148695000Y-121957500D02*
X149020000Y-122282500D01*
X146120000Y-121957500D02*
X148695000Y-121957500D01*
X149020000Y-122282500D02*
X149020000Y-123257500D01*
%TO.C,U2*%
X117640000Y-91210000D02*
X117240000Y-91610000D01*
X117640000Y-88710000D02*
X117640000Y-91210000D01*
X116040000Y-88710000D02*
X117640000Y-88710000D01*
X116040000Y-91610000D02*
X116040000Y-88710000D01*
X117240000Y-91610000D02*
X116040000Y-91610000D01*
%TO.C,R23*%
X135942500Y-98425000D02*
X135117500Y-98425000D01*
X135117500Y-96825000D02*
X135942500Y-96825000D01*
X135942500Y-96825000D02*
X135942500Y-98425000D01*
X135117500Y-98425000D02*
X135117500Y-96825000D01*
%TO.C,R18*%
X155437500Y-98425000D02*
X155437500Y-96825000D01*
X156262500Y-96825000D02*
X156262500Y-98425000D01*
X155437500Y-96825000D02*
X156262500Y-96825000D01*
X156262500Y-98425000D02*
X155437500Y-98425000D01*
%TO.C,R14*%
X124737500Y-114790000D02*
X125562500Y-114790000D01*
X125562500Y-116390000D02*
X124737500Y-116390000D01*
X125562500Y-114790000D02*
X125562500Y-116390000D01*
X124737500Y-116390000D02*
X124737500Y-114790000D01*
%TO.C,R3*%
X112820000Y-102887500D02*
X112820000Y-103712500D01*
X111220000Y-103712500D02*
X111220000Y-102887500D01*
X111220000Y-102887500D02*
X112820000Y-102887500D01*
X112820000Y-103712500D02*
X111220000Y-103712500D01*
%TO.C,D10*%
X140940000Y-123247500D02*
X140940000Y-121947500D01*
X143515000Y-121947500D02*
X143840000Y-122272500D01*
X143840000Y-122272500D02*
X143840000Y-123247500D01*
X140940000Y-121947500D02*
X143515000Y-121947500D01*
X143840000Y-123247500D02*
X140940000Y-123247500D01*
%TO.C,J2*%
X146960000Y-84130000D02*
X146960000Y-89210000D01*
X146960000Y-89210000D02*
X122830000Y-89210000D01*
X121560000Y-84130000D02*
X146960000Y-84130000D01*
X121560000Y-87940000D02*
X121560000Y-84130000D01*
X122830000Y-89210000D02*
X121560000Y-87940000D01*
%TO.C,R1*%
X111220000Y-101172500D02*
X111220000Y-100347500D01*
X112820000Y-100347500D02*
X112820000Y-101172500D01*
X111220000Y-100347500D02*
X112820000Y-100347500D01*
X112820000Y-101172500D02*
X111220000Y-101172500D01*
D15*
%TO.C,J5*%
X158440000Y-84190000D02*
X165810000Y-84190000D01*
X165810000Y-90790000D02*
X158440000Y-90790000D01*
X165810000Y-84190000D02*
X165810000Y-90790000D01*
X158440000Y-90790000D02*
X158440000Y-84190000D01*
D16*
X166505000Y-88250000D02*
G75*
G03*
X166505000Y-88250000I-100000J0D01*
G01*
D14*
%TO.C,L1*%
X159370000Y-124000000D02*
X158620000Y-123250000D01*
X162620000Y-120750000D02*
X162620000Y-123250000D01*
X159370000Y-120000000D02*
X158620000Y-120750000D01*
X158620000Y-120750000D02*
X158620000Y-123250000D01*
X161870000Y-124000000D02*
X162620000Y-123250000D01*
X161870000Y-120000000D02*
X162620000Y-120750000D01*
X159370000Y-120000000D02*
X161870000Y-120000000D01*
X161870000Y-124000000D02*
X159370000Y-124000000D01*
%TO.C,R13*%
X140212500Y-96825000D02*
X141037500Y-96825000D01*
X140212500Y-98425000D02*
X140212500Y-96825000D01*
X141037500Y-98425000D02*
X140212500Y-98425000D01*
X141037500Y-96825000D02*
X141037500Y-98425000D01*
%TO.C,R7*%
X111220000Y-108792500D02*
X111220000Y-107967500D01*
X112820000Y-107967500D02*
X112820000Y-108792500D01*
X112820000Y-108792500D02*
X111220000Y-108792500D01*
X111220000Y-107967500D02*
X112820000Y-107967500D01*
%TO.C,D6*%
X120567500Y-106760000D02*
X120567500Y-109335000D01*
X119267500Y-106760000D02*
X120567500Y-106760000D01*
X120567500Y-109335000D02*
X120242500Y-109660000D01*
X119267500Y-109660000D02*
X119267500Y-106760000D01*
X120242500Y-109660000D02*
X119267500Y-109660000D01*
%TO.C,R2*%
X111220000Y-111332500D02*
X111220000Y-110507500D01*
X112820000Y-111332500D02*
X111220000Y-111332500D01*
X111220000Y-110507500D02*
X112820000Y-110507500D01*
X112820000Y-110507500D02*
X112820000Y-111332500D01*
%TO.C,R19*%
X150357500Y-96825000D02*
X151182500Y-96825000D01*
X151182500Y-96825000D02*
X151182500Y-98425000D01*
X150357500Y-98425000D02*
X150357500Y-96825000D01*
X151182500Y-98425000D02*
X150357500Y-98425000D01*
%TO.C,R4*%
X112820000Y-113047500D02*
X112820000Y-113872500D01*
X111220000Y-113047500D02*
X112820000Y-113047500D01*
X112820000Y-113872500D02*
X111220000Y-113872500D01*
X111220000Y-113872500D02*
X111220000Y-113047500D01*
%TO.C,R15*%
X132592500Y-96825000D02*
X133417500Y-96825000D01*
X133417500Y-96825000D02*
X133417500Y-98425000D01*
X133417500Y-98425000D02*
X132592500Y-98425000D01*
X132592500Y-98425000D02*
X132592500Y-96825000D01*
%TO.C,D1*%
X119267500Y-118130000D02*
X119267500Y-115230000D01*
X120567500Y-115230000D02*
X120567500Y-117805000D01*
X120242500Y-118130000D02*
X119267500Y-118130000D01*
X120567500Y-117805000D02*
X120242500Y-118130000D01*
X119267500Y-115230000D02*
X120567500Y-115230000D01*
%TO.C,D3*%
X120522500Y-122045000D02*
X120197500Y-122370000D01*
X119222500Y-122370000D02*
X119222500Y-119470000D01*
X120197500Y-122370000D02*
X119222500Y-122370000D01*
X119222500Y-119470000D02*
X120522500Y-119470000D01*
X120522500Y-119470000D02*
X120522500Y-122045000D01*
%TD*%
M02*
