%TF.GenerationSoftware,KiCad,Pcbnew,6.0.11-3.fc37*%
%TF.CreationDate,2024-04-07T15:32:32-04:00*%
%TF.ProjectId,Controller_T4,436f6e74-726f-46c6-9c65-725f54342e6b,rev?*%
%TF.SameCoordinates,Original*%
%TF.FileFunction,Paste,Top*%
%TF.FilePolarity,Positive*%
%FSLAX46Y46*%
G04 Gerber Fmt 4.6, Leading zero omitted, Abs format (unit mm)*
G04 Created by KiCad (PCBNEW 6.0.11-3.fc37) date 2024-04-07 15:32:32*
%MOMM*%
%LPD*%
G01*
G04 APERTURE LIST*
G04 Aperture macros list*
%AMRoundRect*
0 Rectangle with rounded corners*
0 $1 Rounding radius*
0 $2 $3 $4 $5 $6 $7 $8 $9 X,Y pos of 4 corners*
0 Add a 4 corners polygon primitive as box body*
4,1,4,$2,$3,$4,$5,$6,$7,$8,$9,$2,$3,0*
0 Add four circle primitives for the rounded corners*
1,1,$1+$1,$2,$3*
1,1,$1+$1,$4,$5*
1,1,$1+$1,$6,$7*
1,1,$1+$1,$8,$9*
0 Add four rect primitives between the rounded corners*
20,1,$1+$1,$2,$3,$4,$5,0*
20,1,$1+$1,$4,$5,$6,$7,0*
20,1,$1+$1,$6,$7,$8,$9,0*
20,1,$1+$1,$8,$9,$2,$3,0*%
G04 Aperture macros list end*
%ADD10RoundRect,0.150000X0.587500X0.150000X-0.587500X0.150000X-0.587500X-0.150000X0.587500X-0.150000X0*%
%ADD11RoundRect,0.200000X-0.200000X-0.275000X0.200000X-0.275000X0.200000X0.275000X-0.200000X0.275000X0*%
%ADD12RoundRect,0.200000X-0.275000X0.200000X-0.275000X-0.200000X0.275000X-0.200000X0.275000X0.200000X0*%
%ADD13RoundRect,0.250000X-0.475000X0.250000X-0.475000X-0.250000X0.475000X-0.250000X0.475000X0.250000X0*%
%ADD14RoundRect,0.237500X-0.300000X-0.237500X0.300000X-0.237500X0.300000X0.237500X-0.300000X0.237500X0*%
%ADD15RoundRect,0.150000X-0.150000X0.587500X-0.150000X-0.587500X0.150000X-0.587500X0.150000X0.587500X0*%
%ADD16RoundRect,0.250000X0.475000X-0.250000X0.475000X0.250000X-0.475000X0.250000X-0.475000X-0.250000X0*%
%ADD17RoundRect,0.150000X0.512500X0.150000X-0.512500X0.150000X-0.512500X-0.150000X0.512500X-0.150000X0*%
%ADD18R,3.700000X1.200000*%
G04 APERTURE END LIST*
D10*
%TO.C,D4*%
X120855000Y-104965000D03*
X120855000Y-103065000D03*
X118980000Y-104015000D03*
%TD*%
D11*
%TO.C,R9*%
X111195000Y-123620000D03*
X112845000Y-123620000D03*
%TD*%
D12*
%TO.C,R21*%
X138085000Y-96800000D03*
X138085000Y-98450000D03*
%TD*%
%TO.C,R16*%
X143165000Y-96800000D03*
X143165000Y-98450000D03*
%TD*%
D13*
%TO.C,C1*%
X164350000Y-120610000D03*
X164350000Y-122510000D03*
%TD*%
D10*
%TO.C,D2*%
X120855000Y-100770000D03*
X120855000Y-98870000D03*
X118980000Y-99820000D03*
%TD*%
D11*
%TO.C,R10*%
X111195000Y-121080000D03*
X112845000Y-121080000D03*
%TD*%
D14*
%TO.C,C3*%
X115697500Y-92810000D03*
X117422500Y-92810000D03*
%TD*%
D12*
%TO.C,R11*%
X156900000Y-120955000D03*
X156900000Y-122605000D03*
%TD*%
D11*
%TO.C,R8*%
X111195000Y-118540000D03*
X112845000Y-118540000D03*
%TD*%
D12*
%TO.C,R12*%
X130465000Y-96800000D03*
X130465000Y-98450000D03*
%TD*%
D11*
%TO.C,R5*%
X111195000Y-105840000D03*
X112845000Y-105840000D03*
%TD*%
D12*
%TO.C,R22*%
X153310000Y-96800000D03*
X153310000Y-98450000D03*
%TD*%
%TO.C,R20*%
X145705000Y-96800000D03*
X145705000Y-98450000D03*
%TD*%
D10*
%TO.C,D8*%
X120855000Y-113355000D03*
X120855000Y-111455000D03*
X118980000Y-112405000D03*
%TD*%
D11*
%TO.C,R6*%
X111195000Y-116000000D03*
X112845000Y-116000000D03*
%TD*%
D15*
%TO.C,D7*%
X138100000Y-121620000D03*
X136200000Y-121620000D03*
X137150000Y-123495000D03*
%TD*%
D14*
%TO.C,C2*%
X115697500Y-87460000D03*
X117422500Y-87460000D03*
%TD*%
D15*
%TO.C,D5*%
X133100000Y-121570000D03*
X131200000Y-121570000D03*
X132150000Y-123445000D03*
%TD*%
D12*
%TO.C,R17*%
X158405000Y-96800000D03*
X158405000Y-98450000D03*
%TD*%
D16*
%TO.C,C5*%
X154750000Y-122650000D03*
X154750000Y-120750000D03*
%TD*%
D15*
%TO.C,D9*%
X148520000Y-121670000D03*
X146620000Y-121670000D03*
X147570000Y-123545000D03*
%TD*%
D17*
%TO.C,U2*%
X117977500Y-91110000D03*
X117977500Y-90160000D03*
X117977500Y-89210000D03*
X115702500Y-89210000D03*
X115702500Y-91110000D03*
%TD*%
D12*
%TO.C,R23*%
X135530000Y-96800000D03*
X135530000Y-98450000D03*
%TD*%
%TO.C,R18*%
X155850000Y-96800000D03*
X155850000Y-98450000D03*
%TD*%
%TO.C,R14*%
X125150000Y-114765000D03*
X125150000Y-116415000D03*
%TD*%
D11*
%TO.C,R3*%
X111195000Y-103300000D03*
X112845000Y-103300000D03*
%TD*%
D15*
%TO.C,D10*%
X143340000Y-121660000D03*
X141440000Y-121660000D03*
X142390000Y-123535000D03*
%TD*%
D11*
%TO.C,R1*%
X111195000Y-100760000D03*
X112845000Y-100760000D03*
%TD*%
D18*
%TO.C,L1*%
X160620000Y-120600000D03*
X160620000Y-123400000D03*
%TD*%
D12*
%TO.C,R13*%
X140625000Y-96800000D03*
X140625000Y-98450000D03*
%TD*%
D11*
%TO.C,R7*%
X111195000Y-108380000D03*
X112845000Y-108380000D03*
%TD*%
D10*
%TO.C,D6*%
X120855000Y-109160000D03*
X120855000Y-107260000D03*
X118980000Y-108210000D03*
%TD*%
D11*
%TO.C,R2*%
X111195000Y-110920000D03*
X112845000Y-110920000D03*
%TD*%
D12*
%TO.C,R19*%
X150770000Y-96800000D03*
X150770000Y-98450000D03*
%TD*%
D11*
%TO.C,R4*%
X111195000Y-113460000D03*
X112845000Y-113460000D03*
%TD*%
D12*
%TO.C,R15*%
X133005000Y-96800000D03*
X133005000Y-98450000D03*
%TD*%
D10*
%TO.C,D1*%
X120855000Y-117630000D03*
X120855000Y-115730000D03*
X118980000Y-116680000D03*
%TD*%
%TO.C,D3*%
X120810000Y-121870000D03*
X120810000Y-119970000D03*
X118935000Y-120920000D03*
%TD*%
M02*
