%TF.GenerationSoftware,KiCad,Pcbnew,6.0.11-3.fc37*%
%TF.CreationDate,2024-04-07T15:32:32-04:00*%
%TF.ProjectId,Controller_T4,436f6e74-726f-46c6-9c65-725f54342e6b,rev?*%
%TF.SameCoordinates,Original*%
%TF.FileFunction,Legend,Top*%
%TF.FilePolarity,Positive*%
%FSLAX46Y46*%
G04 Gerber Fmt 4.6, Leading zero omitted, Abs format (unit mm)*
G04 Created by KiCad (PCBNEW 6.0.11-3.fc37) date 2024-04-07 15:32:32*
%MOMM*%
%LPD*%
G01*
G04 APERTURE LIST*
%ADD10C,0.150000*%
%ADD11C,0.095000*%
%ADD12C,0.120000*%
%ADD13C,0.100000*%
%ADD14C,0.090000*%
%ADD15C,0.127000*%
%ADD16C,0.200000*%
G04 APERTURE END LIST*
D10*
X144300000Y-82760000D02*
X145690000Y-82760000D01*
X135930000Y-82740000D02*
X137400000Y-82740000D01*
X122830000Y-82715000D02*
X127910000Y-82715000D01*
X130450000Y-82715000D02*
X135130000Y-82715000D01*
X104000000Y-84000000D02*
X166000000Y-84000000D01*
X166000000Y-84000000D02*
X166000000Y-126000000D01*
X166000000Y-126000000D02*
X104000000Y-126000000D01*
X104000000Y-126000000D02*
X104000000Y-84000000D01*
X135530000Y-82000000D02*
X135530000Y-83430000D01*
X162714285Y-83071428D02*
X163476190Y-83071428D01*
X163095238Y-83452380D02*
X163095238Y-82690476D01*
X164428571Y-82452380D02*
X163952380Y-82452380D01*
X163904761Y-82928571D01*
X163952380Y-82880952D01*
X164047619Y-82833333D01*
X164285714Y-82833333D01*
X164380952Y-82880952D01*
X164428571Y-82928571D01*
X164476190Y-83023809D01*
X164476190Y-83261904D01*
X164428571Y-83357142D01*
X164380952Y-83404761D01*
X164285714Y-83452380D01*
X164047619Y-83452380D01*
X163952380Y-83404761D01*
X163904761Y-83357142D01*
X164761904Y-82452380D02*
X165095238Y-83452380D01*
X165428571Y-82452380D01*
D11*
X137602857Y-92188571D02*
X137545714Y-92160000D01*
X137517142Y-92131428D01*
X137488571Y-92074285D01*
X137488571Y-92045714D01*
X137517142Y-91988571D01*
X137545714Y-91960000D01*
X137602857Y-91931428D01*
X137717142Y-91931428D01*
X137774285Y-91960000D01*
X137802857Y-91988571D01*
X137831428Y-92045714D01*
X137831428Y-92074285D01*
X137802857Y-92131428D01*
X137774285Y-92160000D01*
X137717142Y-92188571D01*
X137602857Y-92188571D01*
X137545714Y-92217142D01*
X137517142Y-92245714D01*
X137488571Y-92302857D01*
X137488571Y-92417142D01*
X137517142Y-92474285D01*
X137545714Y-92502857D01*
X137602857Y-92531428D01*
X137717142Y-92531428D01*
X137774285Y-92502857D01*
X137802857Y-92474285D01*
X137831428Y-92417142D01*
X137831428Y-92302857D01*
X137802857Y-92245714D01*
X137774285Y-92217142D01*
X137717142Y-92188571D01*
D12*
X103051904Y-121750476D02*
X103090000Y-121788571D01*
X103128095Y-121864761D01*
X103128095Y-122055238D01*
X103090000Y-122131428D01*
X103051904Y-122169523D01*
X102975714Y-122207619D01*
X102899523Y-122207619D01*
X102785238Y-122169523D01*
X102328095Y-121712380D01*
X102328095Y-122207619D01*
X103128095Y-122474285D02*
X103128095Y-122969523D01*
X102823333Y-122702857D01*
X102823333Y-122817142D01*
X102785238Y-122893333D01*
X102747142Y-122931428D01*
X102670952Y-122969523D01*
X102480476Y-122969523D01*
X102404285Y-122931428D01*
X102366190Y-122893333D01*
X102328095Y-122817142D01*
X102328095Y-122588571D01*
X102366190Y-122512380D01*
X102404285Y-122474285D01*
X156131903Y-92021904D02*
X155674760Y-92021904D01*
X155903332Y-92021904D02*
X155903332Y-91221904D01*
X155827141Y-91336190D01*
X155750951Y-91412380D01*
X155674760Y-91450476D01*
D13*
X130777142Y-91454285D02*
X130808571Y-91360000D01*
X130808571Y-91202857D01*
X130777142Y-91140000D01*
X130745714Y-91108571D01*
X130682857Y-91077142D01*
X130620000Y-91077142D01*
X130557142Y-91108571D01*
X130525714Y-91140000D01*
X130494285Y-91202857D01*
X130462857Y-91328571D01*
X130431428Y-91391428D01*
X130400000Y-91422857D01*
X130337142Y-91454285D01*
X130274285Y-91454285D01*
X130211428Y-91422857D01*
X130180000Y-91391428D01*
X130148571Y-91328571D01*
X130148571Y-91171428D01*
X130180000Y-91077142D01*
X130808571Y-90794285D02*
X130148571Y-90794285D01*
X130148571Y-90637142D01*
X130180000Y-90542857D01*
X130242857Y-90480000D01*
X130305714Y-90448571D01*
X130431428Y-90417142D01*
X130525714Y-90417142D01*
X130651428Y-90448571D01*
X130714285Y-90480000D01*
X130777142Y-90542857D01*
X130808571Y-90637142D01*
X130808571Y-90794285D01*
X130148571Y-90008571D02*
X130148571Y-89882857D01*
X130180000Y-89820000D01*
X130242857Y-89757142D01*
X130368571Y-89725714D01*
X130588571Y-89725714D01*
X130714285Y-89757142D01*
X130777142Y-89820000D01*
X130808571Y-89882857D01*
X130808571Y-90008571D01*
X130777142Y-90071428D01*
X130714285Y-90134285D01*
X130588571Y-90165714D01*
X130368571Y-90165714D01*
X130242857Y-90134285D01*
X130180000Y-90071428D01*
X130148571Y-90008571D01*
D11*
X124595714Y-92531428D02*
X124252857Y-92531428D01*
X124424285Y-92531428D02*
X124424285Y-91931428D01*
X124367142Y-92017142D01*
X124310000Y-92074285D01*
X124252857Y-92102857D01*
X125167142Y-92531428D02*
X124824285Y-92531428D01*
X124995714Y-92531428D02*
X124995714Y-91931428D01*
X124938571Y-92017142D01*
X124881428Y-92074285D01*
X124824285Y-92102857D01*
D13*
X143468571Y-91250000D02*
X142808571Y-91250000D01*
X143405714Y-90558571D02*
X143437142Y-90590000D01*
X143468571Y-90684285D01*
X143468571Y-90747142D01*
X143437142Y-90841428D01*
X143374285Y-90904285D01*
X143311428Y-90935714D01*
X143185714Y-90967142D01*
X143091428Y-90967142D01*
X142965714Y-90935714D01*
X142902857Y-90904285D01*
X142840000Y-90841428D01*
X142808571Y-90747142D01*
X142808571Y-90684285D01*
X142840000Y-90590000D01*
X142871428Y-90558571D01*
X142840000Y-89930000D02*
X142808571Y-89992857D01*
X142808571Y-90087142D01*
X142840000Y-90181428D01*
X142902857Y-90244285D01*
X142965714Y-90275714D01*
X143091428Y-90307142D01*
X143185714Y-90307142D01*
X143311428Y-90275714D01*
X143374285Y-90244285D01*
X143437142Y-90181428D01*
X143468571Y-90087142D01*
X143468571Y-90024285D01*
X143437142Y-89930000D01*
X143405714Y-89898571D01*
X143185714Y-89898571D01*
X143185714Y-90024285D01*
D10*
X159938095Y-82530000D02*
X159842857Y-82482380D01*
X159700000Y-82482380D01*
X159557142Y-82530000D01*
X159461904Y-82625238D01*
X159414285Y-82720476D01*
X159366666Y-82910952D01*
X159366666Y-83053809D01*
X159414285Y-83244285D01*
X159461904Y-83339523D01*
X159557142Y-83434761D01*
X159700000Y-83482380D01*
X159795238Y-83482380D01*
X159938095Y-83434761D01*
X159985714Y-83387142D01*
X159985714Y-83053809D01*
X159795238Y-83053809D01*
X160414285Y-83482380D02*
X160414285Y-82482380D01*
X160985714Y-83482380D01*
X160985714Y-82482380D01*
X161461904Y-83482380D02*
X161461904Y-82482380D01*
X161700000Y-82482380D01*
X161842857Y-82530000D01*
X161938095Y-82625238D01*
X161985714Y-82720476D01*
X162033333Y-82910952D01*
X162033333Y-83053809D01*
X161985714Y-83244285D01*
X161938095Y-83339523D01*
X161842857Y-83434761D01*
X161700000Y-83482380D01*
X161461904Y-83482380D01*
X105138095Y-82510000D02*
X105042857Y-82462380D01*
X104900000Y-82462380D01*
X104757142Y-82510000D01*
X104661904Y-82605238D01*
X104614285Y-82700476D01*
X104566666Y-82890952D01*
X104566666Y-83033809D01*
X104614285Y-83224285D01*
X104661904Y-83319523D01*
X104757142Y-83414761D01*
X104900000Y-83462380D01*
X104995238Y-83462380D01*
X105138095Y-83414761D01*
X105185714Y-83367142D01*
X105185714Y-83033809D01*
X104995238Y-83033809D01*
X105614285Y-83462380D02*
X105614285Y-82462380D01*
X106185714Y-83462380D01*
X106185714Y-82462380D01*
X106661904Y-83462380D02*
X106661904Y-82462380D01*
X106900000Y-82462380D01*
X107042857Y-82510000D01*
X107138095Y-82605238D01*
X107185714Y-82700476D01*
X107233333Y-82890952D01*
X107233333Y-83033809D01*
X107185714Y-83224285D01*
X107138095Y-83319523D01*
X107042857Y-83414761D01*
X106900000Y-83462380D01*
X106661904Y-83462380D01*
D12*
X150623333Y-91221904D02*
X151118571Y-91221904D01*
X150851904Y-91526666D01*
X150966190Y-91526666D01*
X151042380Y-91564761D01*
X151080476Y-91602857D01*
X151118571Y-91679047D01*
X151118571Y-91869523D01*
X151080476Y-91945714D01*
X151042380Y-91983809D01*
X150966190Y-92021904D01*
X150737619Y-92021904D01*
X150661428Y-91983809D01*
X150623333Y-91945714D01*
D13*
X140907142Y-91124285D02*
X140938571Y-91030000D01*
X140938571Y-90872857D01*
X140907142Y-90810000D01*
X140875714Y-90778571D01*
X140812857Y-90747142D01*
X140750000Y-90747142D01*
X140687142Y-90778571D01*
X140655714Y-90810000D01*
X140624285Y-90872857D01*
X140592857Y-90998571D01*
X140561428Y-91061428D01*
X140530000Y-91092857D01*
X140467142Y-91124285D01*
X140404285Y-91124285D01*
X140341428Y-91092857D01*
X140310000Y-91061428D01*
X140278571Y-90998571D01*
X140278571Y-90841428D01*
X140310000Y-90747142D01*
X140938571Y-90464285D02*
X140278571Y-90464285D01*
X140592857Y-90464285D02*
X140592857Y-90087142D01*
X140938571Y-90087142D02*
X140278571Y-90087142D01*
D14*
X151245714Y-89328428D02*
X151245714Y-88728428D01*
X151388571Y-88728428D01*
X151474285Y-88757000D01*
X151531428Y-88814142D01*
X151560000Y-88871285D01*
X151588571Y-88985571D01*
X151588571Y-89071285D01*
X151560000Y-89185571D01*
X151531428Y-89242714D01*
X151474285Y-89299857D01*
X151388571Y-89328428D01*
X151245714Y-89328428D01*
X151845714Y-89328428D02*
X151845714Y-88928428D01*
X151845714Y-88728428D02*
X151817142Y-88757000D01*
X151845714Y-88785571D01*
X151874285Y-88757000D01*
X151845714Y-88728428D01*
X151845714Y-88785571D01*
X152388571Y-88928428D02*
X152388571Y-89414142D01*
X152360000Y-89471285D01*
X152331428Y-89499857D01*
X152274285Y-89528428D01*
X152188571Y-89528428D01*
X152131428Y-89499857D01*
X152388571Y-89299857D02*
X152331428Y-89328428D01*
X152217142Y-89328428D01*
X152160000Y-89299857D01*
X152131428Y-89271285D01*
X152102857Y-89214142D01*
X152102857Y-89042714D01*
X152131428Y-88985571D01*
X152160000Y-88957000D01*
X152217142Y-88928428D01*
X152331428Y-88928428D01*
X152388571Y-88957000D01*
X152674285Y-89328428D02*
X152674285Y-88928428D01*
X152674285Y-88728428D02*
X152645714Y-88757000D01*
X152674285Y-88785571D01*
X152702857Y-88757000D01*
X152674285Y-88728428D01*
X152674285Y-88785571D01*
X152874285Y-88928428D02*
X153102857Y-88928428D01*
X152960000Y-88728428D02*
X152960000Y-89242714D01*
X152988571Y-89299857D01*
X153045714Y-89328428D01*
X153102857Y-89328428D01*
X153560000Y-89328428D02*
X153560000Y-89014142D01*
X153531428Y-88957000D01*
X153474285Y-88928428D01*
X153360000Y-88928428D01*
X153302857Y-88957000D01*
X153560000Y-89299857D02*
X153502857Y-89328428D01*
X153360000Y-89328428D01*
X153302857Y-89299857D01*
X153274285Y-89242714D01*
X153274285Y-89185571D01*
X153302857Y-89128428D01*
X153360000Y-89099857D01*
X153502857Y-89099857D01*
X153560000Y-89071285D01*
X153931428Y-89328428D02*
X153874285Y-89299857D01*
X153845714Y-89242714D01*
X153845714Y-88728428D01*
X154617142Y-89328428D02*
X154617142Y-88728428D01*
X155331428Y-88699857D02*
X154817142Y-89471285D01*
X155645714Y-88728428D02*
X155760000Y-88728428D01*
X155817142Y-88757000D01*
X155874285Y-88814142D01*
X155902857Y-88928428D01*
X155902857Y-89128428D01*
X155874285Y-89242714D01*
X155817142Y-89299857D01*
X155760000Y-89328428D01*
X155645714Y-89328428D01*
X155588571Y-89299857D01*
X155531428Y-89242714D01*
X155502857Y-89128428D01*
X155502857Y-88928428D01*
X155531428Y-88814142D01*
X155588571Y-88757000D01*
X155645714Y-88728428D01*
X149260000Y-90265857D02*
X149345714Y-90294428D01*
X149488571Y-90294428D01*
X149545714Y-90265857D01*
X149574285Y-90237285D01*
X149602857Y-90180142D01*
X149602857Y-90123000D01*
X149574285Y-90065857D01*
X149545714Y-90037285D01*
X149488571Y-90008714D01*
X149374285Y-89980142D01*
X149317142Y-89951571D01*
X149288571Y-89923000D01*
X149260000Y-89865857D01*
X149260000Y-89808714D01*
X149288571Y-89751571D01*
X149317142Y-89723000D01*
X149374285Y-89694428D01*
X149517142Y-89694428D01*
X149602857Y-89723000D01*
X149860000Y-89894428D02*
X149860000Y-90494428D01*
X149860000Y-89923000D02*
X149917142Y-89894428D01*
X150031428Y-89894428D01*
X150088571Y-89923000D01*
X150117142Y-89951571D01*
X150145714Y-90008714D01*
X150145714Y-90180142D01*
X150117142Y-90237285D01*
X150088571Y-90265857D01*
X150031428Y-90294428D01*
X149917142Y-90294428D01*
X149860000Y-90265857D01*
X150402857Y-90294428D02*
X150402857Y-89894428D01*
X150402857Y-90008714D02*
X150431428Y-89951571D01*
X150460000Y-89923000D01*
X150517142Y-89894428D01*
X150574285Y-89894428D01*
X151202857Y-89665857D02*
X150688571Y-90437285D01*
X151317142Y-89694428D02*
X151660000Y-89694428D01*
X151488571Y-90294428D02*
X151488571Y-89694428D01*
X151860000Y-90294428D02*
X151860000Y-89894428D01*
X151860000Y-90008714D02*
X151888571Y-89951571D01*
X151917142Y-89923000D01*
X151974285Y-89894428D01*
X152031428Y-89894428D01*
X152488571Y-89894428D02*
X152488571Y-90380142D01*
X152460000Y-90437285D01*
X152431428Y-90465857D01*
X152374285Y-90494428D01*
X152288571Y-90494428D01*
X152231428Y-90465857D01*
X152488571Y-90265857D02*
X152431428Y-90294428D01*
X152317142Y-90294428D01*
X152260000Y-90265857D01*
X152231428Y-90237285D01*
X152202857Y-90180142D01*
X152202857Y-90008714D01*
X152231428Y-89951571D01*
X152260000Y-89923000D01*
X152317142Y-89894428D01*
X152431428Y-89894428D01*
X152488571Y-89923000D01*
X153202857Y-89665857D02*
X152688571Y-90437285D01*
X153717142Y-89723000D02*
X153660000Y-89694428D01*
X153574285Y-89694428D01*
X153488571Y-89723000D01*
X153431428Y-89780142D01*
X153402857Y-89837285D01*
X153374285Y-89951571D01*
X153374285Y-90037285D01*
X153402857Y-90151571D01*
X153431428Y-90208714D01*
X153488571Y-90265857D01*
X153574285Y-90294428D01*
X153631428Y-90294428D01*
X153717142Y-90265857D01*
X153745714Y-90237285D01*
X153745714Y-90037285D01*
X153631428Y-90037285D01*
X154260000Y-90294428D02*
X154260000Y-89980142D01*
X154231428Y-89923000D01*
X154174285Y-89894428D01*
X154060000Y-89894428D01*
X154002857Y-89923000D01*
X154260000Y-90265857D02*
X154202857Y-90294428D01*
X154060000Y-90294428D01*
X154002857Y-90265857D01*
X153974285Y-90208714D01*
X153974285Y-90151571D01*
X154002857Y-90094428D01*
X154060000Y-90065857D01*
X154202857Y-90065857D01*
X154260000Y-90037285D01*
X154460000Y-89894428D02*
X154688571Y-89894428D01*
X154545714Y-89694428D02*
X154545714Y-90208714D01*
X154574285Y-90265857D01*
X154631428Y-90294428D01*
X154688571Y-90294428D01*
X155117142Y-90265857D02*
X155060000Y-90294428D01*
X154945714Y-90294428D01*
X154888571Y-90265857D01*
X154860000Y-90208714D01*
X154860000Y-89980142D01*
X154888571Y-89923000D01*
X154945714Y-89894428D01*
X155060000Y-89894428D01*
X155117142Y-89923000D01*
X155145714Y-89980142D01*
X155145714Y-90037285D01*
X154860000Y-90094428D01*
X155831428Y-89665857D02*
X155317142Y-90437285D01*
X156002857Y-90265857D02*
X156088571Y-90294428D01*
X156231428Y-90294428D01*
X156288571Y-90265857D01*
X156317142Y-90237285D01*
X156345714Y-90180142D01*
X156345714Y-90123000D01*
X156317142Y-90065857D01*
X156288571Y-90037285D01*
X156231428Y-90008714D01*
X156117142Y-89980142D01*
X156060000Y-89951571D01*
X156031428Y-89923000D01*
X156002857Y-89865857D01*
X156002857Y-89808714D01*
X156031428Y-89751571D01*
X156060000Y-89723000D01*
X156117142Y-89694428D01*
X156260000Y-89694428D01*
X156345714Y-89723000D01*
X156545714Y-89894428D02*
X156688571Y-90294428D01*
X156831428Y-89894428D02*
X156688571Y-90294428D01*
X156631428Y-90437285D01*
X156602857Y-90465857D01*
X156545714Y-90494428D01*
X157060000Y-89894428D02*
X157060000Y-90294428D01*
X157060000Y-89951571D02*
X157088571Y-89923000D01*
X157145714Y-89894428D01*
X157231428Y-89894428D01*
X157288571Y-89923000D01*
X157317142Y-89980142D01*
X157317142Y-90294428D01*
X157860000Y-90265857D02*
X157802857Y-90294428D01*
X157688571Y-90294428D01*
X157631428Y-90265857D01*
X157602857Y-90237285D01*
X157574285Y-90180142D01*
X157574285Y-90008714D01*
X157602857Y-89951571D01*
X157631428Y-89923000D01*
X157688571Y-89894428D01*
X157802857Y-89894428D01*
X157860000Y-89923000D01*
D12*
X147850000Y-97779523D02*
X147811904Y-97855714D01*
X147811904Y-97970000D01*
X147850000Y-98084285D01*
X147926190Y-98160476D01*
X148002380Y-98198571D01*
X148154761Y-98236666D01*
X148269047Y-98236666D01*
X148421428Y-98198571D01*
X148497619Y-98160476D01*
X148573809Y-98084285D01*
X148611904Y-97970000D01*
X148611904Y-97893809D01*
X148573809Y-97779523D01*
X148535714Y-97741428D01*
X148269047Y-97741428D01*
X148269047Y-97893809D01*
X148611904Y-97398571D02*
X147811904Y-97398571D01*
X148611904Y-96941428D01*
X147811904Y-96941428D01*
X148611904Y-96560476D02*
X147811904Y-96560476D01*
X147811904Y-96370000D01*
X147850000Y-96255714D01*
X147926190Y-96179523D01*
X148002380Y-96141428D01*
X148154761Y-96103333D01*
X148269047Y-96103333D01*
X148421428Y-96141428D01*
X148497619Y-96179523D01*
X148573809Y-96255714D01*
X148611904Y-96370000D01*
X148611904Y-96560476D01*
D13*
X122558571Y-91140000D02*
X123218571Y-90920000D01*
X122558571Y-90700000D01*
X123218571Y-90480000D02*
X122558571Y-90480000D01*
X122558571Y-90322857D01*
X122590000Y-90228571D01*
X122652857Y-90165714D01*
X122715714Y-90134285D01*
X122841428Y-90102857D01*
X122935714Y-90102857D01*
X123061428Y-90134285D01*
X123124285Y-90165714D01*
X123187142Y-90228571D01*
X123218571Y-90322857D01*
X123218571Y-90480000D01*
D12*
X137859523Y-83051904D02*
X137859523Y-82251904D01*
X138240476Y-82518571D02*
X138240476Y-83051904D01*
X138240476Y-82594761D02*
X138278571Y-82556666D01*
X138354761Y-82518571D01*
X138469047Y-82518571D01*
X138545238Y-82556666D01*
X138583333Y-82632857D01*
X138583333Y-83051904D01*
X138926190Y-83013809D02*
X139002380Y-83051904D01*
X139154761Y-83051904D01*
X139230952Y-83013809D01*
X139269047Y-82937619D01*
X139269047Y-82899523D01*
X139230952Y-82823333D01*
X139154761Y-82785238D01*
X139040476Y-82785238D01*
X138964285Y-82747142D01*
X138926190Y-82670952D01*
X138926190Y-82632857D01*
X138964285Y-82556666D01*
X139040476Y-82518571D01*
X139154761Y-82518571D01*
X139230952Y-82556666D01*
X139497619Y-82518571D02*
X139802380Y-82518571D01*
X139611904Y-82251904D02*
X139611904Y-82937619D01*
X139650000Y-83013809D01*
X139726190Y-83051904D01*
X139802380Y-83051904D01*
X140069047Y-83051904D02*
X140069047Y-82518571D01*
X140069047Y-82670952D02*
X140107142Y-82594761D01*
X140145238Y-82556666D01*
X140221428Y-82518571D01*
X140297619Y-82518571D01*
X140907142Y-82518571D02*
X140907142Y-83051904D01*
X140564285Y-82518571D02*
X140564285Y-82937619D01*
X140602380Y-83013809D01*
X140678571Y-83051904D01*
X140792857Y-83051904D01*
X140869047Y-83013809D01*
X140907142Y-82975714D01*
X141288095Y-83051904D02*
X141288095Y-82518571D01*
X141288095Y-82594761D02*
X141326190Y-82556666D01*
X141402380Y-82518571D01*
X141516666Y-82518571D01*
X141592857Y-82556666D01*
X141630952Y-82632857D01*
X141630952Y-83051904D01*
X141630952Y-82632857D02*
X141669047Y-82556666D01*
X141745238Y-82518571D01*
X141859523Y-82518571D01*
X141935714Y-82556666D01*
X141973809Y-82632857D01*
X141973809Y-83051904D01*
X142659523Y-83013809D02*
X142583333Y-83051904D01*
X142430952Y-83051904D01*
X142354761Y-83013809D01*
X142316666Y-82937619D01*
X142316666Y-82632857D01*
X142354761Y-82556666D01*
X142430952Y-82518571D01*
X142583333Y-82518571D01*
X142659523Y-82556666D01*
X142697619Y-82632857D01*
X142697619Y-82709047D01*
X142316666Y-82785238D01*
X143040476Y-82518571D02*
X143040476Y-83051904D01*
X143040476Y-82594761D02*
X143078571Y-82556666D01*
X143154761Y-82518571D01*
X143269047Y-82518571D01*
X143345238Y-82556666D01*
X143383333Y-82632857D01*
X143383333Y-83051904D01*
X143650000Y-82518571D02*
X143954761Y-82518571D01*
X143764285Y-82251904D02*
X143764285Y-82937619D01*
X143802380Y-83013809D01*
X143878571Y-83051904D01*
X143954761Y-83051904D01*
D10*
X148238095Y-84800000D02*
X148142857Y-84752380D01*
X148000000Y-84752380D01*
X147857142Y-84800000D01*
X147761904Y-84895238D01*
X147714285Y-84990476D01*
X147666666Y-85180952D01*
X147666666Y-85323809D01*
X147714285Y-85514285D01*
X147761904Y-85609523D01*
X147857142Y-85704761D01*
X148000000Y-85752380D01*
X148095238Y-85752380D01*
X148238095Y-85704761D01*
X148285714Y-85657142D01*
X148285714Y-85323809D01*
X148095238Y-85323809D01*
X148714285Y-85752380D02*
X148714285Y-84752380D01*
X149285714Y-85752380D01*
X149285714Y-84752380D01*
X149761904Y-85752380D02*
X149761904Y-84752380D01*
X150000000Y-84752380D01*
X150142857Y-84800000D01*
X150238095Y-84895238D01*
X150285714Y-84990476D01*
X150333333Y-85180952D01*
X150333333Y-85323809D01*
X150285714Y-85514285D01*
X150238095Y-85609523D01*
X150142857Y-85704761D01*
X150000000Y-85752380D01*
X149761904Y-85752380D01*
D12*
X102556666Y-98928571D02*
X102556666Y-99309523D01*
X102328095Y-98852380D02*
X103128095Y-99119047D01*
X102328095Y-99385714D01*
X103128095Y-99804761D02*
X103128095Y-99880952D01*
X103090000Y-99957142D01*
X103051904Y-99995238D01*
X102975714Y-100033333D01*
X102823333Y-100071428D01*
X102632857Y-100071428D01*
X102480476Y-100033333D01*
X102404285Y-99995238D01*
X102366190Y-99957142D01*
X102328095Y-99880952D01*
X102328095Y-99804761D01*
X102366190Y-99728571D01*
X102404285Y-99690476D01*
X102480476Y-99652380D01*
X102632857Y-99614285D01*
X102823333Y-99614285D01*
X102975714Y-99652380D01*
X103051904Y-99690476D01*
X103090000Y-99728571D01*
X103128095Y-99804761D01*
D13*
X104928571Y-92701428D02*
X104960000Y-92670000D01*
X105022857Y-92638571D01*
X105180000Y-92638571D01*
X105242857Y-92670000D01*
X105274285Y-92701428D01*
X105305714Y-92764285D01*
X105305714Y-92827142D01*
X105274285Y-92921428D01*
X104897142Y-93298571D01*
X105305714Y-93298571D01*
X105588571Y-93235714D02*
X105620000Y-93267142D01*
X105588571Y-93298571D01*
X105557142Y-93267142D01*
X105588571Y-93235714D01*
X105588571Y-93298571D01*
X106028571Y-92638571D02*
X106091428Y-92638571D01*
X106154285Y-92670000D01*
X106185714Y-92701428D01*
X106217142Y-92764285D01*
X106248571Y-92890000D01*
X106248571Y-93047142D01*
X106217142Y-93172857D01*
X106185714Y-93235714D01*
X106154285Y-93267142D01*
X106091428Y-93298571D01*
X106028571Y-93298571D01*
X105965714Y-93267142D01*
X105934285Y-93235714D01*
X105902857Y-93172857D01*
X105871428Y-93047142D01*
X105871428Y-92890000D01*
X105902857Y-92764285D01*
X105934285Y-92701428D01*
X105965714Y-92670000D01*
X106028571Y-92638571D01*
X106814285Y-92858571D02*
X106814285Y-93298571D01*
X106657142Y-92607142D02*
X106500000Y-93078571D01*
X106908571Y-93078571D01*
X107254285Y-92921428D02*
X107191428Y-92890000D01*
X107160000Y-92858571D01*
X107128571Y-92795714D01*
X107128571Y-92764285D01*
X107160000Y-92701428D01*
X107191428Y-92670000D01*
X107254285Y-92638571D01*
X107380000Y-92638571D01*
X107442857Y-92670000D01*
X107474285Y-92701428D01*
X107505714Y-92764285D01*
X107505714Y-92795714D01*
X107474285Y-92858571D01*
X107442857Y-92890000D01*
X107380000Y-92921428D01*
X107254285Y-92921428D01*
X107191428Y-92952857D01*
X107160000Y-92984285D01*
X107128571Y-93047142D01*
X107128571Y-93172857D01*
X107160000Y-93235714D01*
X107191428Y-93267142D01*
X107254285Y-93298571D01*
X107380000Y-93298571D01*
X107442857Y-93267142D01*
X107474285Y-93235714D01*
X107505714Y-93172857D01*
X107505714Y-93047142D01*
X107474285Y-92984285D01*
X107442857Y-92952857D01*
X107380000Y-92921428D01*
X107694285Y-92638571D02*
X107914285Y-93298571D01*
X108134285Y-92638571D01*
D11*
X134685714Y-92531428D02*
X134800000Y-92531428D01*
X134857142Y-92502857D01*
X134885714Y-92474285D01*
X134942857Y-92388571D01*
X134971428Y-92274285D01*
X134971428Y-92045714D01*
X134942857Y-91988571D01*
X134914285Y-91960000D01*
X134857142Y-91931428D01*
X134742857Y-91931428D01*
X134685714Y-91960000D01*
X134657142Y-91988571D01*
X134628571Y-92045714D01*
X134628571Y-92188571D01*
X134657142Y-92245714D01*
X134685714Y-92274285D01*
X134742857Y-92302857D01*
X134857142Y-92302857D01*
X134914285Y-92274285D01*
X134942857Y-92245714D01*
X134971428Y-92188571D01*
D12*
X160580000Y-97779523D02*
X160541904Y-97855714D01*
X160541904Y-97970000D01*
X160580000Y-98084285D01*
X160656190Y-98160476D01*
X160732380Y-98198571D01*
X160884761Y-98236666D01*
X160999047Y-98236666D01*
X161151428Y-98198571D01*
X161227619Y-98160476D01*
X161303809Y-98084285D01*
X161341904Y-97970000D01*
X161341904Y-97893809D01*
X161303809Y-97779523D01*
X161265714Y-97741428D01*
X160999047Y-97741428D01*
X160999047Y-97893809D01*
X161341904Y-97398571D02*
X160541904Y-97398571D01*
X161341904Y-96941428D01*
X160541904Y-96941428D01*
X161341904Y-96560476D02*
X160541904Y-96560476D01*
X160541904Y-96370000D01*
X160580000Y-96255714D01*
X160656190Y-96179523D01*
X160732380Y-96141428D01*
X160884761Y-96103333D01*
X160999047Y-96103333D01*
X161151428Y-96141428D01*
X161227619Y-96179523D01*
X161303809Y-96255714D01*
X161341904Y-96370000D01*
X161341904Y-96560476D01*
D13*
X145935714Y-90982857D02*
X145967142Y-91014285D01*
X145998571Y-91108571D01*
X145998571Y-91171428D01*
X145967142Y-91265714D01*
X145904285Y-91328571D01*
X145841428Y-91360000D01*
X145715714Y-91391428D01*
X145621428Y-91391428D01*
X145495714Y-91360000D01*
X145432857Y-91328571D01*
X145370000Y-91265714D01*
X145338571Y-91171428D01*
X145338571Y-91108571D01*
X145370000Y-91014285D01*
X145401428Y-90982857D01*
X145998571Y-90385714D02*
X145998571Y-90700000D01*
X145338571Y-90700000D01*
X145998571Y-90165714D02*
X145338571Y-90165714D01*
X145998571Y-89788571D02*
X145621428Y-90071428D01*
X145338571Y-89788571D02*
X145715714Y-90165714D01*
D12*
X132037449Y-97553333D02*
X132075544Y-97591428D01*
X132113639Y-97705714D01*
X132113639Y-97781904D01*
X132075544Y-97896190D01*
X131999354Y-97972380D01*
X131923163Y-98010476D01*
X131770782Y-98048571D01*
X131656496Y-98048571D01*
X131504115Y-98010476D01*
X131427925Y-97972380D01*
X131351735Y-97896190D01*
X131313639Y-97781904D01*
X131313639Y-97705714D01*
X131351735Y-97591428D01*
X131389830Y-97553333D01*
X132075544Y-97248571D02*
X132113639Y-97134285D01*
X132113639Y-96943809D01*
X132075544Y-96867619D01*
X132037449Y-96829523D01*
X131961258Y-96791428D01*
X131885068Y-96791428D01*
X131808877Y-96829523D01*
X131770782Y-96867619D01*
X131732687Y-96943809D01*
X131694592Y-97096190D01*
X131656496Y-97172380D01*
X131618401Y-97210476D01*
X131542211Y-97248571D01*
X131466020Y-97248571D01*
X131389830Y-97210476D01*
X131351735Y-97172380D01*
X131313639Y-97096190D01*
X131313639Y-96905714D01*
X131351735Y-96791428D01*
X122480000Y-97779523D02*
X122441904Y-97855714D01*
X122441904Y-97970000D01*
X122480000Y-98084285D01*
X122556190Y-98160476D01*
X122632380Y-98198571D01*
X122784761Y-98236666D01*
X122899047Y-98236666D01*
X123051428Y-98198571D01*
X123127619Y-98160476D01*
X123203809Y-98084285D01*
X123241904Y-97970000D01*
X123241904Y-97893809D01*
X123203809Y-97779523D01*
X123165714Y-97741428D01*
X122899047Y-97741428D01*
X122899047Y-97893809D01*
X123241904Y-97398571D02*
X122441904Y-97398571D01*
X123241904Y-96941428D01*
X122441904Y-96941428D01*
X123241904Y-96560476D02*
X122441904Y-96560476D01*
X122441904Y-96370000D01*
X122480000Y-96255714D01*
X122556190Y-96179523D01*
X122632380Y-96141428D01*
X122784761Y-96103333D01*
X122899047Y-96103333D01*
X123051428Y-96141428D01*
X123127619Y-96179523D01*
X123203809Y-96255714D01*
X123241904Y-96370000D01*
X123241904Y-96560476D01*
D11*
X132235714Y-92531428D02*
X131892857Y-92531428D01*
X132064285Y-92531428D02*
X132064285Y-91931428D01*
X132007142Y-92017142D01*
X131950000Y-92074285D01*
X131892857Y-92102857D01*
X132607142Y-91931428D02*
X132664285Y-91931428D01*
X132721428Y-91960000D01*
X132750000Y-91988571D01*
X132778571Y-92045714D01*
X132807142Y-92160000D01*
X132807142Y-92302857D01*
X132778571Y-92417142D01*
X132750000Y-92474285D01*
X132721428Y-92502857D01*
X132664285Y-92531428D01*
X132607142Y-92531428D01*
X132550000Y-92502857D01*
X132521428Y-92474285D01*
X132492857Y-92417142D01*
X132464285Y-92302857D01*
X132464285Y-92160000D01*
X132492857Y-92045714D01*
X132521428Y-91988571D01*
X132550000Y-91960000D01*
X132607142Y-91931428D01*
D10*
X118738095Y-84800000D02*
X118642857Y-84752380D01*
X118500000Y-84752380D01*
X118357142Y-84800000D01*
X118261904Y-84895238D01*
X118214285Y-84990476D01*
X118166666Y-85180952D01*
X118166666Y-85323809D01*
X118214285Y-85514285D01*
X118261904Y-85609523D01*
X118357142Y-85704761D01*
X118500000Y-85752380D01*
X118595238Y-85752380D01*
X118738095Y-85704761D01*
X118785714Y-85657142D01*
X118785714Y-85323809D01*
X118595238Y-85323809D01*
X119214285Y-85752380D02*
X119214285Y-84752380D01*
X119785714Y-85752380D01*
X119785714Y-84752380D01*
X120261904Y-85752380D02*
X120261904Y-84752380D01*
X120500000Y-84752380D01*
X120642857Y-84800000D01*
X120738095Y-84895238D01*
X120785714Y-84990476D01*
X120833333Y-85180952D01*
X120833333Y-85323809D01*
X120785714Y-85514285D01*
X120738095Y-85609523D01*
X120642857Y-85704761D01*
X120500000Y-85752380D01*
X120261904Y-85752380D01*
D12*
X111080476Y-94900000D02*
X111004285Y-94861904D01*
X110890000Y-94861904D01*
X110775714Y-94900000D01*
X110699523Y-94976190D01*
X110661428Y-95052380D01*
X110623333Y-95204761D01*
X110623333Y-95319047D01*
X110661428Y-95471428D01*
X110699523Y-95547619D01*
X110775714Y-95623809D01*
X110890000Y-95661904D01*
X110966190Y-95661904D01*
X111080476Y-95623809D01*
X111118571Y-95585714D01*
X111118571Y-95319047D01*
X110966190Y-95319047D01*
X111461428Y-95661904D02*
X111461428Y-94861904D01*
X111918571Y-95661904D01*
X111918571Y-94861904D01*
X112299523Y-95661904D02*
X112299523Y-94861904D01*
X112490000Y-94861904D01*
X112604285Y-94900000D01*
X112680476Y-94976190D01*
X112718571Y-95052380D01*
X112756666Y-95204761D01*
X112756666Y-95319047D01*
X112718571Y-95471428D01*
X112680476Y-95547619D01*
X112604285Y-95623809D01*
X112490000Y-95661904D01*
X112299523Y-95661904D01*
X153168094Y-91298095D02*
X153206189Y-91260000D01*
X153282380Y-91221904D01*
X153472856Y-91221904D01*
X153549046Y-91260000D01*
X153587142Y-91298095D01*
X153625237Y-91374285D01*
X153625237Y-91450476D01*
X153587142Y-91564761D01*
X153129999Y-92021904D01*
X153625237Y-92021904D01*
D13*
X133275714Y-90700001D02*
X133307142Y-90731429D01*
X133338571Y-90825715D01*
X133338571Y-90888572D01*
X133307142Y-90982858D01*
X133244285Y-91045715D01*
X133181428Y-91077143D01*
X133055714Y-91108572D01*
X132961428Y-91108572D01*
X132835714Y-91077143D01*
X132772857Y-91045715D01*
X132710000Y-90982858D01*
X132678571Y-90888572D01*
X132678571Y-90825715D01*
X132710000Y-90731429D01*
X132741428Y-90700001D01*
X133307142Y-90448572D02*
X133338571Y-90354286D01*
X133338571Y-90197143D01*
X133307142Y-90134286D01*
X133275714Y-90102858D01*
X133212857Y-90071429D01*
X133150000Y-90071429D01*
X133087142Y-90102858D01*
X133055714Y-90134286D01*
X133024285Y-90197143D01*
X132992857Y-90322858D01*
X132961428Y-90385715D01*
X132930000Y-90417143D01*
X132867142Y-90448572D01*
X132804285Y-90448572D01*
X132741428Y-90417143D01*
X132710000Y-90385715D01*
X132678571Y-90322858D01*
X132678571Y-90165715D01*
X132710000Y-90071429D01*
D12*
X129611904Y-98677141D02*
X128811904Y-98677141D01*
X129383333Y-98410475D01*
X128811904Y-98143808D01*
X129611904Y-98143808D01*
X129611904Y-97762856D02*
X128811904Y-97762856D01*
X129573809Y-97419999D02*
X129611904Y-97305713D01*
X129611904Y-97115237D01*
X129573809Y-97039046D01*
X129535714Y-97000951D01*
X129459523Y-96962856D01*
X129383333Y-96962856D01*
X129307142Y-97000951D01*
X129269047Y-97039046D01*
X129230952Y-97115237D01*
X129192857Y-97267618D01*
X129154761Y-97343808D01*
X129116666Y-97381903D01*
X129040476Y-97419999D01*
X128964285Y-97419999D01*
X128888095Y-97381903D01*
X128850000Y-97343808D01*
X128811904Y-97267618D01*
X128811904Y-97077141D01*
X128850000Y-96962856D01*
X128811904Y-96467618D02*
X128811904Y-96315237D01*
X128850000Y-96239046D01*
X128926190Y-96162856D01*
X129078571Y-96124760D01*
X129345238Y-96124760D01*
X129497619Y-96162856D01*
X129573809Y-96239046D01*
X129611904Y-96315237D01*
X129611904Y-96467618D01*
X129573809Y-96543808D01*
X129497619Y-96619999D01*
X129345238Y-96658094D01*
X129078571Y-96658094D01*
X128926190Y-96619999D01*
X128850000Y-96543808D01*
X128811904Y-96467618D01*
X102556666Y-102644285D02*
X102556666Y-103025238D01*
X102328095Y-102568095D02*
X103128095Y-102834761D01*
X102328095Y-103101428D01*
X102861428Y-103368095D02*
X102328095Y-103368095D01*
X102785238Y-103368095D02*
X102823333Y-103406190D01*
X102861428Y-103482380D01*
X102861428Y-103596666D01*
X102823333Y-103672857D01*
X102747142Y-103710952D01*
X102328095Y-103710952D01*
X102328095Y-104434761D02*
X102747142Y-104434761D01*
X102823333Y-104396666D01*
X102861428Y-104320476D01*
X102861428Y-104168095D01*
X102823333Y-104091904D01*
X102366190Y-104434761D02*
X102328095Y-104358571D01*
X102328095Y-104168095D01*
X102366190Y-104091904D01*
X102442380Y-104053809D01*
X102518571Y-104053809D01*
X102594761Y-104091904D01*
X102632857Y-104168095D01*
X102632857Y-104358571D01*
X102670952Y-104434761D01*
X102328095Y-104930000D02*
X102366190Y-104853809D01*
X102442380Y-104815714D01*
X103128095Y-104815714D01*
X102328095Y-105349047D02*
X102366190Y-105272857D01*
X102404285Y-105234761D01*
X102480476Y-105196666D01*
X102709047Y-105196666D01*
X102785238Y-105234761D01*
X102823333Y-105272857D01*
X102861428Y-105349047D01*
X102861428Y-105463333D01*
X102823333Y-105539523D01*
X102785238Y-105577619D01*
X102709047Y-105615714D01*
X102480476Y-105615714D01*
X102404285Y-105577619D01*
X102366190Y-105539523D01*
X102328095Y-105463333D01*
X102328095Y-105349047D01*
X102861428Y-106301428D02*
X102213809Y-106301428D01*
X102137619Y-106263333D01*
X102099523Y-106225238D01*
X102061428Y-106149047D01*
X102061428Y-106034761D01*
X102099523Y-105958571D01*
X102366190Y-106301428D02*
X102328095Y-106225238D01*
X102328095Y-106072857D01*
X102366190Y-105996666D01*
X102404285Y-105958571D01*
X102480476Y-105920476D01*
X102709047Y-105920476D01*
X102785238Y-105958571D01*
X102823333Y-105996666D01*
X102861428Y-106072857D01*
X102861428Y-106225238D01*
X102823333Y-106301428D01*
X102328095Y-107291904D02*
X103128095Y-107291904D01*
X102861428Y-107672857D02*
X102328095Y-107672857D01*
X102785238Y-107672857D02*
X102823333Y-107710952D01*
X102861428Y-107787142D01*
X102861428Y-107901428D01*
X102823333Y-107977619D01*
X102747142Y-108015714D01*
X102328095Y-108015714D01*
X102861428Y-108396666D02*
X102061428Y-108396666D01*
X102823333Y-108396666D02*
X102861428Y-108472857D01*
X102861428Y-108625238D01*
X102823333Y-108701428D01*
X102785238Y-108739523D01*
X102709047Y-108777619D01*
X102480476Y-108777619D01*
X102404285Y-108739523D01*
X102366190Y-108701428D01*
X102328095Y-108625238D01*
X102328095Y-108472857D01*
X102366190Y-108396666D01*
X102861428Y-109463333D02*
X102328095Y-109463333D01*
X102861428Y-109120476D02*
X102442380Y-109120476D01*
X102366190Y-109158571D01*
X102328095Y-109234761D01*
X102328095Y-109349047D01*
X102366190Y-109425238D01*
X102404285Y-109463333D01*
X102861428Y-109730000D02*
X102861428Y-110034761D01*
X103128095Y-109844285D02*
X102442380Y-109844285D01*
X102366190Y-109882380D01*
X102328095Y-109958571D01*
X102328095Y-110034761D01*
X102366190Y-110263333D02*
X102328095Y-110339523D01*
X102328095Y-110491904D01*
X102366190Y-110568095D01*
X102442380Y-110606190D01*
X102480476Y-110606190D01*
X102556666Y-110568095D01*
X102594761Y-110491904D01*
X102594761Y-110377619D01*
X102632857Y-110301428D01*
X102709047Y-110263333D01*
X102747142Y-110263333D01*
X102823333Y-110301428D01*
X102861428Y-110377619D01*
X102861428Y-110491904D01*
X102823333Y-110568095D01*
X103166190Y-112130000D02*
X102137619Y-111444285D01*
X102328095Y-113006190D02*
X103128095Y-113006190D01*
X103128095Y-113196666D01*
X103090000Y-113310952D01*
X103013809Y-113387142D01*
X102937619Y-113425238D01*
X102785238Y-113463333D01*
X102670952Y-113463333D01*
X102518571Y-113425238D01*
X102442380Y-113387142D01*
X102366190Y-113310952D01*
X102328095Y-113196666D01*
X102328095Y-113006190D01*
X102328095Y-113806190D02*
X102861428Y-113806190D01*
X103128095Y-113806190D02*
X103090000Y-113768095D01*
X103051904Y-113806190D01*
X103090000Y-113844285D01*
X103128095Y-113806190D01*
X103051904Y-113806190D01*
X102861428Y-114530000D02*
X102213809Y-114530000D01*
X102137619Y-114491904D01*
X102099523Y-114453809D01*
X102061428Y-114377619D01*
X102061428Y-114263333D01*
X102099523Y-114187142D01*
X102366190Y-114530000D02*
X102328095Y-114453809D01*
X102328095Y-114301428D01*
X102366190Y-114225238D01*
X102404285Y-114187142D01*
X102480476Y-114149047D01*
X102709047Y-114149047D01*
X102785238Y-114187142D01*
X102823333Y-114225238D01*
X102861428Y-114301428D01*
X102861428Y-114453809D01*
X102823333Y-114530000D01*
X102328095Y-114910952D02*
X102861428Y-114910952D01*
X103128095Y-114910952D02*
X103090000Y-114872857D01*
X103051904Y-114910952D01*
X103090000Y-114949047D01*
X103128095Y-114910952D01*
X103051904Y-114910952D01*
X102861428Y-115177619D02*
X102861428Y-115482380D01*
X103128095Y-115291904D02*
X102442380Y-115291904D01*
X102366190Y-115330000D01*
X102328095Y-115406190D01*
X102328095Y-115482380D01*
X102328095Y-116091904D02*
X102747142Y-116091904D01*
X102823333Y-116053809D01*
X102861428Y-115977619D01*
X102861428Y-115825238D01*
X102823333Y-115749047D01*
X102366190Y-116091904D02*
X102328095Y-116015714D01*
X102328095Y-115825238D01*
X102366190Y-115749047D01*
X102442380Y-115710952D01*
X102518571Y-115710952D01*
X102594761Y-115749047D01*
X102632857Y-115825238D01*
X102632857Y-116015714D01*
X102670952Y-116091904D01*
X102328095Y-116587142D02*
X102366190Y-116510952D01*
X102442380Y-116472857D01*
X103128095Y-116472857D01*
X102328095Y-117501428D02*
X103128095Y-117501428D01*
X103166190Y-118453809D02*
X102137619Y-117768095D01*
X103128095Y-118872857D02*
X103128095Y-119025238D01*
X103090000Y-119101428D01*
X103013809Y-119177619D01*
X102861428Y-119215714D01*
X102594761Y-119215714D01*
X102442380Y-119177619D01*
X102366190Y-119101428D01*
X102328095Y-119025238D01*
X102328095Y-118872857D01*
X102366190Y-118796666D01*
X102442380Y-118720476D01*
X102594761Y-118682380D01*
X102861428Y-118682380D01*
X103013809Y-118720476D01*
X103090000Y-118796666D01*
X103128095Y-118872857D01*
D11*
X145485714Y-91931428D02*
X145200000Y-91931428D01*
X145171428Y-92217142D01*
X145200000Y-92188571D01*
X145257142Y-92160000D01*
X145400000Y-92160000D01*
X145457142Y-92188571D01*
X145485714Y-92217142D01*
X145514285Y-92274285D01*
X145514285Y-92417142D01*
X145485714Y-92474285D01*
X145457142Y-92502857D01*
X145400000Y-92531428D01*
X145257142Y-92531428D01*
X145200000Y-92502857D01*
X145171428Y-92474285D01*
X145771428Y-92302857D02*
X146228571Y-92302857D01*
X146771428Y-92131428D02*
X146771428Y-92531428D01*
X146628571Y-91902857D02*
X146485714Y-92331428D01*
X146857142Y-92331428D01*
D13*
X128215714Y-90982857D02*
X128247142Y-91014285D01*
X128278571Y-91108571D01*
X128278571Y-91171428D01*
X128247142Y-91265714D01*
X128184285Y-91328571D01*
X128121428Y-91360000D01*
X127995714Y-91391428D01*
X127901428Y-91391428D01*
X127775714Y-91360000D01*
X127712857Y-91328571D01*
X127650000Y-91265714D01*
X127618571Y-91171428D01*
X127618571Y-91108571D01*
X127650000Y-91014285D01*
X127681428Y-90982857D01*
X128278571Y-90385714D02*
X128278571Y-90700000D01*
X127618571Y-90700000D01*
X128278571Y-90165714D02*
X127618571Y-90165714D01*
X128278571Y-89788571D02*
X127901428Y-90071428D01*
X127618571Y-89788571D02*
X127995714Y-90165714D01*
D12*
X144785714Y-97896190D02*
X144823809Y-97934285D01*
X144861904Y-98048571D01*
X144861904Y-98124761D01*
X144823809Y-98239047D01*
X144747619Y-98315238D01*
X144671428Y-98353333D01*
X144519047Y-98391428D01*
X144404761Y-98391428D01*
X144252380Y-98353333D01*
X144176190Y-98315238D01*
X144100000Y-98239047D01*
X144061904Y-98124761D01*
X144061904Y-98048571D01*
X144100000Y-97934285D01*
X144138095Y-97896190D01*
X144861904Y-97172380D02*
X144861904Y-97553333D01*
X144061904Y-97553333D01*
X144861904Y-96905714D02*
X144061904Y-96905714D01*
X144861904Y-96448571D02*
X144404761Y-96791428D01*
X144061904Y-96448571D02*
X144519047Y-96905714D01*
D13*
X135163571Y-91140000D02*
X135823571Y-90920000D01*
X135163571Y-90700000D01*
X135823571Y-90480000D02*
X135163571Y-90480000D01*
X135163571Y-90322857D01*
X135195000Y-90228571D01*
X135257857Y-90165714D01*
X135320714Y-90134285D01*
X135446428Y-90102857D01*
X135540714Y-90102857D01*
X135666428Y-90134285D01*
X135729285Y-90165714D01*
X135792142Y-90228571D01*
X135823571Y-90322857D01*
X135823571Y-90480000D01*
X125717142Y-91265715D02*
X125748571Y-91171429D01*
X125748571Y-91014286D01*
X125717142Y-90951429D01*
X125685714Y-90920001D01*
X125622857Y-90888572D01*
X125560000Y-90888572D01*
X125497142Y-90920001D01*
X125465714Y-90951429D01*
X125434285Y-91014286D01*
X125402857Y-91140001D01*
X125371428Y-91202858D01*
X125340000Y-91234286D01*
X125277142Y-91265715D01*
X125214285Y-91265715D01*
X125151428Y-91234286D01*
X125120000Y-91202858D01*
X125088571Y-91140001D01*
X125088571Y-90982858D01*
X125120000Y-90888572D01*
X125748571Y-90605715D02*
X125088571Y-90605715D01*
X125088571Y-90448572D01*
X125120000Y-90354286D01*
X125182857Y-90291429D01*
X125245714Y-90260001D01*
X125371428Y-90228572D01*
X125465714Y-90228572D01*
X125591428Y-90260001D01*
X125654285Y-90291429D01*
X125717142Y-90354286D01*
X125748571Y-90448572D01*
X125748571Y-90605715D01*
X125748571Y-89945715D02*
X125088571Y-89945715D01*
D12*
X142312251Y-98219999D02*
X141512251Y-98219999D01*
X142236061Y-97381903D02*
X142274156Y-97419999D01*
X142312251Y-97534284D01*
X142312251Y-97610475D01*
X142274156Y-97724760D01*
X142197966Y-97800951D01*
X142121775Y-97839046D01*
X141969394Y-97877141D01*
X141855108Y-97877141D01*
X141702727Y-97839046D01*
X141626537Y-97800951D01*
X141550347Y-97724760D01*
X141512251Y-97610475D01*
X141512251Y-97534284D01*
X141550347Y-97419999D01*
X141588442Y-97381903D01*
X141550347Y-96619999D02*
X141512251Y-96696189D01*
X141512251Y-96810475D01*
X141550347Y-96924760D01*
X141626537Y-97000951D01*
X141702727Y-97039046D01*
X141855108Y-97077141D01*
X141969394Y-97077141D01*
X142121775Y-97039046D01*
X142197966Y-97000951D01*
X142274156Y-96924760D01*
X142312251Y-96810475D01*
X142312251Y-96734284D01*
X142274156Y-96619999D01*
X142236061Y-96581903D01*
X141969394Y-96581903D01*
X141969394Y-96734284D01*
D11*
X129665714Y-92531428D02*
X129322857Y-92531428D01*
X129494285Y-92531428D02*
X129494285Y-91931428D01*
X129437142Y-92017142D01*
X129380000Y-92074285D01*
X129322857Y-92102857D01*
X129894285Y-91988571D02*
X129922857Y-91960000D01*
X129980000Y-91931428D01*
X130122857Y-91931428D01*
X130180000Y-91960000D01*
X130208571Y-91988571D01*
X130237142Y-92045714D01*
X130237142Y-92102857D01*
X130208571Y-92188571D01*
X129865714Y-92531428D01*
X130237142Y-92531428D01*
D12*
X107930476Y-124450000D02*
X107854285Y-124411904D01*
X107740000Y-124411904D01*
X107625714Y-124450000D01*
X107549523Y-124526190D01*
X107511428Y-124602380D01*
X107473333Y-124754761D01*
X107473333Y-124869047D01*
X107511428Y-125021428D01*
X107549523Y-125097619D01*
X107625714Y-125173809D01*
X107740000Y-125211904D01*
X107816190Y-125211904D01*
X107930476Y-125173809D01*
X107968571Y-125135714D01*
X107968571Y-124869047D01*
X107816190Y-124869047D01*
X108311428Y-125211904D02*
X108311428Y-124411904D01*
X108768571Y-125211904D01*
X108768571Y-124411904D01*
X109149523Y-125211904D02*
X109149523Y-124411904D01*
X109340000Y-124411904D01*
X109454285Y-124450000D01*
X109530476Y-124526190D01*
X109568571Y-124602380D01*
X109606666Y-124754761D01*
X109606666Y-124869047D01*
X109568571Y-125021428D01*
X109530476Y-125097619D01*
X109454285Y-125173809D01*
X109340000Y-125211904D01*
X109149523Y-125211904D01*
X158371904Y-91221904D02*
X158448095Y-91221904D01*
X158524285Y-91260000D01*
X158562380Y-91298095D01*
X158600476Y-91374285D01*
X158638571Y-91526666D01*
X158638571Y-91717142D01*
X158600476Y-91869523D01*
X158562380Y-91945714D01*
X158524285Y-91983809D01*
X158448095Y-92021904D01*
X158371904Y-92021904D01*
X158295714Y-91983809D01*
X158257619Y-91945714D01*
X158219523Y-91869523D01*
X158181428Y-91717142D01*
X158181428Y-91526666D01*
X158219523Y-91374285D01*
X158257619Y-91298095D01*
X158295714Y-91260000D01*
X158371904Y-91221904D01*
D10*
X108000000Y-83071428D02*
X108761904Y-83071428D01*
X108380952Y-83452380D02*
X108380952Y-82690476D01*
X109142857Y-82452380D02*
X109761904Y-82452380D01*
X109428571Y-82833333D01*
X109571428Y-82833333D01*
X109666666Y-82880952D01*
X109714285Y-82928571D01*
X109761904Y-83023809D01*
X109761904Y-83261904D01*
X109714285Y-83357142D01*
X109666666Y-83404761D01*
X109571428Y-83452380D01*
X109285714Y-83452380D01*
X109190476Y-83404761D01*
X109142857Y-83357142D01*
X110190476Y-83357142D02*
X110238095Y-83404761D01*
X110190476Y-83452380D01*
X110142857Y-83404761D01*
X110190476Y-83357142D01*
X110190476Y-83452380D01*
X110571428Y-82452380D02*
X111190476Y-82452380D01*
X110857142Y-82833333D01*
X111000000Y-82833333D01*
X111095238Y-82880952D01*
X111142857Y-82928571D01*
X111190476Y-83023809D01*
X111190476Y-83261904D01*
X111142857Y-83357142D01*
X111095238Y-83404761D01*
X111000000Y-83452380D01*
X110714285Y-83452380D01*
X110619047Y-83404761D01*
X110571428Y-83357142D01*
X111476190Y-82452380D02*
X111809523Y-83452380D01*
X112142857Y-82452380D01*
D12*
X139724503Y-98067618D02*
X139762598Y-97953332D01*
X139762598Y-97762856D01*
X139724503Y-97686665D01*
X139686408Y-97648570D01*
X139610217Y-97610475D01*
X139534027Y-97610475D01*
X139457836Y-97648570D01*
X139419741Y-97686665D01*
X139381646Y-97762856D01*
X139343551Y-97915237D01*
X139305455Y-97991427D01*
X139267360Y-98029522D01*
X139191170Y-98067618D01*
X139114979Y-98067618D01*
X139038789Y-98029522D01*
X139000694Y-97991427D01*
X138962598Y-97915237D01*
X138962598Y-97724760D01*
X139000694Y-97610475D01*
X139762598Y-97267618D02*
X138962598Y-97267618D01*
X139343551Y-97267618D02*
X139343551Y-96810475D01*
X139762598Y-96810475D02*
X138962598Y-96810475D01*
X125361904Y-98677141D02*
X124561904Y-98677141D01*
X125133333Y-98410475D01*
X124561904Y-98143808D01*
X125361904Y-98143808D01*
X124561904Y-97610475D02*
X124561904Y-97458094D01*
X124600000Y-97381903D01*
X124676190Y-97305713D01*
X124828571Y-97267618D01*
X125095238Y-97267618D01*
X125247619Y-97305713D01*
X125323809Y-97381903D01*
X125361904Y-97458094D01*
X125361904Y-97610475D01*
X125323809Y-97686665D01*
X125247619Y-97762856D01*
X125095238Y-97800951D01*
X124828571Y-97800951D01*
X124676190Y-97762856D01*
X124600000Y-97686665D01*
X124561904Y-97610475D01*
X125323809Y-96962856D02*
X125361904Y-96848570D01*
X125361904Y-96658094D01*
X125323809Y-96581903D01*
X125285714Y-96543808D01*
X125209523Y-96505713D01*
X125133333Y-96505713D01*
X125057142Y-96543808D01*
X125019047Y-96581903D01*
X124980952Y-96658094D01*
X124942857Y-96810475D01*
X124904761Y-96886665D01*
X124866666Y-96924760D01*
X124790476Y-96962856D01*
X124714285Y-96962856D01*
X124638095Y-96924760D01*
X124600000Y-96886665D01*
X124561904Y-96810475D01*
X124561904Y-96619999D01*
X124600000Y-96505713D01*
X125361904Y-96162856D02*
X124561904Y-96162856D01*
X137176585Y-98448571D02*
X137214680Y-98334285D01*
X137214680Y-98143809D01*
X137176585Y-98067619D01*
X137138490Y-98029523D01*
X137062299Y-97991428D01*
X136986109Y-97991428D01*
X136909918Y-98029523D01*
X136871823Y-98067619D01*
X136833728Y-98143809D01*
X136795633Y-98296190D01*
X136757537Y-98372380D01*
X136719442Y-98410476D01*
X136643252Y-98448571D01*
X136567061Y-98448571D01*
X136490871Y-98410476D01*
X136452776Y-98372380D01*
X136414680Y-98296190D01*
X136414680Y-98105714D01*
X136452776Y-97991428D01*
X137214680Y-97648571D02*
X136414680Y-97648571D01*
X136414680Y-97343809D01*
X136452776Y-97267619D01*
X136490871Y-97229523D01*
X136567061Y-97191428D01*
X136681347Y-97191428D01*
X136757537Y-97229523D01*
X136795633Y-97267619D01*
X136833728Y-97343809D01*
X136833728Y-97648571D01*
X137214680Y-96391428D02*
X136833728Y-96658095D01*
X137214680Y-96848571D02*
X136414680Y-96848571D01*
X136414680Y-96543809D01*
X136452776Y-96467619D01*
X136490871Y-96429523D01*
X136567061Y-96391428D01*
X136681347Y-96391428D01*
X136757537Y-96429523D01*
X136795633Y-96467619D01*
X136833728Y-96543809D01*
X136833728Y-96848571D01*
X128360952Y-83033809D02*
X128475238Y-83071904D01*
X128665714Y-83071904D01*
X128741904Y-83033809D01*
X128780000Y-82995714D01*
X128818095Y-82919523D01*
X128818095Y-82843333D01*
X128780000Y-82767142D01*
X128741904Y-82729047D01*
X128665714Y-82690952D01*
X128513333Y-82652857D01*
X128437142Y-82614761D01*
X128399047Y-82576666D01*
X128360952Y-82500476D01*
X128360952Y-82424285D01*
X128399047Y-82348095D01*
X128437142Y-82310000D01*
X128513333Y-82271904D01*
X128703809Y-82271904D01*
X128818095Y-82310000D01*
X129160952Y-83071904D02*
X129160952Y-82271904D01*
X129465714Y-82271904D01*
X129541904Y-82310000D01*
X129580000Y-82348095D01*
X129618095Y-82424285D01*
X129618095Y-82538571D01*
X129580000Y-82614761D01*
X129541904Y-82652857D01*
X129465714Y-82690952D01*
X129160952Y-82690952D01*
X129960952Y-83071904D02*
X129960952Y-82271904D01*
X127598809Y-98448571D02*
X127636904Y-98334285D01*
X127636904Y-98143809D01*
X127598809Y-98067619D01*
X127560714Y-98029523D01*
X127484523Y-97991428D01*
X127408333Y-97991428D01*
X127332142Y-98029523D01*
X127294047Y-98067619D01*
X127255952Y-98143809D01*
X127217857Y-98296190D01*
X127179761Y-98372380D01*
X127141666Y-98410476D01*
X127065476Y-98448571D01*
X126989285Y-98448571D01*
X126913095Y-98410476D01*
X126875000Y-98372380D01*
X126836904Y-98296190D01*
X126836904Y-98105714D01*
X126875000Y-97991428D01*
X127560714Y-97191428D02*
X127598809Y-97229523D01*
X127636904Y-97343809D01*
X127636904Y-97420000D01*
X127598809Y-97534285D01*
X127522619Y-97610476D01*
X127446428Y-97648571D01*
X127294047Y-97686666D01*
X127179761Y-97686666D01*
X127027380Y-97648571D01*
X126951190Y-97610476D01*
X126875000Y-97534285D01*
X126836904Y-97420000D01*
X126836904Y-97343809D01*
X126875000Y-97229523D01*
X126913095Y-97191428D01*
X127636904Y-96848571D02*
X126836904Y-96848571D01*
X127636904Y-96391428D02*
X127179761Y-96734285D01*
X126836904Y-96391428D02*
X127294047Y-96848571D01*
D11*
X142894285Y-91931428D02*
X142780000Y-91931428D01*
X142722857Y-91960000D01*
X142694285Y-91988571D01*
X142637142Y-92074285D01*
X142608571Y-92188571D01*
X142608571Y-92417142D01*
X142637142Y-92474285D01*
X142665714Y-92502857D01*
X142722857Y-92531428D01*
X142837142Y-92531428D01*
X142894285Y-92502857D01*
X142922857Y-92474285D01*
X142951428Y-92417142D01*
X142951428Y-92274285D01*
X142922857Y-92217142D01*
X142894285Y-92188571D01*
X142837142Y-92160000D01*
X142722857Y-92160000D01*
X142665714Y-92188571D01*
X142637142Y-92217142D01*
X142608571Y-92274285D01*
D12*
X103128095Y-94418095D02*
X102328095Y-94684761D01*
X103128095Y-94951428D01*
X102240476Y-95180000D02*
X102667142Y-95180000D01*
X102545238Y-95180000D02*
X102606190Y-95210476D01*
X102636666Y-95240952D01*
X102667142Y-95301904D01*
X102667142Y-95362857D01*
X102270952Y-95820000D02*
X102240476Y-95759047D01*
X102240476Y-95637142D01*
X102270952Y-95576190D01*
X102331904Y-95545714D01*
X102575714Y-95545714D01*
X102636666Y-95576190D01*
X102667142Y-95637142D01*
X102667142Y-95759047D01*
X102636666Y-95820000D01*
X102575714Y-95850476D01*
X102514761Y-95850476D01*
X102453809Y-95545714D01*
X102667142Y-96033333D02*
X102667142Y-96277142D01*
X102240476Y-96124761D02*
X102789047Y-96124761D01*
X102850000Y-96155238D01*
X102880476Y-96216190D01*
X102880476Y-96277142D01*
D13*
X138362142Y-91438572D02*
X138393571Y-91344286D01*
X138393571Y-91187143D01*
X138362142Y-91124286D01*
X138330714Y-91092858D01*
X138267857Y-91061429D01*
X138205000Y-91061429D01*
X138142142Y-91092858D01*
X138110714Y-91124286D01*
X138079285Y-91187143D01*
X138047857Y-91312858D01*
X138016428Y-91375715D01*
X137985000Y-91407143D01*
X137922142Y-91438572D01*
X137859285Y-91438572D01*
X137796428Y-91407143D01*
X137765000Y-91375715D01*
X137733571Y-91312858D01*
X137733571Y-91155715D01*
X137765000Y-91061429D01*
X138393571Y-90778572D02*
X137733571Y-90778572D01*
X137733571Y-90527143D01*
X137765000Y-90464286D01*
X137796428Y-90432858D01*
X137859285Y-90401429D01*
X137953571Y-90401429D01*
X138016428Y-90432858D01*
X138047857Y-90464286D01*
X138079285Y-90527143D01*
X138079285Y-90778572D01*
X138393571Y-89741429D02*
X138079285Y-89961429D01*
X138393571Y-90118572D02*
X137733571Y-90118572D01*
X137733571Y-89867143D01*
X137765000Y-89804286D01*
X137796428Y-89772858D01*
X137859285Y-89741429D01*
X137953571Y-89741429D01*
X138016428Y-89772858D01*
X138047857Y-89804286D01*
X138079285Y-89867143D01*
X138079285Y-90118572D01*
D11*
X127125714Y-92531428D02*
X126782857Y-92531428D01*
X126954285Y-92531428D02*
X126954285Y-91931428D01*
X126897142Y-92017142D01*
X126840000Y-92074285D01*
X126782857Y-92102857D01*
X127325714Y-91931428D02*
X127697142Y-91931428D01*
X127497142Y-92160000D01*
X127582857Y-92160000D01*
X127640000Y-92188571D01*
X127668571Y-92217142D01*
X127697142Y-92274285D01*
X127697142Y-92417142D01*
X127668571Y-92474285D01*
X127640000Y-92502857D01*
X127582857Y-92531428D01*
X127411428Y-92531428D01*
X127354285Y-92502857D01*
X127325714Y-92474285D01*
X139970000Y-91931428D02*
X140370000Y-91931428D01*
X140112857Y-92531428D01*
D12*
X123019047Y-127387904D02*
X123019047Y-126587904D01*
X123400000Y-126854571D02*
X123400000Y-127387904D01*
X123400000Y-126930761D02*
X123438095Y-126892666D01*
X123514285Y-126854571D01*
X123628571Y-126854571D01*
X123704761Y-126892666D01*
X123742857Y-126968857D01*
X123742857Y-127387904D01*
X124085714Y-127349809D02*
X124161904Y-127387904D01*
X124314285Y-127387904D01*
X124390476Y-127349809D01*
X124428571Y-127273619D01*
X124428571Y-127235523D01*
X124390476Y-127159333D01*
X124314285Y-127121238D01*
X124200000Y-127121238D01*
X124123809Y-127083142D01*
X124085714Y-127006952D01*
X124085714Y-126968857D01*
X124123809Y-126892666D01*
X124200000Y-126854571D01*
X124314285Y-126854571D01*
X124390476Y-126892666D01*
X124657142Y-126854571D02*
X124961904Y-126854571D01*
X124771428Y-126587904D02*
X124771428Y-127273619D01*
X124809523Y-127349809D01*
X124885714Y-127387904D01*
X124961904Y-127387904D01*
X125228571Y-127387904D02*
X125228571Y-126854571D01*
X125228571Y-127006952D02*
X125266666Y-126930761D01*
X125304761Y-126892666D01*
X125380952Y-126854571D01*
X125457142Y-126854571D01*
X126066666Y-126854571D02*
X126066666Y-127387904D01*
X125723809Y-126854571D02*
X125723809Y-127273619D01*
X125761904Y-127349809D01*
X125838095Y-127387904D01*
X125952380Y-127387904D01*
X126028571Y-127349809D01*
X126066666Y-127311714D01*
X126447619Y-127387904D02*
X126447619Y-126854571D01*
X126447619Y-126930761D02*
X126485714Y-126892666D01*
X126561904Y-126854571D01*
X126676190Y-126854571D01*
X126752380Y-126892666D01*
X126790476Y-126968857D01*
X126790476Y-127387904D01*
X126790476Y-126968857D02*
X126828571Y-126892666D01*
X126904761Y-126854571D01*
X127019047Y-126854571D01*
X127095238Y-126892666D01*
X127133333Y-126968857D01*
X127133333Y-127387904D01*
X127819047Y-127349809D02*
X127742857Y-127387904D01*
X127590476Y-127387904D01*
X127514285Y-127349809D01*
X127476190Y-127273619D01*
X127476190Y-126968857D01*
X127514285Y-126892666D01*
X127590476Y-126854571D01*
X127742857Y-126854571D01*
X127819047Y-126892666D01*
X127857142Y-126968857D01*
X127857142Y-127045047D01*
X127476190Y-127121238D01*
X128200000Y-126854571D02*
X128200000Y-127387904D01*
X128200000Y-126930761D02*
X128238095Y-126892666D01*
X128314285Y-126854571D01*
X128428571Y-126854571D01*
X128504761Y-126892666D01*
X128542857Y-126968857D01*
X128542857Y-127387904D01*
X128809523Y-126854571D02*
X129114285Y-126854571D01*
X128923809Y-126587904D02*
X128923809Y-127273619D01*
X128961904Y-127349809D01*
X129038095Y-127387904D01*
X129114285Y-127387904D01*
X129723809Y-127387904D02*
X129723809Y-126968857D01*
X129685714Y-126892666D01*
X129609523Y-126854571D01*
X129457142Y-126854571D01*
X129380952Y-126892666D01*
X129723809Y-127349809D02*
X129647619Y-127387904D01*
X129457142Y-127387904D01*
X129380952Y-127349809D01*
X129342857Y-127273619D01*
X129342857Y-127197428D01*
X129380952Y-127121238D01*
X129457142Y-127083142D01*
X129647619Y-127083142D01*
X129723809Y-127045047D01*
X129990476Y-126854571D02*
X130295238Y-126854571D01*
X130104761Y-126587904D02*
X130104761Y-127273619D01*
X130142857Y-127349809D01*
X130219047Y-127387904D01*
X130295238Y-127387904D01*
X130561904Y-127387904D02*
X130561904Y-126854571D01*
X130561904Y-126587904D02*
X130523809Y-126626000D01*
X130561904Y-126664095D01*
X130600000Y-126626000D01*
X130561904Y-126587904D01*
X130561904Y-126664095D01*
X131057142Y-127387904D02*
X130980952Y-127349809D01*
X130942857Y-127311714D01*
X130904761Y-127235523D01*
X130904761Y-127006952D01*
X130942857Y-126930761D01*
X130980952Y-126892666D01*
X131057142Y-126854571D01*
X131171428Y-126854571D01*
X131247619Y-126892666D01*
X131285714Y-126930761D01*
X131323809Y-127006952D01*
X131323809Y-127235523D01*
X131285714Y-127311714D01*
X131247619Y-127349809D01*
X131171428Y-127387904D01*
X131057142Y-127387904D01*
X131666666Y-126854571D02*
X131666666Y-127387904D01*
X131666666Y-126930761D02*
X131704761Y-126892666D01*
X131780952Y-126854571D01*
X131895238Y-126854571D01*
X131971428Y-126892666D01*
X132009523Y-126968857D01*
X132009523Y-127387904D01*
X132961904Y-127349809D02*
X133076190Y-127387904D01*
X133266666Y-127387904D01*
X133342857Y-127349809D01*
X133380952Y-127311714D01*
X133419047Y-127235523D01*
X133419047Y-127159333D01*
X133380952Y-127083142D01*
X133342857Y-127045047D01*
X133266666Y-127006952D01*
X133114285Y-126968857D01*
X133038095Y-126930761D01*
X133000000Y-126892666D01*
X132961904Y-126816476D01*
X132961904Y-126740285D01*
X133000000Y-126664095D01*
X133038095Y-126626000D01*
X133114285Y-126587904D01*
X133304761Y-126587904D01*
X133419047Y-126626000D01*
X133685714Y-126854571D02*
X133876190Y-127387904D01*
X134066666Y-126854571D02*
X133876190Y-127387904D01*
X133800000Y-127578380D01*
X133761904Y-127616476D01*
X133685714Y-127654571D01*
X134333333Y-127349809D02*
X134409523Y-127387904D01*
X134561904Y-127387904D01*
X134638095Y-127349809D01*
X134676190Y-127273619D01*
X134676190Y-127235523D01*
X134638095Y-127159333D01*
X134561904Y-127121238D01*
X134447619Y-127121238D01*
X134371428Y-127083142D01*
X134333333Y-127006952D01*
X134333333Y-126968857D01*
X134371428Y-126892666D01*
X134447619Y-126854571D01*
X134561904Y-126854571D01*
X134638095Y-126892666D01*
X134904761Y-126854571D02*
X135209523Y-126854571D01*
X135019047Y-126587904D02*
X135019047Y-127273619D01*
X135057142Y-127349809D01*
X135133333Y-127387904D01*
X135209523Y-127387904D01*
X135780952Y-127349809D02*
X135704761Y-127387904D01*
X135552380Y-127387904D01*
X135476190Y-127349809D01*
X135438095Y-127273619D01*
X135438095Y-126968857D01*
X135476190Y-126892666D01*
X135552380Y-126854571D01*
X135704761Y-126854571D01*
X135780952Y-126892666D01*
X135819047Y-126968857D01*
X135819047Y-127045047D01*
X135438095Y-127121238D01*
X136161904Y-127387904D02*
X136161904Y-126854571D01*
X136161904Y-126930761D02*
X136200000Y-126892666D01*
X136276190Y-126854571D01*
X136390476Y-126854571D01*
X136466666Y-126892666D01*
X136504761Y-126968857D01*
X136504761Y-127387904D01*
X136504761Y-126968857D02*
X136542857Y-126892666D01*
X136619047Y-126854571D01*
X136733333Y-126854571D01*
X136809523Y-126892666D01*
X136847619Y-126968857D01*
X136847619Y-127387904D01*
X138295238Y-127311714D02*
X138257142Y-127349809D01*
X138142857Y-127387904D01*
X138066666Y-127387904D01*
X137952380Y-127349809D01*
X137876190Y-127273619D01*
X137838095Y-127197428D01*
X137800000Y-127045047D01*
X137800000Y-126930761D01*
X137838095Y-126778380D01*
X137876190Y-126702190D01*
X137952380Y-126626000D01*
X138066666Y-126587904D01*
X138142857Y-126587904D01*
X138257142Y-126626000D01*
X138295238Y-126664095D01*
X138752380Y-127387904D02*
X138676190Y-127349809D01*
X138638095Y-127311714D01*
X138600000Y-127235523D01*
X138600000Y-127006952D01*
X138638095Y-126930761D01*
X138676190Y-126892666D01*
X138752380Y-126854571D01*
X138866666Y-126854571D01*
X138942857Y-126892666D01*
X138980952Y-126930761D01*
X139019047Y-127006952D01*
X139019047Y-127235523D01*
X138980952Y-127311714D01*
X138942857Y-127349809D01*
X138866666Y-127387904D01*
X138752380Y-127387904D01*
X139361904Y-126854571D02*
X139361904Y-127387904D01*
X139361904Y-126930761D02*
X139400000Y-126892666D01*
X139476190Y-126854571D01*
X139590476Y-126854571D01*
X139666666Y-126892666D01*
X139704761Y-126968857D01*
X139704761Y-127387904D01*
X139971428Y-126854571D02*
X140276190Y-126854571D01*
X140085714Y-126587904D02*
X140085714Y-127273619D01*
X140123809Y-127349809D01*
X140200000Y-127387904D01*
X140276190Y-127387904D01*
X140542857Y-127387904D02*
X140542857Y-126854571D01*
X140542857Y-127006952D02*
X140580952Y-126930761D01*
X140619047Y-126892666D01*
X140695238Y-126854571D01*
X140771428Y-126854571D01*
X141152380Y-127387904D02*
X141076190Y-127349809D01*
X141038095Y-127311714D01*
X141000000Y-127235523D01*
X141000000Y-127006952D01*
X141038095Y-126930761D01*
X141076190Y-126892666D01*
X141152380Y-126854571D01*
X141266666Y-126854571D01*
X141342857Y-126892666D01*
X141380952Y-126930761D01*
X141419047Y-127006952D01*
X141419047Y-127235523D01*
X141380952Y-127311714D01*
X141342857Y-127349809D01*
X141266666Y-127387904D01*
X141152380Y-127387904D01*
X141876190Y-127387904D02*
X141800000Y-127349809D01*
X141761904Y-127273619D01*
X141761904Y-126587904D01*
X142295238Y-127387904D02*
X142219047Y-127349809D01*
X142180952Y-127273619D01*
X142180952Y-126587904D01*
X142904761Y-127349809D02*
X142828571Y-127387904D01*
X142676190Y-127387904D01*
X142600000Y-127349809D01*
X142561904Y-127273619D01*
X142561904Y-126968857D01*
X142600000Y-126892666D01*
X142676190Y-126854571D01*
X142828571Y-126854571D01*
X142904761Y-126892666D01*
X142942857Y-126968857D01*
X142942857Y-127045047D01*
X142561904Y-127121238D01*
X143285714Y-127387904D02*
X143285714Y-126854571D01*
X143285714Y-127006952D02*
X143323809Y-126930761D01*
X143361904Y-126892666D01*
X143438095Y-126854571D01*
X143514285Y-126854571D01*
X144390476Y-127083142D02*
X145000000Y-127083142D01*
X145876190Y-126587904D02*
X146333333Y-126587904D01*
X146104761Y-127387904D02*
X146104761Y-126587904D01*
X146942857Y-126854571D02*
X146942857Y-127387904D01*
X146752380Y-126549809D02*
X146561904Y-127121238D01*
X147057142Y-127121238D01*
X120238095Y-128675904D02*
X120238095Y-127875904D01*
X120504761Y-128447333D01*
X120771428Y-127875904D01*
X120771428Y-128675904D01*
X121152380Y-128675904D02*
X121152380Y-128142571D01*
X121152380Y-127875904D02*
X121114285Y-127914000D01*
X121152380Y-127952095D01*
X121190476Y-127914000D01*
X121152380Y-127875904D01*
X121152380Y-127952095D01*
X121419047Y-128142571D02*
X121723809Y-128142571D01*
X121533333Y-127875904D02*
X121533333Y-128561619D01*
X121571428Y-128637809D01*
X121647619Y-128675904D01*
X121723809Y-128675904D01*
X122333333Y-128637809D02*
X122257142Y-128675904D01*
X122104761Y-128675904D01*
X122028571Y-128637809D01*
X121990476Y-128599714D01*
X121952380Y-128523523D01*
X121952380Y-128294952D01*
X121990476Y-128218761D01*
X122028571Y-128180666D01*
X122104761Y-128142571D01*
X122257142Y-128142571D01*
X122333333Y-128180666D01*
X122676190Y-128675904D02*
X122676190Y-127875904D01*
X123019047Y-128675904D02*
X123019047Y-128256857D01*
X122980952Y-128180666D01*
X122904761Y-128142571D01*
X122790476Y-128142571D01*
X122714285Y-128180666D01*
X122676190Y-128218761D01*
X123704761Y-128637809D02*
X123628571Y-128675904D01*
X123476190Y-128675904D01*
X123400000Y-128637809D01*
X123361904Y-128561619D01*
X123361904Y-128256857D01*
X123400000Y-128180666D01*
X123476190Y-128142571D01*
X123628571Y-128142571D01*
X123704761Y-128180666D01*
X123742857Y-128256857D01*
X123742857Y-128333047D01*
X123361904Y-128409238D01*
X124200000Y-128675904D02*
X124123809Y-128637809D01*
X124085714Y-128561619D01*
X124085714Y-127875904D01*
X124619047Y-128675904D02*
X124542857Y-128637809D01*
X124504761Y-128561619D01*
X124504761Y-127875904D01*
X125990476Y-128599714D02*
X125952380Y-128637809D01*
X125838095Y-128675904D01*
X125761904Y-128675904D01*
X125647619Y-128637809D01*
X125571428Y-128561619D01*
X125533333Y-128485428D01*
X125495238Y-128333047D01*
X125495238Y-128218761D01*
X125533333Y-128066380D01*
X125571428Y-127990190D01*
X125647619Y-127914000D01*
X125761904Y-127875904D01*
X125838095Y-127875904D01*
X125952380Y-127914000D01*
X125990476Y-127952095D01*
X126333333Y-128599714D02*
X126371428Y-128637809D01*
X126333333Y-128675904D01*
X126295238Y-128637809D01*
X126333333Y-128599714D01*
X126333333Y-128675904D01*
X127323809Y-128675904D02*
X127323809Y-127875904D01*
X127780952Y-128675904D01*
X127780952Y-127875904D01*
X128466666Y-128637809D02*
X128390476Y-128675904D01*
X128238095Y-128675904D01*
X128161904Y-128637809D01*
X128123809Y-128561619D01*
X128123809Y-128256857D01*
X128161904Y-128180666D01*
X128238095Y-128142571D01*
X128390476Y-128142571D01*
X128466666Y-128180666D01*
X128504761Y-128256857D01*
X128504761Y-128333047D01*
X128123809Y-128409238D01*
X128961904Y-128675904D02*
X128885714Y-128637809D01*
X128847619Y-128561619D01*
X128847619Y-127875904D01*
X129228571Y-128637809D02*
X129304761Y-128675904D01*
X129457142Y-128675904D01*
X129533333Y-128637809D01*
X129571428Y-128561619D01*
X129571428Y-128523523D01*
X129533333Y-128447333D01*
X129457142Y-128409238D01*
X129342857Y-128409238D01*
X129266666Y-128371142D01*
X129228571Y-128294952D01*
X129228571Y-128256857D01*
X129266666Y-128180666D01*
X129342857Y-128142571D01*
X129457142Y-128142571D01*
X129533333Y-128180666D01*
X130028571Y-128675904D02*
X129952380Y-128637809D01*
X129914285Y-128599714D01*
X129876190Y-128523523D01*
X129876190Y-128294952D01*
X129914285Y-128218761D01*
X129952380Y-128180666D01*
X130028571Y-128142571D01*
X130142857Y-128142571D01*
X130219047Y-128180666D01*
X130257142Y-128218761D01*
X130295238Y-128294952D01*
X130295238Y-128523523D01*
X130257142Y-128599714D01*
X130219047Y-128637809D01*
X130142857Y-128675904D01*
X130028571Y-128675904D01*
X130638095Y-128142571D02*
X130638095Y-128675904D01*
X130638095Y-128218761D02*
X130676190Y-128180666D01*
X130752380Y-128142571D01*
X130866666Y-128142571D01*
X130942857Y-128180666D01*
X130980952Y-128256857D01*
X130980952Y-128675904D01*
X131971428Y-128675904D02*
X131971428Y-127875904D01*
X132276190Y-127875904D01*
X132352380Y-127914000D01*
X132390476Y-127952095D01*
X132428571Y-128028285D01*
X132428571Y-128142571D01*
X132390476Y-128218761D01*
X132352380Y-128256857D01*
X132276190Y-128294952D01*
X131971428Y-128294952D01*
X132771428Y-128675904D02*
X132771428Y-127875904D01*
X133114285Y-128675904D02*
X133114285Y-128256857D01*
X133076190Y-128180666D01*
X133000000Y-128142571D01*
X132885714Y-128142571D01*
X132809523Y-128180666D01*
X132771428Y-128218761D01*
X133495238Y-128675904D02*
X133495238Y-127875904D01*
X133685714Y-127875904D01*
X133800000Y-127914000D01*
X133876190Y-127990190D01*
X133914285Y-128066380D01*
X133952380Y-128218761D01*
X133952380Y-128333047D01*
X133914285Y-128485428D01*
X133876190Y-128561619D01*
X133800000Y-128637809D01*
X133685714Y-128675904D01*
X133495238Y-128675904D01*
X135133333Y-128980666D02*
X135095238Y-128942571D01*
X135019047Y-128828285D01*
X134980952Y-128752095D01*
X134942857Y-128637809D01*
X134904761Y-128447333D01*
X134904761Y-128294952D01*
X134942857Y-128104476D01*
X134980952Y-127990190D01*
X135019047Y-127914000D01*
X135095238Y-127799714D01*
X135133333Y-127761619D01*
X135780952Y-128637809D02*
X135704761Y-128675904D01*
X135552380Y-128675904D01*
X135476190Y-128637809D01*
X135438095Y-128599714D01*
X135400000Y-128523523D01*
X135400000Y-128294952D01*
X135438095Y-128218761D01*
X135476190Y-128180666D01*
X135552380Y-128142571D01*
X135704761Y-128142571D01*
X135780952Y-128180666D01*
X136047619Y-128980666D02*
X136085714Y-128942571D01*
X136161904Y-128828285D01*
X136200000Y-128752095D01*
X136238095Y-128637809D01*
X136276190Y-128447333D01*
X136276190Y-128294952D01*
X136238095Y-128104476D01*
X136200000Y-127990190D01*
X136161904Y-127914000D01*
X136085714Y-127799714D01*
X136047619Y-127761619D01*
X137228571Y-127952095D02*
X137266666Y-127914000D01*
X137342857Y-127875904D01*
X137533333Y-127875904D01*
X137609523Y-127914000D01*
X137647619Y-127952095D01*
X137685714Y-128028285D01*
X137685714Y-128104476D01*
X137647619Y-128218761D01*
X137190476Y-128675904D01*
X137685714Y-128675904D01*
X138180952Y-127875904D02*
X138257142Y-127875904D01*
X138333333Y-127914000D01*
X138371428Y-127952095D01*
X138409523Y-128028285D01*
X138447619Y-128180666D01*
X138447619Y-128371142D01*
X138409523Y-128523523D01*
X138371428Y-128599714D01*
X138333333Y-128637809D01*
X138257142Y-128675904D01*
X138180952Y-128675904D01*
X138104761Y-128637809D01*
X138066666Y-128599714D01*
X138028571Y-128523523D01*
X137990476Y-128371142D01*
X137990476Y-128180666D01*
X138028571Y-128028285D01*
X138066666Y-127952095D01*
X138104761Y-127914000D01*
X138180952Y-127875904D01*
X138752380Y-127952095D02*
X138790476Y-127914000D01*
X138866666Y-127875904D01*
X139057142Y-127875904D01*
X139133333Y-127914000D01*
X139171428Y-127952095D01*
X139209523Y-128028285D01*
X139209523Y-128104476D01*
X139171428Y-128218761D01*
X138714285Y-128675904D01*
X139209523Y-128675904D01*
X139895238Y-128142571D02*
X139895238Y-128675904D01*
X139704761Y-127837809D02*
X139514285Y-128409238D01*
X140009523Y-128409238D01*
X140923809Y-128675904D02*
X140923809Y-127875904D01*
X141228571Y-127875904D01*
X141304761Y-127914000D01*
X141342857Y-127952095D01*
X141380952Y-128028285D01*
X141380952Y-128142571D01*
X141342857Y-128218761D01*
X141304761Y-128256857D01*
X141228571Y-128294952D01*
X140923809Y-128294952D01*
X142066666Y-128675904D02*
X142066666Y-128256857D01*
X142028571Y-128180666D01*
X141952380Y-128142571D01*
X141800000Y-128142571D01*
X141723809Y-128180666D01*
X142066666Y-128637809D02*
X141990476Y-128675904D01*
X141800000Y-128675904D01*
X141723809Y-128637809D01*
X141685714Y-128561619D01*
X141685714Y-128485428D01*
X141723809Y-128409238D01*
X141800000Y-128371142D01*
X141990476Y-128371142D01*
X142066666Y-128333047D01*
X142333333Y-128142571D02*
X142638095Y-128142571D01*
X142447619Y-127875904D02*
X142447619Y-128561619D01*
X142485714Y-128637809D01*
X142561904Y-128675904D01*
X142638095Y-128675904D01*
X143209523Y-128637809D02*
X143133333Y-128675904D01*
X142980952Y-128675904D01*
X142904761Y-128637809D01*
X142866666Y-128561619D01*
X142866666Y-128256857D01*
X142904761Y-128180666D01*
X142980952Y-128142571D01*
X143133333Y-128142571D01*
X143209523Y-128180666D01*
X143247619Y-128256857D01*
X143247619Y-128333047D01*
X142866666Y-128409238D01*
X143590476Y-128142571D02*
X143590476Y-128675904D01*
X143590476Y-128218761D02*
X143628571Y-128180666D01*
X143704761Y-128142571D01*
X143819047Y-128142571D01*
X143895238Y-128180666D01*
X143933333Y-128256857D01*
X143933333Y-128675904D01*
X144200000Y-128142571D02*
X144504761Y-128142571D01*
X144314285Y-127875904D02*
X144314285Y-128561619D01*
X144352380Y-128637809D01*
X144428571Y-128675904D01*
X144504761Y-128675904D01*
X145380952Y-128675904D02*
X145380952Y-127875904D01*
X145685714Y-127875904D01*
X145761904Y-127914000D01*
X145800000Y-127952095D01*
X145838095Y-128028285D01*
X145838095Y-128142571D01*
X145800000Y-128218761D01*
X145761904Y-128256857D01*
X145685714Y-128294952D01*
X145380952Y-128294952D01*
X146485714Y-128637809D02*
X146409523Y-128675904D01*
X146257142Y-128675904D01*
X146180952Y-128637809D01*
X146142857Y-128561619D01*
X146142857Y-128256857D01*
X146180952Y-128180666D01*
X146257142Y-128142571D01*
X146409523Y-128142571D01*
X146485714Y-128180666D01*
X146523809Y-128256857D01*
X146523809Y-128333047D01*
X146142857Y-128409238D01*
X146866666Y-128142571D02*
X146866666Y-128675904D01*
X146866666Y-128218761D02*
X146904761Y-128180666D01*
X146980952Y-128142571D01*
X147095238Y-128142571D01*
X147171428Y-128180666D01*
X147209523Y-128256857D01*
X147209523Y-128675904D01*
X147933333Y-128675904D02*
X147933333Y-127875904D01*
X147933333Y-128637809D02*
X147857142Y-128675904D01*
X147704761Y-128675904D01*
X147628571Y-128637809D01*
X147590476Y-128599714D01*
X147552380Y-128523523D01*
X147552380Y-128294952D01*
X147590476Y-128218761D01*
X147628571Y-128180666D01*
X147704761Y-128142571D01*
X147857142Y-128142571D01*
X147933333Y-128180666D01*
X148314285Y-128675904D02*
X148314285Y-128142571D01*
X148314285Y-127875904D02*
X148276190Y-127914000D01*
X148314285Y-127952095D01*
X148352380Y-127914000D01*
X148314285Y-127875904D01*
X148314285Y-127952095D01*
X148695238Y-128142571D02*
X148695238Y-128675904D01*
X148695238Y-128218761D02*
X148733333Y-128180666D01*
X148809523Y-128142571D01*
X148923809Y-128142571D01*
X149000000Y-128180666D01*
X149038095Y-128256857D01*
X149038095Y-128675904D01*
X149761904Y-128142571D02*
X149761904Y-128790190D01*
X149723809Y-128866380D01*
X149685714Y-128904476D01*
X149609523Y-128942571D01*
X149495238Y-128942571D01*
X149419047Y-128904476D01*
X149761904Y-128637809D02*
X149685714Y-128675904D01*
X149533333Y-128675904D01*
X149457142Y-128637809D01*
X149419047Y-128599714D01*
X149380952Y-128523523D01*
X149380952Y-128294952D01*
X149419047Y-128218761D01*
X149457142Y-128180666D01*
X149533333Y-128142571D01*
X149685714Y-128142571D01*
X149761904Y-128180666D01*
D13*
%TO.C,D4*%
X123282857Y-104378571D02*
X123282857Y-103718571D01*
X123440000Y-103718571D01*
X123534285Y-103750000D01*
X123597142Y-103812857D01*
X123628571Y-103875714D01*
X123660000Y-104001428D01*
X123660000Y-104095714D01*
X123628571Y-104221428D01*
X123597142Y-104284285D01*
X123534285Y-104347142D01*
X123440000Y-104378571D01*
X123282857Y-104378571D01*
X124225714Y-103938571D02*
X124225714Y-104378571D01*
X124068571Y-103687142D02*
X123911428Y-104158571D01*
X124320000Y-104158571D01*
%TO.C,R9*%
X114060000Y-123688571D02*
X113840000Y-123374285D01*
X113682857Y-123688571D02*
X113682857Y-123028571D01*
X113934285Y-123028571D01*
X113997142Y-123060000D01*
X114028571Y-123091428D01*
X114060000Y-123154285D01*
X114060000Y-123248571D01*
X114028571Y-123311428D01*
X113997142Y-123342857D01*
X113934285Y-123374285D01*
X113682857Y-123374285D01*
X114374285Y-123688571D02*
X114500000Y-123688571D01*
X114562857Y-123657142D01*
X114594285Y-123625714D01*
X114657142Y-123531428D01*
X114688571Y-123405714D01*
X114688571Y-123154285D01*
X114657142Y-123091428D01*
X114625714Y-123060000D01*
X114562857Y-123028571D01*
X114437142Y-123028571D01*
X114374285Y-123060000D01*
X114342857Y-123091428D01*
X114311428Y-123154285D01*
X114311428Y-123311428D01*
X114342857Y-123374285D01*
X114374285Y-123405714D01*
X114437142Y-123437142D01*
X114562857Y-123437142D01*
X114625714Y-123405714D01*
X114657142Y-123374285D01*
X114688571Y-123311428D01*
%TO.C,R21*%
X137705714Y-103158571D02*
X137485714Y-102844285D01*
X137328571Y-103158571D02*
X137328571Y-102498571D01*
X137580000Y-102498571D01*
X137642857Y-102530000D01*
X137674285Y-102561428D01*
X137705714Y-102624285D01*
X137705714Y-102718571D01*
X137674285Y-102781428D01*
X137642857Y-102812857D01*
X137580000Y-102844285D01*
X137328571Y-102844285D01*
X137957142Y-102561428D02*
X137988571Y-102530000D01*
X138051428Y-102498571D01*
X138208571Y-102498571D01*
X138271428Y-102530000D01*
X138302857Y-102561428D01*
X138334285Y-102624285D01*
X138334285Y-102687142D01*
X138302857Y-102781428D01*
X137925714Y-103158571D01*
X138334285Y-103158571D01*
X138962857Y-103158571D02*
X138585714Y-103158571D01*
X138774285Y-103158571D02*
X138774285Y-102498571D01*
X138711428Y-102592857D01*
X138648571Y-102655714D01*
X138585714Y-102687142D01*
%TO.C,R16*%
X142765714Y-103158571D02*
X142545714Y-102844285D01*
X142388571Y-103158571D02*
X142388571Y-102498571D01*
X142640000Y-102498571D01*
X142702857Y-102530000D01*
X142734285Y-102561428D01*
X142765714Y-102624285D01*
X142765714Y-102718571D01*
X142734285Y-102781428D01*
X142702857Y-102812857D01*
X142640000Y-102844285D01*
X142388571Y-102844285D01*
X143394285Y-103158571D02*
X143017142Y-103158571D01*
X143205714Y-103158571D02*
X143205714Y-102498571D01*
X143142857Y-102592857D01*
X143080000Y-102655714D01*
X143017142Y-102687142D01*
X143960000Y-102498571D02*
X143834285Y-102498571D01*
X143771428Y-102530000D01*
X143740000Y-102561428D01*
X143677142Y-102655714D01*
X143645714Y-102781428D01*
X143645714Y-103032857D01*
X143677142Y-103095714D01*
X143708571Y-103127142D01*
X143771428Y-103158571D01*
X143897142Y-103158571D01*
X143960000Y-103127142D01*
X143991428Y-103095714D01*
X144022857Y-103032857D01*
X144022857Y-102875714D01*
X143991428Y-102812857D01*
X143960000Y-102781428D01*
X143897142Y-102750000D01*
X143771428Y-102750000D01*
X143708571Y-102781428D01*
X143677142Y-102812857D01*
X143645714Y-102875714D01*
%TO.C,C1*%
X164970000Y-119255714D02*
X164938571Y-119287142D01*
X164844285Y-119318571D01*
X164781428Y-119318571D01*
X164687142Y-119287142D01*
X164624285Y-119224285D01*
X164592857Y-119161428D01*
X164561428Y-119035714D01*
X164561428Y-118941428D01*
X164592857Y-118815714D01*
X164624285Y-118752857D01*
X164687142Y-118690000D01*
X164781428Y-118658571D01*
X164844285Y-118658571D01*
X164938571Y-118690000D01*
X164970000Y-118721428D01*
X165598571Y-119318571D02*
X165221428Y-119318571D01*
X165410000Y-119318571D02*
X165410000Y-118658571D01*
X165347142Y-118752857D01*
X165284285Y-118815714D01*
X165221428Y-118847142D01*
%TO.C,D2*%
X123282857Y-101018571D02*
X123282857Y-100358571D01*
X123440000Y-100358571D01*
X123534285Y-100390000D01*
X123597142Y-100452857D01*
X123628571Y-100515714D01*
X123660000Y-100641428D01*
X123660000Y-100735714D01*
X123628571Y-100861428D01*
X123597142Y-100924285D01*
X123534285Y-100987142D01*
X123440000Y-101018571D01*
X123282857Y-101018571D01*
X123911428Y-100421428D02*
X123942857Y-100390000D01*
X124005714Y-100358571D01*
X124162857Y-100358571D01*
X124225714Y-100390000D01*
X124257142Y-100421428D01*
X124288571Y-100484285D01*
X124288571Y-100547142D01*
X124257142Y-100641428D01*
X123880000Y-101018571D01*
X124288571Y-101018571D01*
%TO.C,J3*%
X162898571Y-94220000D02*
X163370000Y-94220000D01*
X163464285Y-94251428D01*
X163527142Y-94314285D01*
X163558571Y-94408571D01*
X163558571Y-94471428D01*
X162898571Y-93968571D02*
X162898571Y-93560000D01*
X163150000Y-93780000D01*
X163150000Y-93685714D01*
X163181428Y-93622857D01*
X163212857Y-93591428D01*
X163275714Y-93560000D01*
X163432857Y-93560000D01*
X163495714Y-93591428D01*
X163527142Y-93622857D01*
X163558571Y-93685714D01*
X163558571Y-93874285D01*
X163527142Y-93937142D01*
X163495714Y-93968571D01*
%TO.C,R10*%
X114060000Y-121418571D02*
X113840000Y-121104285D01*
X113682857Y-121418571D02*
X113682857Y-120758571D01*
X113934286Y-120758571D01*
X113997143Y-120790000D01*
X114028571Y-120821428D01*
X114060000Y-120884285D01*
X114060000Y-120978571D01*
X114028571Y-121041428D01*
X113997143Y-121072857D01*
X113934286Y-121104285D01*
X113682857Y-121104285D01*
X114688571Y-121418571D02*
X114311428Y-121418571D01*
X114500000Y-121418571D02*
X114500000Y-120758571D01*
X114437143Y-120852857D01*
X114374286Y-120915714D01*
X114311428Y-120947142D01*
X115097143Y-120758571D02*
X115160000Y-120758571D01*
X115222857Y-120790000D01*
X115254286Y-120821428D01*
X115285714Y-120884285D01*
X115317143Y-121010000D01*
X115317143Y-121167142D01*
X115285714Y-121292857D01*
X115254286Y-121355714D01*
X115222857Y-121387142D01*
X115160000Y-121418571D01*
X115097143Y-121418571D01*
X115034286Y-121387142D01*
X115002857Y-121355714D01*
X114971428Y-121292857D01*
X114940000Y-121167142D01*
X114940000Y-121010000D01*
X114971428Y-120884285D01*
X115002857Y-120821428D01*
X115034286Y-120790000D01*
X115097143Y-120758571D01*
D14*
%TO.C,C3*%
X114200000Y-93014285D02*
X114171428Y-93042857D01*
X114085714Y-93071428D01*
X114028571Y-93071428D01*
X113942857Y-93042857D01*
X113885714Y-92985714D01*
X113857142Y-92928571D01*
X113828571Y-92814285D01*
X113828571Y-92728571D01*
X113857142Y-92614285D01*
X113885714Y-92557142D01*
X113942857Y-92500000D01*
X114028571Y-92471428D01*
X114085714Y-92471428D01*
X114171428Y-92500000D01*
X114200000Y-92528571D01*
X114400000Y-92471428D02*
X114771428Y-92471428D01*
X114571428Y-92700000D01*
X114657142Y-92700000D01*
X114714285Y-92728571D01*
X114742857Y-92757142D01*
X114771428Y-92814285D01*
X114771428Y-92957142D01*
X114742857Y-93014285D01*
X114714285Y-93042857D01*
X114657142Y-93071428D01*
X114485714Y-93071428D01*
X114428571Y-93042857D01*
X114400000Y-93014285D01*
D13*
%TO.C,U1*%
X143932142Y-118578571D02*
X143932142Y-119112857D01*
X143963571Y-119175714D01*
X143995000Y-119207142D01*
X144057857Y-119238571D01*
X144183571Y-119238571D01*
X144246428Y-119207142D01*
X144277857Y-119175714D01*
X144309285Y-119112857D01*
X144309285Y-118578571D01*
X144969285Y-119238571D02*
X144592142Y-119238571D01*
X144780714Y-119238571D02*
X144780714Y-118578571D01*
X144717857Y-118672857D01*
X144655000Y-118735714D01*
X144592142Y-118767142D01*
D10*
X142973666Y-110180000D02*
X142273666Y-110180000D01*
X142273666Y-110013333D01*
X142307000Y-109913333D01*
X142373666Y-109846666D01*
X142440333Y-109813333D01*
X142573666Y-109780000D01*
X142673666Y-109780000D01*
X142807000Y-109813333D01*
X142873666Y-109846666D01*
X142940333Y-109913333D01*
X142973666Y-110013333D01*
X142973666Y-110180000D01*
X142273666Y-109580000D02*
X142973666Y-109346666D01*
X142273666Y-109113333D01*
X142973666Y-108546666D02*
X142973666Y-108880000D01*
X142273666Y-108880000D01*
X142273666Y-108013333D02*
X142273666Y-108146666D01*
X142307000Y-108213333D01*
X142340333Y-108246666D01*
X142440333Y-108313333D01*
X142573666Y-108346666D01*
X142840333Y-108346666D01*
X142907000Y-108313333D01*
X142940333Y-108280000D01*
X142973666Y-108213333D01*
X142973666Y-108080000D01*
X142940333Y-108013333D01*
X142907000Y-107980000D01*
X142840333Y-107946666D01*
X142673666Y-107946666D01*
X142607000Y-107980000D01*
X142573666Y-108013333D01*
X142540333Y-108080000D01*
X142540333Y-108213333D01*
X142573666Y-108280000D01*
X142607000Y-108313333D01*
X142673666Y-108346666D01*
X142773666Y-107680000D02*
X142773666Y-107346666D01*
X142973666Y-107746666D02*
X142273666Y-107513333D01*
X142973666Y-107280000D01*
X144497666Y-111863333D02*
X143797666Y-111863333D01*
X144297666Y-111630000D01*
X143797666Y-111396666D01*
X144497666Y-111396666D01*
X144497666Y-111063333D02*
X143797666Y-111063333D01*
X144497666Y-110730000D02*
X143797666Y-110730000D01*
X144297666Y-110496666D01*
X143797666Y-110263333D01*
X144497666Y-110263333D01*
X143797666Y-109996666D02*
X144497666Y-109530000D01*
X143797666Y-109530000D02*
X144497666Y-109996666D01*
X144497666Y-108863333D02*
X144164333Y-109096666D01*
X144497666Y-109263333D02*
X143797666Y-109263333D01*
X143797666Y-108996666D01*
X143831000Y-108930000D01*
X143864333Y-108896666D01*
X143931000Y-108863333D01*
X144031000Y-108863333D01*
X144097666Y-108896666D01*
X144131000Y-108930000D01*
X144164333Y-108996666D01*
X144164333Y-109263333D01*
X143797666Y-108663333D02*
X143797666Y-108263333D01*
X144497666Y-108463333D02*
X143797666Y-108463333D01*
X144497666Y-107663333D02*
X144497666Y-108063333D01*
X144497666Y-107863333D02*
X143797666Y-107863333D01*
X143897666Y-107930000D01*
X143964333Y-107996666D01*
X143997666Y-108063333D01*
X143797666Y-107230000D02*
X143797666Y-107163333D01*
X143831000Y-107096666D01*
X143864333Y-107063333D01*
X143931000Y-107030000D01*
X144064333Y-106996666D01*
X144231000Y-106996666D01*
X144364333Y-107030000D01*
X144431000Y-107063333D01*
X144464333Y-107096666D01*
X144497666Y-107163333D01*
X144497666Y-107230000D01*
X144464333Y-107296666D01*
X144431000Y-107330000D01*
X144364333Y-107363333D01*
X144231000Y-107396666D01*
X144064333Y-107396666D01*
X143931000Y-107363333D01*
X143864333Y-107330000D01*
X143831000Y-107296666D01*
X143797666Y-107230000D01*
X143797666Y-106396666D02*
X143797666Y-106530000D01*
X143831000Y-106596666D01*
X143864333Y-106630000D01*
X143964333Y-106696666D01*
X144097666Y-106730000D01*
X144364333Y-106730000D01*
X144431000Y-106696666D01*
X144464333Y-106663333D01*
X144497666Y-106596666D01*
X144497666Y-106463333D01*
X144464333Y-106396666D01*
X144431000Y-106363333D01*
X144364333Y-106330000D01*
X144197666Y-106330000D01*
X144131000Y-106363333D01*
X144097666Y-106396666D01*
X144064333Y-106463333D01*
X144064333Y-106596666D01*
X144097666Y-106663333D01*
X144131000Y-106696666D01*
X144197666Y-106730000D01*
X143864333Y-106063333D02*
X143831000Y-106030000D01*
X143797666Y-105963333D01*
X143797666Y-105796666D01*
X143831000Y-105730000D01*
X143864333Y-105696666D01*
X143931000Y-105663333D01*
X143997666Y-105663333D01*
X144097666Y-105696666D01*
X144497666Y-106096666D01*
X144497666Y-105663333D01*
D13*
%TO.C,R11*%
X156955714Y-125098571D02*
X156735714Y-124784285D01*
X156578571Y-125098571D02*
X156578571Y-124438571D01*
X156830000Y-124438571D01*
X156892857Y-124470000D01*
X156924285Y-124501428D01*
X156955714Y-124564285D01*
X156955714Y-124658571D01*
X156924285Y-124721428D01*
X156892857Y-124752857D01*
X156830000Y-124784285D01*
X156578571Y-124784285D01*
X157584285Y-125098571D02*
X157207142Y-125098571D01*
X157395714Y-125098571D02*
X157395714Y-124438571D01*
X157332857Y-124532857D01*
X157270000Y-124595714D01*
X157207142Y-124627142D01*
X158212857Y-125098571D02*
X157835714Y-125098571D01*
X158024285Y-125098571D02*
X158024285Y-124438571D01*
X157961428Y-124532857D01*
X157898571Y-124595714D01*
X157835714Y-124627142D01*
%TO.C,R8*%
X114060000Y-118728571D02*
X113840000Y-118414285D01*
X113682857Y-118728571D02*
X113682857Y-118068571D01*
X113934285Y-118068571D01*
X113997142Y-118100000D01*
X114028571Y-118131428D01*
X114060000Y-118194285D01*
X114060000Y-118288571D01*
X114028571Y-118351428D01*
X113997142Y-118382857D01*
X113934285Y-118414285D01*
X113682857Y-118414285D01*
X114437142Y-118351428D02*
X114374285Y-118320000D01*
X114342857Y-118288571D01*
X114311428Y-118225714D01*
X114311428Y-118194285D01*
X114342857Y-118131428D01*
X114374285Y-118100000D01*
X114437142Y-118068571D01*
X114562857Y-118068571D01*
X114625714Y-118100000D01*
X114657142Y-118131428D01*
X114688571Y-118194285D01*
X114688571Y-118225714D01*
X114657142Y-118288571D01*
X114625714Y-118320000D01*
X114562857Y-118351428D01*
X114437142Y-118351428D01*
X114374285Y-118382857D01*
X114342857Y-118414285D01*
X114311428Y-118477142D01*
X114311428Y-118602857D01*
X114342857Y-118665714D01*
X114374285Y-118697142D01*
X114437142Y-118728571D01*
X114562857Y-118728571D01*
X114625714Y-118697142D01*
X114657142Y-118665714D01*
X114688571Y-118602857D01*
X114688571Y-118477142D01*
X114657142Y-118414285D01*
X114625714Y-118382857D01*
X114562857Y-118351428D01*
%TO.C,R12*%
X130055714Y-103158571D02*
X129835714Y-102844285D01*
X129678571Y-103158571D02*
X129678571Y-102498571D01*
X129930000Y-102498571D01*
X129992857Y-102530000D01*
X130024285Y-102561428D01*
X130055714Y-102624285D01*
X130055714Y-102718571D01*
X130024285Y-102781428D01*
X129992857Y-102812857D01*
X129930000Y-102844285D01*
X129678571Y-102844285D01*
X130684285Y-103158571D02*
X130307142Y-103158571D01*
X130495714Y-103158571D02*
X130495714Y-102498571D01*
X130432857Y-102592857D01*
X130370000Y-102655714D01*
X130307142Y-102687142D01*
X130935714Y-102561428D02*
X130967142Y-102530000D01*
X131030000Y-102498571D01*
X131187142Y-102498571D01*
X131250000Y-102530000D01*
X131281428Y-102561428D01*
X131312857Y-102624285D01*
X131312857Y-102687142D01*
X131281428Y-102781428D01*
X130904285Y-103158571D01*
X131312857Y-103158571D01*
D11*
%TO.C,J1*%
X110900000Y-97761428D02*
X110900000Y-98190000D01*
X110871428Y-98275714D01*
X110814285Y-98332857D01*
X110728571Y-98361428D01*
X110671428Y-98361428D01*
X111500000Y-98361428D02*
X111157142Y-98361428D01*
X111328571Y-98361428D02*
X111328571Y-97761428D01*
X111271428Y-97847142D01*
X111214285Y-97904285D01*
X111157142Y-97932857D01*
D13*
%TO.C,R5*%
X114060000Y-106068571D02*
X113840000Y-105754285D01*
X113682857Y-106068571D02*
X113682857Y-105408571D01*
X113934285Y-105408571D01*
X113997142Y-105440000D01*
X114028571Y-105471428D01*
X114060000Y-105534285D01*
X114060000Y-105628571D01*
X114028571Y-105691428D01*
X113997142Y-105722857D01*
X113934285Y-105754285D01*
X113682857Y-105754285D01*
X114657142Y-105408571D02*
X114342857Y-105408571D01*
X114311428Y-105722857D01*
X114342857Y-105691428D01*
X114405714Y-105660000D01*
X114562857Y-105660000D01*
X114625714Y-105691428D01*
X114657142Y-105722857D01*
X114688571Y-105785714D01*
X114688571Y-105942857D01*
X114657142Y-106005714D01*
X114625714Y-106037142D01*
X114562857Y-106068571D01*
X114405714Y-106068571D01*
X114342857Y-106037142D01*
X114311428Y-106005714D01*
%TO.C,R22*%
X152905714Y-103098571D02*
X152685714Y-102784285D01*
X152528571Y-103098571D02*
X152528571Y-102438571D01*
X152780000Y-102438571D01*
X152842857Y-102470000D01*
X152874285Y-102501428D01*
X152905714Y-102564285D01*
X152905714Y-102658571D01*
X152874285Y-102721428D01*
X152842857Y-102752857D01*
X152780000Y-102784285D01*
X152528571Y-102784285D01*
X153157142Y-102501428D02*
X153188571Y-102470000D01*
X153251428Y-102438571D01*
X153408571Y-102438571D01*
X153471428Y-102470000D01*
X153502857Y-102501428D01*
X153534285Y-102564285D01*
X153534285Y-102627142D01*
X153502857Y-102721428D01*
X153125714Y-103098571D01*
X153534285Y-103098571D01*
X153785714Y-102501428D02*
X153817142Y-102470000D01*
X153880000Y-102438571D01*
X154037142Y-102438571D01*
X154100000Y-102470000D01*
X154131428Y-102501428D01*
X154162857Y-102564285D01*
X154162857Y-102627142D01*
X154131428Y-102721428D01*
X153754285Y-103098571D01*
X154162857Y-103098571D01*
%TO.C,R20*%
X145355714Y-103158571D02*
X145135714Y-102844285D01*
X144978571Y-103158571D02*
X144978571Y-102498571D01*
X145230000Y-102498571D01*
X145292857Y-102530000D01*
X145324285Y-102561428D01*
X145355714Y-102624285D01*
X145355714Y-102718571D01*
X145324285Y-102781428D01*
X145292857Y-102812857D01*
X145230000Y-102844285D01*
X144978571Y-102844285D01*
X145607142Y-102561428D02*
X145638571Y-102530000D01*
X145701428Y-102498571D01*
X145858571Y-102498571D01*
X145921428Y-102530000D01*
X145952857Y-102561428D01*
X145984285Y-102624285D01*
X145984285Y-102687142D01*
X145952857Y-102781428D01*
X145575714Y-103158571D01*
X145984285Y-103158571D01*
X146392857Y-102498571D02*
X146455714Y-102498571D01*
X146518571Y-102530000D01*
X146550000Y-102561428D01*
X146581428Y-102624285D01*
X146612857Y-102750000D01*
X146612857Y-102907142D01*
X146581428Y-103032857D01*
X146550000Y-103095714D01*
X146518571Y-103127142D01*
X146455714Y-103158571D01*
X146392857Y-103158571D01*
X146330000Y-103127142D01*
X146298571Y-103095714D01*
X146267142Y-103032857D01*
X146235714Y-102907142D01*
X146235714Y-102750000D01*
X146267142Y-102624285D01*
X146298571Y-102561428D01*
X146330000Y-102530000D01*
X146392857Y-102498571D01*
%TO.C,D8*%
X123282857Y-112798571D02*
X123282857Y-112138571D01*
X123440000Y-112138571D01*
X123534285Y-112170000D01*
X123597142Y-112232857D01*
X123628571Y-112295714D01*
X123660000Y-112421428D01*
X123660000Y-112515714D01*
X123628571Y-112641428D01*
X123597142Y-112704285D01*
X123534285Y-112767142D01*
X123440000Y-112798571D01*
X123282857Y-112798571D01*
X124037142Y-112421428D02*
X123974285Y-112390000D01*
X123942857Y-112358571D01*
X123911428Y-112295714D01*
X123911428Y-112264285D01*
X123942857Y-112201428D01*
X123974285Y-112170000D01*
X124037142Y-112138571D01*
X124162857Y-112138571D01*
X124225714Y-112170000D01*
X124257142Y-112201428D01*
X124288571Y-112264285D01*
X124288571Y-112295714D01*
X124257142Y-112358571D01*
X124225714Y-112390000D01*
X124162857Y-112421428D01*
X124037142Y-112421428D01*
X123974285Y-112452857D01*
X123942857Y-112484285D01*
X123911428Y-112547142D01*
X123911428Y-112672857D01*
X123942857Y-112735714D01*
X123974285Y-112767142D01*
X124037142Y-112798571D01*
X124162857Y-112798571D01*
X124225714Y-112767142D01*
X124257142Y-112735714D01*
X124288571Y-112672857D01*
X124288571Y-112547142D01*
X124257142Y-112484285D01*
X124225714Y-112452857D01*
X124162857Y-112421428D01*
%TO.C,R6*%
X114060000Y-116078571D02*
X113840000Y-115764285D01*
X113682857Y-116078571D02*
X113682857Y-115418571D01*
X113934285Y-115418571D01*
X113997142Y-115450000D01*
X114028571Y-115481428D01*
X114060000Y-115544285D01*
X114060000Y-115638571D01*
X114028571Y-115701428D01*
X113997142Y-115732857D01*
X113934285Y-115764285D01*
X113682857Y-115764285D01*
X114625714Y-115418571D02*
X114500000Y-115418571D01*
X114437142Y-115450000D01*
X114405714Y-115481428D01*
X114342857Y-115575714D01*
X114311428Y-115701428D01*
X114311428Y-115952857D01*
X114342857Y-116015714D01*
X114374285Y-116047142D01*
X114437142Y-116078571D01*
X114562857Y-116078571D01*
X114625714Y-116047142D01*
X114657142Y-116015714D01*
X114688571Y-115952857D01*
X114688571Y-115795714D01*
X114657142Y-115732857D01*
X114625714Y-115701428D01*
X114562857Y-115670000D01*
X114437142Y-115670000D01*
X114374285Y-115701428D01*
X114342857Y-115732857D01*
X114311428Y-115795714D01*
%TO.C,D7*%
X138098482Y-125636071D02*
X138098482Y-124976071D01*
X138255625Y-124976071D01*
X138349910Y-125007500D01*
X138412767Y-125070357D01*
X138444196Y-125133214D01*
X138475625Y-125258928D01*
X138475625Y-125353214D01*
X138444196Y-125478928D01*
X138412767Y-125541785D01*
X138349910Y-125604642D01*
X138255625Y-125636071D01*
X138098482Y-125636071D01*
X138695625Y-124976071D02*
X139135625Y-124976071D01*
X138852767Y-125636071D01*
D14*
%TO.C,C2*%
X114200000Y-87654285D02*
X114171428Y-87682857D01*
X114085714Y-87711428D01*
X114028571Y-87711428D01*
X113942857Y-87682857D01*
X113885714Y-87625714D01*
X113857142Y-87568571D01*
X113828571Y-87454285D01*
X113828571Y-87368571D01*
X113857142Y-87254285D01*
X113885714Y-87197142D01*
X113942857Y-87140000D01*
X114028571Y-87111428D01*
X114085714Y-87111428D01*
X114171428Y-87140000D01*
X114200000Y-87168571D01*
X114428571Y-87168571D02*
X114457142Y-87140000D01*
X114514285Y-87111428D01*
X114657142Y-87111428D01*
X114714285Y-87140000D01*
X114742857Y-87168571D01*
X114771428Y-87225714D01*
X114771428Y-87282857D01*
X114742857Y-87368571D01*
X114400000Y-87711428D01*
X114771428Y-87711428D01*
D10*
%TO.C,J6*%
X110960000Y-96321428D02*
X110960000Y-96750000D01*
X110931428Y-96835714D01*
X110874285Y-96892857D01*
X110788571Y-96921428D01*
X110731428Y-96921428D01*
X111502857Y-96321428D02*
X111388571Y-96321428D01*
X111331428Y-96350000D01*
X111302857Y-96378571D01*
X111245714Y-96464285D01*
X111217142Y-96578571D01*
X111217142Y-96807142D01*
X111245714Y-96864285D01*
X111274285Y-96892857D01*
X111331428Y-96921428D01*
X111445714Y-96921428D01*
X111502857Y-96892857D01*
X111531428Y-96864285D01*
X111560000Y-96807142D01*
X111560000Y-96664285D01*
X111531428Y-96607142D01*
X111502857Y-96578571D01*
X111445714Y-96550000D01*
X111331428Y-96550000D01*
X111274285Y-96578571D01*
X111245714Y-96607142D01*
X111217142Y-96664285D01*
D13*
%TO.C,D5*%
X133108482Y-125586071D02*
X133108482Y-124926071D01*
X133265625Y-124926071D01*
X133359910Y-124957500D01*
X133422767Y-125020357D01*
X133454196Y-125083214D01*
X133485625Y-125208928D01*
X133485625Y-125303214D01*
X133454196Y-125428928D01*
X133422767Y-125491785D01*
X133359910Y-125554642D01*
X133265625Y-125586071D01*
X133108482Y-125586071D01*
X134082767Y-124926071D02*
X133768482Y-124926071D01*
X133737053Y-125240357D01*
X133768482Y-125208928D01*
X133831339Y-125177500D01*
X133988482Y-125177500D01*
X134051339Y-125208928D01*
X134082767Y-125240357D01*
X134114196Y-125303214D01*
X134114196Y-125460357D01*
X134082767Y-125523214D01*
X134051339Y-125554642D01*
X133988482Y-125586071D01*
X133831339Y-125586071D01*
X133768482Y-125554642D01*
X133737053Y-125523214D01*
%TO.C,R17*%
X158010714Y-103098571D02*
X157790714Y-102784285D01*
X157633571Y-103098571D02*
X157633571Y-102438571D01*
X157885000Y-102438571D01*
X157947857Y-102470000D01*
X157979285Y-102501428D01*
X158010714Y-102564285D01*
X158010714Y-102658571D01*
X157979285Y-102721428D01*
X157947857Y-102752857D01*
X157885000Y-102784285D01*
X157633571Y-102784285D01*
X158639285Y-103098571D02*
X158262142Y-103098571D01*
X158450714Y-103098571D02*
X158450714Y-102438571D01*
X158387857Y-102532857D01*
X158325000Y-102595714D01*
X158262142Y-102627142D01*
X158859285Y-102438571D02*
X159299285Y-102438571D01*
X159016428Y-103098571D01*
D11*
%TO.C,J4*%
X110925000Y-91421428D02*
X110925000Y-91850000D01*
X110896428Y-91935714D01*
X110839285Y-91992857D01*
X110753571Y-92021428D01*
X110696428Y-92021428D01*
X111467857Y-91621428D02*
X111467857Y-92021428D01*
X111325000Y-91392857D02*
X111182142Y-91821428D01*
X111553571Y-91821428D01*
D13*
%TO.C,C5*%
X153835714Y-124420000D02*
X153867142Y-124451428D01*
X153898571Y-124545714D01*
X153898571Y-124608571D01*
X153867142Y-124702857D01*
X153804285Y-124765714D01*
X153741428Y-124797142D01*
X153615714Y-124828571D01*
X153521428Y-124828571D01*
X153395714Y-124797142D01*
X153332857Y-124765714D01*
X153270000Y-124702857D01*
X153238571Y-124608571D01*
X153238571Y-124545714D01*
X153270000Y-124451428D01*
X153301428Y-124420000D01*
X153238571Y-123822857D02*
X153238571Y-124137142D01*
X153552857Y-124168571D01*
X153521428Y-124137142D01*
X153490000Y-124074285D01*
X153490000Y-123917142D01*
X153521428Y-123854285D01*
X153552857Y-123822857D01*
X153615714Y-123791428D01*
X153772857Y-123791428D01*
X153835714Y-123822857D01*
X153867142Y-123854285D01*
X153898571Y-123917142D01*
X153898571Y-124074285D01*
X153867142Y-124137142D01*
X153835714Y-124168571D01*
%TO.C,D9*%
X148730357Y-125656071D02*
X148730357Y-124996071D01*
X148887500Y-124996071D01*
X148981785Y-125027500D01*
X149044642Y-125090357D01*
X149076071Y-125153214D01*
X149107500Y-125278928D01*
X149107500Y-125373214D01*
X149076071Y-125498928D01*
X149044642Y-125561785D01*
X148981785Y-125624642D01*
X148887500Y-125656071D01*
X148730357Y-125656071D01*
X149421785Y-125656071D02*
X149547500Y-125656071D01*
X149610357Y-125624642D01*
X149641785Y-125593214D01*
X149704642Y-125498928D01*
X149736071Y-125373214D01*
X149736071Y-125121785D01*
X149704642Y-125058928D01*
X149673214Y-125027500D01*
X149610357Y-124996071D01*
X149484642Y-124996071D01*
X149421785Y-125027500D01*
X149390357Y-125058928D01*
X149358928Y-125121785D01*
X149358928Y-125278928D01*
X149390357Y-125341785D01*
X149421785Y-125373214D01*
X149484642Y-125404642D01*
X149610357Y-125404642D01*
X149673214Y-125373214D01*
X149704642Y-125341785D01*
X149736071Y-125278928D01*
D14*
%TO.C,U2*%
X113672857Y-89821428D02*
X113672857Y-90307142D01*
X113701428Y-90364285D01*
X113730000Y-90392857D01*
X113787142Y-90421428D01*
X113901428Y-90421428D01*
X113958571Y-90392857D01*
X113987142Y-90364285D01*
X114015714Y-90307142D01*
X114015714Y-89821428D01*
X114272857Y-89878571D02*
X114301428Y-89850000D01*
X114358571Y-89821428D01*
X114501428Y-89821428D01*
X114558571Y-89850000D01*
X114587142Y-89878571D01*
X114615714Y-89935714D01*
X114615714Y-89992857D01*
X114587142Y-90078571D01*
X114244285Y-90421428D01*
X114615714Y-90421428D01*
D13*
%TO.C,R23*%
X135105714Y-103158571D02*
X134885714Y-102844285D01*
X134728571Y-103158571D02*
X134728571Y-102498571D01*
X134980000Y-102498571D01*
X135042857Y-102530000D01*
X135074285Y-102561428D01*
X135105714Y-102624285D01*
X135105714Y-102718571D01*
X135074285Y-102781428D01*
X135042857Y-102812857D01*
X134980000Y-102844285D01*
X134728571Y-102844285D01*
X135357142Y-102561428D02*
X135388571Y-102530000D01*
X135451428Y-102498571D01*
X135608571Y-102498571D01*
X135671428Y-102530000D01*
X135702857Y-102561428D01*
X135734285Y-102624285D01*
X135734285Y-102687142D01*
X135702857Y-102781428D01*
X135325714Y-103158571D01*
X135734285Y-103158571D01*
X135954285Y-102498571D02*
X136362857Y-102498571D01*
X136142857Y-102750000D01*
X136237142Y-102750000D01*
X136300000Y-102781428D01*
X136331428Y-102812857D01*
X136362857Y-102875714D01*
X136362857Y-103032857D01*
X136331428Y-103095714D01*
X136300000Y-103127142D01*
X136237142Y-103158571D01*
X136048571Y-103158571D01*
X135985714Y-103127142D01*
X135954285Y-103095714D01*
%TO.C,R18*%
X155435714Y-103098571D02*
X155215714Y-102784285D01*
X155058571Y-103098571D02*
X155058571Y-102438571D01*
X155310000Y-102438571D01*
X155372857Y-102470000D01*
X155404285Y-102501428D01*
X155435714Y-102564285D01*
X155435714Y-102658571D01*
X155404285Y-102721428D01*
X155372857Y-102752857D01*
X155310000Y-102784285D01*
X155058571Y-102784285D01*
X156064285Y-103098571D02*
X155687142Y-103098571D01*
X155875714Y-103098571D02*
X155875714Y-102438571D01*
X155812857Y-102532857D01*
X155750000Y-102595714D01*
X155687142Y-102627142D01*
X156441428Y-102721428D02*
X156378571Y-102690000D01*
X156347142Y-102658571D01*
X156315714Y-102595714D01*
X156315714Y-102564285D01*
X156347142Y-102501428D01*
X156378571Y-102470000D01*
X156441428Y-102438571D01*
X156567142Y-102438571D01*
X156630000Y-102470000D01*
X156661428Y-102501428D01*
X156692857Y-102564285D01*
X156692857Y-102595714D01*
X156661428Y-102658571D01*
X156630000Y-102690000D01*
X156567142Y-102721428D01*
X156441428Y-102721428D01*
X156378571Y-102752857D01*
X156347142Y-102784285D01*
X156315714Y-102847142D01*
X156315714Y-102972857D01*
X156347142Y-103035714D01*
X156378571Y-103067142D01*
X156441428Y-103098571D01*
X156567142Y-103098571D01*
X156630000Y-103067142D01*
X156661428Y-103035714D01*
X156692857Y-102972857D01*
X156692857Y-102847142D01*
X156661428Y-102784285D01*
X156630000Y-102752857D01*
X156567142Y-102721428D01*
%TO.C,R14*%
X125588571Y-118734285D02*
X125274285Y-118954285D01*
X125588571Y-119111428D02*
X124928571Y-119111428D01*
X124928571Y-118860000D01*
X124960000Y-118797142D01*
X124991428Y-118765714D01*
X125054285Y-118734285D01*
X125148571Y-118734285D01*
X125211428Y-118765714D01*
X125242857Y-118797142D01*
X125274285Y-118860000D01*
X125274285Y-119111428D01*
X125588571Y-118105714D02*
X125588571Y-118482857D01*
X125588571Y-118294285D02*
X124928571Y-118294285D01*
X125022857Y-118357142D01*
X125085714Y-118420000D01*
X125117142Y-118482857D01*
X125148571Y-117540000D02*
X125588571Y-117540000D01*
X124897142Y-117697142D02*
X125368571Y-117854285D01*
X125368571Y-117445714D01*
%TO.C,R3*%
X114060000Y-103468571D02*
X113840000Y-103154285D01*
X113682857Y-103468571D02*
X113682857Y-102808571D01*
X113934285Y-102808571D01*
X113997142Y-102840000D01*
X114028571Y-102871428D01*
X114060000Y-102934285D01*
X114060000Y-103028571D01*
X114028571Y-103091428D01*
X113997142Y-103122857D01*
X113934285Y-103154285D01*
X113682857Y-103154285D01*
X114280000Y-102808571D02*
X114688571Y-102808571D01*
X114468571Y-103060000D01*
X114562857Y-103060000D01*
X114625714Y-103091428D01*
X114657142Y-103122857D01*
X114688571Y-103185714D01*
X114688571Y-103342857D01*
X114657142Y-103405714D01*
X114625714Y-103437142D01*
X114562857Y-103468571D01*
X114374285Y-103468571D01*
X114311428Y-103437142D01*
X114280000Y-103405714D01*
%TO.C,D10*%
X143494196Y-125676071D02*
X143494196Y-125016071D01*
X143651339Y-125016071D01*
X143745625Y-125047500D01*
X143808482Y-125110357D01*
X143839910Y-125173214D01*
X143871339Y-125298928D01*
X143871339Y-125393214D01*
X143839910Y-125518928D01*
X143808482Y-125581785D01*
X143745625Y-125644642D01*
X143651339Y-125676071D01*
X143494196Y-125676071D01*
X144499910Y-125676071D02*
X144122767Y-125676071D01*
X144311339Y-125676071D02*
X144311339Y-125016071D01*
X144248482Y-125110357D01*
X144185625Y-125173214D01*
X144122767Y-125204642D01*
X144908482Y-125016071D02*
X144971339Y-125016071D01*
X145034196Y-125047500D01*
X145065625Y-125078928D01*
X145097053Y-125141785D01*
X145128482Y-125267500D01*
X145128482Y-125424642D01*
X145097053Y-125550357D01*
X145065625Y-125613214D01*
X145034196Y-125644642D01*
X144971339Y-125676071D01*
X144908482Y-125676071D01*
X144845625Y-125644642D01*
X144814196Y-125613214D01*
X144782767Y-125550357D01*
X144751339Y-125424642D01*
X144751339Y-125267500D01*
X144782767Y-125141785D01*
X144814196Y-125078928D01*
X144845625Y-125047500D01*
X144908482Y-125016071D01*
%TO.C,J2*%
X121200000Y-89978571D02*
X121200000Y-90450000D01*
X121168571Y-90544285D01*
X121105714Y-90607142D01*
X121011428Y-90638571D01*
X120948571Y-90638571D01*
X121482857Y-90041428D02*
X121514285Y-90010000D01*
X121577142Y-89978571D01*
X121734285Y-89978571D01*
X121797142Y-90010000D01*
X121828571Y-90041428D01*
X121860000Y-90104285D01*
X121860000Y-90167142D01*
X121828571Y-90261428D01*
X121451428Y-90638571D01*
X121860000Y-90638571D01*
%TO.C,R1*%
X114060000Y-101028571D02*
X113840000Y-100714285D01*
X113682857Y-101028571D02*
X113682857Y-100368571D01*
X113934285Y-100368571D01*
X113997142Y-100400000D01*
X114028571Y-100431428D01*
X114060000Y-100494285D01*
X114060000Y-100588571D01*
X114028571Y-100651428D01*
X113997142Y-100682857D01*
X113934285Y-100714285D01*
X113682857Y-100714285D01*
X114688571Y-101028571D02*
X114311428Y-101028571D01*
X114500000Y-101028571D02*
X114500000Y-100368571D01*
X114437142Y-100462857D01*
X114374285Y-100525714D01*
X114311428Y-100557142D01*
%TO.C,J5*%
X166755000Y-84618571D02*
X166755000Y-85090000D01*
X166723571Y-85184285D01*
X166660714Y-85247142D01*
X166566428Y-85278571D01*
X166503571Y-85278571D01*
X167383571Y-84618571D02*
X167069285Y-84618571D01*
X167037857Y-84932857D01*
X167069285Y-84901428D01*
X167132142Y-84870000D01*
X167289285Y-84870000D01*
X167352142Y-84901428D01*
X167383571Y-84932857D01*
X167415000Y-84995714D01*
X167415000Y-85152857D01*
X167383571Y-85215714D01*
X167352142Y-85247142D01*
X167289285Y-85278571D01*
X167132142Y-85278571D01*
X167069285Y-85247142D01*
X167037857Y-85215714D01*
%TO.C,L1*%
X161880000Y-119338571D02*
X161565714Y-119338571D01*
X161565714Y-118678571D01*
X162445714Y-119338571D02*
X162068571Y-119338571D01*
X162257142Y-119338571D02*
X162257142Y-118678571D01*
X162194285Y-118772857D01*
X162131428Y-118835714D01*
X162068571Y-118867142D01*
%TO.C,R13*%
X140215714Y-103158571D02*
X139995714Y-102844285D01*
X139838571Y-103158571D02*
X139838571Y-102498571D01*
X140090000Y-102498571D01*
X140152857Y-102530000D01*
X140184285Y-102561428D01*
X140215714Y-102624285D01*
X140215714Y-102718571D01*
X140184285Y-102781428D01*
X140152857Y-102812857D01*
X140090000Y-102844285D01*
X139838571Y-102844285D01*
X140844285Y-103158571D02*
X140467142Y-103158571D01*
X140655714Y-103158571D02*
X140655714Y-102498571D01*
X140592857Y-102592857D01*
X140530000Y-102655714D01*
X140467142Y-102687142D01*
X141064285Y-102498571D02*
X141472857Y-102498571D01*
X141252857Y-102750000D01*
X141347142Y-102750000D01*
X141410000Y-102781428D01*
X141441428Y-102812857D01*
X141472857Y-102875714D01*
X141472857Y-103032857D01*
X141441428Y-103095714D01*
X141410000Y-103127142D01*
X141347142Y-103158571D01*
X141158571Y-103158571D01*
X141095714Y-103127142D01*
X141064285Y-103095714D01*
%TO.C,R7*%
X114060000Y-108618571D02*
X113840000Y-108304285D01*
X113682857Y-108618571D02*
X113682857Y-107958571D01*
X113934285Y-107958571D01*
X113997142Y-107990000D01*
X114028571Y-108021428D01*
X114060000Y-108084285D01*
X114060000Y-108178571D01*
X114028571Y-108241428D01*
X113997142Y-108272857D01*
X113934285Y-108304285D01*
X113682857Y-108304285D01*
X114280000Y-107958571D02*
X114720000Y-107958571D01*
X114437142Y-108618571D01*
%TO.C,D6*%
X123282857Y-108588571D02*
X123282857Y-107928571D01*
X123440000Y-107928571D01*
X123534285Y-107960000D01*
X123597142Y-108022857D01*
X123628571Y-108085714D01*
X123660000Y-108211428D01*
X123660000Y-108305714D01*
X123628571Y-108431428D01*
X123597142Y-108494285D01*
X123534285Y-108557142D01*
X123440000Y-108588571D01*
X123282857Y-108588571D01*
X124225714Y-107928571D02*
X124100000Y-107928571D01*
X124037142Y-107960000D01*
X124005714Y-107991428D01*
X123942857Y-108085714D01*
X123911428Y-108211428D01*
X123911428Y-108462857D01*
X123942857Y-108525714D01*
X123974285Y-108557142D01*
X124037142Y-108588571D01*
X124162857Y-108588571D01*
X124225714Y-108557142D01*
X124257142Y-108525714D01*
X124288571Y-108462857D01*
X124288571Y-108305714D01*
X124257142Y-108242857D01*
X124225714Y-108211428D01*
X124162857Y-108180000D01*
X124037142Y-108180000D01*
X123974285Y-108211428D01*
X123942857Y-108242857D01*
X123911428Y-108305714D01*
%TO.C,R2*%
X114060000Y-111298571D02*
X113840000Y-110984285D01*
X113682857Y-111298571D02*
X113682857Y-110638571D01*
X113934285Y-110638571D01*
X113997142Y-110670000D01*
X114028571Y-110701428D01*
X114060000Y-110764285D01*
X114060000Y-110858571D01*
X114028571Y-110921428D01*
X113997142Y-110952857D01*
X113934285Y-110984285D01*
X113682857Y-110984285D01*
X114311428Y-110701428D02*
X114342857Y-110670000D01*
X114405714Y-110638571D01*
X114562857Y-110638571D01*
X114625714Y-110670000D01*
X114657142Y-110701428D01*
X114688571Y-110764285D01*
X114688571Y-110827142D01*
X114657142Y-110921428D01*
X114280000Y-111298571D01*
X114688571Y-111298571D01*
%TO.C,R19*%
X150345714Y-103098571D02*
X150125714Y-102784285D01*
X149968571Y-103098571D02*
X149968571Y-102438571D01*
X150220000Y-102438571D01*
X150282857Y-102470000D01*
X150314285Y-102501428D01*
X150345714Y-102564285D01*
X150345714Y-102658571D01*
X150314285Y-102721428D01*
X150282857Y-102752857D01*
X150220000Y-102784285D01*
X149968571Y-102784285D01*
X150974285Y-103098571D02*
X150597142Y-103098571D01*
X150785714Y-103098571D02*
X150785714Y-102438571D01*
X150722857Y-102532857D01*
X150660000Y-102595714D01*
X150597142Y-102627142D01*
X151288571Y-103098571D02*
X151414285Y-103098571D01*
X151477142Y-103067142D01*
X151508571Y-103035714D01*
X151571428Y-102941428D01*
X151602857Y-102815714D01*
X151602857Y-102564285D01*
X151571428Y-102501428D01*
X151540000Y-102470000D01*
X151477142Y-102438571D01*
X151351428Y-102438571D01*
X151288571Y-102470000D01*
X151257142Y-102501428D01*
X151225714Y-102564285D01*
X151225714Y-102721428D01*
X151257142Y-102784285D01*
X151288571Y-102815714D01*
X151351428Y-102847142D01*
X151477142Y-102847142D01*
X151540000Y-102815714D01*
X151571428Y-102784285D01*
X151602857Y-102721428D01*
%TO.C,R4*%
X114060000Y-113628571D02*
X113840000Y-113314285D01*
X113682857Y-113628571D02*
X113682857Y-112968571D01*
X113934285Y-112968571D01*
X113997142Y-113000000D01*
X114028571Y-113031428D01*
X114060000Y-113094285D01*
X114060000Y-113188571D01*
X114028571Y-113251428D01*
X113997142Y-113282857D01*
X113934285Y-113314285D01*
X113682857Y-113314285D01*
X114625714Y-113188571D02*
X114625714Y-113628571D01*
X114468571Y-112937142D02*
X114311428Y-113408571D01*
X114720000Y-113408571D01*
%TO.C,R15*%
X132565714Y-103158571D02*
X132345714Y-102844285D01*
X132188571Y-103158571D02*
X132188571Y-102498571D01*
X132440000Y-102498571D01*
X132502857Y-102530000D01*
X132534285Y-102561428D01*
X132565714Y-102624285D01*
X132565714Y-102718571D01*
X132534285Y-102781428D01*
X132502857Y-102812857D01*
X132440000Y-102844285D01*
X132188571Y-102844285D01*
X133194285Y-103158571D02*
X132817142Y-103158571D01*
X133005714Y-103158571D02*
X133005714Y-102498571D01*
X132942857Y-102592857D01*
X132880000Y-102655714D01*
X132817142Y-102687142D01*
X133791428Y-102498571D02*
X133477142Y-102498571D01*
X133445714Y-102812857D01*
X133477142Y-102781428D01*
X133540000Y-102750000D01*
X133697142Y-102750000D01*
X133760000Y-102781428D01*
X133791428Y-102812857D01*
X133822857Y-102875714D01*
X133822857Y-103032857D01*
X133791428Y-103095714D01*
X133760000Y-103127142D01*
X133697142Y-103158571D01*
X133540000Y-103158571D01*
X133477142Y-103127142D01*
X133445714Y-103095714D01*
%TO.C,D1*%
X123282857Y-116968571D02*
X123282857Y-116308571D01*
X123440000Y-116308571D01*
X123534285Y-116340000D01*
X123597142Y-116402857D01*
X123628571Y-116465714D01*
X123660000Y-116591428D01*
X123660000Y-116685714D01*
X123628571Y-116811428D01*
X123597142Y-116874285D01*
X123534285Y-116937142D01*
X123440000Y-116968571D01*
X123282857Y-116968571D01*
X124288571Y-116968571D02*
X123911428Y-116968571D01*
X124100000Y-116968571D02*
X124100000Y-116308571D01*
X124037142Y-116402857D01*
X123974285Y-116465714D01*
X123911428Y-116497142D01*
%TO.C,D3*%
X123282857Y-121038571D02*
X123282857Y-120378571D01*
X123440000Y-120378571D01*
X123534285Y-120410000D01*
X123597142Y-120472857D01*
X123628571Y-120535714D01*
X123660000Y-120661428D01*
X123660000Y-120755714D01*
X123628571Y-120881428D01*
X123597142Y-120944285D01*
X123534285Y-121007142D01*
X123440000Y-121038571D01*
X123282857Y-121038571D01*
X123880000Y-120378571D02*
X124288571Y-120378571D01*
X124068571Y-120630000D01*
X124162857Y-120630000D01*
X124225714Y-120661428D01*
X124257142Y-120692857D01*
X124288571Y-120755714D01*
X124288571Y-120912857D01*
X124257142Y-120975714D01*
X124225714Y-121007142D01*
X124162857Y-121038571D01*
X123974285Y-121038571D01*
X123911428Y-121007142D01*
X123880000Y-120975714D01*
D12*
%TO.C,D4*%
X119917500Y-102455000D02*
X120567500Y-102455000D01*
X119917500Y-105575000D02*
X121592500Y-105575000D01*
X119917500Y-105575000D02*
X119267500Y-105575000D01*
X119917500Y-102455000D02*
X119267500Y-102455000D01*
%TO.C,R9*%
X111782742Y-124142500D02*
X112257258Y-124142500D01*
X111782742Y-123097500D02*
X112257258Y-123097500D01*
%TO.C,R21*%
X137562500Y-97387742D02*
X137562500Y-97862258D01*
X138607500Y-97387742D02*
X138607500Y-97862258D01*
%TO.C,R16*%
X142642500Y-97387742D02*
X142642500Y-97862258D01*
X143687500Y-97387742D02*
X143687500Y-97862258D01*
%TO.C,C1*%
X165085000Y-121298748D02*
X165085000Y-121821252D01*
X163615000Y-121298748D02*
X163615000Y-121821252D01*
%TO.C,D2*%
X119917500Y-98260000D02*
X120567500Y-98260000D01*
X119917500Y-101380000D02*
X119267500Y-101380000D01*
X119917500Y-101380000D02*
X121592500Y-101380000D01*
X119917500Y-98260000D02*
X119267500Y-98260000D01*
%TO.C,J3*%
X159660000Y-95330000D02*
X121500000Y-95330000D01*
X160930000Y-92670000D02*
X162260000Y-92670000D01*
X121500000Y-92670000D02*
X121500000Y-95330000D01*
X159660000Y-92670000D02*
X121500000Y-92670000D01*
X159660000Y-92670000D02*
X159660000Y-95330000D01*
X162260000Y-92670000D02*
X162260000Y-94000000D01*
%TO.C,R10*%
X111782742Y-121602500D02*
X112257258Y-121602500D01*
X111782742Y-120557500D02*
X112257258Y-120557500D01*
%TO.C,C3*%
X116413733Y-93320000D02*
X116706267Y-93320000D01*
X116413733Y-92300000D02*
X116706267Y-92300000D01*
D10*
%TO.C,U1*%
X129703000Y-107510000D02*
X134275000Y-107510000D01*
X162215000Y-99890000D02*
X162215000Y-117670000D01*
X157135000Y-112590000D02*
X162215000Y-112590000D01*
X162215000Y-104970000D02*
X163485000Y-104970000D01*
X162215000Y-117670000D02*
X126655000Y-117670000D01*
X139990000Y-113860000D02*
X150150000Y-113860000D01*
X157135000Y-104970000D02*
X157135000Y-112590000D01*
X150150000Y-113860000D02*
X150150000Y-103700000D01*
X134275000Y-110050000D02*
X129703000Y-110050000D01*
X139355000Y-113860000D02*
X136815000Y-113860000D01*
X139355000Y-110685000D02*
X139355000Y-113860000D01*
X126655000Y-99890000D02*
X162215000Y-99890000D01*
X139990000Y-103700000D02*
X139990000Y-113860000D01*
X129703000Y-110050000D02*
X129703000Y-107510000D01*
X126655000Y-117670000D02*
X126655000Y-99890000D01*
X136815000Y-113860000D02*
X136815000Y-110685000D01*
X157135000Y-104970000D02*
X162215000Y-104970000D01*
X163485000Y-104970000D02*
X163485000Y-112590000D01*
X139990000Y-103700000D02*
X150150000Y-103700000D01*
X136815000Y-110685000D02*
X139355000Y-110685000D01*
X163485000Y-112590000D02*
X162215000Y-112590000D01*
G36*
X147610000Y-109415000D02*
G01*
X147356000Y-109669000D01*
X147102000Y-109288000D01*
X147356000Y-109034000D01*
X147610000Y-109415000D01*
G37*
D13*
X147610000Y-109415000D02*
X147356000Y-109669000D01*
X147102000Y-109288000D01*
X147356000Y-109034000D01*
X147610000Y-109415000D01*
G36*
X148372000Y-108653000D02*
G01*
X148118000Y-108907000D01*
X147864000Y-108526000D01*
X148118000Y-108272000D01*
X148372000Y-108653000D01*
G37*
X148372000Y-108653000D02*
X148118000Y-108907000D01*
X147864000Y-108526000D01*
X148118000Y-108272000D01*
X148372000Y-108653000D01*
G36*
X146467000Y-108780000D02*
G01*
X146213000Y-109034000D01*
X145959000Y-108653000D01*
X146213000Y-108399000D01*
X146467000Y-108780000D01*
G37*
X146467000Y-108780000D02*
X146213000Y-109034000D01*
X145959000Y-108653000D01*
X146213000Y-108399000D01*
X146467000Y-108780000D01*
G36*
X147229000Y-108907000D02*
G01*
X146975000Y-109161000D01*
X146721000Y-108780000D01*
X146975000Y-108526000D01*
X147229000Y-108907000D01*
G37*
X147229000Y-108907000D02*
X146975000Y-109161000D01*
X146721000Y-108780000D01*
X146975000Y-108526000D01*
X147229000Y-108907000D01*
G36*
X147991000Y-109034000D02*
G01*
X147737000Y-109288000D01*
X147483000Y-108907000D01*
X147737000Y-108653000D01*
X147991000Y-109034000D01*
G37*
X147991000Y-109034000D02*
X147737000Y-109288000D01*
X147483000Y-108907000D01*
X147737000Y-108653000D01*
X147991000Y-109034000D01*
G36*
X146848000Y-109288000D02*
G01*
X146594000Y-109542000D01*
X146340000Y-109161000D01*
X146594000Y-108907000D01*
X146848000Y-109288000D01*
G37*
X146848000Y-109288000D02*
X146594000Y-109542000D01*
X146340000Y-109161000D01*
X146594000Y-108907000D01*
X146848000Y-109288000D01*
G36*
X146848000Y-108399000D02*
G01*
X146594000Y-108653000D01*
X146340000Y-108272000D01*
X146594000Y-108018000D01*
X146848000Y-108399000D01*
G37*
X146848000Y-108399000D02*
X146594000Y-108653000D01*
X146340000Y-108272000D01*
X146594000Y-108018000D01*
X146848000Y-108399000D01*
G36*
X146086000Y-108272000D02*
G01*
X145832000Y-108526000D01*
X145578000Y-108145000D01*
X145832000Y-107891000D01*
X146086000Y-108272000D01*
G37*
X146086000Y-108272000D02*
X145832000Y-108526000D01*
X145578000Y-108145000D01*
X145832000Y-107891000D01*
X146086000Y-108272000D01*
D12*
%TO.C,R11*%
X156377500Y-121542742D02*
X156377500Y-122017258D01*
X157422500Y-121542742D02*
X157422500Y-122017258D01*
%TO.C,R8*%
X111782742Y-118017500D02*
X112257258Y-118017500D01*
X111782742Y-119062500D02*
X112257258Y-119062500D01*
%TO.C,R12*%
X130987500Y-97387742D02*
X130987500Y-97862258D01*
X129942500Y-97387742D02*
X129942500Y-97862258D01*
%TO.C,J1*%
X107270000Y-100770000D02*
X107270000Y-98170000D01*
X104670000Y-98170000D02*
X106000000Y-98170000D01*
X104670000Y-99500000D02*
X104670000Y-98170000D01*
X104670000Y-100770000D02*
X104670000Y-123690000D01*
X104670000Y-100770000D02*
X107270000Y-100770000D01*
X109870000Y-98170000D02*
X109870000Y-123690000D01*
X104670000Y-123690000D02*
X109870000Y-123690000D01*
X107270000Y-98170000D02*
X109870000Y-98170000D01*
%TO.C,R5*%
X111782742Y-106362500D02*
X112257258Y-106362500D01*
X111782742Y-105317500D02*
X112257258Y-105317500D01*
%TO.C,R22*%
X153832500Y-97387742D02*
X153832500Y-97862258D01*
X152787500Y-97387742D02*
X152787500Y-97862258D01*
%TO.C,R20*%
X145182500Y-97387742D02*
X145182500Y-97862258D01*
X146227500Y-97387742D02*
X146227500Y-97862258D01*
%TO.C,D8*%
X119917500Y-110845000D02*
X120567500Y-110845000D01*
X119917500Y-113965000D02*
X119267500Y-113965000D01*
X119917500Y-110845000D02*
X119267500Y-110845000D01*
X119917500Y-113965000D02*
X121592500Y-113965000D01*
%TO.C,R6*%
X111782742Y-115477500D02*
X112257258Y-115477500D01*
X111782742Y-116522500D02*
X112257258Y-116522500D01*
%TO.C,D7*%
X135590000Y-122557500D02*
X135590000Y-121907500D01*
X135590000Y-122557500D02*
X135590000Y-123207500D01*
X138710000Y-122557500D02*
X138710000Y-120882500D01*
X138710000Y-122557500D02*
X138710000Y-123207500D01*
%TO.C,C2*%
X116413733Y-87970000D02*
X116706267Y-87970000D01*
X116413733Y-86950000D02*
X116706267Y-86950000D01*
%TO.C,J6*%
X107270000Y-93920000D02*
X109870000Y-93920000D01*
X109870000Y-96580000D02*
X109870000Y-93920000D01*
X104670000Y-96580000D02*
X104670000Y-95250000D01*
X107270000Y-96580000D02*
X109870000Y-96580000D01*
X106000000Y-96580000D02*
X104670000Y-96580000D01*
X107270000Y-96580000D02*
X107270000Y-93920000D01*
%TO.C,D5*%
X130590000Y-122507500D02*
X130590000Y-121857500D01*
X130590000Y-122507500D02*
X130590000Y-123157500D01*
X133710000Y-122507500D02*
X133710000Y-120832500D01*
X133710000Y-122507500D02*
X133710000Y-123157500D01*
%TO.C,R17*%
X157882500Y-97387742D02*
X157882500Y-97862258D01*
X158927500Y-97387742D02*
X158927500Y-97862258D01*
D15*
%TO.C,J4*%
X104190000Y-90790000D02*
X104190000Y-84190000D01*
X111560000Y-90790000D02*
X104190000Y-90790000D01*
X111560000Y-84190000D02*
X111560000Y-90790000D01*
X104190000Y-84190000D02*
X111560000Y-84190000D01*
D16*
X112255000Y-88250000D02*
G75*
G03*
X112255000Y-88250000I-100000J0D01*
G01*
D12*
%TO.C,C5*%
X155485000Y-121961252D02*
X155485000Y-121438748D01*
X154015000Y-121961252D02*
X154015000Y-121438748D01*
%TO.C,D9*%
X149130000Y-122607500D02*
X149130000Y-123257500D01*
X149130000Y-122607500D02*
X149130000Y-120932500D01*
X146010000Y-122607500D02*
X146010000Y-121957500D01*
X146010000Y-122607500D02*
X146010000Y-123257500D01*
%TO.C,U2*%
X116840000Y-88600000D02*
X116040000Y-88600000D01*
X116840000Y-91720000D02*
X116040000Y-91720000D01*
X116840000Y-88600000D02*
X117640000Y-88600000D01*
X116840000Y-91720000D02*
X118640000Y-91720000D01*
%TO.C,R23*%
X135007500Y-97387742D02*
X135007500Y-97862258D01*
X136052500Y-97387742D02*
X136052500Y-97862258D01*
%TO.C,R18*%
X156372500Y-97387742D02*
X156372500Y-97862258D01*
X155327500Y-97387742D02*
X155327500Y-97862258D01*
%TO.C,R14*%
X125672500Y-115352742D02*
X125672500Y-115827258D01*
X124627500Y-115352742D02*
X124627500Y-115827258D01*
%TO.C,R3*%
X111782742Y-103822500D02*
X112257258Y-103822500D01*
X111782742Y-102777500D02*
X112257258Y-102777500D01*
%TO.C,D10*%
X143950000Y-122597500D02*
X143950000Y-120922500D01*
X140830000Y-122597500D02*
X140830000Y-123247500D01*
X140830000Y-122597500D02*
X140830000Y-121947500D01*
X143950000Y-122597500D02*
X143950000Y-123247500D01*
%TO.C,J2*%
X124100000Y-86670000D02*
X121500000Y-86670000D01*
X121500000Y-86670000D02*
X121500000Y-84070000D01*
X124100000Y-89270000D02*
X147020000Y-89270000D01*
X122830000Y-89270000D02*
X121500000Y-89270000D01*
X147020000Y-89270000D02*
X147020000Y-84070000D01*
X121500000Y-84070000D02*
X147020000Y-84070000D01*
X121500000Y-89270000D02*
X121500000Y-87940000D01*
X124100000Y-89270000D02*
X124100000Y-86670000D01*
%TO.C,R1*%
X111782742Y-100237500D02*
X112257258Y-100237500D01*
X111782742Y-101282500D02*
X112257258Y-101282500D01*
D15*
%TO.C,J5*%
X158440000Y-84190000D02*
X165810000Y-84190000D01*
X165810000Y-90790000D02*
X158440000Y-90790000D01*
X158440000Y-90790000D02*
X158440000Y-84190000D01*
X165810000Y-84190000D02*
X165810000Y-90790000D01*
D16*
X166505000Y-88250000D02*
G75*
G03*
X166505000Y-88250000I-100000J0D01*
G01*
D12*
%TO.C,L1*%
X162720000Y-120000000D02*
X162720000Y-124000000D01*
X158520000Y-120000000D02*
X158520000Y-124000000D01*
%TO.C,R13*%
X141147500Y-97387742D02*
X141147500Y-97862258D01*
X140102500Y-97387742D02*
X140102500Y-97862258D01*
%TO.C,R7*%
X111782742Y-108902500D02*
X112257258Y-108902500D01*
X111782742Y-107857500D02*
X112257258Y-107857500D01*
%TO.C,D6*%
X119917500Y-109770000D02*
X119267500Y-109770000D01*
X119917500Y-106650000D02*
X119267500Y-106650000D01*
X119917500Y-109770000D02*
X121592500Y-109770000D01*
X119917500Y-106650000D02*
X120567500Y-106650000D01*
%TO.C,R2*%
X111782742Y-110397500D02*
X112257258Y-110397500D01*
X111782742Y-111442500D02*
X112257258Y-111442500D01*
%TO.C,R19*%
X150247500Y-97387742D02*
X150247500Y-97862258D01*
X151292500Y-97387742D02*
X151292500Y-97862258D01*
%TO.C,R4*%
X111782742Y-112937500D02*
X112257258Y-112937500D01*
X111782742Y-113982500D02*
X112257258Y-113982500D01*
%TO.C,R15*%
X132482500Y-97387742D02*
X132482500Y-97862258D01*
X133527500Y-97387742D02*
X133527500Y-97862258D01*
%TO.C,D1*%
X119917500Y-118240000D02*
X119267500Y-118240000D01*
X119917500Y-115120000D02*
X120567500Y-115120000D01*
X119917500Y-118240000D02*
X121592500Y-118240000D01*
X119917500Y-115120000D02*
X119267500Y-115120000D01*
%TO.C,D3*%
X119872500Y-122480000D02*
X119222500Y-122480000D01*
X119872500Y-122480000D02*
X121547500Y-122480000D01*
X119872500Y-119360000D02*
X119222500Y-119360000D01*
X119872500Y-119360000D02*
X120522500Y-119360000D01*
%TD*%
M02*
