%TF.GenerationSoftware,KiCad,Pcbnew,6.0.11-3.fc37*%
%TF.CreationDate,2024-04-07T15:32:32-04:00*%
%TF.ProjectId,Controller_T4,436f6e74-726f-46c6-9c65-725f54342e6b,rev?*%
%TF.SameCoordinates,Original*%
%TF.FileFunction,Copper,L4,Bot*%
%TF.FilePolarity,Positive*%
%FSLAX46Y46*%
G04 Gerber Fmt 4.6, Leading zero omitted, Abs format (unit mm)*
G04 Created by KiCad (PCBNEW 6.0.11-3.fc37) date 2024-04-07 15:32:32*
%MOMM*%
%LPD*%
G01*
G04 APERTURE LIST*
%TA.AperFunction,ComponentPad*%
%ADD10R,1.700000X1.700000*%
%TD*%
%TA.AperFunction,ComponentPad*%
%ADD11O,1.700000X1.700000*%
%TD*%
%TA.AperFunction,ComponentPad*%
%ADD12C,1.600000*%
%TD*%
%TA.AperFunction,ComponentPad*%
%ADD13R,1.755000X1.755000*%
%TD*%
%TA.AperFunction,ComponentPad*%
%ADD14C,1.755000*%
%TD*%
%TA.AperFunction,ViaPad*%
%ADD15C,0.800000*%
%TD*%
%TA.AperFunction,ViaPad*%
%ADD16C,1.000000*%
%TD*%
%TA.AperFunction,Conductor*%
%ADD17C,0.250000*%
%TD*%
%TA.AperFunction,Conductor*%
%ADD18C,0.500000*%
%TD*%
G04 APERTURE END LIST*
D10*
%TO.P,J3,1,Pin_1*%
%TO.N,Earth*%
X160945000Y-94000000D03*
D11*
%TO.P,J3,2,Pin_2*%
%TO.N,Net-(J3-Pad2)*%
X158390000Y-94000000D03*
%TO.P,J3,3,Pin_3*%
%TO.N,Net-(J3-Pad3)*%
X155850000Y-94000000D03*
%TO.P,J3,4,Pin_4*%
%TO.N,Net-(J3-Pad4)*%
X153310000Y-94000000D03*
%TO.P,J3,5,Pin_5*%
%TO.N,Net-(J3-Pad5)*%
X150770000Y-94000000D03*
%TO.P,J3,6,Pin_6*%
%TO.N,Earth*%
X148230000Y-94000000D03*
%TO.P,J3,7,Pin_7*%
%TO.N,CCD:CLK*%
X145690000Y-94000000D03*
%TO.P,J3,8,Pin_8*%
%TO.N,CCD:ICG*%
X143150000Y-94000000D03*
%TO.P,J3,9,Pin_9*%
%TO.N,CCD:SH*%
X140610000Y-94000000D03*
%TO.P,J3,10,Pin_10*%
%TO.N,CCD:SPR*%
X138070000Y-94000000D03*
%TO.P,J3,11,Pin_11*%
%TO.N,Net-(J3-Pad11)*%
X135530000Y-94000000D03*
%TO.P,J3,12,Pin_12*%
%TO.N,SPI:CS_CNVST*%
X132990000Y-94000000D03*
%TO.P,J3,13,Pin_13*%
%TO.N,SPI:SDO*%
X130450000Y-94000000D03*
%TO.P,J3,14,Pin_14*%
%TO.N,SPI:CLK*%
X127910000Y-94000000D03*
%TO.P,J3,15,Pin_15*%
%TO.N,SPI:SDI*%
X125370000Y-94000000D03*
%TO.P,J3,16,Pin_16*%
%TO.N,Earth*%
X122830000Y-94000000D03*
%TD*%
D12*
%TO.P,U1,1,GND*%
%TO.N,Earth*%
X160945000Y-101160000D03*
%TO.P,U1,2,0_RX1_CRX2_CS1*%
%TO.N,Net-(R17-Pad2)*%
X158405000Y-101160000D03*
%TO.P,U1,3,1_TX1_CTX2_MISO1*%
%TO.N,Net-(R18-Pad2)*%
X155865000Y-101160000D03*
%TO.P,U1,4,2_OUT2*%
%TO.N,Net-(R22-Pad2)*%
X153325000Y-101160000D03*
%TO.P,U1,5,3_LRCLK2*%
%TO.N,Net-(R19-Pad2)*%
X150785000Y-101160000D03*
%TO.P,U1,6,4_BCLK2*%
%TO.N,Net-(R20-Pad2)*%
X148245000Y-101160000D03*
%TO.P,U1,7,5_IN2*%
X145705000Y-101160000D03*
%TO.P,U1,8,6_OUT1D*%
%TO.N,Net-(R16-Pad2)*%
X143165000Y-101160000D03*
%TO.P,U1,9,7_RX2_OUT1A*%
%TO.N,Net-(R13-Pad2)*%
X140625000Y-101160000D03*
%TO.P,U1,10,8_TX2_IN1*%
%TO.N,Net-(R21-Pad2)*%
X138085000Y-101160000D03*
%TO.P,U1,11,9_OUT1C*%
%TO.N,Net-(R23-Pad2)*%
X135545000Y-101160000D03*
%TO.P,U1,12,10_CS_MQSR*%
%TO.N,Net-(R15-Pad2)*%
X133005000Y-101160000D03*
%TO.P,U1,13,11_MOSI_CTX1*%
%TO.N,Net-(R12-Pad2)*%
X130465000Y-101160000D03*
%TO.P,U1,14,12_MISO_MQSL*%
%TO.N,SPI:SDO*%
X127925000Y-101160000D03*
%TO.P,U1,15,VBAT*%
%TO.N,unconnected-(U1-Pad15)*%
X127925000Y-103700000D03*
%TO.P,U1,16,3V3*%
%TO.N,unconnected-(U1-Pad16)*%
X127925000Y-106240000D03*
%TO.P,U1,17,GND*%
%TO.N,unconnected-(U1-Pad17)*%
X127925000Y-108780000D03*
%TO.P,U1,18,PROGRAM*%
%TO.N,unconnected-(U1-Pad18)*%
X127925000Y-111320000D03*
%TO.P,U1,19,ON_OFF*%
%TO.N,unconnected-(U1-Pad19)*%
X127925000Y-113860000D03*
%TO.P,U1,20,13_SCK_CRX1_LED*%
%TO.N,Net-(R14-Pad2)*%
X127925000Y-116400000D03*
%TO.P,U1,21,14_A0_TX3_SPDIF_OUT*%
%TO.N,Net-(D2-Pad3)*%
X130465000Y-116400000D03*
%TO.P,U1,22,15_A1_RX3_SPDIF_IN*%
%TO.N,Net-(D4-Pad3)*%
X133005000Y-116400000D03*
%TO.P,U1,23,16_A2_RX4_SCL1*%
%TO.N,Net-(D6-Pad3)*%
X135545000Y-116400000D03*
%TO.P,U1,24,17_A3_TX4_SDA1*%
%TO.N,Net-(D8-Pad3)*%
X138085000Y-116400000D03*
%TO.P,U1,25,18_A4_SDA0*%
%TO.N,Net-(D1-Pad3)*%
X140625000Y-116400000D03*
%TO.P,U1,26,19_A5_SCL0*%
%TO.N,Net-(D3-Pad3)*%
X143165000Y-116400000D03*
%TO.P,U1,27,20_A6_TX5_LRCLK1*%
%TO.N,Net-(D5-Pad3)*%
X145705000Y-116400000D03*
%TO.P,U1,28,21_A7_RX5_BCLK1*%
%TO.N,Net-(D7-Pad3)*%
X148245000Y-116400000D03*
%TO.P,U1,29,22_A8_CTX1*%
%TO.N,Net-(D10-Pad3)*%
X150785000Y-116400000D03*
%TO.P,U1,30,23_A9_CRX1_MCLK1*%
%TO.N,Net-(D9-Pad3)*%
X153325000Y-116400000D03*
%TO.P,U1,31,3V3*%
%TO.N,+3.3V*%
X155865000Y-116400000D03*
%TO.P,U1,32,GND*%
%TO.N,Earth*%
X158405000Y-116400000D03*
%TO.P,U1,33,VIN*%
%TO.N,Net-(C1-Pad1)*%
X160945000Y-116400000D03*
%TD*%
D10*
%TO.P,J1,1,Pin_1*%
%TO.N,Net-(J1-Pad1)*%
X106000000Y-99500000D03*
D11*
%TO.P,J1,2,Pin_2*%
%TO.N,Earth*%
X108540000Y-99500000D03*
%TO.P,J1,3,Pin_3*%
%TO.N,Net-(J1-Pad3)*%
X106000000Y-102040000D03*
%TO.P,J1,4,Pin_4*%
%TO.N,Earth*%
X108540000Y-102040000D03*
%TO.P,J1,5,Pin_5*%
%TO.N,Net-(J1-Pad5)*%
X106000000Y-104580000D03*
%TO.P,J1,6,Pin_6*%
%TO.N,Earth*%
X108540000Y-104580000D03*
%TO.P,J1,7,Pin_7*%
%TO.N,Net-(J1-Pad7)*%
X106000000Y-107120000D03*
%TO.P,J1,8,Pin_8*%
%TO.N,Earth*%
X108540000Y-107120000D03*
%TO.P,J1,9,Pin_9*%
%TO.N,Net-(J1-Pad9)*%
X106000000Y-109660000D03*
%TO.P,J1,10,Pin_10*%
%TO.N,Earth*%
X108540000Y-109660000D03*
%TO.P,J1,11,Pin_11*%
%TO.N,Net-(J1-Pad11)*%
X106000000Y-112200000D03*
%TO.P,J1,12,Pin_12*%
%TO.N,Earth*%
X108540000Y-112200000D03*
%TO.P,J1,13,Pin_13*%
%TO.N,Net-(J1-Pad13)*%
X106000000Y-114740000D03*
%TO.P,J1,14,Pin_14*%
%TO.N,Earth*%
X108540000Y-114740000D03*
%TO.P,J1,15,Pin_15*%
%TO.N,Net-(J1-Pad15)*%
X106000000Y-117280000D03*
%TO.P,J1,16,Pin_16*%
%TO.N,Earth*%
X108540000Y-117280000D03*
%TO.P,J1,17,Pin_17*%
%TO.N,Net-(J1-Pad17)*%
X106000000Y-119820000D03*
%TO.P,J1,18,Pin_18*%
%TO.N,Earth*%
X108540000Y-119820000D03*
%TO.P,J1,19,Pin_19*%
%TO.N,Net-(J1-Pad19)*%
X106000000Y-122360000D03*
%TO.P,J1,20,Pin_20*%
%TO.N,Earth*%
X108540000Y-122360000D03*
%TD*%
D10*
%TO.P,J6,1,Pin_1*%
%TO.N,/Vrefout*%
X106000000Y-95250000D03*
D11*
%TO.P,J6,2,Pin_2*%
%TO.N,Earth*%
X108540000Y-95250000D03*
%TD*%
D13*
%TO.P,J4,1,1*%
%TO.N,+3.3V*%
X109145000Y-88250000D03*
D14*
%TO.P,J4,2,2*%
%TO.N,Earth*%
X106605000Y-88250000D03*
%TD*%
D10*
%TO.P,J2,1,Pin_1*%
%TO.N,+3.3V*%
X122830000Y-87940000D03*
D11*
%TO.P,J2,2,Pin_2*%
%TO.N,Earth*%
X122830000Y-85400000D03*
%TO.P,J2,3,Pin_3*%
%TO.N,SPI:SDI*%
X125370000Y-87940000D03*
%TO.P,J2,4,Pin_4*%
%TO.N,Earth*%
X125370000Y-85400000D03*
%TO.P,J2,5,Pin_5*%
%TO.N,SPI:CLK*%
X127910000Y-87940000D03*
%TO.P,J2,6,Pin_6*%
%TO.N,Earth*%
X127910000Y-85400000D03*
%TO.P,J2,7,Pin_7*%
%TO.N,SPI:SDO*%
X130450000Y-87940000D03*
%TO.P,J2,8,Pin_8*%
%TO.N,Earth*%
X130450000Y-85400000D03*
%TO.P,J2,9,Pin_9*%
%TO.N,SPI:CS_CNVST*%
X132990000Y-87940000D03*
%TO.P,J2,10,Pin_10*%
%TO.N,Earth*%
X132990000Y-85400000D03*
%TO.P,J2,11,Pin_11*%
%TO.N,+3.3V*%
X135530000Y-87940000D03*
%TO.P,J2,12,Pin_12*%
%TO.N,Earth*%
X135530000Y-85400000D03*
%TO.P,J2,13,Pin_13*%
%TO.N,CCD:SPR*%
X138070000Y-87940000D03*
%TO.P,J2,14,Pin_14*%
%TO.N,Earth*%
X138070000Y-85400000D03*
%TO.P,J2,15,Pin_15*%
%TO.N,CCD:SH*%
X140610000Y-87940000D03*
%TO.P,J2,16,Pin_16*%
%TO.N,Earth*%
X140610000Y-85400000D03*
%TO.P,J2,17,Pin_17*%
%TO.N,CCD:ICG*%
X143150000Y-87940000D03*
%TO.P,J2,18,Pin_18*%
%TO.N,Earth*%
X143150000Y-85400000D03*
%TO.P,J2,19,Pin_19*%
%TO.N,CCD:CLK*%
X145690000Y-87940000D03*
%TO.P,J2,20,Pin_20*%
%TO.N,Earth*%
X145690000Y-85400000D03*
%TD*%
D13*
%TO.P,J5,1,1*%
%TO.N,+5V*%
X163395000Y-88250000D03*
D14*
%TO.P,J5,2,2*%
%TO.N,Earth*%
X160855000Y-88250000D03*
%TD*%
D15*
%TO.N,Net-(D2-Pad3)*%
X130475000Y-103975000D03*
X117357500Y-99885000D03*
%TO.N,Earth*%
X143341875Y-120157500D03*
D16*
X154760000Y-119350000D03*
D15*
X122337500Y-104970000D03*
X122337500Y-117600000D03*
X148511875Y-120147500D03*
X138111875Y-120007500D03*
X122337500Y-100770000D03*
X118720000Y-87460000D03*
X118720000Y-92810000D03*
X122337500Y-113370000D03*
D16*
X164340000Y-123930000D03*
D15*
X122310000Y-121850000D03*
X133101875Y-120077500D03*
X119330000Y-90150000D03*
X122337500Y-109140000D03*
%TO.N,Net-(D4-Pad3)*%
X133000000Y-105500000D03*
X117357500Y-104010000D03*
%TO.N,Net-(D6-Pad3)*%
X117357500Y-108235000D03*
X135420000Y-107490000D03*
%TO.N,Net-(D8-Pad3)*%
X138085000Y-110055000D03*
X117357500Y-112425000D03*
D16*
%TO.N,+5V*%
X154780000Y-124440000D03*
X115670000Y-86110000D03*
X156500000Y-86000000D03*
D15*
%TO.N,+3.3V*%
X141445625Y-120147500D03*
X146610000Y-120157500D03*
X122337500Y-111510000D03*
X136203750Y-120077500D03*
X122337500Y-103100000D03*
X131181875Y-120017500D03*
X122322500Y-119980000D03*
X122337500Y-98930000D03*
X122337500Y-107290000D03*
X122337500Y-115680000D03*
%TO.N,Net-(D1-Pad3)*%
X140625000Y-112605000D03*
X117357500Y-116690000D03*
%TO.N,Net-(D5-Pad3)*%
X112860000Y-117200000D03*
X132181875Y-125007500D03*
%TO.N,Net-(D7-Pad3)*%
X112850000Y-119740000D03*
X137163750Y-125057500D03*
%TO.N,SPI:CLK*%
X125150000Y-100140000D03*
%TD*%
D17*
%TO.N,Net-(D2-Pad3)*%
X118285000Y-99885000D02*
X117357500Y-99885000D01*
X120310000Y-101910000D02*
X118285000Y-99885000D01*
X130475000Y-103975000D02*
X128930000Y-102430000D01*
X126070000Y-101910000D02*
X120310000Y-101910000D01*
X126590000Y-102430000D02*
X126070000Y-101910000D01*
X128930000Y-102430000D02*
X126590000Y-102430000D01*
%TO.N,Net-(D4-Pad3)*%
X126620000Y-104960000D02*
X125670000Y-104010000D01*
X129540000Y-105510000D02*
X128990000Y-104960000D01*
X125670000Y-104010000D02*
X117357500Y-104010000D01*
X133000000Y-105500000D02*
X132990000Y-105510000D01*
X132990000Y-105510000D02*
X129540000Y-105510000D01*
X128990000Y-104960000D02*
X126620000Y-104960000D01*
%TO.N,Net-(D6-Pad3)*%
X126400000Y-107490000D02*
X125655000Y-108235000D01*
X135420000Y-107490000D02*
X126400000Y-107490000D01*
X125655000Y-108235000D02*
X117357500Y-108235000D01*
%TO.N,Net-(D8-Pad3)*%
X125250000Y-110050000D02*
X122875000Y-112425000D01*
X122875000Y-112425000D02*
X117357500Y-112425000D01*
X138085000Y-110055000D02*
X136775000Y-110055000D01*
X136775000Y-110055000D02*
X136770000Y-110050000D01*
X136770000Y-110050000D02*
X125250000Y-110050000D01*
D18*
%TO.N,+5V*%
X153750000Y-83250000D02*
X156500000Y-86000000D01*
X118640000Y-83250000D02*
X118530000Y-83250000D01*
X118640000Y-83250000D02*
X153750000Y-83250000D01*
X118530000Y-83250000D02*
X115670000Y-86110000D01*
D17*
%TO.N,Net-(D1-Pad3)*%
X127120000Y-112590000D02*
X123020000Y-116690000D01*
X123020000Y-116690000D02*
X117357500Y-116690000D01*
X140610000Y-112590000D02*
X127120000Y-112590000D01*
X140625000Y-112605000D02*
X140610000Y-112590000D01*
%TO.N,Net-(D5-Pad3)*%
X134580000Y-122609375D02*
X134580000Y-119480000D01*
X116670000Y-118740000D02*
X125914375Y-118740000D01*
X132181875Y-125007500D02*
X134580000Y-122609375D01*
X145705000Y-117475000D02*
X145705000Y-116400000D01*
X112860000Y-117200000D02*
X115130000Y-117200000D01*
X125914375Y-118740000D02*
X132181875Y-125007500D01*
X136050000Y-118010000D02*
X145170000Y-118010000D01*
X115130000Y-117200000D02*
X116670000Y-118740000D01*
X145170000Y-118010000D02*
X145705000Y-117475000D01*
X134580000Y-119480000D02*
X136050000Y-118010000D01*
%TO.N,Net-(D7-Pad3)*%
X147520000Y-118840000D02*
X148245000Y-118115000D01*
X139930000Y-119610000D02*
X140700000Y-118840000D01*
X115170000Y-119740000D02*
X115850000Y-120420000D01*
X148245000Y-118115000D02*
X148245000Y-116400000D01*
X140700000Y-118840000D02*
X147520000Y-118840000D01*
X115850000Y-120420000D02*
X115850000Y-122190000D01*
X115850000Y-122190000D02*
X115820000Y-122220000D01*
X135831250Y-126390000D02*
X137163750Y-125057500D01*
X112850000Y-119740000D02*
X115170000Y-119740000D01*
X115820000Y-122220000D02*
X119990000Y-126390000D01*
X137163750Y-125057500D02*
X139930000Y-122291250D01*
X139930000Y-122291250D02*
X139930000Y-119610000D01*
X119990000Y-126390000D02*
X135831250Y-126390000D01*
%TO.N,SPI:CLK*%
X127910000Y-96360000D02*
X127910000Y-94000000D01*
X125150000Y-99120000D02*
X127910000Y-96360000D01*
X125150000Y-100140000D02*
X125150000Y-99120000D01*
%TO.N,SPI:SDO*%
X130450000Y-97020000D02*
X130450000Y-94000000D01*
X127925000Y-99545000D02*
X130450000Y-97020000D01*
X127925000Y-101160000D02*
X127925000Y-99545000D01*
%TD*%
M02*
